/* XPM */
static char * mini_door_xpm[] = {
"64 64 255 2",
"  	c #290800",
". 	c #27120B",
"+ 	c #31110A",
"@ 	c #2A1407",
"# 	c #2D1310",
"$ 	c #26160E",
"% 	c #2A1510",
"& 	c #2F140B",
"* 	c #341306",
"= 	c #2C160B",
"- 	c #321710",
"; 	c #301908",
"> 	c #2B1A0F",
", 	c #2F190F",
"' 	c #35190C",
") 	c #361B06",
"! 	c #2F1D0C",
"~ 	c #2E1D12",
"{ 	c #331C0D",
"] 	c #321C12",
"^ 	c #381C15",
"/ 	c #351E10",
"( 	c #341E15",
"_ 	c #3A1D11",
": 	c #371F0B",
"< 	c #3B1E0D",
"[ 	c #371F12",
"} 	c #332111",
"| 	c #322116",
"1 	c #3A2100",
"2 	c #382113",
"3 	c #3A220F",
"4 	c #38240F",
"5 	c #3A2315",
"6 	c #3A231A",
"7 	c #402211",
"8 	c #3F2216",
"9 	c #382515",
"0 	c #37251A",
"a 	c #3D2412",
"b 	c #3D2517",
"c 	c #3B2813",
"d 	c #402714",
"e 	c #3F2719",
"f 	c #3E2908",
"g 	c #452615",
"h 	c #3D2A1A",
"i 	c #422916",
"j 	c #41291B",
"k 	c #442A12",
"l 	c #452B18",
"m 	c #442B1D",
"n 	c #412D18",
"o 	c #412E1D",
"p 	c #492F1B",
"q 	c #453120",
"r 	c #4B3018",
"s 	c #493022",
"t 	c #42331B",
"u 	c #46321C",
"v 	c #4B311E",
"w 	c #4D3214",
"x 	c #473323",
"y 	c #4A3520",
"z 	c #4F3421",
"A 	c #4E3426",
"B 	c #4B361B",
"C 	c #50351C",
"D 	c #4B3726",
"E 	c #4C3822",
"F 	c #483927",
"G 	c #4D3928",
"H 	c #54381F",
"I 	c #533824",
"J 	c #4F3A24",
"K 	c #563B27",
"L 	c #523D27",
"M 	c #5A3D24",
"N 	c #553F23",
"O 	c #553F29",
"P 	c #593E29",
"Q 	c #55402F",
"R 	c #544326",
"S 	c #5A4328",
"T 	c #59432D",
"U 	c #5E4228",
"V 	c #5D422D",
"W 	c #56452D",
"X 	c #5D462A",
"Y 	c #5C462F",
"Z 	c #5F4726",
"` 	c #63462C",
" .	c #60482D",
"..	c #634732",
"+.	c #5A4A31",
"@.	c #5C4A2D",
"#.	c #5F4932",
"$.	c #654934",
"%.	c #634B2F",
"&.	c #624B35",
"*.	c #684B31",
"=.	c #5F4E36",
"-.	c #6B4C2D",
";.	c #654E32",
">.	c #654E37",
",.	c #685034",
"'.	c #675039",
").	c #6D4F35",
"!.	c #645234",
"~.	c #6B5230",
"{.	c #6A5236",
"].	c #6C5437",
"^.	c #715338",
"/.	c #735334",
"(.	c #6C553E",
"_.	c #6A5739",
":.	c #6F5634",
"<.	c #6E5639",
"[.	c #70573B",
"}.	c #72593D",
"|.	c #77583D",
"1.	c #745A38",
"2.	c #725A43",
"3.	c #795939",
"4.	c #6F5C3D",
"5.	c #755C3F",
"6.	c #705E45",
"7.	c #7B5C41",
"8.	c #775E41",
"9.	c #765E47",
"0.	c #736041",
"a.	c #795F3C",
"b.	c #7E5E3D",
"c.	c #7B613F",
"d.	c #77633F",
"e.	c #7B6245",
"f.	c #786546",
"g.	c #7D6447",
"h.	c #7F6442",
"i.	c #846343",
"j.	c #7B6642",
"k.	c #836845",
"l.	c #82684B",
"m.	c #886746",
"n.	c #7F6A46",
"o.	c #7E6B4B",
"p.	c #736E6A",
"q.	c #866B48",
"r.	c #856B4E",
"s.	c #886D4A",
"t.	c #8E6C45",
"u.	c #856F44",
"v.	c #8A6E46",
"w.	c #896E51",
"x.	c #85704B",
"y.	c #847051",
"z.	c #8B704D",
"A.	c #916F4E",
"B.	c #8E724F",
"C.	c #887454",
"D.	c #90734A",
"E.	c #8E7355",
"F.	c #8A7550",
"G.	c #96734C",
"H.	c #907551",
"I.	c #917658",
"J.	c #87786E",
"K.	c #937754",
"L.	c #8F794E",
"M.	c #8D7959",
"N.	c #94784E",
"O.	c #8F7A54",
"P.	c #957956",
"Q.	c #947D52",
"R.	c #997C52",
"S.	c #987C58",
"T.	c #9F7B54",
"U.	c #957F5A",
"V.	c #8E7F75",
"W.	c #9B7E5B",
"X.	c #9C7F55",
"Y.	c #A0804B",
"Z.	c #9F8158",
"`.	c #9E815D",
" +	c #9B8358",
".+	c #A2824D",
"++	c #A7814E",
"@+	c #9A845E",
"#+	c #A78255",
"$+	c #A5854F",
"%+	c #A3855B",
"&+	c #A28561",
"*+	c #AA8451",
"=+	c #A68650",
"-+	c #A58657",
";+	c #9F885C",
">+	c #9E8862",
",+	c #A78751",
"'+	c #A88852",
")+	c #A5885E",
"!+	c #A58864",
"~+	c #A2896A",
"{+	c #A98953",
"]+	c #A88959",
"^+	c #B08956",
"/+	c #A48C60",
"(+	c #AB8B55",
"_+	c #A78B66",
":+	c #AA8B5B",
"<+	c #A98B60",
"[+	c #A38D66",
"}+	c #AC8C56",
"|+	c #AB8C5C",
"1+	c #A68E62",
"2+	c #AD8D57",
"3+	c #AE8E58",
"4+	c #AE8E5E",
"5+	c #AD8E64",
"6+	c #A89064",
"7+	c #AD8F6B",
"8+	c #A7916A",
"9+	c #B1905A",
"0+	c #AA9266",
"a+	c #B19161",
"b+	c #B09267",
"c+	c #B3925C",
"d+	c #AB9467",
"e+	c #B1936E",
"f+	c #B3946A",
"g+	c #AE966A",
"h+	c #B49564",
"i+	c #AE9770",
"j+	c #B0986C",
"k+	c #AB9983",
"l+	c #B29A6D",
"m+	c #B19A73",
"n+	c #B79974",
"o+	c #B89A6F",
"p+	c #BA9A69",
"q+	c #B69C6A",
"r+	c #B59D70",
"s+	c #B89F72",
"t+	c #BE9E6D",
"u+	c #B7A387",
"v+	c #BCA78B",
"w+	c #BFA887",
"x+	c #C3A88E",
"y+	c #C1AC90",
"z+	c #C6AF8D",
"A+	c #CBB9A9",
"B+	c #CABFAC",
"C+	c #C5C0BF",
"D+	c #D3C8B5",
"E+	c #DFD7CC",
"F+	c #FBFCF9",
".+,+.+=+.+.+.+{+{+{+$+{+$+{+(+{+{+.+{+:+}+9+5+P.[.z d 5 5 2 2 5 e b b 2 2 5 j u ;.q.$+{+(+{+{+.+$+{+(+{+{+.+{+:+}+9+,+.+=+.+.+.+",
"{+{+$+.+Y.'+{+=+.+'+$+$+{+(+{+{+.+{+:+}+9+`.{.J m 8 / e E N  .;.].]. .M z e 2 2 b x &.z.$+{+(+$+{+(+{+{+.+{+:+}+9+{+{+$+.+Y.'+{+",
"{+{+.+$+.+$+{+$+$+=+$+{+(+{+{+.+{+:+}+9+q.>.d ' _ l ,.y.@+@+`.`.&+!+;+ +U.z.}.P a & 5 T 8.U.$+{+(+{+{+.+{+:+}+9+{+{+{+.+$+.+$+{+",
".+=+$+=+'+=+(+$+,+$+{+(+{+{+.+{+:+}+9+8.I * < S e.w.K.[+l+g+d+b+n+l+j+g+d+6+Z.K.l.&.7 ' m (.O.$+{+(+{+{+.+{+:+}+9+.+=+$+=+'+=+(+",
"=+{+(+Y.]+'+:+.+$+{+(+{+{+.+{+:+}+9+^.d ' I }.B.!+7+8+i+l+i+6+0+i+m+g+0+0+g+d+l+5+P.8.O 2 : ,.W.$+{+(+{+{+.+{+:+}+9+{+(+Y.]+'+:+",
"{+$+,+.+'+*+'+$+{+(+{+{+.+{+:+}+9+%.m b O l.1+j+0+[+8+m+m+f+5+b+i+i+d+5+5+f+o+l+g+g+b+q.Y m e #.@+$+{+(+{+{+.+{+:+}+9+,+.+'+*+'+",
"(+'+.+=+(+'+$+{+(+{+{+.+{+:+}+9+%.d b  .O.d+g+r+j+d+5+i+n+e+5+5+7+7+7+5+5+b+l+n+f+5+5+8+P.'.e m &.@+$+{+(+{+{+.+{+:+}+9+=+(+'+{+",
"=+$+$+$+=+$+{+(+{+{+.+{+:+}+9+5.d 2  .U.g+l+s+s+g+5+_+_+`.E.e.}.5.8.8.e.B.!+o+l+5+5+b+d+5+P.[.e j [.@+$+{+(+{+{+.+{+:+}+9+=+$+=+",
"$+=+=+.+$+{+(+{+{+.+{+:+}+9+h.y / O O.g+l+j+r+s+f+W.k.e.(.P i ) : a d p Y e.P.)+5+5+f+l+g+5+P.%.m l l.[+$+{+(+{+{+.+{+:+}+9+}+$+",
"$+'+$+$+{+(+{+{+.+{+:+}+9+a.L ' L r.0+j+g+d+b+b+`.e.r : : ; @ @ & = , , = : N h.W.)+d+r+j+g+5+z.L [ #.H.$+{+(+{+{+.+{+:+}+9+'+{+",
"$+2+$+{+(+{+{+.+{+:+}+9+s.S d u g.8+d+r+g+)+!+K.{.l { [ / ; ; ; { / { , , { [ d ,.K.b+d+l+g+5+/+[.p b 0.$+{+(+{+{+.+{+:+}+9+(+3+",
"=+$+{+(+{+{+.+{+:+}+9+K.q.J : 5.>+d+l+j+d+&+h.T p 3 { { / 9 n B N Y p { ; ' ' { d ,.S.7+b+5+5+5+K. .'  .K.$+{+(+{+{+.+{+:+}+9+=+",
",+$+{+(+{+{+.+{+:+}+9+z. .h p E.f+0+g+i+!+k.E a : ; ; { 9 ].e.a.8.E.'.l z J : { / n <.`.5+5+5+5+6+8.l y a.$+{+(+{+{+.+{+:+}+9+$+",
"$+$+{+(+{+{+.+{+:+}+9+w.l 9 5.!+r+j+f+7+E.O { / : 3 d 3 h l.K.q.l.~+9.H 5.I.[.q ; ; u k.)+b+b+j+l+B.T e %./+$+{+(+{+{+.+{+:+}+9+",
"-+$+{+(+{+{+.+{+:+}+9+r.n y W.j+r+l+f+W.].: / : T %.S l p q.P.q.l.&+e.S r.7+W.>.2 ; a U `.f+g+o+o+`.].[ O U.$+{+(+{+{+.+{+:+}+9+",
"=+$+{+(+{+{+.+{+:+}+9+[.n X [+s+i+e+5+8.l 2 a J F.L.1.z z k.P.s.e.&+g.S e.!+_+r.O 2 b u z.5+f+e+7+&+8./ o c.;+$+{+(+{+{+.+{+:+}+",
".+Y.$+=+$+{+(+$+}+'+B.E n 1.)+r+n+e+s.O < 2 y q.0+@+{.K E q.W.z.5.S.5.H 8.!+[+@+5.d e j #.S.f+5+5+)+k.l b %.@+d+.+.+Y.$+=+$+{+(+",
"Y.$+=+=+$+,+'+=+2+{+k.d E B.g+s+n+e+{.d : : X %+j+U.%.z u k.W.B.8.U.5.C [.`.!+!+o.p 2 2 d g.%+)+7+b+B.H / J O.1+$+Y.$+=+=+$+,+'+",
"$+{+.+:+]+{+=+{+}+{+c./ O Z.f+r+e+I.L d a B a.1+g+O.X p n c.O.z.a.@+e.H }.%+!+%+q.O : { @ X B.5+b+l+`.;.2 u O./+(+$+{+.+:+]+{+=+",
",+$+Y.}+}+(+{+'+'+'+,.{ #.<+f+f+W.S n i d S u./+d+F.N z u 0.F.k.5.>+n.U 8./+/+`.s.%.l { , n e.5+b+j+/+e.h y F.1+=+,+$+Y.}+}+(+{+",
"'+$+(+{+}+(+(+=+,+(+T a {.5+o+!+8.c n i d X u./+0+F.S T E f.F.h.].@+n. .e.1+[+!+B.[. .h 9 2 [.!+5+b+)+k.o o q./+$+'+$+(+{+}+(+(+",
"(+Y.{+$+,+(+=+{+{+{+E n 1.5+f+B.u 2 b b l X k.;+0+B.%.,.O n.O.h.,.@+k.U 0./+_+`.s.a.h.y 0 ~ T K.1+6+%+k.b [ ].Q.{+(+Y.{+$+,+(+=+",
"$+.+'+{+{+'+=+{+}+(+e l 1.)+%+8.{ 2 2 b z  .5.O.[+w.*.}.V x.U.q.{.U.l.H <.%+&+H.5.1.s.J ( . u c.)+5+%+q.n , N B.(+$+.+'+{+{+'+=+",
"=+{+$+(+=+$+2+$+'+,+; u h.5+Z.<.; [ / [ z X {.s.@+z.^.5.U s.Z.H.}.@+l.I {.;+W.5.L {.D.X 2 . 4 ].<+b+5+R.T 6 y B.{+=+{+$+(+=+$+2+",
"]+{+=+,+.+$+{+'+,+-+; O H.d+%+[.{ 5 / { z S >.z.&+B.^.1.M q.%+R.a.@+k.J _.@+H. .& R k.{.q % 9 ].0+j+j+/+[.o p F.=+]+{+=+,+.+$+{+",
"'+{+}+'+,+{+$+2+{+=+; !.@+g+>+0.2 j 2 ; J %.'.K./+B.-.;.H k.%+X.h.>+s.N >.P.l.L @ t !.<.E , h [.i+j+l+0+n.x b s.,+'+{+}+'+,+{+$+",
"'+,+=+Y.=+'+$+(+$+{+& _./+g+[+0.2 h 9 [ O ;.,.P.5+K.*.X C k.%+X.h.>+B.S L }.T h = ~ u %.D ~ 9 {.0+j+j+0+F.y - c.=+'+,+=+Y.=+'+$+",
"'+-+'+Y.'+{+2+}+'+3+& {.;+d+;+0.! 9 9 5 T ,.,.W.b+N.-.` H h.Z.P.a.!+E.T p O 9 ! ~ > 9 &.G | } >.8+f+d+1+H.G = 1.=+'+-+'+Y.'+{+2+",
"$+.+}+'+=+.+4+4+a+3+& _./+d+@+4.= { 2 2 V ).,.R.b+R.:.%.H h.P.B.5.&+w.P d p ; ] 0 ~ | T D ~ , Y &+d+d+1+K.J = {.,+$+.+}+'+=+.+4+",
"$+,+,+|+{+,+9+(+(+}+- 4.6+g+@+_.= { / [ P *.*.K.4+Z.a.-.M h.P.z.[.`.s.S l C ; ; | ~ } Q q ~ = O W.d+g+6+Q.L # %..+$+,+,+|+{+,+9+",
"=+'+$+(+{+2+,+2+:+$+& 4.1+d+@+_.= { { < U ).).B.%+Z.h.U M h.N.z.|.`.z. .E %.E h / ( q #.x > @ O @+6+0+0+ +W =  .$+=+'+$+(+{+2+,+",
"*+,+=+'+'+{+$+{+{+}+& }.1+6+U.(.= { { 3 S /.1.a.B.R.q.M I k.N.z.|.@+K.>. .z.w.{.n o #.&.q > . G K./+6+0+/+#.= @.{+*+,+=+'+'+{+$+",
"$+{+(+{+{+.+{+:+}+9+& [./+/+P.].; / { : K ].[.O S {.;.H v 1.B.q.}.@+P.{.%.U.~+C.T q '.>.q = = D O./+0+d+/+=.(  .]+$+{+(+{+{+.+{+",
"$+(+}+{+2+$+{+}+4+2+{ }./+/+U.<.{ / _ _ z ` T d / d r r l  .h.k.5.@+P.].,.@+8+M.Y x 2.2.F @ = E F.1+d+d+/+>.( T '+$+(+}+{+2+$+{+",
"$+=+$+=+{+{+9+2+3+,+2 0.6+6+ +}.{ [ 5 _ p I l 7 d d d k d C [.h.5.@+K.].]. +[+y.T D 2.6.F . = E F.8+g+0+&+&.] O '+$+=+$+=+{+{+9+",
"{+$+,+-+{+2+=+}+(+'+2 0.0+d+;+0.[ 2 b e p z 7 < l d < d l H {.1.1.W.K.].]. +[+w.O G 2.>.o . @ x y.6+j+d+ +#., J ,+{+$+,+-+{+2+=+",
"'+$+=+{+'+{+++(+'+{+' 4./+0+;+0./ 5 b b z z d d P K d d r S ,.).[.`.P.[.<.Z.8+l.y q #.O 9 @ @ o e./+j+d+;+ ., E ,+'+$+=+{+'+{+++",
".+{+{+9+{+{+3+,+{+{+& [.1+0+;+5.{ 2 b 2 s I z I f.0.N k l  .^.).].Z.K.{.,.Q.>+e.q o Y O o | , h 5.>+j+g+/+%.; E Y..+{+{+9+{+{+3+",
"++=+$+(+(+2+c+{+(+4++ 4.6+g+;+4.{ _ 2 / s P P K y.o.S l l [.c./.{.R.B.,.%.H.`.2.m o  .Y q [ , h [.;+g+j+0+,.{ J ++++=+$+(+(+2+c+",
"=+.+^+,+^+(+{+9+}+}+' 4.6+j+/+0.[ 2 _ / z ..V I 5.[.E l z k.s./.:.S.B.,. .B.U.2.j y <.].y { { h [.>+j+l+d+{.2 L =+=+.+^+,+^+(+{+",
"]+]+4+{+{+9+3+(+-+{+^ 4.6+j+1+f.2 b b _ I  .P l s m b l N H.B.:.[.@+H.,. .z.P.}.q +.x.l.O ; { o }.1+l+l+i+].2 L {+]+]+4+{+{+9+3+",
"]+,+$+'+{+{+=+:+$+,+^ <./+g+/+f./ 2 a 7 p I p b 2 / 2 l %.K.B./.1.`.B.,.%.B.U.8.y _.@+F.W = , j <.1+l+g+[+>./ J ,+]+,+$+'+{+{+=+",
"{+$+=+}+(+{+=+}+'+(+& ,. +0+;+5.{ { : b p p l l I z d I h.X.B.-.[.W.z.>.%.B.>+l.L _.@+B.Y { { h ,.;+g+6+&+#.{ J :+{+$+=+}+(+{+=+",
",+=+{+}+'+,+{+{+'+}+& %. +0+;+5.{ { 2 b d K ].[.q.a.H M q.Z.z.-.:.P.s.&. .B.>+l.T ].O.k.O / [ e ;. +d+6+&+#., J 2+,+=+{+}+'+,+{+",
"++'+$+$+,+,+2+,+]+=++ %. +d+;+5.{ [ 3 b 7 V q.B.%+B.X M m.X.z.-./.K.q.#.S q.`.l.V ].B.h.K 2 b d %. +g+g+[+&., y ^+++'+$+$+,+,+2+",
"=+{+2+{+,+,+{+(+9+,+# %. +g+/+c./ [ 2 8 7 U m.K.X.s.%.P i.P.B./.).K.q.&.T k.W.g.P ].N.k.T d d d  .;+j+j+1+>.{ u '+=+{+2+{+,+,+{+",
"*+$+{+(+{+}+$+(+4+}+- ,.;+l+6+j.2 _ / b e U h.K.Z.z.%.O i.R.B./.^.S.B.,.P h.S.e.V [.R.k.S e a d  .&+g+0+[+{.5 E .+*+$+{+(+{+}+$+",
"{+$+=+'+=+}+'+9+9+9+- &. +j+6+j.2 ( , b e K h.N.X.z.;.O k.S.B./.:.Z.K.<.Y k.`.g.K <.U.B.%.d d d &.>+g+0+0+[.e K ,+{+$+=+'+=+}+'+",
"++#+.+{+{+Y.{+c+9+2+# Y Q.j+0+j.2 { , 5 8 K b.D.R.B.<.L i.P.B././.Z.R.5.` q.`.e.I {.R.N.%.d d d ..!+j+d+6+<.b I {+++#+.+{+{+Y.{+",
"-+{+{+9+}+{+c+9+{+(+# T L.j+d+n.2 / { 5 b K a.v.N.D.1.J b.N.B././.Z.X.a.` k.`.e.I ].W.N.;.d a d ..!+l+g+/+%._ z 2+-+{+{+9+}+{+c+",
"Y.(+9+}+}+}+{+3+'+{+# O F.g+0+j./ { / b 5 E }.v.N.N.a.E c.R.D.1.~.Z.Z.c.U h.%+l.K [.@+U.{.d a d &./+r+g+!+#.- v $+Y.(+9+}+}+}+{+",
"{+{+9+4+(+3+{+(+'+{+& E k.6+1+f.] , / b 2 q {.v.N.D.a.y a.R.B./.{.Z.%+h.U k./+k.I {.X.P.%.8 2 b  .&+j+g+5+&.- z (+{+{+9+4+(+3+{+",
"9+{+(+9+'+}+'+{+}+4+= u h.1+1+f.] , ] b 2 o ;.t.N.D.1.y a.N.A./.,.Z.%+e.K b.%+h.I {.S.B.#.2 2 b  .&+j+g+!+#.- K 9+9+{+(+9+'+}+'+",
"'+9+9+{+,+9+}+2+'+c+] u d.1+1+f.| = ~ [ ( h ;.v.G.D.a.y 3.N.D./.{.Z.%+h.M b.%+k.U [.W.B.Y 2 2 b X `.d+b+!+#.- P '+'+9+9+{+,+9+}+",
"$+'+(+9+}+{+'+(+(+9+( u d.1+1+o.0 = > ] , h ;.D.G.G.b.z b.N.D.3.[.Z.%+k.U a.%+q.U [.X.B.Y [ 2 b V W.5+5+!+#.' P ,+$+'+(+9+}+{+'+",
"'+(+9+3+2+.+{+}+9+3+6 o 4.6+0+o.9 > > ~ , b %.N.R.G.b.I b.D.G.3.:.Z.%+k.M 1.Z.k.M {.N.B.#._ _ b S Z.g+b+!+#._ V =+'+(+9+3+2+.+{+",
"{+2+a+{+,+'+3+(+3+2+h 9 ,./+6+n.9 ~ > } ( e  .D.R.R.k.J 3.t.G.b.{.X.%+k.P ^.R.k.V ].K.z. .2 5 5 U W.d+5+`.T , %.'+{+2+a+{+,+'+3+",
"}+}+9+9+a+a+9+9+h+3+o } ,./+1+j.9 = ~ 9 ( b  .B.R.Z.B.J 7.T.T.i.).Z.5+B.U |.)+z.V }.&+H.Y [ b b P W.b+_+W.L & ,.{+}+}+9+9+a+a+9+",
"|+{+}+9+}+'+3+a+9+(+q | %.;+/+g.9 = , 9 | / Y K.N.K.k.E ).s.s.].U k.K.e.I *.B.8.I $.r.5.G / / 2 O W.7+_+K.D & [.4+|+{+}+9+}+'+3+",
"{+{+(+(+(+'+4+9+}+3+E ~ Y  +1+n.h % % ] ] ] E h.a.}.>.h z X O p l z K z i p K z m l z e ( ] , / I W.7+&+e.q ; 8.(+{+{+(+(+(+'+4+",
"(+2+(+'+2+}+2+4+2+9+O . L U.6+x.9 $ % = > , , } } } } [ { ; ; , , = , ] / ( , ] ( ] ] , ( 2 [ 2 p I.&+r.E 2 u q.{+(+2+(+'+2+}+2+",
"}+}+9+'+{+9+9+a+9+{+>.$ q }.q.(.> > > ~ ~ > = , ] ( 2 h j e m m e m q s s A s A A s s I V J e b j T T D 2 } }.Z.{+}+}+9+'+{+9+9+",
"2+$+=+$+=+9+c+c+3+9+e.} 9 y L q ~ | E ,.,.Y V *.[.5.h.z.s.B.K.K.B.H.W.W.W.`.W.`.&+`.W.&+b+P.S [ b 2 _ { { I K.5+2+2+$+=+$+=+9+c+",
"{+{+2+(+}+,+9+}+4+9+K.,.} ! { ( ~ $+{+(+{+{+.+{+:+}+9+$+{+(+{+{+.+{+:+}+9+$+{+(+{+{+.+{+:+}+9+Y s 5 [ b T H.5+b+(+{+{+2+(+}+,+9+"};
