/* XPM */
static char * mini_floor_xpm[] = {
"64 64 24 1",
" 	c #A0804B",
".	c #A2824D",
"+	c #A7814E",
"@	c #A78255",
"#	c #A5854F",
"$	c #AA8451",
"%	c #A68650",
"&	c #A58657",
"*	c #A78751",
"=	c #A88852",
"-	c #A98953",
";	c #A88959",
">	c #B08956",
",	c #AB8B55",
"'	c #AA8B5B",
")	c #AC8C56",
"!	c #AB8C5C",
"~	c #AD8D57",
"{	c #AE8E58",
"]	c #AE8E5E",
"^	c #B1905A",
"/	c #B19161",
"(	c #B3925C",
"_	c #B49564",
".*.%..*.%...---..---.*.%...------.*.%...--.*.%...---.*..*.%...--",
"--#. --#. =-%.==-%.=--#. =-%.=%.=--#. =-%.--#. =-%.=--#--#. =-%.",
"--.#.--.#.#-##%#-##%--.#.#-##%##%--.#.#-##--.#.#-##%--.--.#.#-##",
".%#%=.%#%=%,#*#%,#*#.%#%=%,#*##*#.%#%=%,#*.%#%=%,#*#.%#.%#%=%,#*",
"%-, ;%-, ;='.#-='.#-%-, ;='.#-.#-%-, ;='.#%-, ;='.#-%-,%-, ;='.#",
"-#*.=-#*.=$=#-,$=#-,-#*.=$=#-,#-,-#*.=$=#--#*.=$=#-,-#*-#*.=$=#-",
",=.%,,=.%,=#-,-=#-,-,=.%,=#-,--,-,=.%,=#-,,=.%,=#-,-,=.,=.%,=#-,",
"%###%%###%#-,--#-,--%###%#-,--,--%###%#-,-%###%#-,--%##%###%#-,-",
"#%%.##%%.#-,--.-,--.#%%.#-,--.--.#%%.#-,--#%%.#-,--.#%%#%%.#-,--",
"#=##-#=##-,--.-,--.-#=##-,--.--.-#=##-,--.#=##-,--.-#=##=##-,--.",
"#~#-,#~#-,--.-'--.-'#~#-,--.-'.-'#~#-,--.-#~#-,--.-'#~##~#-,--.-",
"%#-,-%#-,--.-')-.-')%#-,--.-')-')%#-,--.-'%#-,--.-')%#-%#-,--.-'",
"*#-,-*#-,--.-')-.-')*#-,--.-')-')*#-,--.-'*#-,--.-')*#-*#-,--.-'",
"##-,-##-,--.-')-.-')##-,--.-')-')##-,--.-'##-,--.-')##-##-,--.-'",
"&#-,-&#-,--.-')-.-')&#-,--.-')-')&#-,--.-'&#-,--.-')&#-&#-,--.-'",
"%#-,-%#-,--.-')-.-')%#-,--.-')-')%#-,--.-'%#-,--.-')%#-%#-,--.-'",
". #%#. #%#-,#)=-,#)=. #%#-,#)=#)=. #%#-,#). #%#-,#)=. #. #%#-,#)",
" #%%# #%%#*=%~-*=%~- #%%#*=%~-%~- #%%#*=%~ #%%#*=%~- #% #%%#*=%~",
"#-.';#-.';-%-)--%-)-#-.';-%-)--)-#-.';-%-)#-.';-%-)-#-.#-.';-%-)",
"*# ))*# )),-===,-===*# )),-======*# )),-==*# )),-===*# *# )),-==",
"=#,-)=#,-),,%*,,,%*,=#,-),,%*,%*,=#,-),,%*=#,-),,%*,=#,=#,-),,%*",
", -#*, -#*,%---,%---, -#*,%------, -#*,%--, -#*,%---, -, -#*,%--",
"#.=--#.=--=%-),=%-),#.=--=%-),-),#.=--=%-)#.=--=%-),#.=#.=--=%-)",
"%-#,%%-#,%#~#=*#~#=*%-#,%#~#=*#=*%-#,%#~#=%-#,%#~#=*%-#%-#,%#~#=",
";-%*.;-%*.#-=*&#-=*&;-%*.#-=*&=*&;-%*.#-=*;-%*.#-=*&;-%;-%*.#-=*",
"=-)=*=-)=*-#~-%-#~-%=-)=*-#~-%~-%=-)=*-#~-=-)=*-#~-%=-)=-)=*-#~-",
"=*% %=*% %=#,#-=#,#-=*% %=#,#-,#-=*% %=#,#=*% %=#,#-=*%=*% %=#,#",
"=&= ==&= =-~)={-~)={=&= =-~)={)={=&= =-~)==&= =-~)={=&==&= =-~)=",
"#.)=%#.)=%.]]/{.]]/{#.)=%.]]/{]/{#.)=%.]]/#.)=%.]]/{#.)#.)=%.]]/",
"#**!-#**!-*^,,)*^,,)#**!-*^,,),,)#**!-*^,,#**!-*^,,)#**#**!-*^,,",
"%=#,-%=#,-~*~'#~*~'#%=#,-~*~'#~'#%=#,-~*~'%=#,-~*~'#%=#%=#,-~*~'",
"$*%==$*%==-#--)-#--)$*%==-#--)--)$*%==-#--$*%==-#--)$*%$*%==-#--",
"#-,--#-,--.-')^.-')^#-,--.-')^')^#-,--.-')#-,--.-')^#-,#-,--.-')",
"#,)-~#,)-~#-)]~#-)]~#,)-~#-)]~)]~#,)-~#-)]#,)-~#-)]~#,)#,)-~#-)]",
"#%#%-#%#%--^~{*-^~{*#%#%--^~{*~{*#%#%--^~{#%#%--^~{*#%##%#%--^~{",
"-#*&--#*&-~%),=~%),=-#*&-~%),=),=-#*&-~%),-#*&-~%),=-#*-#*&-~%),",
"=#%-==#%-=-+,=--+,=-=#%-=-+,=-,=-=#%-=-+,==#%-=-+,=-=#%=#%-=-+,=",
".--^-.--^--{*---{*--.--^--{*--*--.--^--{*-.--^--{*--.--.--^--{*-",
"+%#,,+%#,,~(-,]~(-,]+%#,,~(-,]-,]+%#,,~(-,+%#,,~(-,]+%#+%#,,~(-,",
"%.>*>%.>*>,-^)),-^))%.>*>,-^))^))%.>*>,-^)%.>*>,-^))%.>%.>*>,-^)",
";;]--;;]--^{,&-^{,&-;;]--^{,&-,&-;;]--^{,&;;]--^{,&-;;];;]--^{,&",
";*#=-;*#=--%'#*-%'#*;*#=--%'#*'#*;*#=--%'#;*#=--%'#*;*#;*#=--%'#",
"-#%),-#%),-%)=,-%)=,-#%),-%)=,)=,-#%),-%)=-#%),-%)=,-#%-#%),-%)=",
"*%-)=*%-)=*--=)*--=)*%-)=*--=)-=)*%-)=*--=*%-)=*--=)*%-*%-)=*--=",
"+=##*+=##**~*;%*~*;%+=##**~*;%*;%+=##**~*;+=##**~*;%+=#+=##**~*;",
"%-~-*%-~-**-,^**-,^*%-~-**-,^*,^*%-~-**-,^%-~-**-,^*%-~%-~-**-,^",
"$#-,-$#-,-)#,]))#,])$#-,-)#,]),])$#-,-)#,]$#-,-)#,])$#-$#-,-)#,]",
"-#%=%-#%=%)=^^^)=^^^-#%=%)=^^^^^^-#%=%)=^^-#%=%)=^^^-#%-#%=%)=^^",
"+@.--+@.-- -(^~ -(^~+@.-- -(^~(^~+@.-- -(^+@.-- -(^~+@.+@.-- -(^",
"&--^)&--^)-(^-,-(^-,&--^)-(^-,^-,&--^)-(^-&--^)-(^-,&--&--^)-(^-",
" ,^)) ,^)))-{=-)-{=- ,^)))-{=-{=- ,^)))-{= ,^)))-{=- ,^ ,^)))-{=",
"--^],--^],{-,=-{-,=---^],{-,=-,=---^],{-,=--^],{-,=---^--^],{-,=",
"^-,^=^-,^=)=-)])=-)]^-,^=)=-)]-)]^-,^=)=-)^-,^=)=-)]^-,^-,^=)=-)",
"=^^-*=^^-*^)~=(^)~=(=^^-*^)~=(~=(=^^-*^)~==^^-*^)~=(=^^=^^-*^)~=",
"#=,^)#=,^)-=,,^-=,,^#=,^)-=,,^,,^#=,^)-=,,#=,^)-=,,^#=,#=,^)-=,,",
"=,^{~=,^{~.-)^{.-)^{=,^{~.-)^{)^{=,^{~.-)^=,^{~.-)^{=,^=,^{~.-)^",
"-~/-*-~/-*={,{~={,{~-~/-*={,{~,{~-~/-*={,{-~/-*={,{~-~/-~/-*={,{",
"))^^/))^^//^^_{/^^_{))^^//^^_{^_{))^^//^^_))^^//^^_{))^))^^//^^_",
"!-)^)!-)^)={/^,={/^,!-)^)={/^,/^,!-)^)={/^!-)^)={/^,!-)!-)^)={/^",
"--,,,--,,,=]^){=]^){--,,,=]^){^){--,,,=]^)--,,,=]^){--,--,,,=]^)",
",~,=~,~,=~)~]~^)~]~^,~,=~)~]~^]~^,~,=~)~]~,~,=~)~]~^,~,,~,=~)~]~",
"))^=-))^=-^^/^-^^/^-))^=-^^/^-/^-))^=-^^/^))^=-^^/^-))^))^=-^^/^",
"~#%#%~#%#%^(({^^(({^~#%#%^(({^({^~#%#%^(({~#%#%^(({^~#%~#%#%^(({",
"--~,)--~,)*^)]^*^)]^--~,)*^)]^)]^--~,)*^)]--~,)*^)]^--~--~,)*^)]"};
