/* XPM */
static char * mini_wall_xpm[] = {
"64 64 255 2",
"  	c #1D0900",
". 	c #220A01",
"+ 	c #190D06",
"@ 	c #1D0C07",
"# 	c #210B09",
"$ 	c #200E03",
"% 	c #240E05",
"& 	c #270D07",
"* 	c #231100",
"= 	c #2A0F03",
"- 	c #221208",
"; 	c #251109",
"> 	c #271102",
", 	c #2A100C",
"' 	c #27120C",
") 	c #2D1207",
"! 	c #28140E",
"~ 	c #2A1407",
"{ 	c #271607",
"] 	c #2B150A",
"^ 	c #2F140B",
"/ 	c #271710",
"( 	c #2C160C",
"_ 	c #2E1705",
": 	c #29180C",
"< 	c #2E180E",
"[ 	c #331709",
"} 	c #32170F",
"| 	c #2F1910",
"1 	c #311A0A",
"2 	c #2D1B10",
"3 	c #301A11",
"4 	c #2E1C0A",
"5 	c #371A0E",
"6 	c #331C0D",
"7 	c #321C13",
"8 	c #341D0F",
"9 	c #301F14",
"0 	c #321F0F",
"a 	c #351E10",
"b 	c #391D11",
"c 	c #371F0B",
"d 	c #371F11",
"e 	c #3D1F0E",
"f 	c #35220C",
"g 	c #39210D",
"h 	c #392113",
"i 	c #382118",
"j 	c #352318",
"k 	c #3B2310",
"l 	c #372414",
"m 	c #3B2315",
"n 	c #382510",
"o 	c #3D2517",
"p 	c #422413",
"q 	c #3F2613",
"r 	c #3B2813",
"s 	c #3C2919",
"t 	c #412815",
"u 	c #40281A",
"v 	c #3E2A15",
"w 	c #432A11",
"x 	c #442A17",
"y 	c #482918",
"z 	c #402C1C",
"A 	c #442B1D",
"B 	c #412D18",
"C 	c #452C19",
"D 	c #472E1A",
"E 	c #442F1A",
"F 	c #482E20",
"G 	c #443020",
"H 	c #492F1C",
"I 	c #4F2F1E",
"J 	c #47321D",
"K 	c #4C3119",
"L 	c #4B311D",
"M 	c #4E3320",
"N 	c #4A3520",
"O 	c #4D3425",
"P 	c #4C361B",
"Q 	c #50351C",
"R 	c #503622",
"S 	c #4D3722",
"T 	c #503A1F",
"U 	c #4F3A24",
"V 	c #503B2B",
"W 	c #563A21",
"X 	c #563A27",
"Y 	c #533C21",
"Z 	c #523D27",
"` 	c #5A3E24",
" .	c #56402A",
"..	c #5E4128",
"+.	c #5A4327",
"@.	c #59432C",
"#.	c #5E432E",
"$.	c #61442A",
"%.	c #5D462A",
"&.	c #5F482C",
"*.	c #65482E",
"=.	c #624A2E",
"-.	c #694B2C",
";.	c #694B31",
">.	c #654D31",
",.	c #674F33",
"'.	c #6D4F35",
").	c #6A5130",
"!.	c #6A5236",
"~.	c #72543A",
"{.	c #745535",
"].	c #6F573A",
"^.	c #715836",
"/.	c #76583D",
"(.	c #745B39",
"_.	c #745B3F",
":.	c #7A5A3A",
"<.	c #775D3A",
"[.	c #775E41",
"}.	c #7D5D43",
"|.	c #7F5F3F",
"1.	c #7B613E",
"2.	c #7B6144",
"3.	c #816146",
"4.	c #806542",
"5.	c #806649",
"6.	c #866544",
"7.	c #886640",
"8.	c #836946",
"9.	c #8B6943",
"0.	c #816D4E",
"a.	c #876C49",
"b.	c #866C4F",
"c.	c #8D6B45",
"d.	c #836E49",
"e.	c #8F6C3F",
"f.	c #8F6C46",
"g.	c #906D47",
"h.	c #8F6D4C",
"i.	c #8C6F40",
"j.	c #8B6F46",
"k.	c #8A6F4C",
"l.	c #916E48",
"m.	c #8D7042",
"n.	c #936F43",
"o.	c #926F49",
"p.	c #8D7148",
"q.	c #8D714E",
"r.	c #93704A",
"s.	c #8F7249",
"t.	c #94714A",
"u.	c #90734A",
"v.	c #95724B",
"w.	c #947251",
"x.	c #8F7451",
"y.	c #91744B",
"z.	c #96734C",
"A.	c #937546",
"B.	c #97744D",
"C.	c #8B7757",
"D.	c #92764D",
"E.	c #907658",
"F.	c #927653",
"G.	c #98754E",
"H.	c #977554",
"I.	c #94774E",
"J.	c #95784F",
"K.	c #9A7750",
"L.	c #957955",
"M.	c #9B7851",
"N.	c #987A4B",
"O.	c #977A51",
"P.	c #9C7952",
"Q.	c #907C5C",
"R.	c #987B52",
"S.	c #977B57",
"T.	c #947E58",
"U.	c #9F7B54",
"V.	c #9A7D53",
"W.	c #997D59",
"X.	c #987D5F",
"Y.	c #9C805C",
"Z.	c #98825C",
"`.	c #978262",
" +	c #9F8158",
".+	c #9F835F",
"++	c #A08466",
"@+	c #A28561",
"#+	c #9D8760",
"$+	c #A18A64",
"%+	c #A58964",
"&+	c #A08B6A",
"*+	c #A58D61",
"=+	c #AA8C61",
"-+	c #A98C67",
";+	c #A48E67",
">+	c #AC8E64",
",+	c #AB8E69",
"'+	c #A89064",
")+	c #A7906A",
"!+	c #AC8F6B",
"~+	c #AE8F65",
"{+	c #AA915F",
"]+	c #AF9066",
"^+	c #A89271",
"/+	c #AE916C",
"(+	c #B09167",
"_+	c #A9936C",
":+	c #AB9366",
"<+	c #B19268",
"[+	c #AB946D",
"}+	c #B0936E",
"|+	c #B29369",
"1+	c #AD9568",
"2+	c #AC956E",
"3+	c #B3946A",
"4+	c #B29470",
"5+	c #AE966A",
"6+	c #AD966F",
"7+	c #AC9675",
"8+	c #AF976B",
"9+	c #AE9770",
"0+	c #B4966B",
"a+	c #B49671",
"b+	c #B0986C",
"c+	c #AF9871",
"d+	c #B6976D",
"e+	c #B1996D",
"f+	c #B09972",
"g+	c #B59873",
"h+	c #B7986E",
"i+	c #B19A73",
"j+	c #B39A6D",
"k+	c #B69974",
"l+	c #B49B6E",
"m+	c #B39B74",
"n+	c #B89A75",
"o+	c #B59C6F",
"p+	c #B49C75",
"q+	c #BA9B70",
"r+	c #B69D70",
"s+	c #B59D76",
"t+	c #B79F72",
"u+	c #B79F78",
"v+	c #BD9E73",
"w+	c #BC9E79",
"x+	c #B9A173",
"y+	c #BAA274",
"z+	c #B9A27A",
"A+	c #BBA37C",
"B+	c #BCA476",
"C+	c #C2A378",
"D+	c #C3A47F",
"E+	c #BEA67F",
"F+	c #C1A87A",
"< 7 ~ $ > ; < > ; ; ~ 6 _ ~ > a o d 1 1 m h 5 5 5 o _ 1 [ h d R < 7 ~ $ > ; < > ; ; ~ 6 _ ~ > a o d 1 1 m h 5 5 5 o _ 1 [ h d R ",
"x ~ Y 5.2.|.4.8.[.:.3.3.3.6.4.r ~ +.-+W.W.@+X.S.L.F.b.x.1.6 < W x ~ Y 5.2.|.4.8.[.:.3.3.3.6.4.r ~ +.-+W.W.@+X.S.L.F.b.x.1.6 < W ",
",.. >.B+~+|+:+3+(+~+3+3+h+]+q+L = (.v+d+u+A+p+n+A+f+n+b+!+f ~ ` ,.. >.B+~+|+:+3+(+~+3+3+h+]+q+L = (.v+d+u+A+p+n+A+f+n+b+!+f ~ ` ",
"].1 ,.|+'+(+~+~+]+<+<+:+5+8+|+Y 1 ^.j+o+a+4+a+4+s+9+9+9+%+q < W ].1 ,.|+'+(+~+~+]+<+<+:+5+8+|+Y 1 ^.j+o+a+4+a+4+s+9+9+9+%+q < W ",
"_.> ,.r+3+]+d+|+:+d+l+j+j+o+3+U _ ^.y+q+s+|+9+o+r+l+m+m+[+E < ` _.> ,.r+3+]+d+|+:+d+l+j+j+o+3+U _ ^.y+q+s+|+9+o+r+l+m+m+[+E < ` ",
"1.> ;.r+|+8+8+3+j+r+r+b+1+j+v+Y ~ ^.x+3+|+h+a+o+y+r+r+b+!+B < U 1.> ;.r+|+8+8+3+j+r+r+b+1+j+v+Y ~ ^.x+3+|+h+a+o+y+r+r+b+!+B < U ",
"(.~ ,.b+5+j+5+'+5+o+s+j+]+|+3+S % ).s+h+9+|+f+1+s+u+m+j+!+v ; M (.~ ,.b+5+j+5+'+5+o+s+j+]+|+3+S % ).s+h+9+|+f+1+s+u+m+j+!+v ; M ",
"(.> ).r+:+'+8+1+5+r+r+r+b+|+]+N 4 (.y+b+o+r+u+f+m+u+9+:+!+E ' M (.> ).r+:+'+8+1+5+r+r+r+b+|+]+N 4 (.y+b+o+r+u+f+m+u+9+:+!+E ' M ",
"4.~ ).r+5+:+h+r+l+r+r+j+|+h+m+T _ (.B+d+m+A+A+l+2+9+2+:+4+L ! S 4.~ ).r+5+:+h+r+l+r+r+j+|+h+m+T _ (.B+d+m+A+A+l+2+9+2+:+4+L ! S ",
"4._ -.<+b+j+b+l+n+b+j+d+q+q+d+Y d (.A+A+p+p+a+4+9+2+!+a+a+S ' S 4._ -.<+b+j+b+l+n+b+j+d+q+q+d+Y d (.A+A+p+p+a+4+9+2+!+a+a+S ' S ",
"4.  >.B+j+l+o+r+b+o+o+r+r+(+3+Y d (.r+b+r+r+d+5+4+6+4+)+/+S ! D 4.  >.B+j+l+o+r+b+o+o+r+r+(+3+Y d (.r+b+r+r+d+5+4+6+4+)+/+S ! D ",
"=.4 S E.F.L.Y.Y.S.*+=+!+=+-+4+P _ >.D+d+d+r+y+9+[+9+6+)+s+J % S =.4 S E.F.L.Y.Y.S.*+=+!+=+-+4+P _ >.>.D+d+d+r+y+9+[+9+6+)+s+J % ",
"0 z h _ 1 d o m d q x M C H C x u x Q ` ` =.>...Q #.%.%.@.d ~ G 0 z h _ 1 d o m d q x M C H C x u x x Q ` ` =.>...Q #.%.%.@.d ~ ",
"1 d 8 d _ 8 c a < k c t 5 h c k d o [ b [ [ < , & 7 < < % 7 7 l 1 d 8 d _ 8 c a < k c t 5 h c k d o o [ b [ [ < , & 7 < < % 7 7 ",
"a...[.^.Q 1.a.-.W ,.W K H W K c m t '.{.~.~.2.;.*.;.$.*.+.c < A a...[.^.Q 1.a.-.W ,.W K H W K c m t t '.{.~.~.2.;.*.;.$.*.+.c < ",
"F ~ P b+n+u+E+r+b+j+j+8+r+%+x _ G.g.A.N.I.t.v.t.v.B.s.g.e.t.G.G.r.r.G.g.A.N.I.t.v.t.v.B.s.g.e.t.G.G.Q D+b+f+m+s+6+9+a+a+[+A+%.. ",
"A ; N <+m+n+r+j+o+u+j+4+4+@+C ~ G.r.n.y.v.e.J.J.v.K.G.l.o.G.B.K.r.r.G.r.n.y.v.e.J.J.v.K.G.l.o.G.B.K.Q !+)+f+9+[+2+[+!+n+)+4+!., ",
"C ; N d+p+s+s+j+d+a+4+4+|+ +t < G.G.g.g.z.u.G.I.g.r.t.t.G.J.R.K.r.r.G.G.g.g.z.u.G.I.g.r.t.t.G.J.R.K.` [+9+4+[+9+2+9+4+4+4+f+!.) ",
"S ~ T b+j+j+m+d+j+j+j+n+o+=+x < K.o.r.t.f.o.v.l.l.z.f.o.z.v.U.z.r.r.K.o.r.t.f.o.v.l.l.z.f.o.z.v.U.z.W 9+3+3+8+j+4+2+4+5+5+p+].< ",
"J ~ N (+l+u+s+5+j+r+b+o+r+*+F < V.r.g.r.c.t.I.r.B.P.r.r.g.t.z.g.r.r.V.r.g.r.c.t.I.r.B.P.r.r.g.t.z.g.M -+:+1+b+o+b+)+6+4+'+8+,.> ",
"F ; N j+r+r+r+d+|+3+5+a+r+-+A ~ G.o.l.t.v.r.B.v.f.r.z.o.9.t.B.B.r.r.G.o.l.t.v.r.B.v.f.r.z.o.9.t.B.B.X %+4+<+8+9+:+-+!+!+:+l+,.; ",
"F ! T r+r+j+1+d+<+9+p+f+p+%+x } v.c.c.z.z.z.z.y.g.o.z.l.o.z.G.K.r.r.v.c.c.z.z.z.z.y.g.o.z.l.o.z.G.K.S !+|+~+8+j+]+!+/+!+|+v+!.% ",
"u ! P j+u+n+j+r+8+3+j+n+9+.+H h G.h.l.o.j.g.B.v.t.B.n.l.o.g.G.t.r.r.G.h.l.o.j.g.B.v.t.B.n.l.o.g.G.t.H $+(+|+|+|+1+f+5+1+<+n+,.% ",
"u % N 3+m+n+r+l+j+a+9+9+m+@+H 8 w.t.l.z.c.7.r.l.g.G.z.g.c.c.G.G.r.r.w.t.l.z.c.7.r.l.g.G.z.g.c.c.G.G.M ;+~+3+5+9+b+j+5+]+]+n+].; ",
"J { N :+1+j+n+8+l+s+j+4+m+@+x < z.r.G.B.t.o.o.f.l.z.K.o.s.G.z.g.r.r.z.r.G.B.t.o.o.f.l.z.K.o.s.G.z.g.H !+3+]+<+9+[+~+4+3+<+q+_.~ ",
"E : Y b+9+n+n+l+p+s+f+a+m+$+H 1 z.B.r.l.9.z.o.z.G.t.z.o.o.I.t.l.r.r.z.B.r.l.9.z.o.z.G.t.z.o.o.I.t.l.x $+d+3+1+6+:+:+f+f+~+4+].! ",
"v % Y r+9+d+r+s+f+m+9+f+u+$+L 8 r.z.y.g.f.t.f.j.l.9.B.K.B.B.z.G.r.r.r.z.y.g.f.t.f.j.l.9.B.K.B.B.z.G.E )+]+<+b+a+:+:+a+a+4+n+].; ",
"o - T 9+s+n+b+4+f+j+9+u+u+;+x a B.c.c.t.l.f.f.l.c.g.G.z.o.v.r.z.r.r.B.c.c.t.l.f.f.l.c.g.G.z.o.v.r.z.q @+~+=+8+4+~+~+!+(+<+4+;., ",
"s % N 8+9+n+o+d+p+a+n+A+[+-+x 8 t.f.c.r.t.c.B.B.c.e.l.z.t.r.G.B.r.r.t.f.c.r.t.c.B.B.c.e.l.z.t.r.G.B.h Y.~+]+~+!+=+]+<+<+<+d+,.~ ",
"z + n 2+a+4+n+d+a+q+2+4+4+.+g 7 g.c.l.v.r.B.u.r.r.v.J.t.c.z.z.I.r.r.g.c.l.v.r.B.u.r.r.v.J.t.c.z.z.I.z %+3+(+'+1+:+4+!+=+:+u+].< ",
"s - 2 l N U V M N Y Z X Z E s 7 z.r.g.l.f.l.t.o.r.o.G.r.g.l.l.y.r.r.z.r.g.l.f.l.t.o.r.o.G.r.g.l.l.y.v ;+3+4+1+:+[+/+:+/+]+l+].< ",
"E 2 9 $ ' 2 < % ' < 6 6 a < o < r.B.u.I.c.9.y.s.f.c.I.z.g.f.B.G.r.r.r.B.u.I.c.9.y.s.f.c.I.z.g.f.B.G.o Y.4+n+9+5+)+4+l+/+/+n+,.~ ",
"M { f ].4.2.2.[.a.q.q.k.J.a.a 7 B.B.B.u.r.r.c.7.f.s.m.j.t.v.K.B.r.r.B.B.B.u.r.r.c.7.f.s.m.j.t.v.K.B.E @+]+|+4+9+!+!+!+!+!+a+!.} ",
"U - v v+x+y+s+n+w+y+y+u+6+!+r ~ v.G.o.c.9.o.g.c.t.t.i.i.G.t.B.v.r.r.v.G.o.c.9.o.g.c.t.t.i.i.G.t.B.v.m .+4+n+!+]+~+=+~+!+3+n+!.} ",
"U < E <+n+w+p+a+a+j+9+u+f+-+J 7 w.v.t.g.o.v.r.j.g.t.s.l.j.I.B.v.r.r.w.v.t.g.o.v.r.j.g.t.s.l.j.I.B.v.v %+[+n+9+d+3+!+4+d+!+n+~.} ",
"H ~ P d+w+a+a+n+j+m+9+m+p+!+M ~ y.c.j.r.g.l.c.s.y.U.G.s.s.G.s.s.r.r.y.c.j.r.g.l.c.s.y.U.G.s.s.G.s.s.a ^+[+%+!+5+=+Y.@+@+Y.-+&.1 ",
"G 2 Y v+r+n+a+q+a+m+h+6+l+~+M 6 r.l.9.l.o.g.t.y.i.r.z.r.t.f.z.O.r.r.r.l.9.l.o.g.t.y.i.r.z.r.t.f.z.O.m q Q Q H M H e H C x a h h ",
"z : Y h+l+n+r+s+f+[+:+m+r+)+U m v.j.l.t.t.r.z.v.i.g.z.t.v.z.P.K.r.r.v.j.l.t.t.r.z.v.i.g.z.t.v.z.P.K.o ) [ 5 5 1 d 8 q c 5 [ 8 h ",
"l ! +.h+m+s+m+9+9+|+~+2+a+-+H 5 o.f.g.r.t.y.H.y.s.A.y.y.t.B.K.J.r.r.o.f.g.r.t.y.H.y.s.A.y.y.t.B.K.J.f >.8.6.a.L.k.F.S.q.F.Y.K 1 ",
"8 ' +.d+[+9+p+4+|+3+(+/+n+@+y 1 I.l.c.s.c.7.y.z.l.o.r.r.c.i.O.I.r.r.I.l.c.s.c.7.y.z.l.o.r.r.c.i.O.I.c s+9+m+a+u+9+f+a+n+[+A+].< ",
"a ~ >.y+6+9+f+1+b+j+5+4+m+-+I 5 P.z.y.I.o.s.v.s.r.r.J.s.s.I.N.J.r.r.P.z.y.I.o.s.v.s.r.r.J.s.s.I.N.J.t @+!+n+4+!+!+-+-+4+4+6+).^ ",
"1 ~ ,.B+p+f+f+j+u+p+m+f+m+-+y 5 t.G.I.o.c.o.l.u.B.G.K.G.A.V.B.t.r.r.t.G.I.o.c.o.l.u.B.G.K.G.A.V.B.t.M @+3+4+1+|+!+4+!+!+<+n+!.[ ",
"< > ).r+b+9+3+3+s+m+d+f+m+.+L m y.z.r.l.9.s.r.c.c.B.r.v.y.y.G.B.r.r.y.z.r.l.9.s.r.c.c.B.r.v.y.y.G.B.x )+j+d+j+b+:+4+a+4+1+l+!.1 ",
"7 < ^.m+9+m+b+<+j+f+5+9+m+@+H [ y.g.j.s.g.l.s.c.o.B.I.y.i.j.K.G.r.r.y.g.j.s.g.l.s.c.o.B.I.y.i.j.K.G.H ;+3+(+8+j+'+'+6+1+'+8+=.~ ",
"~ ' 1.y+m+9+8+9+[+9+5+a+p+#+C [ r.l.g.u.g.c.z.B.n.n.I.K.r.u.s.r.r.r.r.l.g.u.g.c.z.B.n.n.I.K.r.u.s.r.k @+l+9+<+[+~+]+<+[+(+3+%.~ ",
"< { 4.x+m+n+l+l+2+9+m+l+s+;+H [ G.g.j.y.o.z.J.J.y.J.R.B.f.r.m.u.r.r.G.g.j.y.o.z.J.J.y.J.R.B.f.r.m.u.p @+<+!+5+l+j+|+<+|+5+q+=.~ ",
"< < 4.n+9+o+r+o+9+f+9+p+s+;+y ^ J.y.g.j.u.I.y.I.y.y.O.y.I.I.n.y.r.r.J.y.g.j.u.I.y.I.y.y.O.y.I.I.n.y.C $+6+6+5+j+j+5+:+1+:+h+;.) ",
"! ~ q.w+9+4+l+9+9+p+9+A+m+$+u ^ L.J.j.y.v.c.J.J.z.l.y.r.G.J.v.r.r.r.L.J.j.y.v.c.J.J.z.l.y.r.G.J.v.r.g $+8+b+b+j+l+o+8+1+8+l+=.< ",
"< ~ x.p+9+f+r+l+r+l+l+A+[+)+s < u.s.I.z.z.t.I.I.I.z.J.I.I.I.G.G.r.r.u.s.I.z.z.t.I.I.I.z.J.I.I.I.G.1 % @.E+<+@+)+~+L.Y.%+@+%+2+@.",
"< * T.r+n+l+b+~+@+;+%+@+%+T.0 ~ R.u.k.y.f.u.9.9.u.j.s.s.9.g.6.G.r.r.R.u.k.y.f.u.9.9.u.j.s.s.9.g.6.0 8 q w w p x D e x e m A 8 1 ",
"< : Z $.%.+.X C m H H x H l j 1 d J U o O U G U l { G G < s 2 { / 4 E v t E x E q r G v o v v u m < 7 h ) 5 b [ [ b x e d e ^ 7 ",
"< j 4 > a h < % ~ a c a < ~ h i < ! ! % ; @ # @ $ ; - @ - - - / - ; { ! % ! ; ; ; ; ' $ ; ; ! ! ~ d 7 q '.(.3.[.5.b.S.F.q.q.q.L ",
"~ 4 M ;.{././.}.x.L.x.q.a.5.d a H R C A F z E G u u s 4 < 9 l J M  .X +.` #.=.*.*.$.*.*.!.!.;.'./.v > T F+o+y+q+u+r+B+y+A+p+F+d.",
"< ~ F.C+d+r+n+4+m+o+a+m+[+#+n 1 a.4+@+.+$+%+@+%+@+Y.*+0.> 1 W.<+%+<+]+<+4+4+a+|+~+~+a+3+a+<+/+d+h+N ~ W b+)+9+9+6+[+9+9+p+m+9+a.",
"~ 1 V.f+f+a+4+!+!+2+[+9+2+W.u 6 8.1+[+)+-+-+$+4+)+)+*+F.c g  +'+!+]+3+!+~+!+!+a+]+~+|+4+(+!+~+<+:+Y ) ` j+b+9+a+n+6+9+f+p+m+A+8.",
"7 d Y.s+a+4+4+4+6+9+6+6+m+#+o 1 4.o+[+2+-+%+-+4+!+-+j+F.c t  +d+4+<+3+4+~+~+d+n+3+3+a+3+3+d+3+l+|++.) ..y+d+[+9+p+m+p+m+m+j+s+=.",
"6 d @+p+!+4+9+f+f+m+2+)+6+W.0 ; 4.8+'+:+|+!+=+~+]+]+1+F.1 c  +h+(+<+d+1+(+5+:+(+b+j+8+'+j+r+j+b+3++.< $.l+<+5+o+s+p+p+f+[+2+p+Z ",
", ~ S.8+/+'+a+f+f+4+[+)+[+Z.0 % 4.[+'+<+b+:+:+<+(+[+b+F.8 k  +(+=+~+j+l+3+:+:+8+3+b+8+{+5+l+l+5+b+S % T 6+1+)+5+m+m+f+5+5+5+o+U ",
"< l  +2+9+6+9+9+f+9+[+/+[+#+l - 4.f+)+2+b+:+)+a+<+:+r+T.a c Y.<+]+<+8+j+4+3+8+(+1+a+l+1+8+j+h+3+d+E % U )+'+6+9+p+m+p+9+8+l+r+Z ",
"< B =+[+!+4+[+)+9+[+:+9+m+Z.f { 2.9+!+'+1+2+!+:+3+5+d+L.c g Y.h+~+|+3+(+2+3+4+!+<+d+3+(+3+3+<+4+3+E % +.m+!+'+3+9+6+4+|+3+b+6+L ",
"; n %+[+!+/+4+!+!+/+2+a+2+`.l : [.)+[+!+]+(+<+3+3+d+|+S.g t Y.3+a+4+a+|+|+<+4+3+d+<+|+!+]+3+(+|+3+E > +.f+a+/+~+/+~+!+3+q+5+-+q ",
"% a (+)+2+6+m+9+7+2+f+p+)+$+1 ; _.9+)+[+[+9+f+o+h+4+[+.+e w %+6+a+l+r+n+a+a+r+r+r+p+b+n+8+d+j+o+l+E ! =.f+'+3+8+5+[+|+p+9+[+)+f ",
"< 4 4.F.q.q.C.E.E.E.E.F.Q.0.1 ;  .`.E.F.F.F.W.Y.Y.L.S.a.c g F.W.L.S.Y.S.x.x.F.F.q.F.b.8.q.8.a.4.a.n %  .&+++#+#+Y.T.L.L.x.L.5.4 ",
"/ { { { 2 : ! < 9 ! ~ 8 j ~ i 2 < { h 0 0 < d o d a m 1 h A c c g d k m 1 ~ 1 1 ~ ~ ~ ! 9 < < ~ ~ d i 1 _ l l d 6 m 1 6 1 1 ~ 4 "};
