/* XPM */
static char * mini_door_xpm[] = {
"64 64 250 2",
"  	c #2D0C00",
". 	c #290E02",
"+ 	c #27130C",
"@ 	c #291306",
"# 	c #2E1301",
"$ 	c #321500",
"% 	c #2E1706",
"& 	c #291913",
"* 	c #2E180E",
"= 	c #2E1814",
"- 	c #2C1B0F",
"; 	c #301A10",
"> 	c #2D1C11",
", 	c #331C05",
"' 	c #2F1D0C",
") 	c #2E1D12",
"! 	c #331C0D",
"~ 	c #321C13",
"{ 	c #341D14",
"] 	c #311F0F",
"^ 	c #311F14",
"/ 	c #361F16",
"( 	c #332116",
"_ 	c #342212",
": 	c #39210D",
"< 	c #382113",
"[ 	c #33221B",
"} 	c #352318",
"| 	c #362419",
"1 	c #3A2319",
"2 	c #372515",
"3 	c #35251E",
"4 	c #3D251C",
"5 	c #3E2618",
"6 	c #422700",
"7 	c #3E2712",
"8 	c #3B2818",
"9 	c #3A281C",
"0 	c #392922",
"a 	c #3D2A1A",
"b 	c #432B1C",
"c 	c #402C1C",
"d 	c #452B18",
"e 	c #472C0B",
"f 	c #412D18",
"g 	c #402D22",
"h 	c #422F1F",
"i 	c #482E15",
"j 	c #402F28",
"k 	c #3E322A",
"l 	c #4A3022",
"m 	c #443226",
"n 	c #47321D",
"o 	c #463221",
"p 	c #4A3625",
"q 	c #4A372B",
"r 	c #4D3721",
"s 	c #493730",
"t 	c #47392C",
"u 	c #463A31",
"v 	c #4D3928",
"w 	c #513C2B",
"x 	c #503C30",
"y 	c #563B26",
"z 	c #523D27",
"A 	c #4D3F31",
"B 	c #4C3F36",
"C 	c #4B3F3B",
"D 	c #58422C",
"E 	c #574231",
"F 	c #524436",
"G 	c #51443B",
"H 	c #594438",
"I 	c #534743",
"J 	c #5D472F",
"K 	c #57493A",
"L 	c #56493F",
"M 	c #5C4836",
"N 	c #614928",
"O 	c #604C3F",
"P 	c #624C3B",
"Q 	c #5D4E40",
"R 	c #634D36",
"S 	c #664D2B",
"T 	c #5A4F4A",
"U 	c #5C4F45",
"V 	c #664E32",
"W 	c #60503D",
"X 	c #68523B",
"Y 	c #685240",
"Z 	c #5F544F",
"` 	c #61544A",
" .	c #635445",
"..	c #675950",
"+.	c #6A5945",
"@.	c #69594A",
"#.	c #71593C",
"$.	c #715942",
"%.	c #705947",
"&.	c #745A37",
"*.	c #635D57",
"=.	c #685C57",
"-.	c #6F5D43",
";.	c #6C5E54",
">.	c #6F5E4A",
",.	c #6E5E4F",
"'.	c #776249",
").	c #72645A",
"!.	c #75644F",
"~.	c #6E655F",
"{.	c #746455",
"].	c #7F6542",
"^.	c #7E6648",
"/.	c #81663D",
"(.	c #7D6950",
"_.	c #7B6A55",
":.	c #7A6A5B",
"<.	c #746B66",
"[.	c #796B61",
"}.	c #81705B",
"|.	c #78726C",
"1.	c #7F7166",
"2.	c #7E716C",
"3.	c #817161",
"4.	c #8D7042",
"5.	c #857157",
"6.	c #8B704D",
"7.	c #8B7053",
"8.	c #867252",
"9.	c #8D7148",
"0.	c #887662",
"a.	c #877667",
"b.	c #8A765C",
"c.	c #84776C",
"d.	c #807872",
"e.	c #95784F",
"f.	c #957955",
"g.	c #987A4B",
"h.	c #897C77",
"i.	c #8E7C67",
"j.	c #8D7C6D",
"k.	c #907C62",
"l.	c #967B5D",
"m.	c #857E78",
"n.	c #8C7D73",
"o.	c #937E5E",
"p.	c #9E7E49",
"q.	c #9A7F5B",
"r.	c #9D7F50",
"s.	c #9C7F55",
"t.	c #8A8276",
"u.	c #918278",
"v.	c #94826D",
"w.	c #968267",
"x.	c #938273",
"y.	c #8C847E",
"z.	c #A1824C",
"A.	c #A2834E",
"B.	c #A28353",
"C.	c #A8824F",
"D.	c #9B855F",
"E.	c #A1845A",
"F.	c #A08460",
"G.	c #9F8465",
"H.	c #A88356",
"I.	c #9B8665",
"J.	c #A5854F",
"K.	c #AA8451",
"L.	c #9B876C",
"M.	c #A68650",
"N.	c #A58656",
"O.	c #988878",
"P.	c #97887D",
"Q.	c #9A8872",
"R.	c #A78751",
"S.	c #AC8653",
"T.	c #928A84",
"U.	c #A88852",
"V.	c #AD8753",
"W.	c #A98953",
"X.	c #A88959",
"Y.	c #A7895F",
"Z.	c #A68965",
"`.	c #A5896A",
" +	c #A08B6A",
".+	c #A28B65",
"++	c #968D81",
"@+	c #B08955",
"#+	c #AB8B55",
"$+	c #AB8B5B",
"%+	c #9E8D7D",
"&+	c #A18D72",
"*+	c #AC8C56",
"=+	c #A08D78",
"-+	c #968F89",
";+	c #9D8E83",
">+	c #AD8D57",
",+	c #AE8E58",
"'+	c #AD8E5E",
")+	c #AC8E64",
"!+	c #AC8F6A",
"~+	c #AB8F70",
"{+	c #A69170",
"]+	c #A8916B",
"^+	c #B1905A",
"/+	c #A5927D",
"(+	c #A79277",
"_+	c #B19161",
":+	c #B09268",
"<+	c #9C958F",
"[+	c #9E9589",
"}+	c #A39489",
"|+	c #A59484",
"1+	c #B1946F",
"2+	c #AD966F",
"3+	c #AC9675",
"4+	c #AB977B",
"5+	c #AA9781",
"6+	c #B4966B",
"7+	c #AB9A8A",
"8+	c #AA9A90",
"9+	c #A39C95",
"0+	c #B39B74",
"a+	c #A59D90",
"b+	c #B09B80",
"c+	c #B19C7A",
"d+	c #AF9D87",
"e+	c #B39F83",
"f+	c #B6A07F",
"g+	c #A9A29C",
"h+	c #ACA296",
"i+	c #B2A190",
"j+	c #B6A38D",
"k+	c #B8A387",
"l+	c #B8A696",
"m+	c #B3A896",
"n+	c #B2A89C",
"o+	c #BAA791",
"p+	c #AFA9A2",
"q+	c #BEAB95",
"r+	c #B3AEAD",
"s+	c #B5AEA7",
"t+	c #B7AEA1",
"u+	c #BDADA2",
"v+	c #BFAD9D",
"w+	c #BBB09D",
"x+	c #BCB3A7",
"y+	c #BBB5AE",
"z+	c #C1B8AB",
"A+	c #C2BBB5",
"A.M.J.J.z.A.M.J.J.z.A.A.U.U.U.A.A.U.U.U.J.M.J.J.z.A.A.U.U.W.W.U.U.J.M.J.J.z.A.A.U.R.J.M.J.J.z.A.A.U.U.U.J.M.A.A.M.J.J.z.A.A.U.U.",
"U.U.J.A.A.R.U.J.A.z.M.U.M.J.R.R.U.M.J.R.U.U.J.A.z.M.U.M.J.R.M.J.R.U.U.J.A.z.M.U.M.J.R.U.J.A.z.M.U.M.J.R.U.U.J.U.U.J.A.z.M.U.M.J.",
"U.U.J.J.J.R.U.J.J.A.M.U.M.J.M.M.U.M.J.M.U.U.J.J.A.M.U.M.J.M.M.J.N.U.W.J.J.A.M.U.M.J.U.U.J.J.A.M.U.M.J.M.U.U.J.R.U.J.J.A.M.U.M.J.",
"J.M.M.M.R.J.M.M.M.R.R.W.M.M.M.R.W.M.M.J.J.M.M.M.R.N.Y.e.^.>.O E ;...W X ^.e.Z.W.M.M.J.M.M.M.R.R.W.M.M.J.J.M.M.J.M.M.M.R.R.W.M.M.",
"M.U.U.J.R.R.U.U.J.R.U.W.J.M.U.U.W.J.M.U.R.U.U.e.w.:.K 9 a w @.~.{.)...g ~ ) q +.6.E.M.U.U.J.R.U.W.J.M.U.R.U.W.R.U.U.J.R.U.W.J.M.",
"U.R.M.J.U.U.R.M.J.R.K.R.M.U.W.K.R.M.U.W.U.N.5.c ~ } W 6.E.X.Z.!+)+!+)+s.e.(.O [ ) g b.N.M.J.R.K.R.M.U.W.U.R.R.U.R.M.J.R.K.R.M.U.",
"W.R.J.M.W.W.R.J.M.W.U.R.U.W.W.R.R.U.W.W.E. .3 8 $.f.D.U.W.W.W.W.W.W.R.J.M.W.N.e.P ( g 3.E.M.W.U.R.U.W.W.W.R.J.U.R.J.M.W.U.R.U.W.",
"R.J.J.J.M.R.J.J.J.M.M.U.W.W.U.R.U.W.W.f.m 9 Y e.M.M.U.W.W.U.W.W.U.R.J.J.J.M.M.U.X.7.x ^ @.F.M.M.U.W.W.U.R.J.J.M.J.J.J.M.M.U.W.W.",
"J.M.J.J.J.J.M.J.J.M.U.W.W.R.J.U.W.W.o.m k (.B.J.M.U.W.W.U.M.U.U.J.J.M.J.J.M.U.W.W.U.s.>.( H E.U.W.W.U.J.J.M.M.J.M.J.J.M.U.W.W.U.",
"M.R.M.M.U.M.R.M.M.U.W.W.R.J.U.W.W.6.j x k.N.M.M.U.W.W.R.J.U.U.M.U.M.U.M.M.U.W.W.U.J.M.Y.(.9 ..B.W.R.J.R.M.R.M.M.R.M.M.U.W.W.U.J.",
"M.W.R.U.W.R.W.R.U.W.W.U.J.U.#+W..+B 9 k.R.W.R.U.W.W.U.N.E.7.+.H Q W >.8.E.W.W.U.J.R.M.W.)+'.9 R N.J.U.W.R.W.M.M.W.R.U.W.W.U.J.U.",
"M.R.U.W.W.M.M.U.W.W.U.J.U.#+#+N...j 5.*+R.M.U.W.W.U.7.K g a ~ * ) ( ( ( 0 -.s.J.U.W.R.M.#+!+P a ^.U.#+#+R.M.U.M.M.U.W.W.U.J.U.#+",
"M.M.U.W.W.R.M.U.W.W.U.J.U.*+Y.O ~ -.$+#+R.M.U.$+N.'.< 8 c 2 ; ; ) ) ^ < 1 / g ^.)+X.R.M.U.W.B.m m F.*+#+R.M.U.R.M.U.W.W.U.J.U.$+",
"J.M.U.W.W.M.M.U.W.W.U.J.U.Z.i.F w B.*+#+M.M.!+L.E 8 2 a ^ 8 9 ;.` [.t ~ ~ ( c ( '.!+M.M.U.W.W.(.1 0.$+#+M.M.U.M.M.U.W.W.U.J.U.$+",
"M.M.U.W.W.M.M.U.W.W.U.J.U.L.O.9 6.U.*+#+R.Y.w.m 2 _ ^ ~ ~ 5.I.d+}.Y._.h >.Q ^ ( } (.Y.M.U.W.W.Y.w +.Z.#+R.M.U.M.M.U.W.W.U.J.U.$+",
"J.J.U.W.U.M.J.U.W.W.U.J.U.k.H H B.U.*+W.X.I.g { 2 ) v w ( &+Y.j+i.R.a.F 3+N.-.} ( | b.J.U.W.W.U.5.g G.W.M.J.R.M.J.U.W.W.U.J.U.*+",
"A.A.M.R.J.A.A.M.M.M.U.U.R.0./ b.U.R.#+U..+w ^ } v w.=+).1 &+Y.4+i.A.i...{+M.)+Q { 8 v r.M.M.M.U. +| 0.$+A.A.J.A.A.M.M.M.U.U.R.#+",
"z.J.M.M.J.A.J.M.M.M.R.U.X._.B Z.U.U.#+W.$._ 2 g s.'+{+>.g d+Y.j+0.A.Q.).(+M.$+Q.u c c 6.M.M.M.R.Z.s :.`.A.J.J.A.J.M.M.M.R.U.U.*+",
"J.R.J.X.W.M.R.J.X.W.W.R.]+B 3.X.R.U.#+e.} 2 | b.X.)+4+-.m d+!+j+5.M.8.~.{+X.)+~+_.8 c m s.X.W.W.Y.O q k.M.R.A.J.R.J.X.W.W.R.U.#+",
"R.J.J.W.#+R.J.J.W.*+W.W.(+0 v.#+W.U.N.O 8 8 H Y.*+$+|+(.0 5+)+c+i.R.8.~.{+*+)+Z.8.j ( ~ ^.$+*+W.$+_.~ '.R.J.A.M.J.J.W.*+W.W.U.U.",
"U.M.U.W.W.U.M.U.W.#+#+W.o.| q.#+W.R.7.h o g :.N.#+:+w.!.8 L.Z.c+j.W.k.,.s.#+:+E.8.` { 4 M )+#+#+#+I.( {.W.M.U.U.M.U.W.#+#+W.R.R.",
"U.A.U.R.U.U.A.U.R.U.W.R._.9 Y.W.R.E.m o l  .a.]+U.:+O.(.j =+E.X.0.U.Q.@.F.W.:+E.7.b.g ` |  +U.W.U.]+B W U.A.U.U.A.U.R.U.W.R.U.W.",
"J.J.R.W.U.M.J.R.U.U.U.R.Y F !+U.X._.8 h | d.[.3+U.'+|+8.o G.Z.B._.M.k.X F.#+1+Z.6.E.=.9 ; a.#+U.R.]+I U r.J.R.M.J.R.U.U.U.R.W.W.",
"M.R.R.W.R.M.R.R.W.M.M.#+E ..N.R.q.9 | 1 | ).:.5+R.$+L.b.r s.)+E.3.R.9.Q /+U.)+4+b.E.d.~ ; K B.M.W.~+` u k.R.M.M.R.R.W.M.M.W.R.U.",
"W.W.R.R.J.U.W.R.R.J.M.U.q {.X.M.e.^ c 1 9 1.../+X.R.k.w...f.X.Z.a.W.9.w =+J.N.3.>.E.x.} ; | g.M.U.$+!.| k.W.R.U.W.R.R.J.M.U.U.R.",
"U.W.W.R.R.U.W.W.R.R.U.J.h 3.'+R.e.^ c ^ g y...Q.X.U.v.I.=.s.'+E.0.U.9.x w.R.F.m g E.&+G ^ ( r.U.R.#+|+A b.W.W.W.W.W.R.R.U.R.W.U.",
"U.R.M.A.M.U.R.M.A.M.U.J.f b.$+U.f.( h | 9 P.,./+M.X.=+w.U (+$+)+(.U.l.U [+N.w.9 3 o.=+L } ( s.U.R.$+/+m :.X.R.U.R.M.A.M.U.R.W.R.",
"R.R.R.A.R.R.R.R.A.R.U.W.n b.*+W.s.( h h 9 v.!./+R.$+7+v.K /+'+#+(.W.=+<.n.L.@.) - 9 ;+w } ^ r.U.#+*+(+B U X.U.R.R.R.A.R.U.#+*+W.",
"J.J.W.U.R.J.J.W.U.M.M.X.o k.>+X.&+| n 2 9 k.>.%+R.X.8+b.D &+)+'+(.U.|+|.F [.^ ^ ^ ) %+x | ^ e.M.$+'+{+F F N.W.M.J.W.U.M.M.$+'+_+",
"J.M.U.#+U.M.M.U.#+U.U.#+o b.W.)+&+} 8 2 9 8.+.=+W.W.~+b.K L.'+#+'.R.=+|.m  .; | | > i.G ^ ) e.U.>+*+G.t x N.R.M.M.U.#+U.U.>+*+*+",
"M.R.M.W.W.R.R.M.W.W.#+U.m 6.U.1+q.^ | { | 6.!./+1+#+B.5.F L.)+W.'.M.F.;...U > | } > 3.F ^ ; f.#+W.*+~+g A X.M.M.R.M.W.W.#+W.#+*+",
"K.R.R.U.U.K.R.R.U.U.U.B.k 9.#+2+e.^ 2 ^ 9 O.(.&+2+U.~+n.A q.!+U.'.S.5+K n.e.-.g } +.O.L ) ; f.U.R.W.:+F p M.R.K.R.R.U.U.U.R.W.W.",
"M.W.W.W.U.M.W.W.W.U.J.N.k e.>+)+q.^ 2 ^ m [+].{+ +z.X.}.t q.~+*+}.U.b+@.8.U.N.v.t v.O.A ) * 7.M.U.#+$+w o U.W.M.W.W.W.U.J.U.#+*+",
"M.W.W.W.W.R.W.W.W.W.R.N.t e.#+)+ +( 2 ( t a.^.b.m p +.).j o.`.'+j.U.(++.k.W.R.=+k ;+/+Q * - 5.$+W.*+'+U o R.W.R.W.W.W.W.R.W.*+$+",
"M.R.M.R.U.M.R.M.R.W.W.*+A f.W.!+ +| a 8 B c.#.E } G t F c [.L.)+j.U.4+_.&+W.W.=+t 5+=+ .- * 5.)+>+>+,+ .m M.M.M.R.M.R.W.W.>+>+,+",
"U.M.M.R.U.U.M.M.R.W.#+U.F  +W.!+ +} r c I ,.@.g 9 !.^ h c ..x.)+j.W.o+}.&+W.#+v.k /+P.t * * 0.)+U.#+#+W m N.R.U.M.M.R.W.#+U.#+#+",
"R.M.R.W.U.R.M.R.W.W.W.M.A G.W.$+q.1 o c L ..L F 9  .s 9 m {.P./+0.U.b+0.q.W.W.x.j x.;.3 ; * _.!+K.W.W.P t ]+R.R.M.R.W.W.W.K.W.W.",
"J.R.W.>+W.J.R.W.>+W.W.W.p D.W.'+D.| c 8 B 2.F >.n.c+v.q k (.Q.|+'.J.Y.}.q.#+$+{.g 1.w m ( - !.3+*+W.W. .t E.R.J.R.W.>+W.W.*+W.W.",
"C.M.R.W.W.C.M.R.W.#+>+>+p s.>+,+`.[ 5 1 g d.'.U x.)+k.F U o.Z.b+'.C.`.}.f._+'+,.9 n.0...} ; ).]+^+#+#+X j s.M.C.M.R.W.#+>+^+#+#+",
"M.M.V.W.V.R.M.V.W.@+*+W.n q.*+*+ +9 5 1 u t.5.P :.Y.!...E {+~+(+'.R.(+_.w.1+!+W t =+|+ .} ~ {.B.*+>+#+V | F.V.R.M.V.W.@+*+*+>+*+",
"X.X.*+W.W.X.X.*+W.W.>+#+o D.W.>+G.9 c 8 T d.@._.c E 9 U L (+~+ +}.X.`._.O.1+)+P M !+(+>.( { ).X.*+#+U.J 9 F.$+X.X.*+W.W.>+*+#+N.",
"X.R.R.U.W.X.R.R.U.W.W.R.m L.U.W. +9 8 | j [.B L L g ( ( _.c+Z.=+(.X..+-.i.:+'+{.M !+b+>.^ ^ ,.Y.U.W.R.W } F.R.X.R.R.U.W.W.U.W.M.",
"U.M.R.W.W.U.M.R.W.W.U.N.m v.$+U.I.| } 8 ( ).O A H 0.Q 9 =+b+Z.Q.8.U.G.!.^.1+)+_.W !+3+>.^ ( ).E.R.W.X. .} F.M.U.M.R.W.W.U.R.W.U.",
"R.M.U.W.U.R.M.U.W.U.U.N.k b.'+U.f.} 8 a | [.{.G.D.(+v.E k.b+E.o.^.R.F._.(.)+]+j. .Y.]++.} 8 =.r.W.W.X.W ( F.R.R.M.U.W.U.U.W.W.U.",
"C.R.R.R.R.C.R.R.R.R.U.N.k 5.'+U./+| c 5 u ..3.E.]+Z.L.D 7..+E.7.^.C. +!.}.)+Z.x.@.N.(+).b h T r.W.W.$+>.~ g.M.C.R.R.R.R.U.W.W.W.",
"M.U.W.W.R.M.U.W.W.U.U.N.m 8.)+U.&+} c 2 | ~.'.Z.]+Z.Q.E 7.`.Z.f.i.M. +!.}.Y.Y.x.).Y.~+@.o a H p.W.#+:+{.^ g.W.R.U.W.W.U.U.W.#+,+",
"K.M.W.W.U.K.M.W.W.W.W.J.o x._+W.&+9 h ( 1 [.{.Z.2+Z./+` 6.4+!+o.u.K.3+$.1.!+Y.j.).Y.]+#.h a ` r.U.#+1+{.8 g.U.K.M.W.W.W.W.U.#+'+",
"R.J.M.U.R.R.J.M.U.U.W.R.m x.'+W.4+g a ( } ;.).Z.]+Z.Z...].c+1+f.x.W.Z.'._.!+Y.3.;.'+]+-.h c ` r.W.,+6+_.a e.M.R.J.M.U.U.W.W.,+^+",
"C.C.J.W.U.C.C.J.W.U.J.N.j 3.'+M.5+k c ( | E ).4+B.]+X.` 6.3+!+f.v.K.B.5.3.X.N.3.;.'+~+8.c 5 L r.W.^+_+,.1 e.J.C.C.J.W.U.J.W.^+^+",
"N.U.W.>+#+R.U.W.>+#+W.*+g n.'+W.b+j 1 2 9 p ).b+E.{+'+ .b.3+:+l.0.R.N.5._.)+$+j.[.Y.4+6.a 5 =.Z.,+^+#+M ( s.U.R.U.W.>+#+W.,+^+#+",
"A.W.,+>+W.J.W.,+>+*+*+N.j t.X.#+4+j ( 2 8 o H b+b+{+$+;.b.e+:+k.0.J.Y.(._.)+'+u...Y.3+_.a < ...+#+>+#+ .^ E.>+M.W.,+>+*+*+#+>+W.",
"W.W.,+,+#+W.W.,+,+*+*+X.t ,.Y.*+{+k } ( 8 h o d+b+{+X.;.b.!+)+Q.a.X.:+(.{.)+)+++O Y.3+>.1 1 ` F.W.W.X.` ^ F.,+W.W.,+,+*+*+W.W.W.",
",+#+*+,+W.>+#+*+,+W.*+R.h ,.Y.>+D.k ( ~ } c h h+3+`.X.).].2+Y.w.0.,+$+5.W N.'+j.@.)+)+>.8 2 ..`.W.W.#+ .{ s.*+>+#+*+,+W.*+W.W.#+",
"W.,+,+#+U.W.,+,+#+W.,+X.q :.$+,+ +k ~ ~ ( a h h+!+Z.$+{./.e+2+=+'.#+,+b.P Y.:+x.,.Y.)+{.5 1 G ~+*+#+:+@./ E.,+W.,+,+#+W.>+*+#+W.",
"M.W.*+,+#+R.W.*+,+*+W.R.p ).Y.W.&+k ^ ) 2 a h i+:+Z.Y.-./.3+!+L.>.U.W.k.M 3+$+0.U '+X.{.a 8 x G.W.#+1+@.j `.#+R.W.*+,+*+W.W.#+#+",
"U.#+,+,+#+W.#+,+,+#+M.W.F K s.M. +g ^ ; 9 g g |+!+{+)+#.^.e+1+d+Y W.#+l.U 4+M.a.` :+)+#.} 8 x f.W.,+0+R s ~+,+W.#+,+,+#+M.W.*+^+",
"W.>+^+#+W.W.>+^+#+W.W.>+F x Z.W.&+g ) ; q 9 9 ;+)+Z.$+'.'.e+1+d+W W.>+o.~.]+W.x. .,+c+'.} 8 w q.>+'+2+ .n $+^+#+>+^+#+W.W.>+>+^+",
"*+*+^+^+^+*+*+^+^+'+'+^+W s Z.^+&+U ~ * h ^ 9 P.'+~+1+'.W  +`.v.M r.s.3.A 0.o.,.F 9.!.q 1 } p s.^+^+]+s q $+,+*+*+^+^+'+'+^+^+_+",
"$+W.*+^+>+*+W.*+^+*+W.^+,.g .+W..+U * * ) ^ ) U _.;.).I ( c c | ( 2 8 9 } L Z j | 9 ( ~ | 1 m f.,+:+I.0 E X.*+*+W.*+^+*+W.,+^+^+",
"W.W.#+#+#+W.W.#+#+#+W.'+-.| (.E..+j ( > > ^ - - > ; ^ | 0 ^ { } ( ( 1 0 g g j k j 0 g h 9 a 9 (..+f.x 9 8.W.#+W.W.#+#+#+W.,+^+>+",
"#+*+#+W.#+#+*+#+W.*+*+>+'.> L }.,.} ^ A #.'.R X '.(.7.7.l.e.e.E..+E.B.N.E.X.Y.)+)+Y.Y.W.f.g 3 t g ) ~ E #+*+*+#+*+#+W.*+*+,+'+,+",
"*+#+>+W.W.*+*+>+W.W.,+^+Y.M | ^ ^ 0 -.B.*+#+>+W.W.,+^+^+^+>+_+^+*+*+#+>+W.W.,+^+^+^+*+#+>+e.K 9 ( 9 {.F.*+#+>+*+#+>+W.W.,+^+_+^+",
"#+U.U.R.U.#+U.U.R.U.,+^+^+,+)+E.E.)+^+^+*+U.U.R.U.,+^+^+^+^+^+^+^+*+U.U.R.U.,+^+^+,+*+U.U.R.X.X.X.)+'+^+*+U.W.#+U.U.R.U.,+^+^+^+",
"W.W.#+W.#+W.W.#+W.W.W.^+,+'+^+#+^+,+'+^+W.W.#+W.W.W.^+,+'+^+,+'+^+W.W.#+W.W.W.^+,+$+W.W.#+W.W.W.^+,+'+^+W.W.#+W.W.#+W.W.W.^+,+'+"};
