/* XPM */
static char * mini_floo_xpm[] = {
"64 64 255 2",
"  	c #A1824D",
". 	c #A2834E",
"+ 	c #A4844E",
"@ 	c #A98350",
"# 	c #A5854F",
"$ 	c #A68650",
"% 	c #AB8552",
"& 	c #A78751",
"* 	c #A68757",
"= 	c #A88852",
"- 	c #A98953",
"; 	c #A88959",
"> 	c #AE8854",
", 	c #AA8A54",
"' 	c #AB8B55",
") 	c #AA8B5B",
"! 	c #AC8C56",
"~ 	c #A68E5C",
"{ 	c #A88E56",
"] 	c #AD8D57",
"^ 	c #A98F57",
"/ 	c #AE8E58",
"( 	c #AE8E5E",
"_ 	c #A9905E",
": 	c #AF8F59",
"< 	c #AB9159",
"[ 	c #B1905A",
"} 	c #B2915B",
"| 	c #AC9360",
"1 	c #B19261",
"2 	c #B3925C",
"3 	c #B4935D",
"4 	c #A99762",
"5 	c #B09765",
"6 	c #AD9A66",
"7 	c #B39967",
"8 	c #AD9B6D",
"9 	c #B49B6E",
"0 	c #ADA06A",
"a 	c #ADA171",
"b 	c #B2A071",
"c 	c #AFA36C",
"d 	c #B0A473",
"e 	c #ADA76E",
"f 	c #B5A47B",
"g 	c #ADA875",
"h 	c #B9A677",
"i 	c #ADAE73",
"j 	c #B1AD7A",
"k 	c #AFB17C",
"l 	c #B4B183",
"m 	c #B1B37E",
"n 	c #BAB084",
"o 	c #B8B380",
"p 	c #B2B586",
"q 	c #B3B680",
"r 	c #B9B688",
"s 	c #A5C077",
"t 	c #B6BA8A",
"u 	c #A0C378",
"v 	c #A6C279",
"w 	c #B4BD86",
"x 	c #A1C479",
"y 	c #A3C474",
"z 	c #9EC674",
"A 	c #A7C37A",
"B 	c #A2C57B",
"C 	c #9CC77B",
"D 	c #9FC875",
"E 	c #B6C08F",
"F 	c #A0C976",
"G 	c #B0C28F",
"H 	c #9ACB76",
"I 	c #9DCC72",
"J 	c #AFC584",
"K 	c #9CCC78",
"L 	c #A0CB7E",
"M 	c #9DCE79",
"N 	c #99D074",
"O 	c #B1C88D",
"P 	c #B5C794",
"Q 	c #9BD275",
"R 	c #A0D07C",
"S 	c #9AD37C",
"T 	c #B7C995",
"U 	c #98D670",
"V 	c #9DD477",
"W 	c #97D678",
"X 	c #A6D184",
"Y 	c #A0D384",
"Z 	c #B5CC91",
"` 	c #B7CB9D",
" .	c #A4D47F",
"..	c #9ED680",
"+.	c #BACC98",
"@.	c #A2D586",
"#.	c #9DD887",
"$.	c #B2D193",
"%.	c #B6D09A",
"&.	c #A0D982",
"*.	c #A5D788",
"=.	c #95DD7C",
"-.	c #99DD70",
";.	c #93DF70",
">.	c #98DD76",
",.	c #AAD68F",
"'.	c #A1DA83",
").	c #9BDC83",
"!.	c #92E077",
"~.	c #9FDC77",
"{.	c #A4D990",
"].	c #A6D98A",
"^.	c #99DF77",
"/.	c #A1DB8B",
"(.	c #98DF7E",
"_.	c #B9D39D",
":.	c #9FDE7F",
"<.	c #9BE079",
"[.	c #9AE181",
"}.	c #ADDA92",
"|.	c #B5D79F",
"1.	c #B7D799",
"2.	c #9FE087",
"3.	c #A1E081",
"4.	c #A8DD94",
"5.	c #A4DF8E",
"6.	c #9DE37B",
"7.	c #ABDE8E",
"8.	c #AEDC9B",
"9.	c #BBD7A7",
"0.	c #A7E088",
"a.	c #9CE483",
"b.	c #A1E289",
"c.	c #B6D9A7",
"d.	c #A4E384",
"e.	c #B9DAA2",
"f.	c #B1DE97",
"g.	c #ABE096",
"h.	c #A5E297",
"i.	c #9CE68B",
"j.	c #A1E491",
"k.	c #A8E391",
"l.	c #A4E58C",
"m.	c #A6E586",
"n.	c #B1E09F",
"o.	c #ADE299",
"p.	c #A9E493",
"q.	c #ABE48C",
"r.	c #A3E693",
"s.	c #A5E68D",
"t.	c #C1DCAC",
"u.	c #BBDEAC",
"v.	c #BDDEA6",
"w.	c #B1E2A7",
"x.	c #B3E2A1",
"y.	c #ADE4A1",
"z.	c #AFE49A",
"A.	c #A9E69B",
"B.	c #ABE695",
"C.	c #B0E59C",
"D.	c #ACE796",
"E.	c #B9E2A9",
"F.	c #B5E4A2",
"G.	c #AFE6A3",
"H.	c #ABE89D",
"I.	c #BFE1A9",
"J.	c #BEE1AF",
"K.	c #B4E5A9",
"L.	c #B2E79D",
"M.	c #B7E6A4",
"N.	c #B1E8A5",
"O.	c #B3E89E",
"P.	c #C3E1B7",
"Q.	c #B5E7AB",
"R.	c #BCE5AB",
"S.	c #B8E7A5",
"T.	c #B2E9A6",
"U.	c #BBE6B2",
"V.	c #B0EAAC",
"W.	c #B7E8AC",
"X.	c #B4EAA0",
"Y.	c #C2E5B3",
"Z.	c #B3EBA7",
"`.	c #B8E9AD",
" +	c #BAE9A7",
".+	c #B4ECA8",
"++	c #B9EAAE",
"@+	c #C2E7BB",
"#+	c #C4E7B5",
"$+	c #B3EDAF",
"%+	c #C0E9AF",
"&+	c #BAEBAF",
"*+	c #BCEBA9",
"=+	c #B6EDA9",
"-+	c #BEEAB6",
";+	c #B8ECB6",
">+	c #BBEDB1",
",+	c #C0EBB7",
"'+	c #C2EBB1",
")+	c #BAEEB8",
"!+	c #C1ECB8",
"~+	c #BDEEB2",
"{+	c #C5EBBE",
"]+	c #C7EBB8",
"^+	c #BFEDBF",
"/+	c #C2EDB9",
"(+	c #BCEFB9",
"_+	c #CDEBC0",
":+	c #C7EDC0",
"<+	c #C1EFC0",
"[+	c #C3EFBA",
"}+	c #C6EEC8",
"|+	c #C8EEC2",
"1+	c #CAEEBB",
"2+	c #C2F0C2",
"3+	c #C4F0BC",
"4+	c #C7EFC9",
"5+	c #C9EFC3",
"6+	c #CEEEC9",
"7+	c #C4F2C4",
"8+	c #CBF0C4",
"9+	c #C9F1CB",
"0+	c #D0F0CB",
"a+	c #CCF2C5",
"b+	c #CEF1D2",
"c+	c #CBF3CD",
"d+	c #CDF3C6",
"e+	c #D1F2CD",
"f+	c #D0F2D4",
"g+	c #D6F1D4",
"h+	c #CDF5CE",
"i+	c #CFF5C8",
"j+	c #D7F2D5",
"k+	c #D4F4CF",
"l+	c #CEF6D0",
"m+	c #D6F3DC",
"n+	c #D8F3D6",
"o+	c #D2F5D6",
"p+	c #D7F5DE",
"q+	c #DAF5D7",
"r+	c #D6F7D2",
"s+	c #DEF4DE",
"t+	c #E0F5E0",
"u+	c #DEF6E7",
"v+	c #E1F6E1",
"w+	c #E6F5E8",
"x+	c #E0F7E8",
"y+	c #E2F7E2",
"z+	c #E1F8E9",
"A+	c #E7F7E9",
"B+	c #E9F7E3",
"C+	c #E8F8EB",
"D+	c #EAFAED",
"E+	c #E8FBF3",
"F+	c #F0FAF5",
"# $ # #   # $ # #   . # = = = # # = = = # $ # #   . # = = - - = = # $ # #   . # = & # $ # #   . # = = = # $ # # $ # #   . # = = ",
"= = # . . & = # .   $ = $ # & & = $ # & = = # .   $ = $ # & $ # & = = # .   $ = $ # & = # .   $ = $ # & = = # = = # .   $ = $ # ",
"= = # # # & = # # # $ = $ # $ $ = $ # $ = = # # # $ = $ # $ # # $ = = # # # $ = $ # = = # # # $ = $ # $ = = # & = # # # $ = $ # ",
"# $ $ $ & # $ $ $ & & - $ $ $ & - $ $ # # $ $ $ & & - $ $ $ # $ # # $ $ $ & & - $ $ # $ $ $ & & - $ $ # # $ $ # $ $ $ & & - $ $ ",
"$ = = # & & = = # & = - # $ = = - # $ = & = = # & = - # & - = ~ _ _ _ - # & = - # # $ = = # & = - # $ = & = - & = = # & = - # $ ",
"= & $ # = = & $ # & @ & $ = - % & $ = - = & $ # _ d E O e.J.Y.#+Y.Y.I.e.O t f _ $ = = & $ # & @ & $ = - = & & = & $ # & @ & $ = ",
"- & # $ - - & # $ - = & = - - & & = - - - _ j Z I.!+d+k+h+7+[+[+/+3+d+h+h+d+:+I.Z j ' & # $ - = & = - - - & # = & # $ - = & = - ",
"& # # # $ & # # # $ $ = - - = & = - - _ k v.8+h+7+~+=+Z.`.W.Z.N.T. +`.N.Z.=+~+7+r+8+t.j - # $ $ = - - = & # # $ # # # $ $ = - - ",
"# $ # # # # $ # # $ = - - & # = - _ m u.8+h+!+>+T.o...I K N K.&+C.3+I H M  .o. +=+~+d+h+t.g & = - - = # # $ $ # $ # # $ = - - = ",
"$ & $ $ = $ & $ $ = - - & # = - f c.8+d+&+.+G.z.'.K y B B H R.3+8+++K B x B z N z.Z.$+~+d+8+P _ - & # & $ & $ $ & $ $ = - - = # ",
"$ - & = - & - & = - - = # = ' l J.h+>+`.4.N Q./+8+8.B x B F R./+[+++F x v v x M ,+!+V g. +>+i+I.c # = - & - $ $ - & = - - = # = ",
"$ & = - - $ $ = - - = # = ( E 8+d+Z.x.M z z @.y./+].F y F I F.T.A.!+I F B x y 8.%+8+Y F M x.Z.7+8+k ' ' & $ = $ $ = - - = # = - ",
"$ $ = - - & $ = - - = # _ ` e+2+`.{.F x v x H W.y.7.N Q ..4.z.A.A.C.7...N I K -+/+E.z x x z ].++/+h+E ] & $ = & $ = - - = # = ; ",
"# $ = - - $ $ = - - = $ P e+)+&+5.F x v A B H 7.2.p.Q.,+8+8+8+7+8+8+8+1+>+G.g.;+w.F x v v x z R ++(+h+w - $ = $ $ = - - = # = ; ",
"$ $ = - - $ $ = - - - E 0+>+++p.G.8.C B C K ..y.~+8+8+[+S.p.q.q.d.3.p.N.(+7+8+(+G.R F x v v z Y `.`.>+h+p $ = $ $ = - - = # = ; ",
"# # = - = $ # = - - g _+(+`.S 7.K.W.8.K N 4.;+8+3+p.>.>.>.>.>.[.q.C.0.>.-.>.p.3+8+~+g.K B y X '+~+S S.~+8+0 & $ # = - - = # = - ",
". . $ & # . . $ $ 8 @+8+++Y z Y -+/+%+&.M.3+3+p.>.>.>.>.<.<.<.6.6.6.D.Z.q.>.-.>.l.3+2+S.S Y {+)+)+F R `.2+Y._ . . $ $ $ = = & ' ",
"  # $ $ # . # $ & %.k+++,.y u z I y.2.,+8+N.>.>.[.p.W.,+{+{+!+&+H.l.l.l.T.N.6.<.>.>.T.d+~+C.'.S.K B x Y `.h+%.. # $ $ $ & = = ! ",
"# & # - = $ & # g 0+ +n.B s s y H ..>+h+p.>.b.-+8+8+1+/+/+[+0+n+v+n+/+D.l.O./+m.<.<.>.A.h+~+'.#.z v v B 8.++e+a & # - = - & = ' ",
"& # # - ' & # ~ J.8+`.F v s x z S `.d+b.:.%+/+H.m.m.p.H.H.O.T.N.&+0+x+s+!+H.L.8+q.a.a.b.p.d+>+..z x s u F Q.3+u.= # - ! - - = = ",
"= $ = - - = $ k n+++/.z x u z N S.8+p.b.++p.a.d.s.N.,+8+6+8+!+,+/+,+;+j+w+0+H.X.0+B.a.6.D.5.d+`.M B v x z *. +k+j = - ' ' - & & ",
"= # = & = = $ t.8+>+Q.f.z F R n.8+N.:.C.a.6.s.&+0+t+x+w+A+D+E+w+q+4+8+;+4+w+e+O.:+8+m.6.l.C.C.8+w.F z z R n. +8+P.- & = - & = - ",
"# # & - = $ d 0+&+G./+o.S N ).2+8+(.b.<.l.B.4+B+y+m+j+e+0+b+b+m+y+A+w+n+!+6+w+0+ +n+ +a.<.&+:.8+8+#.R w.8+,+7.&+e+0 = = = & - - ",
"$ & & - & & T h+`.4.,+<+-+o.G.4+0.>.<.a.O.n+t+4+6+8+,+;+-+!+!+^+}+f+p+E+v+^+n+w+<+:+f+s.6.X.z.0.4+S.x.y.o+8+K. +h++.- $ $ - & = ",
"= - & & # ' @+!+F.H K ,.x.p./+,+>.>.[.O.s+b+^+8+!+^+}+4+4+}+}+{+^+^+0+m+D+n+:+x+t+;+v+L.m.q.!+>.-+[+..S R.U.@.o.&+_+' # $ = = & ",
"= - - & & 4 c+++@.x B z N y.8+2.>.<.B.m+0+,+8+;+8+}+f+x+A+E+w+v+p+4+}+b+j+F+0+g+w+4+n+!+D.d.8+>.3.8+C.K F x B Y  +e+4 & = & - = ",
"= & $ . $ m o+S.H u x z N `.8+>.>.3.0+b+&+8+-+:+0+t+w+x+x+w+w+w+x+t+g+6+g+x+z+4+y+p+j+8+Z.d.8+:.>.2+,+M B s s z G.h+k $ = & - & ",
"& $ & # & %.c+F.z u u z S ^+++>.<.%+j+T.4+,+8+f+j+w+w+x+s+t+w+w+w+s+v+m+j+g+F+b+s+w+g+0+.+p.8+0.>.S.8+ .z s s y x.2+9.& = ' ! - ",
"# # - = & 9.<+n.C x B H ].0+5.>.b.j+&+/+!+:+o+4+D+w+s+s+b+4+6+m+x+x+t+x+p+0+F+p+s+w+s+0+T.A.8+p.3.0.8+4.z u s u n.,+P.= $ ! ( ( ",
"# $ = - ! {+>+n.H z z I n.4+:.>.-+0+L.8+++o+{+y+w+s+t+4+}+g+s+j+g+w+t+x+t+b+D+v+p+w+x+4+T.O.0+p.l.~.8+x.H x u B }.`._+- = ] ! ! ",
"$ & $ - _ {+&+g.4.R.}.'.M.8+>.3.g+++;+,+:+6+}+D+s+x+6+}+t+w+t+w+p+w+s+w+x+b+D+w+g+w+x+:+ +T.j+j.B.>.8+S...M M R 7.Z.6+- ' - ' - ",
"@ & & = { {+>+o.F.e+!+2.W.8+>.p.n+B.8+T.f+,+n+x+x+p+}+j+D+m+w+F+w+w+p+D+s+g+E+w+b+D+s+&+&+ +j+d.T.>.8+N.F.,+8+/+5.Z.6+' = & - - ",
"$ - - - ^ }+&+5.5.8+`.).W.8+>.`.0+p.4+T.j+,+x+m+w+f+}+w+x+t+z+w+x+s+w+v+b+p+D+p+g+w+b+.+!+/+4+a. +>.8+N.2.8+8+{+2.Z.6+- # = - ! ",
"$ - - - < {+~+G.8+Q.K.7.`.0+>./+,+A.0+;+f+,+A+b+w+b+}+E+t+s+x+v+v+t+m+b+m+t+w+6+x+j+0+++/+g+++B.N.-.8+W.o...}.4.y.>+6+' & - ! ( ",
"$ & $ & _ {+/+o.S I H N K.h+(.8+N.L.8+;+0+,+D+b+x+b+}+w+w+g+w+p+t+s+s+s+s+A+g+s+v+b+/+;+:+n+l./+b.;.4+K.I z y z ].>+_+- - ] ] / ",
"= $ $ & - Y./+o.z z y I n.e+2.:+A.N.8+;+0+,+x+j+x+j+}+m+w+p+s+E+v+p+p+x+w+j+v+w+b+4+++8+b+!+D.8+;.>.d+n.z s s u 4.>+@+- ' = ' ' ",
"& $ & - - _.8+F.z u u z ].8+G.!+A.N.8+++0+-+p+t+s+p+4+6+x+x+p+p+D+E+w+v+x+D+w+g+b+&+<+0+0+D.0+L.;.p.8+*.y s s y n.[+9.- - @ - - ",
"# & - ] - G c+M.F u u z N ,+!+W.L.A.4+N.f+&+b+z+j+x+b+}+0+x+s+s+s+x+w+w+w+s+t+g+!+^+0+g+T.[+0+<.;.!+/+M y s s z y.c+E - - ! - - ",
"@ $ & - - e h+`.R u u y I F.c+z.N.l.0+H.0+{+}+n+w+p+t+}+}+}+n+v+m+m+m+s+v+s+}+,+8+j+n+&+/+q+l.;.>.e+Q.N z u u K W.k+0 ' ] [ ' - ",
"$ $ > = > 4 8+-+8.z z H N 4.c+`. +[.4+H.,+o+;+b+v+t+s+t+4+{+{+:+0+b+g+0+8+^+}+6+n+n+;+/+q+L.-.;.G.d+o.Q.n.K z ,.;+6+! > ! ! ] ! ",
"* = - - - ; J.8+W.#.n.K.K.-+!+8+G.<.&+>+B.n+8+8+4+x+m+m+w+j+:+^+^+^+:+}+4+4+b+t+0+++0+q+T.<.;.-.8+;+W W %+`.g.S.2+P.' - ] ! ' & ",
"* & & = - = E k+ +`.[+8+^+,+y.8+&+b.d.4+l.!+n+++8+8+y+s+f+v+w+p+b+4+4+6+j+n+f+,+8+s+n+L.6.!.-.N.7+g.g.]+d+2.++++e+E = - - = - $ ",
"= $ & - - = 4 :+)+S.d+-+{.I N `.d+p.<.'+X.A.4+e+T.8+^+n+y+b+0+p+w+w+v+m+b+6+g+v+t+8+r.l.[.!.b.d+W.N H Y F.]+T.>+8+{ - - = & - = ",
"& $ = - = & & _.k+>+/.H x x z ..)+7+[.3.3+a.D.e+4+V.8+!+8+t+w+t+s+s+v+w+w+w+s+8+T.O.H.a.<.l.8+!+@.z u u z R &+h+T = - = = - - = ",
"@ & & & & @ & d 8+/+F.z u u u H 7.[+2+>.B.X.[.r.e+4+T./+2+++;+4+n+n+j+g+6+^+;+&+O.d.!.b.j.[+8+g.H x s s y n.;+6+6 & & & = - - - ",
"$ = - - & $ = ! %.o+++X u u u z V M.8+!+>.O.l.<.l.8+0+Z.H./+[+++O.N.Z.O.D.s.i.a.l.B.A.2.&+3+G.n.H x s u Y Z.k++.- - - = = - ' [ ",
"@ $ - - = @ $ - 8 Y.7+Q.F u x M -+W C.3+[+[.H.d.<.a. +0+[+A.B. +~+!+>+ +Z.T.X.O.A.[.(./+[+z.U o.Q.F B H M.3+@+( $ - - - - = ' / ",
"& # $ = & & # $ = i 8+&+x.F X ++!+5.z.h.~+8+C.B.d.-.!.a.'+0+8+Z.s.d.d.d.a.6.<.!.>.C.d+/+g.N g.z.>+]+R f. +e+k & # $ = = - - [ [ ",
"@ @ # - = @ @ # - - Z e+Z.n.x.W.[+g.M I /.'+c+8+L.6.;.;.<.[.p.++!+'+&+ +N.p.b.p.2+4+-+].H z R ].&+o.z. +h+_.= @ @ # - = # - [ [ ",
"$ = - ] ' $ = - ] ' | e.e+&+o.'.K.z y y z S n./+8+8+ +b.>.;.!.;.;.-.>.(.b.`.8+8+,+o.R z u s u H h.0. +h+u._ = $ = - ] ' - [ [ ' ",
"# - / ] - # - / ] ! ! 6 v.e+.+C.M u s s u C H &.N.>+2+8+d+8+/+&+>+!+:+8+8+8+'+C.2./.z u s s u H g.Z.d+Y.8 - ] $ - / ] ! ! ' ] - ",
"- - [ / ' - - [ / ! ! - 8 e.h+ +F.L v s s u z w.>+/+0.o.F.W.++;+,+&+N.C.g.'.'.N.G.-+z s v x K F..+d+U.a - - / - - [ / ! ! - - - ",
"/ ' ! / - ] ' ! / - ! - - 6 e.h+>+`.X x s u z n.,+8.H H H I N /.0.W N I H z R 8+d+!+R B z Y `.>+i+J.b / ] ' ! ] ' ! / - ! - - ' ",
"- / / ' = - / / ' - ] ! ' - 5 Z 8+2+ +n.M z @.-+R.F u u u x z n.8+ .z x u v B R.[+!+K.S n. +3+h+%.| - [ ' / / - / / ' - ] ! ' - ",
"$ - ! / ' & - ! / ! - - ' ! [ ! q U.h+>+Z.o.S.!+:+B u s s u F R.!+-+z u v v x Y ,+:.N.++&+i+]+E ( ' ! / = - ' & - ! / ! - - ' ' ",
"= ' [ / ' - ' [ / ' $ - ! [ ] $ - b $.[+i+!+&+&+M.R C B B z {.4+y.N z C F F M /.T.>+~+h+1+_.b $ - ! [ / - ' / - ' [ / ' $ - ! [ ",
"- ] [ ' - - ] [ ' - - ] ] [ ] - ] ] } m 1.8+k+3+*+T.G.n.f.].).N.o.'.].4.x.M. +*+[+i+8+|.o ] - - ] ] [ ] - ] [ ' ] [ ' - - ] ] [ ",
"! ! [ [ / ! ! [ [ ( ( [ [ 2 [ / [ [ 2 / ( j J Y.8+h+c+[+!+&+.+.+++&+&+>+/+c+k+8+U.Z d / [ [ ( ( [ [ 2 / ! ! [ ! ! [ [ ( ( [ [ 3 ",
"- - ! [ ] ' - ! [ ! - / [ [ ! - / [ [ ! ' - ! 7 l J |.Y.{+8+8+8+8+8+8+]+#+|.J q 9 [ ! - ! [ ! - / [ [ ! ' - ! ' - ! [ ! - / [ } ",
"- - ' ' ' - - ' ' ' - / [ ] ] - / [ ] ] - - ' ' ' - / 1 9 h n j r t j b | ! - / [ ] - - ' ' ' - / [ ] ] - - ' - - ' ' ' - / [ ] ",
"' ! ' - ' ' ! ' - ! ! ] ( / / ] ] ( / / ! ! ' - ! ! ] ( / [ [ / / ! ! ' - ! ! ] ( ] ' ! ' - ! ! ] ( / / ! ! ! ' ! ' - ! ! ] ( / ",
"! ' ] - - ! ! ] - - [ [ [ [ ! [ [ [ [ ! ! ' ] - - [ [ [ [ ] [ [ ! ! ' ] - - [ [ [ [ ! ' ] - - [ [ [ [ ! ! ' ] ! ' ] - - [ [ [ [ ",
"' = = & = ' = = & = / } } [ [ [ } } [ [ ! = = & = / } } [ [ } [ [ ! = = & = / } } [ ! = = & = / } } [ [ ! = - ' = = & = / } } [ ",
"- - ' - ' - - ' - - - [ / ( [ ' [ / ( [ - - ' - - - [ / ( [ / ( [ - - ' - - - [ / / - - ' - - - [ / ( [ - - ' - - ' - - - [ / ( "};
