/* XPM */
static char * right_foot_xpm[] = {
"20 30 37 1",
" 	c #150809",
".	c #190F0F",
"+	c #1A0F0F",
"@	c #1D1413",
"#	c #1E1515",
"$	c #1F1717",
"%	c #201818",
"&	c #201919",
"*	c #211A1A",
"=	c #221A1A",
"-	c #221B1B",
";	c #231B1B",
">	c #231C1C",
",	c #241C1C",
"'	c #231D1C",
")	c #241D1C",
"!	c #241D1D",
"~	c #251D1D",
"{	c #251E1E",
"]	c #261F1F",
"^	c #26201F",
"/	c #282222",
"(	c #292323",
"_	c #2C2626",
":	c #322E2E",
"<	c #353030",
"[	c #383535",
"}	c #464242",
"|	c #494646",
"1	c #4E4B4A",
"2	c #595656",
"3	c #595657",
"4	c #646261",
"5	c #6A6867",
"6	c #777675",
"7	c #7D7C7B",
"8	c #FFFF00",
"88888888888888888888",
"8888888-----88888888",
"8888888<{!,--8888888",
"888888}=!!~>--888888",
"888887_>!!!!%-888888",
"888885&!!!!!--888888",
"888883$!!!!!=-888888",
"88888|=!!!!!;--88888",
"88888}!!!!!!>^-88888",
"888881]!!!!!!>-88888",
"888884{!!!!!!+-88888",
"888888]>!!!!! 888888",
"888888[*!!!!>*888888",
"8888883;!!!!-:888888",
"8888888<!!!!>}888888",
"88888882]!!!'}888888",
"88888886(;!>$3888888",
"88888888</_/ 8888888",
"88888888855688888888",
"88888888888888888888",
"88888888888888888888",
"88888888888888888888",
"88888888----88888888",
"8888888-@#,.-8888888",
"8888888-!!---8888888",
"8888888-!!;--8888888",
"8888888-!!!--8888888",
"8888888--)^-88888888",
"88888888---888888888",
"88888888888888888888"};
