/* XPM */
static char * aguamenti_icn_xpm[] = {
"64 64 29 1",
" 	c #720004",
".	c #710004",
"+	c #680003",
"@	c #330001",
"#	c #6E0004",
"$	c #3D0001",
"%	c #630003",
"&	c #170000",
"*	c #6D0004",
"=	c #650003",
"-	c #0E0000",
";	c #700004",
">	c #660003",
",	c #1F0001",
"'	c #690003",
")	c #000000",
"!	c #670003",
"~	c #290001",
"{	c #6B0003",
"]	c #640003",
"^	c #540003",
"/	c #070000",
"(	c #020000",
"_	c #6A0003",
":	c #5F0003",
"<	c #6C0004",
"[	c #480002",
"}	c #6B0004",
"|	c #6F0004",
"                                                                ",
"                                                                ",
"                        .+        .@#                           ",
"                        $%&* .    +=-;                          ",
"                   >,'+-@)$)!))))~{],^&;                        ",
"                   ~ =/)))))(##)))())_&]-                       ",
"                   >~-@&)))@+)):&$)*#))*))+                     ",
"                <,)))))))^ ,, =):+]). _);)))   #                ",
"            #@> +)))))( %); )  <):%@!  ')@)^)*[[$               ",
"            / ^),$))_ (= ')() ))})))|*  )~<)#)'[@{.             ",
"            :,!!))),)));   +. )*)!  )~& ^:/:[*):)@/             ",
"              )(|       #{|   ;) )% ) [[;)_ ) )<)!);            ",
"          ,)())[:=_;^.'@&&-)))().:)!~= )#)#;) '){.))'~.         ",
"         )=!))))))% |),.   ^<    .))!)|;)<))=  )  ))^=<         ",
"        ())/$],) =)   })))| ,)[.  ;)):);<)  <@ )$<)/((.         ",
"         <@)*!)))-.*=~---))   $))^ <)~/);]:  ) )^^){)));        ",
"         <~))&_  ~)/=!'#{:-//[__)-):<))>).). &+)# ) ) )/        ",
"     .$)!-)<   .)>    ! ,)*.._^()_ ]);!.<)):_.){)[) ) /)        ",
"     ],:)^    +)-))))))  )          |)! ),))@|)|{]  )^))]       ",
"      |)])))~|^)!     <))=            [(@),'|&{/    )^)!)       ",
"      ())_  ) )    ' ;).       <)        ) ; ).)    )~) )/      ",
"     _)))& &).)  ')-))|        ))}       )%)!!:)  ^+-+) ))      ",
"    .),)*:)^ ){ ~)            ')$)       ;$ /!)/ }~=,:- ))      ",
"     #!>), ;)! (@@[           )' )=          ()/ ); && }~);,}   ",
"    !) )+ _)<|)=|)'          @)  !)          :)/ ( #.  /#)@;/   ",
"   =/[)] #)#/)^:)|          |);   )-         }@)~-!~) ;) )@;@   ",
"  *,-+)  |)){{))['          )%    |)|        '^~))/ ) (*!(@&;   ",
"  @@]);.:+  .)~]))         ^)      /)         ).{)) )+^ );)!@   ",
"   #')<)%)^ )}):-)        ;)*       )'        :]#/);)& '), >)   ",
"    )<); <)')!)$)#        ))        %)        *-#+~@>% ),^.)[   ",
"    )$)) )+)),>][        ;).         )_       ,<_) ).*<)< )).   ",
"    ))^$=))-:) )|        ^)          :)       ) ) +&  [%*)$)'   ",
"   .)$ <)!@));+)):       ),          .)       /)~ ).  ;))#))!   ",
"   !). )|=)$% )^>)       ),           )        < +& .; . <):$   ",
"   &))^$   )  )!])       /(          {)       !) ).[$+);|);,)   ",
"   #,$) ;-^,!>$~_/       +)          )~       #='-)+]) |)]*)'   ",
"    ):) )^(:))|) )        )!        |);        ;))<') })[/))    ",
"    |_)>))@[/)){ ,'       '){      |)[       |)))_|).>)<))/(    ",
"    &@))|')><))   ){       !)(#  |-)$        ~<'; )*])%,^-);    ",
"   !!$))~:). )) =$ )        ;))))))*        .) * -%#) ])/[@     ",
"   @+]))>)%   )  & )                       ;)<%<@- ')])$<)]>    ",
"    % ))*)_   )  )$>+                     |)|),)@   >^;;)[!-    ",
"      )):)    := )$')'                   =); :[; <^#  *)=~&{    ",
"      %/:);)( ./ !@).&,                 !&     >)%  }));(:      ",
"       )<))[)_>:  )_) ~_                ')|  <)$ ~)))))|,,      ",
"      ;)|)):[=) $>{&=^(;^>]@         <)()))))~| )$].)$@)).      ",
"      !!@)),(%~-$)^) )~>][)})| ]] -&)(;>)^.     )|$<:)))        ",
"      _!@=))/)])  )${-_)~ ^];),^@ )  '}    .+$/%!)))[&)         ",
"       %+ ))));)  ){@.).%)])#!{))))):<,)))))@+|    <)&,@        ",
"          &);:~).>~ [ <).;)& +/.  +))+        ;||!))$)~[        ",
"          .)=])~]/{ =)=<)  ,)|*)>   .&))(_ }))))),# |           ",
"           *[:^))/_ ) )#!^  *))][)))-      );   .!))!           ",
"            +'&))_) )#') -   *[&)$< ')+    {)))))))#            ",
"            #:.~)|)_~=')#* _))[:$)<))),)<  !%,,))]              ",
"             -|@))<)})#[)  ){:-)%))@ +){]<   ))|                ",
"             |^;#[-})$)))_ :&~%~-+<); ;)-++!/()@~               ",
"                 =!~;)));): )@%),).<)^  >&&)){ ]+               ",
"                  ';  ^)> ))[@)) !))=-))@<.,[)                  ",
"                       *);)][))))-;^))))))( |;                  ",
"                          [_-_ |:))*,$&                         ",
"                           )'&       &&                         ",
"                            +|                                  ",
"                                                                ",
"                                                                "};
