/* XPM */
static char * arania_exumai_icn_xpm[] = {
"64 64 91 1",
" 	c #00008B",
".	c #00008A",
"+	c #000083",
"@	c #000086",
"#	c #000089",
"$	c #00007D",
"%	c #00007A",
"&	c #000081",
"*	c #000082",
"=	c #000075",
"-	c #00007E",
";	c #000073",
">	c #000072",
",	c #000078",
"'	c #000088",
")	c #00006A",
"!	c #000069",
"~	c #000085",
"{	c #000074",
"]	c #00007C",
"^	c #000079",
"/	c #000064",
"(	c #000080",
"_	c #000058",
":	c #000000",
"<	c #000056",
"[	c #000062",
"}	c #000041",
"|	c #00007F",
"1	c #000005",
"2	c #000084",
"3	c #000070",
"4	c #000047",
"5	c #00006D",
"6	c #000055",
"7	c #000043",
"8	c #000059",
"9	c #000067",
"0	c #000071",
"a	c #00004F",
"b	c #000087",
"c	c #00005A",
"d	c #000068",
"e	c #000057",
"f	c #000050",
"g	c #00003A",
"h	c #000077",
"i	c #00005D",
"j	c #00006E",
"k	c #000053",
"l	c #000045",
"m	c #000066",
"n	c #00006F",
"o	c #00005C",
"p	c #00005B",
"q	c #000063",
"r	c #00006B",
"s	c #000061",
"t	c #00004E",
"u	c #000006",
"v	c #000039",
"w	c #00000C",
"x	c #000060",
"y	c #000065",
"z	c #00007B",
"A	c #00004A",
"B	c #000040",
"C	c #00006C",
"D	c #00005F",
"E	c #00005E",
"F	c #000042",
"G	c #00003B",
"H	c #000076",
"I	c #00004D",
"J	c #000054",
"K	c #000051",
"L	c #00003E",
"M	c #000032",
"N	c #00004B",
"O	c #000048",
"P	c #000030",
"Q	c #000014",
"R	c #000049",
"S	c #00004C",
"T	c #000036",
"U	c #000052",
"V	c #000033",
"W	c #00002D",
"X	c #000037",
"Y	c #00002A",
"Z	c #00002F",
"                                                                ",
"                                                                ",
"                                .                               ",
"                        +       @         #                     ",
"                        $       %         +                     ",
"                        &*      =        -#                     ",
"                         ;      >  ,     ,                      ",
"          '              )      !  ~    #{             #        ",
"          .*             ;]'^#  /   *(  ,&            '+        ",
"           ']           #(_:*]  <   #:[ }            @$         ",
"            ~{      '   *|:/    1    +:[}   -       23          ",
"             *3     &   #::-    :     4:$          &5           ",
"              |<        6:78   @:* # @:::#        +9#           ",
"               0a b #  |::&5(  *c| 3 d{e:f    #  %c#            ",
"                /g+@#@ <:d .5@ &dh'<2i b::   *  jk@             ",
"                 l:0   <:3  ;m %;5n&o~  ::  #$ ep~              ",
"                 .qo3  <:0  'ibr*s> b  .::  m@%l| ##            ",
"            2]h#  tuk@ e:0   b>{b5.    #:: ~}::&  &             ",
"               '  :!v>#e:!    n{       *:: fw::2                ",
"                  :i-x&e:y    (x  2    *::@5(::*                ",
"  .@         b    ::b)0_:s   . { 2| &  (:: @:::#                ",
"   .(z2      @    [:A/:B::+  + # -' 0. ::: :e::    #   *#       ",
"      (>=~        '::*4::::#   .'b  . o::n>3::5  #] @;z         ",
"        ~jq{+      r:: C!:::   :*:&  ,::D #j::  @0^sj#          ",
"         @'=A<0|b& .::{'Ej::y @:::m *::F& b::z &9G!b            ",
"         b  .z[/rr/&h:::2.n::H:::::=:::b+d::: #H5*              ",
"               (d3@+@:::::2y::::::::::b9::::*$I(                ",
"                 ~{j~#>::::a:::::::::p::::JzeH#      -'         ",
"              @HrJ0jj& 'D:::::::::::::::qb/ahz&+b               ",
"          *      @{n|  .  &:::::::::::>.'   {oKn+               ",
"           #2**|3r!n%' &jF::::::::::::::i]b!LA/J8y{,&2@         ",
"  .~z^H>>rIMd]z+'   .:::::::::::::::::::::::|  #%y}NkoDxd%]~~b. ",
"            @h='    y::::s$[::::::::::]m:::::'  @mH#            ",
"           .+.     (::j'+.O::::::::::::-& |:::     (b           ",
"                  #:::(~@:::::::::::::::^  |::h                 ",
"        &       ' k:Py!&:::::::::::::::::QR9e::b   |            ",
"            b]Ek>n::,%*:::|:::::::::::&:::K3!::K@               ",
"         2>50<K>(x:AEk:::& :::::::::::{#:::ltO::                ",
"      2($2 ()|  +a:]^y::m ~:::::::::::! +::^D#g:                ",
"    '~    #.  ##$P:+k ::% b:::::::::::y  ::|(gy: #              ",
"              ' %v:C..::~#b:::::::::::,[ ::j (Sp  h#            ",
"                ~3># *::@T@8::::::::::.U ::U h+E@               ",
"            b(. #!@  :::bm @:::::::::x^Vbn:: +Tdl2              ",
"            2. #rz'  ::c~0@ ^:::::::S Wv((::  -|!l$             ",
"              #d5+   ::;)B+# &:::::)  Nr6 ::~  *#*a9            ",
"             #mmb'*  9:HXk 6   2(*  + z=(.::  (#' #yc#          ",
"            #y>  +#  2:O&q>Y j'   C *s.l ~:e   b    $q~         ",
"           #9z        ::$jxo&=n; +9* Z+4.z:2         #3$        ",
"          bC+         $:xG'qi 0^+,*( rR;zc:            |,       ",
"         b0'     '     :Rn s!  b;0.# H|8X:*             #(#     ",
"        @,      @^     -C  e@   Kj   $ ND|    (           '     ",
"       '&       '      9|  %    /5   bb@Zz     b                ",
"       '              '9   #    {m (  # D7                      ",
"                   '  ,&        Hd      bX#                     ",
"                  .#  {     |#  %)       q]                     ",
"                     ~&     &.  (n       bf                     ",
"                     &          &H        D#                    ",
"                     #          *,        b%                    ",
"                                2z         %                    ",
"                                 &         2b                   ",
"                                 &          @                   ",
"                                 b                              ",
"                                                                ",
"                                                                "};
