/* XPM */
static char * avada_kedavra_icn_xpm[] = {
"64 64 248 2",
"  	c #030005",
". 	c #060000",
"+ 	c #000200",
"@ 	c #000205",
"# 	c #020501",
"$ 	c #00060A",
"% 	c #050804",
"& 	c #000A04",
"* 	c #090C08",
"= 	c #030F09",
"- 	c #0F0C10",
"; 	c #110C0A",
"> 	c #0C0F0B",
", 	c #0D1214",
"' 	c #10120F",
") 	c #041610",
"! 	c #141115",
"~ 	c #011A13",
"{ 	c #191514",
"] 	c #051C16",
"^ 	c #001E17",
"/ 	c #031E13",
"( 	c #161815",
"_ 	c #16191B",
": 	c #032019",
"< 	c #1B191C",
"[ 	c #00251D",
"} 	c #1D1E1C",
"| 	c #08251E",
"1 	c #04271B",
"2 	c #032A21",
"3 	c #1F2325",
"4 	c #003026",
"5 	c #1B2823",
"6 	c #232729",
"7 	c #252724",
"8 	c #212925",
"9 	c #003329",
"0 	c #0A3128",
"a 	c #063325",
"b 	c #2B292C",
"c 	c #03362C",
"d 	c #2B2C2A",
"e 	c #2B2E30",
"f 	c #23312C",
"g 	c #2F2D30",
"h 	c #083A30",
"i 	c #003E33",
"j 	c #2F312E",
"k 	c #2E3234",
"l 	c #063F2F",
"m 	c #0C3D33",
"n 	c #014136",
"o 	c #283631",
"p 	c #054338",
"q 	c #0A4232",
"r 	c #353734",
"s 	c #0D4434",
"t 	c #3A3635",
"u 	c #39363A",
"v 	c #0A473B",
"w 	c #293E37",
"x 	c #363A3C",
"y 	c #114737",
"z 	c #054B39",
"A 	c #393B38",
"B 	c #004D41",
"C 	c #0A4E3C",
"D 	c #424044",
"E 	c #085245",
"F 	c #40423F",
"G 	c #3F4345",
"H 	c #115341",
"I 	c #065945",
"J 	c #444643",
"K 	c #155643",
"L 	c #49464A",
"M 	c #0B5B48",
"N 	c #035D4F",
"O 	c #45494B",
"P 	c #0F5D4A",
"Q 	c #4F4C50",
"R 	c #13604C",
"S 	c #036550",
"T 	c #4D4F4C",
"U 	c #534E4D",
"V 	c #056651",
"W 	c #4D5053",
"X 	c #16624E",
"Y 	c #116455",
"Z 	c #18634F",
"` 	c #0A6853",
" .	c #196450",
"..	c #545256",
"+.	c #1A6551",
"@.	c #525451",
"#.	c #585453",
"$.	c #555755",
"%.	c #54585A",
"&.	c #575B5D",
"*.	c #5C5A5E",
"=.	c #5E5C60",
"-.	c #5B5F61",
";.	c #5D5F5C",
">.	c #635E5D",
",.	c #5E6264",
"'.	c #616360",
").	c #616567",
"!.	c #676569",
"~.	c #63686A",
"{.	c #666866",
"].	c #6D6A6E",
"^.	c #686C6F",
"/.	c #6B6D6A",
"(.	c #736F6D",
"_.	c #6C7173",
":.	c #6E716E",
"<.	c #727074",
"[.	c #757277",
"}.	c #717578",
"|.	c #737572",
"1.	c #7A7574",
"2.	c #79777B",
"3.	c #75797C",
"4.	c #777976",
"5.	c #797E80",
"6.	c #7C7E7B",
"7.	c #827D7C",
"8.	c #7E8285",
"9.	c #80827F",
"0.	c #868488",
"a.	c #848683",
"b.	c #84888B",
"c.	c #898B88",
"d.	c #888C8F",
"e.	c #8D8B8F",
"f.	c #908B8A",
"g.	c #8A8F91",
"h.	c #8C8F8C",
"i.	c #8E918E",
"j.	c #939094",
"k.	c #919491",
"l.	c #909496",
"m.	c #949693",
"n.	c #999593",
"o.	c #989599",
"p.	c #93979A",
"q.	c #979996",
"r.	c #979B9E",
"s.	c #999B98",
"t.	c #9D9A9E",
"u.	c #A09B9A",
"v.	c #9C9E9B",
"w.	c #9B9FA1",
"x.	c #A19FA3",
"y.	c #A49F9E",
"z.	c #9EA3A5",
"A.	c #A2A4A1",
"B.	c #A3A6A2",
"C.	c #A6A8A5",
"D.	c #A5A9AC",
"E.	c #ABA8AD",
"F.	c #ADA8A7",
"G.	c #A7ACAE",
"H.	c #AAACA9",
"I.	c #AFACB0",
"J.	c #B3B0B4",
"K.	c #AFB2AE",
"L.	c #AEB3B5",
"M.	c #B7B2B1",
"N.	c #B1B6B8",
"O.	c #B4B6B3",
"P.	c #B8B5BA",
"Q.	c #B6B8B5",
"R.	c #B5B9BC",
"S.	c #BBB8BC",
"T.	c #BDB8B7",
"U.	c #B7BCBE",
"V.	c #B9BCB9",
"W.	c #BFBCC0",
"X.	c #BBBFC2",
"Y.	c #BDC0BC",
"Z.	c #C2BFC3",
"`.	c #BEC2C5",
" +	c #C0C3C0",
".+	c #C4C2C6",
"++	c #C8C3C2",
"@+	c #C1C6C8",
"#+	c #C3C6C2",
"$+	c #C4C8CB",
"%+	c #C6C8C5",
"&+	c #CAC8CC",
"*+	c #C6CBCE",
"=+	c #CDCACF",
"-+	c #CACCC9",
";+	c #CACED1",
">+	c #CCCECB",
",+	c #D2CDCC",
"'+	c #CED1CE",
")+	c #CDD1D4",
"!+	c #D3D0D5",
"~+	c #D1D3D0",
"{+	c #D3D5D2",
"]+	c #D2D7D9",
"^+	c #DAD5D4",
"/+	c #D9D6DB",
"(+	c #D5D8D4",
"_+	c #D6DADD",
":+	c #D9DBD8",
"<+	c #DFDAD9",
"[+	c #DBDEDB",
"}+	c #DADEE1",
"|+	c #E4DEDD",
"1+	c #DFE1DE",
"2+	c #E6E1DF",
"3+	c #DFE3E6",
"4+	c #E1E3E0",
"5+	c #E4E2E6",
"6+	c #E1E6E9",
"7+	c #E3E6E2",
"8+	c #E5E7E4",
"9+	c #E7E9E6",
"0+	c #EBE8ED",
"a+	c #E5EAED",
"b+	c #EEE8E7",
"c+	c #E8EBE8",
"d+	c #EBEDEA",
"e+	c #EAEEF1",
"f+	c #ECEFEB",
"g+	c #EEF0ED",
"h+	c #F3F0F5",
"i+	c #EDF2F4",
"j+	c #F0F2EF",
"k+	c #F1F4F0",
"l+	c #F8F3F1",
"m+	c #F1F5F8",
"n+	c #F9F4F2",
"o+	c #F4F6F3",
"p+	c #FCF7F6",
"q+	c #F7F9F6",
"r+	c #F5FAFC",
"s+	c #F9FBF8",
"t+	c #FCFAFE",
"u+	c #FFFAF9",
"v+	c #F8FCFF",
"w+	c #FAFCF9",
"x+	c #FBFDFA",
"y+	c #FCFFFB",
"V V V V V V V V V V V V V V V V V V V V V  .V V V V +.V V V V V V V V V V V V V V V V +.V V V V V +.+.+.+.+.V V V V V V V +.V V ",
"V V V V V V V V V V V V V V V V V V  . .V V V V V V I C v q q q q s y C K X +.V V +.+.+.V V V +.+.+.+.+.+.+.V V V V V V V V V V ",
"V V V V V V V V V V V V V V V V V V V  .Z  .M z c = . + * J 6.i.h._.} + + # 0 z M Z  .+.V V +.+.+.+.+.+.+.V V V V V V +.+.V V V ",
"V V V V V V V V V V V V V V V V V V +.X v [ + # $.v.#+1+k+x+x+y+y+y+q+8+>+C.:.; + ~ q R ` V V V V +.+.V V V V V V V V +.V +.V V ",
"V V V V V V V V V V V V V V V V V V H ~ * 9.Y.9+y+y+y+x+x+x+x+x+x+x+x+x+x+x+x+g+#+h.7 % s S V V V +.+.V V V V V V V V V V V V V ",
"V V V V V V V V V V V V V V V V Z m % q.9+y+y+x+x+x+x+x+x+x+x+x+x+x+x+x+x+x+x+x+w+x+k+O.r : I V V V V V V V V V V V +.V V V V V ",
"V V V V V V V V V V V V V V  .N 2 d >+y+y+y+x+x+x+x+x+x+x+x+x+x+x+x+x+x+w+x+x+x+w+x+x+x+d+|.& C S V V V V V V V V V V V V V V V ",
"V V V V V V V V V V V V V V R ^ O [+y+y+x+y+x+x+x+x+x+x+x+x+x+x+x+x+x+x+v+x+x+x+w+w+w+w+w+o+i.+ y V V V V V V V V V V V V V V V ",
"V V V V V V V V V V V V V P ) ,.9+x+x+x+x+x+x+x+x+x+x+x+x+x+x+x+x+x+x+x+x+x+x+x+w+w+w+w+w+v+q+H.% n V V V V V +.V V V V V V V V ",
"V V V V V V V V V V V +.N ) _.k+y+x+x+x+x+x+x+x+x+x+x+x+x+x+x+x+x+x+x+x+x+x+x+x+w+w+w+w+t+t+w+x+#+' h S V V +.+.+.+.V V V V V V ",
"V V V V V V V V V V V N ) _.o+y+y+x+x+x+x+x+x+x+x+x+x+x+x+x+x+x+x+x+x+x+x+x+x+x+x+w+w+w+w+w+w+x+x+%+' h  .+.V +.V V V V V V V V ",
"V V V V V V V V V V Y : ,.g+y+s+y+x+x+x+x+x+x+x+x+x+x+x+x+x+x+x+x+x+x+x+x+x+x+x+x+w+u+w+w+w+w+q+s+w+ +$ p V +.V V V +.V V V V V ",
"V V V V V V V V V V h A 8+x+y+[+x+x+x+x+x+x+x+x+x+x+x+x+x+x+x+x+x+x+x+x+x+x+x+x+x+w+w+w+w+w+w+s+1+s+q+L.+ K V V V +.+.V V V V V ",
"V V V V V V V V V K @ -+x+x+9+c+x+x+x+x+x+x+x+x+y+x+x+x+x+x+x+x+x+x+x+x+x+x+x+x+x+x+w+w+w+x+w+w+(+s+v+v+h.^ Z V +.+.+.V V +.V V ",
"V V V V V V V V V | a.x+y+y+(+q+x+x+x+x+x+x+y+y+x+x+x+x+x+x+x+x+x+x+x+x+x+x+x+x+x+x+x+x+x+w+w+w+~+t+x+y+g+d z V +.+.V V V +.V V ",
"V V V V V V V V K + }+:+y+y+9+9+w+x+x+x+x+y+y+y+x+x+x+x+x+x+x+x+x+y+x+x+x+x+x+x+x+x+x+x+x+w+w+w+>+x+y+y+1+D.) S +.+.+.V V V V V ",
"+.V V V V V V V p $.w+Y.y+y+s+(+x+x+x+x+x+x+y+x+x+x+x+x+x+x+x+y+x+y+x+x+x+x+x+x+x+x+x+x+x+w+w+w+{+w+y+k+>+3++ K +.+.+.V V V V V ",
"V V V V V V V V 4 r.x+%+1+x+w+0+x+x+x+x+x+x+x+x+x+x+x+x+x+x+x+x+x+x+x+x+x+x+x+x+x+x+x+x+x+w+w+w+7+s+w+Q.i+r+j C +.+.+.V V V V V ",
"V V V V V V V V 1  +x+8+a.w+w+x+x+x+x+x+x+x+x+x+x+x+x+x+x+x+x+x+x+x+x+x+x+x+x+x+x+x+x+x+w+w+w+x+w+s+9+h.e+x+8.v +.+.+.V V V V V ",
"V V V V +.V V ` / [+y+/+2.{+u+x+x+x+x+x+x+x+x+x+x+x+x+x+x+x+x+x+x+t+x+x+x+x+x+x+x+x+x+x+w+w+w+w+w+w+v.x.a+y+C.n +.+.+.+.V V V V ",
"V V V V V V V V ) ~+x+}+t.c.y+x+x+x+x+x+x+t+t+x+t+x+x+x+x+x+x+x+t+x+t+x+x+x+x+x+x+t+t+w+w+w+w+w+w+k+r N.i+t+q.n +.+.V +.V V +.V ",
"V V V V V V V V ~ 4+v+/+W.7 o+x+x+x+x+d+x+x+t+x+x+x+x+x+x+x+x+x+x+x+x+x+x+x+x+x+x+x+t+o+o+w+w+w+w+>+/.@+6+v+L.l +.+.V V +.+.+.+.",
"V V V V V V V +.] )+v+9+.++ :+x+x+x+x+u+q+1+w+x+x+y+x+x+x+x+x+x+x+x+x+x+x+x+x+x+x+t+1+w+x+x+x+w+x+H.*.;+q+v+z.i +.V V V +.+.+.+.",
"V V V V V V +.+.: H.y+}+N.+ ~+x+x+x+x+x+u+d+!+g+d+j+q+w+x+x+x+x+x+x+x+x+w+q+8+d+d+{+s+x+x+x+x+x+x+y.=.;+1+s+~.p +.V V V V V V +.",
"V V V V V V +.+.2 F g+)+H.' f+y+y+x+x+x+x+x+w+x+%+t.I.:+y+y+x+x+x+x+y+i+#+s.K.2+x+x+x+x+x+x+x+x+x+X.+ S.3+~+7 y +.V V V V V V V ",
"+.V V V V V V +.a 1.C.>+W c.y+y+y+o+f+x+x+x+y+y+y+g+L.2.U.s+x+y+y+x+d+q.9.>+s+x+x+x+x+x+x+7+x+x+x+i+j w.Y.i.@.C +.V V V +.V V V ",
"+.V V V V V V V q [.^.9.< 7+9+>+{+8+]+~+x+y+y+x+x+x+y+k+l.#+x+y+y+k+g.Y.y+x+x+x+x+x+x+o+V.6+:+-+>+o+P.+ b.d.' K V V V V +.+.V V ",
"V V V V V V V V C { b.+ Q.[+[.&.. + r ..m.7+y+x+x+x+y+x+q+;+y+y+y+k+%+w+y+y+x+x+x+s+$+,.-.* + . !.j.j+5.. 9.+ M +.V V V +.V V V ",
"V V V V V V V V H + e }.e+]+6+x + + + + + O %+3+y+y+x+x+y+y+q+x+x+m+x+x+x+y+y+s+:+g.u . + + + + 4.k+;+8+_ 3 + R +.V V V V V V V ",
"+.V V V V V V V I + @ X.v+v+l.. + + + + + + > B.7+s+w+y+y+y+;+_+_+5+t+t+w+w+x+X.9.+ + + + + + + + %+q+w+6.+ #  .V V V V V V V V ",
"+.V V V V V V V R +   U.v+o+6 + + + + + + + + . %.X.:+y+w+c+N.c.:./+g+y+m+;+w.e + + + + + + + + + c.x+y+[.@ ^ Z  .V V V V V V +.",
"V V V V V V V V V = @ s.t+:+! + + + + + + + + + + r p.p.h.q.O &.Q 4.k.g.p.8.+ + + + + + + + + + + F v+v+k   c Z  .V V V +.+. .+.",
"V V V V V V V +.V 4 . q.v+#+/.{ + + + + + + + + + + + -.^.F ^.R.W.6 ,.8.J . + + + + + + + + + + - 1.a+t+g . z V  .V V V +.+.+.+.",
"V V V V V V V +.V q + G.v+R.m.|.+ + + + + + + + + + + + + g.@+;+1+R.'.+ + + + + + + + + + + + + 7.m.5+w+..+ H +. .V V V +.+.+.+.",
"+.V V V V V V +.V C + X.c+Y.A.y.+ + + + + + + + + + + + =.1+r+e+w+s+C.).+ + + + + + + + + + + * I.n.g+8+9.+ P +.V V V +.+.+.+.+.",
"V V V V V V V V V I @ 1+~+{+k.`.Q . + + + + + + + + + g L.7+r+}+y+s+H.Q., + + + + + + + + + + f.++*.r+>+K.= V +.V V V +.+.+.+.+.",
"V V V V V V V +.Z 9 /.x+V.q+{.M.f+'.+ + + + + + + + /.K.%+*+)+9+1+#+P.|+h.+ + + + + + + + + H.9+2.H.o+Y.8+} s V +.V V V V V V V ",
"V V V V V V V V 4 {.d+y+H.4+d+{.[.j.>.+ + + + } /.j X.f+g+`.|.D J K.V.q+^+9.!.J # + + + @ }.6.*.u.o+O.(+y+;+r v V V V V V V V V ",
"V V V V V V V R + ]+)+y+s+N.[+p+Q.U + * |.O.<+8+w.O.k+w+{+Y.&.+ + !.%+q+q+d+6.>+8+%+v.J + ; (.,+w+J.(+x+g+_+x.2 V V V V V +.+.+.",
"V V V V V V V V h 3.S.k+y+y+-+~+x+x+b+f+y+k+%+Y.9+7+3+y+:+6.+ + + ; ++1+u+%+o+>+O.:+y+s+b+k+y+o+T.8+y+x+%+@+G B  .V V V +.+.+.+.",
"V V V V V V V V R > p.O.y+y+y+k+k+y+y+y+y+y+y+w+'+]+y+y+4+* + + + + j.k+y+j+V.9+y+u+u+u+u+u+y+9+q+x+y+s+3.g.| Z  .V V +.+.+.+.+.",
"V V V V V V V V V n L h.@+d+:+q+y+y+d+c+s+y+y+x+c+w+x+c+Y.+ + + + + d l+7+u+8+w+y+u+y+h+9+l+y+y+k+(+9+s.q.{ E  .V V V +.+.+.+.+.",
"V V V V V V V +.+.R * D.<.X.y+y+y+y+o+}+r.j.5+y+y+y+7+d+~.+ + + + + . #+~+x+y+y+x+Z.7.V.f+q+y+y+y+w+g.z.~.2 S  .V V V V V V +.+.",
"+.V V V V V V V V V n '._+z.G.$+8+f+o+3+!+J.[.0+y+y+g+1++ + . J + + + 1.k+x+x+y+K.d.>+3+k+i+j+:+ +K.L.X.+ H  . .V V V V V V +.+.",
"V V V V V V V V V V X ~ C.:+@+l.).O W j.:+i+@+n.y+y+y+V.=.+ . F.J + t U o+y+x+d+j.1+e+Y.|.x T }.G.%+(+3.h  . . .V V V V V V V V ",
"V V V V V V V V V V V H + + + # & . + ' { V.g+A.o+y+y+K.z.0.> %+2.6 x./.j+u+y+ +{+k+|.* + + + ) + + + ) R V V V V V V V V V V V ",
"V V V V V V V V V V V V H q z R P [ + A w.k {+[+1+y+k+-+*.t.'.c+%+'.t.4.3+y+y+U.w+h._.d.+ + i R I s l I V V V V V V V V V V V V ",
"+.+.V V V V V V V V V V V S S  .Z R 2 . o.W.q.x+1+y+w+J..+H.o+8+[+(+w./+>+y+y+1+8+p.N.@.+ v S Z Z S S V V V +.+.+.V V V V V V V ",
"+.+.V V V V V V V V V V V V  . .V V S & (.'+%+t+y+y+y+f+(+y+y+g+7+y+k+>+s+y+y+y+#+1+@++ 9 ` V  . . .V V V +.+.+.+.V V V V V +.+.",
"V V V V V V V V V V V V V V V V V V V a a.j+k+c+s+q+k+y+w+s+y+y+y+y+s+w+y+d+y+q+}+y+'++ C  .V V V V V V +.+.+.+.+.+.V V V V +.+.",
"V V V V V V V V V V V V V V V V V +.Z ^ @+)+s+_+r+~+w+y+[+s+x+s+w+y+:+w+y+{+w+:+o+d+~+].v Z  . .V V V V V +.+.V +.+.+.V V +.+.+.",
"V V V V V V V V V V V  .V V V V +.+.M + 0+U.0+^+4+Q.y+8+*+y+x+}+5+t+9+-+x+7+Y.o+*+>+8+G.9 X  .V V V V V V +.+.V +.+.+.+.+.+.+.+.",
"V V V V V V V V V V  .V V V V V +.+.Z % 8.g./+s+=+_+1+g+:+4+f+5+a+:+n+~+k+(+_+^+4+L.L.( n Y  .V V V V V +.+.+.V V +.+.+.+.+.+.+.",
"V V V V V V V V V V V V V V V V V +.R %.x.b ].u.m.c.t./+:+q.b.g+X.E.c.o+m.v.q.E.0.> =.D.c V V V V V V V +.V V V V +.+.+.+.+.+.V ",
"V V V V V V V V V V V V V V V V V +.K 5.&+E.~+!+b O.s+q.}.o+a+e.m.w+%+;._+w+#.5.m+5.)+X.] V V V V V V V V V V V V +.V V +.+.+.V ",
"V V V V V V V V V V V V V V V V V +. .o w.l.k+c+B.}+x+L.Q.w+y+m.:+y+q+|.:+y+q.=+y+Q.U.@.q V V V V V V V V V V V V +.V +.+.+.+.+.",
"V V V V V V V V V V V V V V V V V V +.I 5 '.o+w+v.8+w+G.]+x+y+K.9+y+x+c.1+x+w._+y+Q.r i S V V V V V V V V V V V V +.V +.+.+.+.V ",
"V V V V V V V V V V V V V V V V V V +. .X 8 )+y+A.h.}+v.:+y+x+H.4+y+y+h.>+*+G 6+e+c.s S S V V V V V V V V V V V +.+.+.+.+.+.V +.",
"V V V V V V V V V V V V V V V V V V V V V s 3.}+f v c m {.K.K.-.c.O.B.w l m q 5.;+d R V V V V V V V V V V V V V +.V V +.+.+.+.+.",
"V V V V V V V V V V V V V V V V V V V +.V X ^ k H V V V P z y I z y K V V V V h ( v V V V V V V V V V V +.+.+.+.+.V V V +.V +.+.",
"V V V V V V V V V V V V V V V V V V V V V +.R P V V V V V V V V  .+.V V V V V S M V V V V V V V V V V V +.+.+.+.V V V V +.+.+.+.",
"V V V V V V V V V V V V V V V V V V V V V +.+.+.V V V V V V V V V V V V V V V +.+.+.+.V V V V +.V V V V +.+.+.+.+.V V +.V V +.+.",
"+.V V V V V V V V V V V V V V V V V V V V V V V V V V V V V V V V V V V V V +.+.+.+.V V V V V +.V +.+.+.+.+.+.+.+.+.+.+.+.+.+.+.",
"+.V V V V V V V V V V V V V V V V V V V V  .V V V V V V V V V V V V V V V V V +.+. .V V V V V V +.+.+.+.+. .+.+.+.+.+.+.+.+.V V "};
