/* XPM */
static char * bombarda_icn_xpm[] = {
"64 64 253 2",
"  	c #151110",
". 	c #3A070B",
"+ 	c #5D0000",
"@ 	c #221311",
"# 	c #6E0003",
"$ 	c #3A1412",
"% 	c #670905",
"& 	c #590D0A",
"* 	c #7C0304",
"= 	c #501314",
"- 	c #281F20",
"; 	c #8C0208",
"> 	c #950007",
", 	c #331D1C",
"' 	c #980301",
") 	c #850904",
"! 	c #A10107",
"~ 	c #8F0703",
"{ 	c #840A0B",
"] 	c #7A0D0E",
"^ 	c #262624",
"/ 	c #AC0005",
"( 	c #AB000D",
"_ 	c #90090C",
": 	c #6F1312",
"< 	c #99070A",
"[ 	c #591A18",
"} 	c #B50003",
"| 	c #A40601",
"1 	c #B5000B",
"2 	c #362624",
"3 	c #4B201F",
"4 	c #AE0500",
"5 	c #A40710",
"6 	c #AE0607",
"7 	c #422625",
"8 	c #8A1216",
"9 	c #901113",
"0 	c #A60B0A",
"a 	c #9C0F13",
"b 	c #B00A09",
"c 	c #B00B11",
"d 	c #9E110E",
"e 	c #B10D0A",
"f 	c #592728",
"g 	c #991818",
"h 	c #5B2B2A",
"i 	c #AB1415",
"j 	c #AA141B",
"k 	c #83201F",
"l 	c #672828",
"m 	c #8A1E20",
"n 	c #4D302E",
"o 	c #B41314",
"p 	c #B4131A",
"q 	c #792521",
"r 	c #941D1E",
"s 	c #732727",
"t 	c #7F2424",
"u 	c #A41A19",
"v 	c #A51B1F",
"w 	c #872428",
"x 	c #393B38",
"y 	c #3E3A39",
"z 	c #9E1F1C",
"A 	c #9E1F21",
"B 	c #98221F",
"C 	c #AF1B1F",
"D 	c #443A3B",
"E 	c #722D2D",
"F 	c #543635",
"G 	c #B01C19",
"H 	c #922522",
"I 	c #BA1B17",
"J 	c #9A2526",
"K 	c #AB2323",
"L 	c #A42526",
"M 	c #96292B",
"N 	c #803030",
"O 	c #B62223",
"P 	c #912D2A",
"Q 	c #474342",
"R 	c #6A393A",
"S 	c #A02A2A",
"T 	c #9F2A2F",
"U 	c #B62429",
"V 	c #932F30",
"W 	c #A92B2A",
"X 	c #604042",
"Y 	c #893533",
"Z 	c #8F3335",
"` 	c #564442",
" .	c #903430",
"..	c #7A3A3A",
"+.	c #743C3D",
"@.	c #B22B2E",
"#.	c #893739",
"$.	c #484A47",
"%.	c #9F3231",
"&.	c #823B38",
"*.	c #AD2F32",
"=.	c #534949",
"-.	c #9B3630",
";.	c #A83230",
">.	c #B72F2B",
",.	c #A83336",
"'.	c #96393A",
").	c #724442",
"!.	c #4D4F4D",
"~.	c #9E3838",
"{.	c #844040",
"].	c #B93233",
"^.	c #6E4947",
"/.	c #A63937",
"(.	c #914041",
"_.	c #5B5151",
":.	c #B73833",
"<.	c #6A4E4C",
"[.	c #535553",
"}.	c #9E4040",
"|.	c #884746",
"1.	c #655250",
"2.	c #9A4340",
"3.	c #8F4747",
"4.	c #A84040",
"5.	c #745053",
"6.	c #B83D3B",
"7.	c #7D4F4E",
"8.	c #974847",
"9.	c #595B58",
"0.	c #725454",
"a.	c #6A5859",
"b.	c #B84242",
"c.	c #A64847",
"d.	c #655B5B",
"e.	c #964D4E",
"f.	c #9D4C4B",
"g.	c #8C5151",
"h.	c #A34B47",
"i.	c #92504E",
"j.	c #5C6063",
"k.	c #5E605D",
"l.	c #885656",
"m.	c #636563",
"n.	c #7C5E5C",
"o.	c #835C5B",
"p.	c #935858",
"q.	c #9B5654",
"r.	c #A65353",
"s.	c #99575A",
"t.	c #716664",
"u.	c #925D5A",
"v.	c #A7575A",
"w.	c #786562",
"x.	c #696A67",
"y.	c #A55A55",
"z.	c #B65554",
"A.	c #906061",
"B.	c #7B696A",
"C.	c #6A6E70",
"D.	c #876766",
"E.	c #6D6F6C",
"F.	c #8E6664",
"G.	c #9F6362",
"H.	c #846B6A",
"I.	c #A6625F",
"J.	c #7A6F6F",
"K.	c #777271",
"L.	c #727572",
"M.	c #986A6A",
"N.	c #847273",
"O.	c #A06A6B",
"P.	c #917071",
"Q.	c #777976",
"R.	c #987071",
"S.	c #7D7877",
"T.	c #8E7473",
"U.	c #847879",
"V.	c #787C7F",
"W.	c #7C7E7B",
"X.	c #C16D69",
"Y.	c #9F7774",
"Z.	c #818380",
"`.	c #868280",
" +	c #9B7C7C",
".+	c #818487",
"++	c #94807E",
"@+	c #8F8383",
"#+	c #868885",
"$+	c #AE7E7E",
"%+	c #8A8C89",
"&+	c #908B8A",
"*+	c #9C8886",
"=+	c #8A8E91",
"-+	c #8D8F8C",
";+	c #A68888",
">+	c #9A8E8F",
",+	c #8D9294",
"'+	c #98918B",
")+	c #919390",
"!+	c #9A9594",
"~+	c #959794",
"{+	c #93989A",
"]+	c #A19696",
"^+	c #989A97",
"/+	c #AA9697",
"(+	c #9B9D9A",
"_+	c #9C9DA0",
":+	c #AA9E9E",
"<+	c #A5A09F",
"[+	c #9FA29F",
"}+	c #B19EA1",
"|+	c #A5A2A6",
"1+	c #9FA4A6",
"2+	c #A4A6A3",
"3+	c #AEA9A8",
"4+	c #A9ABA8",
"5+	c #AEABB0",
"6+	c #A9AEB0",
"7+	c #AEB0AD",
"8+	c #B3B5B2",
"9+	c #B9B4B2",
"0+	c #B3B6B9",
"a+	c #B7B9B6",
"b+	c #BBBDBA",
"c+	c #C2BDBC",
"d+	c #BCBFC2",
"e+	c #C0C2BF",
"f+	c #C2C7C9",
"g+	c #C5C7C4",
"h+	c #CAC7CC",
"i+	c #C7CBCE",
"j+	c #CACCC8",
"k+	c #D1CED3",
"l+	c #CDD0CC",
"m+	c #CFD4D6",
"n+	c #D2D5D1",
"o+	c #D7D9D6",
"p+	c #D5DADC",
"q+	c #DCD9DE",
"r+	c #DADDD9",
"s+	c #DFE1DE",
"t+	c #DFE2E5",
"u+	c #E4E6E3",
"v+	c #E8EBE7",
"w+	c #E9ECEF",
"x+	c #ECEEEB",
"y+	c #F1F3F0",
"z+	c #F0F4F7",
"A+	c #F5F8F4",
"B+	c #F9FCF8",
"C+	c #FBFCFF",
"D+	c #FFFFFF",
"1 1 1 1 1 1 1 1 1 1 1 ( > b 1 1 1 1 1 1 o o 1 1 1 1 6 ~ 6 1 1 1 1 j #.( 1 1 1 b 6 1 1 e 1 1 ! > b 1 1 1 1 1 1 1 1 1 1 1 1 1 1 1 ",
"1 1 1 1 1 1 1 1 1 1 1 1 > > 1 1 1 1 1 1 1 1 1 1 1 1 b { 6 1 6 e p c a b 1 1 1 ( 6 1 c V i b ; ! 1 1 1 1 1 1 1 1 1 1 1 1 1 1 1 1 ",
"1 1 1 1 1 1 1 1 1 1 1 1 6 ) ! 1 1 1 1 1 1 } 1 1 1 1 1 { ! 1 6 O 6.1 1 1 1 1 1 ! 6 } K f.K 0 { 6 1 1 1 1 1 1 1 1 1 1 1 1 1 1 1 1 ",
"1 1 1 1 1 1 1 1 1 1 1 1 1 < { 6 1 1 1 1 1 K i 1 1 1 1 ; ; b 0 o U 1 1 1 1 1 6 < c 6.p p e k _ 1 1 1 1 1 1 1 b 6 1 1 1 1 1 1 1 1 ",
"1 1 1 1 1 1 1 1 1 1 1 1 1 6 k r e 6 6 1 e f.s.p 6 b 1 ; k 6 < 1 1 e 0 6 1 1 ! > c ].o 1 5 ..i 1 1 1 1 1 1 b 6 6 1 1 1 1 1 1 1 1 ",
"1 1 1 1 1 1 1 1 1 1 1 1 1 1 a +.L b 0 b 1 v V c 6 6 1 8 ..( > b 1 p  .u 1 1 < < 1 1 1 } (.#.b 1 1 1 1 1 1 ( ( 1 1 1 1 1 1 1 1 1 ",
"1 1 1 1 1 1 1 1 1 1 1 1 1 1 6 Y 7.j / 0 1 1 b 1 i u 1 r ).u J c O b 6 c e c P u 1 1 1 L 7.S 1 1 } 1 1 1 ( ! 1 1 1 O 1 1 1 1 1 1 ",
"1 1 1 1 1 1 1 1 1 1 1 b 6 1 1 d 0.e.6 < 6 1 1 1 *.'.4 v <.~.v.K b.6 6 G e U i.0 1 b ( |.n.i 1 1 W G 1 ( ! 6 1 1 e 6.1 1 1 1 1 1 ",
"6 1 1 1 1 1 1 1 1 1 1 1 ( 6 1 6 {.w.%.! ! 1 1 1 G A 6 i 0.i.'.u O 0 / 1 1 ,.u.A 0 6 H w.{.6 1 } Z K 6 < ( 1 1 1 1 o 1 1 1 1 1 1 ",
"! b 1 1 1 1 1 1 1 c c 1 6 ! 6 b A N.P.v ) 6 6 b b < 0 i P.D.N %.6 < d 1 e s.q.2.v _ u.S.M b 1 1 c b < ! 1 c c 1 1 1 1 1 1 1 1 1 ",
"1 1 1 b H ;.o 1 e ,.%.} 1 ( < 6 6 g.&+q._ 9 e b L J > C  +`.<.0.s E B 4 i ;+2.b 6 Y >+T.0 1 1 1 1 ! ~ 6 ( q.V 6 1 1 1 1 1 1 1 1 ",
"1 1 1 6 o.*+y.o 1 U C 1 b 1 ! < b g U.>+'.#.K } T ~.> /.T.(+L.W.x.E.a.N {.]+2.| { w.<+i.6 b 1 1 ! ) ( 1 S '+)./ 1 1 1 1 1 1 1 1 ",
"1 1 1 1 /.I.f.p 1 1 1 1 i L 6 ; a 0 ).2+*+g.|.0 c p ) [ K.8+)+(+L.x.x.Q K.(+F f =.[+[+m b 0 o 0 ] < 6 6 ~.++&.6 1 1 1 1 1 1 1 1 ",
"1 1 1 1 b 6 6 1 1 1 6 b c j 1 5 N W ' @+c+H.1.[ : p.R   m.b+^+Q.k.$.x E.b+b+x.!.%+j+#+= > G *.Z H ( 0 6 c W i 1 1 1 1 G i e 1 1 ",
"1 1 1 1 1 6 ( 6 b 1 1 1 1 1 1 1 T l.,.{.9+2+$.x x =.!.[.j.b+=+Q.8+4+k.Z.a+^+x.E.8+g+L.[.= # s ..u < 6 1 1 1 b b 1 1 1 K v e 1 1 ",
"1 1 1 1 1 1 b 0 ! 6 1 1 6 6 6 1 o q.Y.+.`.f+(+9.x ^ $.Z.x.c+6+)+b+p+7+k.W.~+%+^+o+3+~+)+!.k.9.7 # ! 6 1 1 ( ( 6 1 1 1 1 1 1 1 1 ",
"( b 1 1 1 1 1 1 ( J v b ~ ! 0 6 1 *.;+&+E.0+n+Z.!.[+(+#+Q.a+j+%+)+e+r+-+(+g+7+i+s+`.)+7+Q.-+%+[.n %.1 b ! ! 6 1 L J 1 1 1 1 1 1 ",
"6 ! ! 6 b 1 1 1 e ;.-.' 0 6 6 < g a n.7+2+3+p+e+.+a+l+4+L.j+s+4+8+4+g+b+b+8+0+r+g+E.E.4+^+#+%+W.9.o.5 > ' 6 O p i j 1 1 1 6 ! ; ",
"1 b 0 > < ( b 1 1 5 5 ' ; < 1 0 X X =.4+j+4+f+u+e+,+Q.Z.Q.m+v+f+g+4+(+e+8+4+u+v+7+%+L.#+%+L.#+^+Q.2 * ! 6 0 ].>.b b } G S m { < ",
"1 1 1 6 ! ; ; < 6 0 6 1 / 8 Y s D $.9.a+n+W.[+t+u+g+)+^+4+m+y+n+g+g+8+a+1+e+u+t+7+2+Z.k.x.L.[.Z.Q.2 ) b b b 6 0 / 0 }.l.|.B ( 1 ",
"1 1 1 1 1 6 > : s r i e 1 0 +.S.W.L.9.(+l+Q.L.e+v+u+g+7+e+r+A+u+7+v+o+1+7+r+u+r+|+7+E.Q.2+^+[.m.$., ; e e < _ g (.T.H.8.j e 1 1 ",
"1 1 1 1 1 e S V t <.o.f.K 0 [ Q.b+a+x.Q.g+2+#+#+r+y+s+|+_+j+u+s+4+m+f+_+o+y+u+i+0+n+4+6+l+b+W.k.[.- l '.V V i.T.>+u.;.1 1 1 1 1 ",
"1 1 1 1 1 e }.c.c z u.++*+A.` L.8+4+m.m.W.7+2+V.g+x+v+h+.+W._+m+i+d+5+c+y+A+x+o+p+v+v+u+r+l+^+W.)+m.m.B.$+}+<+ +~.c 1 1 p e 1 1 ",
"1 1 1 1 1 1 b b 1 6 ! '.J.2+5+(+~+9.x.^+~+4+m+0+0+v+n+v+7+E.W.i+y+a+6+v+B+A+v+l+n+u+x+u+s+o+a+%+%+-+)+9+c+:+s.j } 1 1 } -.i 1 6 ",
"1 1 1 1 1 1 1 1 1 e b { , m.[+f+a+#+Q.2+e+n+u+u+c+s+y+A+u+8+7+u+A+r+s+B+B+D+u+2+n+y+l+4+l+e+^+.+4+l+n+6+R.W 1 } 1 1 1 1 c c S ~.",
"1 1 1 1 b 6 c e 1 b 6 % Q x.9.-+e+r+n+8+7+j+n+n+i+o+A+B+B+y+y+B+A+A+B+B+B+B+s+l+y+A+e+Z.2+8+j+m+t+n+(+9.[ > 6 b 1 1 1 1 1 e C K ",
"1 e p G 6 0 5 < < ! ' 3 W.#+-+8+%+4+l+v+r+d+m+0+a+g+x+A+B+B+B+B+B+B+B+B+B+B+y+A+B+B+u+g+r+x+y+p+6+V.~+L.t.F 0 o b 6 6 ( b 1 1 1 ",
"1 i |.3.p b 6 ( ! > * , Q.Z.c+g+)+E.#+b+o+q+z+w+7+Z.l+A+B+B+B+B+B+B+B+B+B+B+B+B+C+A+A+y+y+y+m+|+-+Q.Q.-+~+=.t h.~.< ! 6 b 1 1 1 ",
"1 i -.K e 1 1 1 1 ].4.3 m.9.Z.!+#+%+7+7+4+m+z+A+l+%+g+B+B+B+B+B+B+B+B+B+B+B+B+B+B+A+y+d+0+j+{+6+p+4+k.%+_+m.l c.b.( ! 1 1 1 1 1 ",
"1 1 1 1 6 1 b 6 6 @.z.l y 9.%+Z.(+-+4+g+i+b+g+v+y+v+y+B+B+B+B+B+B+C+B+B+B+B+B+B+B+B+y+4+=+6+7+o+x+a+E.j.=+t.% ! | 6 6 1 1 1 1 1 ",
"1 1 1 } 6 } 4 / ! ' H ).d.W.2+7+(+)+Q..+1+4+8+m+w+y+C+B+B+B+B+B+B+B+B+B+B+B+B+B+A+y+n+6+e+j+j+b+l+7+Q.9.#+_.; } 6 1 1 1 1 1 1 1 ",
"( 0 u *.,.4.4.h.e.p.o.t.W.-+~+4+7+i+l+n+s+v+y+y+y+A+B+B+B+B+B+B+B+B+B+B+B+B+B+B+v+e+a+r+y+u+a+#+Z.W.E.x.E.n ' b 6 6 6 6 b b 1 1 ",
"~ { t |.l.D.N.@+!+<+3+b+l+n+o+t+t+x+w+v+y+u+s+A+B+B+B+B+B+B+B+B+B+B+B+B+B+B+B+B+o+6+j+v+y+x+n+~+#+x.W.Z.$.. ; > < g 3.8.5 6 b 1 ",
"6 6 6 ( 5 K W 4.f.i.p.P.&+-+)+(+b+i+n+v+y+u+u+y+A+A+B+B+B+B+B+B+B+B+B+B+B+B+B+B+y+t+k+l+o+v+s+l+a+E.-+8+.+a.}.L 0 5 %.%.c 1 1 1 ",
"1 1 1 6 6 5 %.B ' > 9 : , 9.-+~+m.Q.(+8+e+k+v+y+A+A+B+B+B+B+B+B+B+B+B+B+B+B+B+B+z+j+8+n+r+n+g+l+7+k.W.a+9+<+@+T.F.u.s.'.A 5 0 6 ",
"1 1 1 b 6 ( L j 0 ! 5 z.E y ~+g+^+Z.a+a+_+4+e+l+l+u+B+C+B+B+B+B+B+B+B+B+B+B+B+C+B+x+g+n+u+r+9+g+~+k.Q.^+Z.a.c.c.h.}.}.M 9 _ ~ > ",
"1 1 1 1 1 1 1 1 e c u }.M.&+3+c+7+%+8+e+j+a+b+f+1+d+y+B+B+B+B+B+B+B+B+B+B+B+B+A+A+A+x+a+_+g+g+a+%+$.W.4+K.h o 1 6 b 1 1 1 1 b b ",
"1 1 1 1 1 6 ( 5 P #.u.Y.Y.Y.J.x.%+7+b+7+e+[+a+m+6+d+A+B+B+B+B+B+B+B+B+B+B+B+y+v+x+A+y+p+k+2+^+#+Q.W.Z.2+!+T.q.%.u 6 1 1 1 1 1 1 ",
"1 1 6 ( ! < > 9 {.g ,.b.K L H.(+a+(+2+7+[+b+f+6+a+u+A+B+B+B+B+B+B+B+B+B+B+y+o+2+7+r+x+y+x+l+%+Q.4+4+9.F  .4.r.8.M { ~ ! ].:.1 1 ",
"1 b 6 6 6 6 6 6 ( b b 6.M.}+b+a+2+L.Q.e+8+j+5+.+r+A+A+y+x+u+A+B+B+B+B+B+B+u+r+4+0+g+h+f+n+v+n+~+W.)+K.w 4 } C u ( 0 ! < A L 6 1 ",
"1 1 1 1 1 1 1 ( i ~.O.*+/+ +_.k.)+%+Z.e+b+j+2+e+n+y+A+y+m+f+A+A+z+x+z+z+A+n+n+r+o+q+k+{+,+e+s+q+9+~+S.m 6 K u.(.1 1 1 1 1 b 6 6 ",
"1 1 1 1 6 6 0 B (.A.O.q.u ' + 9.Q.Q.(+b+4+<+a+r+a+s+u+f+f+0+w+y+v+e+q+t+y+l+7+w+w+t+q+j+-+m.-+e+s+g+&+ .1 K c.L 1 i C 1 1 1 1 1 ",
"1 1 1 b ! ; { J L K 6 } } 6 # $.L.Q.Q.^+%+_+q+r+i+j+8+h+n+0+v+w+n+5+h+x+y+r+6+q+t+s+s+a+-+E.x.)+4+e+e+ +S C } b e '.M.u 1 1 1 1 ",
"1 6 0 > < 0 6 b 1 1 o e 6 > * n Q.[+Q.$.E.j+s+s+j+7+9+n+n+b+w+t+0+e+d+r+x+s+0+f+i+n+o+[+Q.k.m.Q.[.d.]+c+*+ .( 1 1 ;.o.L 1 1 b b ",
"6 0 0 b 1 1 1 1 c K ].;.< 0 6 &.!+b+-+m.8+s+i+[+)+4+8+4+l+e+s+n+)+4+-+b+u+v+2+b+e+8+g+4+Z.m.L.x @ * L O.:+&+i.j 1 e c e 1 1 ( 6 ",
"b 1 1 1 1 c i e c A K W 6 6 /. +>+E.x.7+o+b+V.Z.#+~+2+-+a+0+u+u+(+W.k.[+s+u+6+4+(+~+~+Q.L.2+7+9.$ H 6.} S Y.@+F.S b 1 1 1 1 1 1 ",
"1 1 1 1 e %.Y ( 1 6 6 1 ~.i.O.G.M n ~+j+8+9.x [+a+8+r+7+^+[+u+r+a+7+(+)+i+s+a+~+W.V.9.m.%+g+j+L.: 9 H 6 } c c.F.0.r o o 1 1 1 1 ",
"1 1 6 1 1 C C 1 1 1 1 c D.H.%.j g S.a+2+x.x.W.E.<+l+e+#+m.,+s+l+g+j+l+4+7+s+8+L.9.&+2+-+=+_+a+[++.0 z g 6 1 e C '.7.i.b.1 1 1 1 ",
"1 6 ! b 1 1 1 1 1 1 6 > m v 6 g B.3+/+^.Q ~+8+W.k.9.W.(+E.=+m+2+(+[+b+a+(+p+d+C.Z.-+%+#+j.$.d.3+;+M 6.;.> 6 1 1 e u t ] ! b 1 1 ",
"1 1 1 1 1 1 1 6 6 6 > < 6 1 a n.^+;+,.| +.)+-+W.L.9.V.(+~+#+j+%+9.$..+7+~+g+g+-+8+E.n ` n & ~ v./+M.a ( ! < 6 6 1 1 6 < ; < 6 1 ",
"1 1 1 1 1 1 1 6 0 < 0 b 1 0 u.`.A.z } c p.N.F x x ^ y Q.W..+e+4+Q.^ [.-+x.[+b+W.(+n.' ' ~ ! @.U r.;+e.| 6 ( -.i.K 1 1 1 6 ! ' ( ",
"1 1 1 1 1 1 1 ( ! 6 1 1 c f.U.g.i b b v A.Y q _ > ; { f y Z.7+[+d.$ =.Z.$.C.b+t.U.M.c 6 6 e :.].o f.P.4.( b S 3.u 1 1 1 1 1 6 0 ",
"1 1 1 1 1 1 6 ( b 1 1 e ~.H.f.c 1 b 6 k S K f.G } ! b > = `.<+t.E d H w.5.^.6+T.~.P.J 6 e 1 e o o o f.p.K e e p 0 6 1 1 1 1 1 1 ",
"1 1 1 1 1 e 6 1 1 1 b J l.}.} 1 1 1 ! ~ b 6 4 O 0 6 1 ' 9 ++*+..;.>.G {.v S !+@+z u.k 6 1 1 b p >.i ( '.Z c o ].O 6 6 1 1 1 1 1 ",
"1 1 1 1 1 1 1 1 1 1 ' t %.~.K 1 1 6 > ( 1 b b :.u 6 1 < u ++A.{ G I p P g c P.&+M A ) 1 i c 1 e o c 6 c H 9 e p o 1 b 1 1 1 1 1 ",
"1 1 1 1 1 1 1 1 1 ! ) ! v (.p 1 1 0 0 1 1 b 1 o b 6 ! ! a U.|.V X.o 1 a a e q.`.Z 6 ; 6 c e c 1 1 1 1 1 6 > < 1 1 1 1 1 1 1 1 1 ",
"1 1 1 1 1 1 1 1 ( ; ! 1 6 0 1 1 6 0 b 1 1 1 1 1 1 ( ! 0 d w.'.d G e O u > 1 S @+&.b < ! 1 p '.@.1 1 1 1 1 6 < 0 1 1 1 1 1 1 1 1 ",
"1 1 1 1 1 1 1 6 < 0 1 1 1 1 1 1 b b 1 1 1 1 G G 1 1 b 6 A 0.S 0 b o :.L ~ 1 j P.|.6 ( ! 1 c e.8.b 1 1 1 1 1 6 ! 6 1 1 1 1 1 1 1 ",
"1 1 1 1 1 1 6 0 6 1 1 1 1 1 1 1 1 1 1 1 1 1 U >.1 b b 1 T ).5 6 1 1 o 0 > 1 c i.o.( b ! b 1 L V c 1 1 1 1 1 1 6 6 1 1 1 1 1 1 1 ",
"1 1 1 1 1 1 6 6 1 1 1 1 1 1 1 1 1 e p e 1 1 e c e 6 1 1 g t 6 b e 1 1 6 ' e 1 ~.n.5 1 ( 6 1 e c 1 1 1 1 1 1 1 1 b 1 1 1 1 1 1 1 ",
"1 1 1 1 1 1 1 1 1 1 1 1 1 1 1 1 1 O b.p 1 1 j M c 1 1 1 ; ; 1 1 1 c ;.G ! 6 1 W 7.a 1 6 6 1 1 1 1 1 1 1 1 1 1 1 1 1 1 1 1 1 1 1 ",
"1 1 1 1 1 1 1 1 1 1 1 1 1 1 1 1 1 1 } 1 1 1 ~.3.c 1 1 1 ~ > 1 1 1 C 8.K 0 6 1 6 k g 1 1 e 1 1 1 1 b } 1 1 1 1 1 1 1 1 1 1 1 1 1 ",
"1 1 1 1 1 1 1 1 1 1 1 1 1 1 1 1 1 1 1 1 1 1 C K 1 1 1 b > ! 1 1 1 e G e ( 6 1 1 _ ; b 1 1 1 1 1 1 A 4.} 1 1 1 1 1 1 1 1 1 1 1 1 ",
"1 1 1 1 1 1 1 1 1 1 1 1 1 1 1 1 1 1 1 1 1 1 1 1 1 1 1 b > ( 1 1 1 1 1 1 6 b 1 1 0 ) 6 1 1 1 1 1 1 j S 1 1 1 1 1 1 1 1 1 1 1 1 1 "};
