/* XPM */
static char * confundo_icn_xpm[] = {
"64 64 256 2",
"  	c #0C499A",
". 	c #004FAC",
"+ 	c #00519A",
"@ 	c #0051A6",
"# 	c #134E99",
"$ 	c #0853A3",
"% 	c #0056A5",
"& 	c #0059A9",
"* 	c #055BB1",
"= 	c #085CA2",
"- 	c #1359A2",
"; 	c #005DB9",
"> 	c #095FAF",
", 	c #0061BE",
"' 	c #1F5C9A",
") 	c #0063B9",
"! 	c #165FB7",
"~ 	c #0764C1",
"{ 	c #0066C9",
"] 	c #1B61A6",
"^ 	c #1463AD",
"/ 	c #006AC6",
"( 	c #1865B6",
"_ 	c #1166C4",
": 	c #1169C0",
"< 	c #2265BD",
"[ 	c #006FC5",
"} 	c #2F65A5",
"| 	c #2568AD",
"1 	c #2569A8",
"2 	c #176DBD",
"3 	c #2D69A3",
"4 	c #30699D",
"5 	c #1B6DC4",
"6 	c #256DB8",
"7 	c #0E73C9",
"8 	c #226FB3",
"9 	c #2F6CB2",
"0 	c #1A73BD",
"a 	c #1E72C3",
"b 	c #2F6FAF",
"c 	c #406C9B",
"d 	c #2574B2",
"e 	c #2973B8",
"f 	c #3C6EAF",
"g 	c #2E73AC",
"h 	c #3971AB",
"i 	c #3473B3",
"j 	c #1C79C9",
"k 	c #2678C3",
"l 	c #227ABF",
"m 	c #2F77BC",
"n 	c #3575C0",
"o 	c #2D79B8",
"p 	c #3977B7",
"q 	c #3679B2",
"r 	c #3F77AB",
"s 	c #1D80CA",
"t 	c #4477A6",
"u 	c #4177B2",
"v 	c #347AC0",
"w 	c #2B7FC4",
"x 	c #2380D7",
"y 	c #2E7EC9",
"z 	c #347EBD",
"A 	c #387DC3",
"B 	c #3C7EB7",
"C 	c #407DBD",
"D 	c #2884D5",
"E 	c #477DB8",
"F 	c #3881C1",
"G 	c #477FB4",
"H 	c #3F81BB",
"I 	c #2C86D0",
"J 	c #3385CA",
"K 	c #3288C6",
"L 	c #3E85C5",
"M 	c #4883C4",
"N 	c #4286BA",
"O 	c #3B88C0",
"P 	c #4685C0",
"Q 	c #5882B2",
"R 	c #5085B4",
"S 	c #398AD0",
"T 	c #4D86BA",
"U 	c #3B8ECD",
"V 	c #458BCC",
"W 	c #4D8BC6",
"X 	c #438EC8",
"Y 	c #498DC0",
"Z 	c #5589C6",
"` 	c #538BC0",
" .	c #528FBD",
"..	c #3F93D9",
"+.	c #5A8DBD",
"@.	c #4D91C4",
"#.	c #5F8DB8",
"$.	c #578FC4",
"%.	c #4695D5",
"&.	c #678EBE",
"*.	c #4C95CF",
"=.	c #5693CF",
"-.	c #5295CA",
";.	c #6591B6",
">.	c #5B93C9",
",.	c #5996C5",
"'.	c #6194C4",
").	c #5E96BF",
"!.	c #6794BF",
"~.	c #599CD1",
"{.	c #5F9BCA",
"].	c #549ED9",
"^.	c #589FCD",
"/.	c #649BD1",
"(.	c #7099BE",
"_.	c #699BCC",
":.	c #659DC7",
"<.	c #6E9BC6",
"[.	c #639FCE",
"}.	c #6F9DD5",
"|.	c #7B9BC1",
"1.	c #5FA3D8",
"2.	c #5EA5D3",
"3.	c #6FA1C5",
"4.	c #67A3D3",
"5.	c #64A5CE",
"6.	c #6CA3CD",
"7.	c #74A1CD",
"8.	c #78A1C6",
"9.	c #7FA0BB",
"0.	c #65ABE1",
"a.	c #6EA9D9",
"b.	c #76A8CD",
"c.	c #6AACD6",
"d.	c #73AAD4",
"e.	c #7FA8CF",
"f.	c #7BA9D5",
"g.	c #71ADD0",
"h.	c #7DABCA",
"i.	c #84A9CA",
"j.	c #7AADD1",
"k.	c #77B2DC",
"l.	c #78B4D7",
"m.	c #80B2D7",
"n.	c #87B0D7",
"o.	c #94AECB",
"p.	c #8EB0CC",
"q.	c #84B3D2",
"r.	c #8CB1D2",
"s.	c #88B3CC",
"t.	c #94B0C6",
"u.	c #7DB9E4",
"v.	c #7FBBDF",
"w.	c #87B9DE",
"x.	c #8AB9D8",
"y.	c #84BCDA",
"z.	c #92B8D9",
"A.	c #90BBD5",
"B.	c #97B9D4",
"C.	c #9DB9D0",
"D.	c #8FBDDC",
"E.	c #9FB9D7",
"F.	c #8EC1DA",
"G.	c #91C2E2",
"H.	c #ACBBD4",
"I.	c #99C1D5",
"J.	c #A5BECF",
"K.	c #9AC0E1",
"L.	c #97C2DC",
"M.	c #9EC0DB",
"N.	c #A1C0D6",
"O.	c #A8BFD6",
"P.	c #98C8E8",
"Q.	c #A7C6DC",
"R.	c #9DC9E3",
"S.	c #A5C7E3",
"T.	c #A2CADE",
"U.	c #AFC6DE",
"V.	c #B3C7D9",
"W.	c #ADC9DA",
"X.	c #A7CBDA",
"Y.	c #ABCBE1",
"Z.	c #A5D2EC",
"`.	c #AAD2E6",
" +	c #B1D0E6",
".+	c #AED2E1",
"++	c #BDCEDA",
"@+	c #B7D0DB",
"#+	c #B4D1E1",
"$+	c #BBCFE2",
"%+	c #C4CDDB",
"&+	c #B8D7EE",
"*+	c #BBD7E7",
"=+	c #B2DAEF",
"-+	c #B5DAE9",
";+	c #C3D7EA",
">+	c #BFD9E4",
",+	c #C6D7E4",
"'+	c #C5D9D8",
")+	c #C9D8DF",
"!+	c #C3DADF",
"~+	c #BFDBEC",
"{+	c #CFD9E7",
"]+	c #BCE1F0",
"^+	c #C3E0F1",
"/+	c #C6E0EB",
"(+	c #D5DCE4",
"_+	c #CDDEEB",
":+	c #D2DEDF",
"<+	c #D8DDDF",
"[+	c #D0DFE6",
"}+	c #CAE1E6",
"|+	c #DBDDDA",
"1+	c #CDE1E0",
"2+	c #C6E9F4",
"3+	c #CDE7F2",
"4+	c #D6E5EB",
"5+	c #D4E6F2",
"6+	c #D1E8ED",
"7+	c #DDE5EE",
"8+	c #DAE7E8",
"9+	c #E1E6E8",
"0+	c #DAE9F0",
"a+	c #D5EFFA",
"b+	c #DEEDF4",
"c+	c #E0EDED",
"d+	c #E7EBEE",
"e+	c #D9F0F5",
"f+	c #E5EDF5",
"g+	c #EFECF1",
"h+	c #ECEEEB",
"i+	c #EAEFF2",
"j+	c #E2F1F8",
"k+	c #E4F1F1",
"l+	c #EBF3FB",
"m+	c #EEF3F6",
"n+	c #E6F5FC",
"o+	c #E8F5F6",
"p+	c #E0F7FC",
"q+	c #EBF6F0",
"r+	c #F2F4F1",
"s+	c #F6F3F8",
"t+	c #F2F7FA",
"u+	c #ECF9F9",
"v+	c #FBF6F5",
"w+	c #EFFAF4",
"x+	c #F6F8F5",
"y+	c #FCF9FE",
"z+	c #F6FBFD",
"A+	c #F0FDFE",
"B+	c #F9FBF8",
"C+	c #F3FDF8",
"D+	c #FFFAF8",
"E+	c #F9FEFF",
"F+	c #FBFEFA",
"G+	c #FFFFFF",
"{ { { { { { { { { { { { { { { { { { { { { { { { { { { { { { { { { { { { { { { { { { { { { { { { { { { { { { { { { { { { { { { { ",
"{ { { { { { { { { { { { { { { { { { { { { { { { { { { { { { { { { { { { { { { _ { { { ~ { { { { { { { { { { { { { { { { { { { { ",
"{ { { { { { { { { { { { { { { { { { { { { { { _ { { { { { { _ { { { { { n z.f.{ { { { { { { { { { { { { { { { { { { { { { { { { ",
"{ { { { { { { { { { { { { { { { { { { { { { { { { { _ }.z.{ { { { { { { n Z n.{ { { _ { { { { { { { { { { { { { { { { { { { { { ",
"{ { { { { { { { { { { { { { { { { { { { _ { f.>.{ { { O.$+/.{ { { }.{ { { }.~ { { { { { { { { { { { { { { { { { { { { { { { { { ",
"{ { { { { { { { { { { { { { { _ { { >.{ { { E.r.{ { { >.Z { _ n e.$+f.}./.e.y { { { A _ { { n n { { { _ { { { { { { { { { { { { ",
"{ { { { { { { { { { { { { { { a { { { { { { M 5 { { }.{ W }././.Z z.5 y M n.}.7.z.7+x+4+M _ { { _ { { { { { { { { { { { { { { { ",
"{ { { { { { { { { { { { { { Z z.k { { { { _ r.U.e.e.7.}.>.A r.B.E.O.r.Z a M _ { 7.,+$+r+,+~ _ E.5 { { { { { { { { { { { { { { { ",
"{ { { { { { { { { { { { { { _ >.y { { }.E.E.E.8.E.E.@+#+#+>+r._.W P M E.E.e.e.7._.}.e.x+d+{ e.c+5 }./.{ ~ { { { { { { { { { { { ",
"{ { { { { { { { { { { { { ~ k M U._+4+i.~ k U.N.Q.E.'.8.i.C.r.` 3.q.U.B.E.Q.r.P 7.A i.m+{+z.7+U._ E.M._ { A { { { { { { { { { { ",
"{ { { { { { { { { { { }.{ _ >.d+d+c+i+7+_.b.$.E.C.N.@+r.'.i.'.Q.N.i.<.U.{+N.A.r.r.7.d+r+>.M m+7././.M { e.n { { { { { { { { { { ",
"{ { { { { { { { { { { A { { ,+r+_.5 $+x+i.W B.7.B.C.Q.E.#+@+N.M.'.e.8.$.B.` ` $.7.i+x+E.n.V.$+r./.=.Z M A { { { { { { { { { { { ",
"{ { { { { { { { { { { { { A 7+d+k A 4+x+7.r.e.>.e.r.P :.e.E.M 7.n.M M 7.r.N.B.E.,+i+$+O.O.7+'.7.Q.n /.}.~ M }.{ { _ { { { { { { ",
"{ { { { { { { { { _ E.A 5 n.E.x+_.O.i+4+b.e.P P 7.$.v '.7.A 5 5 A r.U.r.'.$.7._.,+c+P {.'.V.N.Z M z.7.B.A { { _ { { { { { { { { ",
"{ { { { { { { { { { z.5 n.a { A q.q+7+_.r.P F A >.L q.<.$._._.7.z.B.'.7.A 7.k A E.V.e.$.$+i.:.O.8.r.;+e.z.M./.{ /.{ { { { { { { ",
"{ { { { { { { { { { { /.n.}.a _.r.x+r.<.{.W r.A /.B._.n 5 n n.7.k A >.r.E.n k '.$+W W e.B._.O.'.U.B.N.$+U.7.E.>._ _ { { { { { { ",
"{ { { { { { { { { k { f.{ a A B.7.[+o.i.P E._.$.6.C M Z e.n.v W W M W M _.E.e.B.r+_.v L n.'.,.7.N.U.{+E.U.E.E.U.{ 5 { { { { { { ",
"{ { { { { { { { ~ A { n._ k V.N.$.W O.r.7.O.k 6.>.~ Z M.M ~ _ _ _ 5 _ _ 5 M z.E.p.m y k v e.P e.B.V.$+++{+%+O.i.Z 5 { { { { { { ",
"{ { { { { { { { { n.{ n.y '.,+E.{.e.r+,+k n W >.5 7.e.a _ 5 { 5 _ e._ _ ~ 5 >.>.Z E.e.P m M 7.<.r.V.N.7+k+[+C.B.n.5 { ~ 5 { { { ",
"{ { { { { { { { M f.Z $+++B.e.b.$.7.$+_.n >.>.n 7.}.5 ~ 5 _.A 5 ~ r.{ A 7.M 5 _.a _ _.r._.>.e.z r.Q.e.4+,+V.$+e.e.5 { { { { { { ",
"{ { { { { Z >.n.}.5 $+U.E.3.b.e.b.k 7.k {.a =.e.>.5 5 5 { /.M { _ e._ a 7.5 _.A n.5 _ a e.r.e.$.$.r.,+,+p.O.$+E.M z./.{ { { { { ",
"{ { { { { n U.>.M 7.$+i.N.$.r._.P M _.=.k W '.n.5 ~ _ _ ~ a Z M >.M W }.: k /._ n.A 5 ~ 5 M M.$.n.i.p.$+$+r.'.$+k _ { _ { { _ { ",
"{ { { { { /.5 r.>.>.A $+E.r.6.$.L M n.n ~ _.r._ _ { { _ _ y >.>.M M M <.<.Z _ n _ }.~ 5 { a Z E.7.i.B.#+$+O.o.o.y r.n { _ { { { ",
"{ { { { { M { 7.A k C W.E.7.'.$.v e._._ _ E.A _ { _ k e._ $.>.n >.'.e.'.M >.<.n 5 _.M _ _ 5 =.A n.8.7.Q.>+:.'.i.M E.f._ { { { { ",
"{ { { { { k { 7.E.r.U.$+Y.<.B.V.$.n.A 5 Z }.5 _ { { n 7.{ 7.n _.<.i.A.M.p.>.>.>.n 5 f.5 5 5 >.B.m e.B.6.$+` 6.r.<.r.A 5 _ _ { { ",
"{ { { { { { M U.5 Z #+B.E.r._.e.f.7.a _ E.5 { { _ { _ Z { }.$.<.B.V.)+V.h.r.$._.M _ 7.n 5 5 >.B.A e.U.'.$+r.7.E.7.n.}._ { { { { ",
"{ { { { { { E.M O.U.V.{+N.$+Y r.7._.y k n.5 _ _ 5 5 { { Z Z _.i.i+i+x+x+7+i.e.Z M 5 A }.{ 5 _.5 >.7.>.E.V.'.Q.U._ A }.5 _ _ { { ",
"{ { { { { { M.r.r.$+c+E.,+N.7.>.6._.L /._.5 _ _ { 5 { 5 n 5 M O.x+r+x+x+x+$+8.W a _ 5 e._ _.A M }.A W B.$+'.i.,+n L n A 5 { { _ ",
"{ { { Z M 5 E.U.<.O.i+,+$+N.B.P A 7.Z 7./._ { 5 { _ _ { _ n.7+9+x+x+r+x+x+$+Z 5 _ { 5 z.5 e.n 7.M m $.:._+<.E.e.E.r.7.}.{ _ { { ",
"{ { { { { 5 E.E.B.U.,+p.$+>+_.P k _.7.<.>.5 { { _ { { >.{+x+r+c+,+x+x+r+8+d+O.{ _ { _ }._.>.>.5 r.E.'.>._+7._+7.7.V.e.}._ { _ { ",
"{ { { { { _ M.Z U.n.{+V.@+V.` W '.k U.n =.5 _ { _ { e.i+x+m+U.A ,+x+x+d+'.m+i+e.{ { _ M z._._ 5 B.'.e.<.O.N.U.B.'.O.{ M { { { { ",
"{ { { { { { e.e.U.O._+$+[+B.>._.4+!.Q.W Z _ { { { 5 i+x+x+d+,+{+d+r+d+>.5 E.r+d+n _ _ _.M.a 5 5 a v M B.7.,+P 7.'.r._ { ~ { _ { ",
"{ { _ { { e.{ E.E.M O.p.O.z.6.7.!.M #+$.W y { { { { ,+B+x+x+x+x+[+,+4+i+[+U.c+m+U.{ A _.r.A a _ n r.O.,+,+[+$.6.M e.>.{ 5 A _.{ ",
"{ { { { { z.{ >.7.U.O.{+h.b.e.O.$.M N.Z >.=.{ { _ _ 5 ,+x+x+x+x+x+r.4+t+m+m+r+i+{+a =.a 7.Z k M U._.<.V.>+W.,+e._.r.Z Z { { { { ",
"{ { { { { Z f.Z /.>.Z E.i.7.M.<.p.>.'.7.k _._ { _ { { _ E.x+B+x+x+7+t+x+r+r+c+,+Z /.a n 7.V 5 E.A r.$+r.3.,+p.V.M E.M Z ~ { { { ",
"{ { { >.Z A _ 5 f.k }.7.$+'.b.Q.P e.v e.5 Z M 5 ~ { { { k m+x+x+x+x+x+4+7.M 5 a >.L 5 Z >.W >.r.M O.O.,+$+r.U.,+_.$+r.M { { { _ ",
"a /.{ _ { { { { E._.e.r.O.r.'.B.H N.7.Z Z 5 '.a 5 _ { _ >.x+x+x+x+x+r+r._ { A M >.5 5 e.M L 7.>.E.i.,+%+V.V.,+V.O.5 }.}.{ { _ { ",
"5 { { { { Z 5 n.B.'.B.#+W *+<.b.` O.r.v 7.~ 5 _._ _ { { B.x+x+x+x+x+r+n _ L Z Z 5 _ _ n.~ A e.Z U.b.$+8.O.O.{+@+n { { { >.}.{ { ",
"{ { { { { { f.e.o.,+r.N.'.'.>+<.r.e.k 5 e.M _ L _.k { { ,+m+x+x+B+B+c+5 >.M L L _ _ _ e.5 y _.z._.$+O.U.O.,+[+O.5 _ _ { { { a A ",
"{ { { { { 5 }.z.$+U.B.O._.'.8.0+e.i.C k L 7._ _ _.>.5 5 7+x+m+B+x+B+4+>.y k >.{ a _ n e.5 M n.r.W E.++,+$+V.,+Z { E.}.{ { { { { ",
"{ { { { { y /.r.r.E.U.E.5 r.3.o.r.W.>.v v _.>.5 a {._.M m+B+r+x+x+x+,+{ 5 Z { _ n { 7.M >.7._.L B.r.e.'.B.C.r.{ { { { { { { { { ",
"{ { { { { { f.M n.n.>.Q.M E.e.7.P r.#+W k W B.5 5 A 7.r.x+x+x+x+x+x+{+5 W 5 _ 5 5 n Q.>.k L >.M e.p.r.#+O.U.n { { { _ { { { { { ",
"{ { { { { { Z /.k _ e.r.7.i.L 7.e.o.#+B.r.'.e.Z /.>._.U.x+x+x+x+x+x+4+W 5 n n _ M M.>.k v Z $.7.O.:.r.'._.n.M A { ~ { { { { { { ",
"{ { { { { { { 5 { 5 B.M z.$.W 3.r.E.O.e.<.r.8.e.A k y U.x+B+x+x+x+x+d+~ a m Z 7.$.e.y A w >.P e.B.$+r.i.r.r.r.z.n.{ { { _ { { { ",
"{ { { { { { { y { { { { r.e.7.r.r.$+,+,+N.P B.q.W k k $+x+B+B+x+x+x+x+B.<.M a M z.M k L F e.<.q.r.4+$+_./.>.e.f.n.{ { { { { { { ",
"{ { { { { { { { { { ~ a a _.Q.$.$+8.W.$+J.,+E.E.b.M k ,+x+r+x+x+r+x+m+i.Z _.7.B._.$+#+'.:.B.Q.C._+p.i.Z Z Z }.f.Z _ { { { { { { ",
"{ { { { { { { _ { { { z.n { M.$+e.$+i.r.{+$+:.B.i.U.C.4+x+x+B+x+i+x+x+$+e.E.>+i.e.U.O.B.O.$+@+r.C.k ~ }.>.=.5 { { { _ { { { { { ",
"{ { { { { { { { _ { { n { { z.Q._.o.7+i.,+4+).B.e.8.i.7+x+x+x+x+r+m+r+{+E.7.C $.:.'.,.<.U.<.<.W Q.k _.y n.Z { { _ { { { { { { { ",
"{ { { { { { { { { ~ Z { { _ E.r.<.U.E.$+8.{+@+B.{+i.$.7+x+x+B+x+x+r+x+d+$.W $.7.:.<.e.E.r.'.E.r.O./._ { { Z ~ { { { { { { { { { ",
"{ { { { { { { { { e.M { _ { _.e.E.E.r.E.E.C.,+Q.B.i.7.i+B+x+x+x+x+c+x+t+C.r.i.8.E.Q.A.Q.i.E.{+7.5 n._ { { { { { { { { { { { { { ",
"{ { { { { { { { { =.{ { { { { n.n.A >.k e.$+k r.E.o.N.m+B+B+B+x+x+c+x+x+Q.N.,+@+V.$+,+U.B.E.E.z.{ A M { { { { { { { { { { { { { ",
"{ { { { { { { { { { { { n >.{ { _.E.E.E.>.z._ _.$+U.B.x+B+x+x+x+x+d+B+x+,+B.e.W $.r.>.}.A _ Z k { { _ /.{ { _ { { { { { { { { { ",
"{ { { { { { { { { { { { _ a { { { 5 _ n.y f.>.a E.~ >.x+B+x+x+x+x+9+r+r+8+@+P M i.>.5 O.n.{ 5 { { { { 7.Z { { { { { { { { { { { ",
"{ { { { { { { { { { { { { { { { { { { E.A { z.}.>._ '.x+B+B+x+x+x+7+r+x+7+8.>.e.e.k { { { _ >.{ { { { { A { { { { { { { { { { { ",
"{ { { { { { { { { { { { { { { { { { _ { { { { >.n.z.O.r+x+B+B+B+x+,+i+i+{+M e.A f.Z { { { { { { { { { { { { { { { { { { { { { { ",
"{ { { { { { { { { { { { { { { { { { _ { { Z k { { { Z 4+[+i+i+[+E.,+m+7+e.}._ _ E.}.>.{ { { { { { { { { { { { { { { { { { { { { ",
"{ { { { { { { { { { { { { { { { { { { { { 5 { { { { { { ~ {+x+{+{ U.m+{+_ { { { 5 }.{ { { { { { { { { { { { { { { { { { { { { { ",
"{ { { { { { { { { { { { { { { { { { { { { { { { { { { { { ;+i+,+{ U.m+{+{ { 5 { { { { _ { { { { { { { { { { { { { { { { { { { { ",
"{ { { { { { { { { { { { { { { { { { { { { { { { _ { { { { U.r+$+{ E.m+,+{ { { { { { { { { { { { { { { { { { { { { { { { { { { { ",
"{ { { { { { { { { { { { { { { { { { { { { { { { { { { { { r.r+$+{ e.7+4+r._ { { { { { { { { { { { { { { { { { { { { { { { { { { ",
"{ { { { { { { { { { { { { { { { { { { { { { { { { { { { { M m+m+$+Z $+f+m+7+>.{ { { { { { { { { { { { { { { { { { { { { { { { { ",
"{ { { { { { { { { { { { { { { { { { { { { { { { { { { { { { >.,+i+$+{ { a Z y { { { { { { { { { { { { { { { { { { { { { { { { { ",
"{ { { { { { { { { { { { { { { { { { { { { { { { { { { { { { { { k a { { { { { { { { { { { { { { { { { { { { { { { { { { { { { { ",
"{ { { { { { { { { { { { { { { { { { { { { { { { { { { { { { { { { { { { { { { { { { { { { { { { { { { { { { { { { { { { { { { { "};
