/* XPM */
static char * expecto_patronum_icn_xpm[] = {
"64 64 255 2",
"  	c #404A67",
". 	c #364C77",
"+ 	c #3E4C6D",
"@ 	c #444B63",
"# 	c #364D83",
"$ 	c #344F7F",
"% 	c #3C4E74",
"& 	c #434D6A",
"* 	c #484D5F",
"= 	c #315287",
"- 	c #455061",
"; 	c #2A559B",
"> 	c #325496",
", 	c #1B5AAB",
"' 	c #0061BD",
") 	c #4F515E",
"! 	c #48526E",
"~ 	c #3D538B",
"{ 	c #425379",
"] 	c #3E547F",
"^ 	c #0062BF",
"/ 	c #4B5269",
"( 	c #455374",
"_ 	c #4D5264",
": 	c #38578D",
"< 	c #145FB6",
"[ 	c #0563C0",
"} 	c #0064C7",
"| 	c #4D546C",
"1 	c #3059A0",
"2 	c #525461",
"3 	c #295BA7",
"4 	c #0065C8",
"5 	c #215DAE",
"6 	c #45567D",
"7 	c #4D5662",
"8 	c #495678",
"9 	c #3E5889",
"0 	c #0066C9",
"a 	c #0964C1",
"b 	c #355A96",
"c 	c #4C5673",
"d 	c #3D5895",
"e 	c #0067CA",
"f 	c #0E63C7",
"g 	c #1961B8",
"h 	c #3B5A90",
"i 	c #4F576E",
"j 	c #395A9C",
"k 	c #2C5DA9",
"l 	c #445985",
"m 	c #0D65C2",
"n 	c #255FB1",
"o 	c #435991",
"p 	c #485980",
"q 	c #565765",
"r 	c #355CA4",
"s 	c #1264C8",
"t 	c #2F5EAB",
"u 	c #54586B",
"v 	c #385D98",
"w 	c #4E5A6B",
"x 	c #1166C3",
"y 	c #525971",
"z 	c #1E63BA",
"A 	c #525A67",
"B 	c #1565C9",
"C 	c #505A77",
"D 	c #2961B4",
"E 	c #475C88",
"F 	c #1467C5",
"G 	c #445D8F",
"H 	c #3D5EA0",
"I 	c #4E5D73",
"J 	c #3261AE",
"K 	c #3661A2",
"L 	c #2265BD",
"M 	c #1668C6",
"N 	c #4C5D84",
"O 	c #3C609C",
"P 	c #505D7F",
"Q 	c #5A5C6A",
"R 	c #2C64B6",
"S 	c #535D7A",
"T 	c #426097",
"U 	c #3A61A9",
"V 	c #565D75",
"W 	c #1969C7",
"X 	c #2566BF",
"Y 	c #585D70",
"Z 	c #3563B0",
"` 	c #4E607B",
" .	c #545F71",
"..	c #565F6C",
"+.	c #1B6AC8",
"@.	c #3F639F",
"#.	c #4262A5",
"$.	c #3166BA",
"%.	c #56607D",
"&.	c #1E6BC9",
"*.	c #506189",
"=.	c #546184",
"-.	c #2A69C2",
";.	c #5E606E",
">.	c #3368BC",
",.	c #4B6496",
"'.	c #47659C",
").	c #5A636F",
"!.	c #5B627B",
"~.	c #2D6BC4",
"{.	c #3B68B6",
"].	c #4467A4",
"^.	c #4666A9",
"/.	c #5D6572",
"(.	c #5F6477",
"_.	c #5F656C",
":.	c #626472",
"<.	c #596689",
"[.	c #4F689A",
"}.	c #66666F",
"|.	c #576890",
"1.	c #5D687A",
"2.	c #3A6DC1",
"3.	c #606875",
"4.	c #616880",
"5.	c #496CA9",
"6.	c #566A98",
"7.	c #666876",
"8.	c #5F6A7C",
"9.	c #5D6C83",
"0.	c #656B73",
"a.	c #666A7E",
"b.	c #646B84",
"c.	c #656D7A",
"d.	c #606D90",
"e.	c #676E75",
"f.	c #6A7078",
"g.	c #69727E",
"h.	c #6C7184",
"i.	c #6C727A",
"j.	c #71717A",
"k.	c #667396",
"l.	c #6C7581",
"m.	c #5B77B0",
"n.	c #737584",
"o.	c #70777E",
"p.	c #727880",
"q.	c #777780",
"r.	c #707986",
"s.	c #747A82",
"t.	c #767C84",
"u.	c #7C7B85",
"v.	c #787E86",
"w.	c #81808A",
"x.	c #7B8289",
"y.	c #7D838B",
"z.	c #818392",
"A.	c #7E858D",
"B.	c #80878F",
"C.	c #878790",
"D.	c #838A92",
"E.	c #868C94",
"F.	c #8C8B95",
"G.	c #888CA1",
"H.	c #8A8E90",
"I.	c #888F97",
"J.	c #8C939B",
"K.	c #8F9496",
"L.	c #9193A2",
"M.	c #93939D",
"N.	c #8E959D",
"O.	c #8895BA",
"P.	c #95959F",
"Q.	c #9298A0",
"R.	c #94989A",
"S.	c #9A979B",
"T.	c #979B9E",
"U.	c #969DA5",
"V.	c #999DA0",
"W.	c #939DBD",
"X.	c #A09DA1",
"Y.	c #9F9EA8",
"Z.	c #9BA0A2",
"`.	c #9AA1A9",
" +	c #A3A0A4",
".+	c #9EA2A5",
"++	c #A1A3B2",
"@+	c #A0A5A7",
"#+	c #A4A8AB",
"$+	c #A7ABAE",
"%+	c #ADABAF",
"&+	c #A9ADB0",
"*+	c #ACB0B3",
"=+	c #B0B4B7",
"-+	c #B1B6B8",
";+	c #B4B8BB",
">+	c #BAB7BC",
",+	c #B6BBBE",
"'+	c #B9BDC0",
")+	c #BABFC2",
"!+	c #BDC2C4",
"~+	c #C0C5C7",
"{+	c #C3C7CA",
"]+	c #C6CACD",
"^+	c #CDCACE",
"/+	c #C8CDCF",
"(+	c #CACFD1",
"_+	c #CDD2D5",
":+	c #D6D3D8",
"<+	c #D0D5D7",
"[+	c #D3D8DA",
"}+	c #DAD7DB",
"|+	c #D7DBDE",
"1+	c #DADCD9",
"2+	c #DEDBE0",
"3+	c #D8DDE0",
"4+	c #DADFE2",
"5+	c #DEE0DD",
"6+	c #DEE2E5",
"7+	c #E0E2DF",
"8+	c #E3E1E5",
"9+	c #E0E5E8",
"0+	c #E3E5E2",
"a+	c #E5E7E4",
"b+	c #E9E6EA",
"c+	c #E4E8EB",
"d+	c #E7E9E6",
"e+	c #E6EBEE",
"f+	c #E8EBE8",
"g+	c #EAEDE9",
"h+	c #EFECF1",
"i+	c #E9EEF0",
"j+	c #EBEEEA",
"k+	c #F2EDEC",
"l+	c #EDEFEC",
"m+	c #ECF1F3",
"n+	c #EFF1EE",
"o+	c #F6F0EF",
"p+	c #F0F3EF",
"q+	c #EFF3F6",
"r+	c #F2F4F1",
"s+	c #F6F3F7",
"t+	c #F3F6F2",
"u+	c #F3F8FA",
"v+	c #F5F8F4",
"w+	c #F6F9F6",
"x+	c #F8FAF7",
"y+	c #F9FBF8",
"z+	c #FDFAFF",
"A+	c #FAFCF9",
"B+	c #F8FDFF",
"C+	c #FBFDFA",
"D+	c #FAFFFF",
"E+	c #FCFFFB",
"F+	c #FFFFFF",
"4 4 4 4 4 4 4 4 4 4 4 4 4 4 4 4 4 4 4 4 4 4 4 4 4 f 4 M 4 s 4 4 4 f 4 4 4 4 0 4 e 4 f 4 s 4 4 4 4 4 4 4 4 4 4 4 4 4 4 4 4 4 4 4 ",
"4 4 4 4 4 4 4 4 4 4 4 4 4 4 4 4 4 4 4 4 4 4 4 4 4 4 4 f 4 4 4 4 4 4 F 4 m 4 4 4 4 F 4 s f 4 4 4 4 4 4 4 4 4 4 4 4 4 4 4 4 4 4 4 ",
"4 4 4 4 4 4 4 4 4 4 4 4 4 4 4 4 4 4 4 4 4 4 4 4 4 4 m 4 4 4 F 4 s W F 4 4 4 e f M W 4 s 0 4 4 e f 4 4 4 4 4 4 4 4 4 4 4 4 4 4 4 ",
"4 4 4 4 4 4 4 4 4 4 4 4 4 4 4 f 4 4 4 4 4 4 4 4 0 4 4 4 4 F M W F 4 F 0 4 4 f m 4 f 4 4 4 W 4 e 4 4 e 4 0 4 4 4 4 4 4 4 4 4 4 4 ",
"4 4 4 4 4 4 4 4 4 4 4 4 4 4 4 4 4 4 4 4 4 ~.0 4 F 4 F ^ O.g ~.m L ^ e 4 F 4 -.m 4 L 4 m F 0 4 4 4 4 4 4 4 4 4 4 4 4 4 4 F 4 4 4 ",
"4 4 4 4 4 4 4 4 4 4 4 4 4 4 4 4 4 4 4 F 4 f [ 4 m M ' G.++= % G ] W.< 4 4 [ m.O.r o ^.[ 4 m s 4 4 4 4 4 B s 4 4 4 4 4 4 4 4 4 4 ",
"4 4 4 4 4 4 4 4 4 4 4 4 4 4 4 4 4 4 4 4 m W 4 4 s 5 ( !+v.) ..v.<+h.; t ^ ' > z.~+q H.U.d L m W m F 4 4 4 4 4 4 4 4 m 4 4 4 4 4 ",
"4 4 4 4 4 4 4 4 4 4 4 4 4 4 4 4 4 4 4 4 4 s 4 F ~.9 q <+y.Z.p.c+F.{ H n 3 b + A -+;+f.(+F.3 [ [ B 4 4 4 4 4 0 4 4 4 4 f 4 4 4 4 ",
"4 4 4 4 4 4 4 4 4 4 4 4 4 4 4 s 4 4 4 4 4 4 m s O.:.).3+J.!+a+!+c.@ b [.{ @ u 3.s.e+J.T.(+  O [ F 4 M 0 4 s 4 f 4 4 4 4 4 4 4 4 ",
"4 4 4 4 4 4 4 4 4 4 4 4 4 4 4 4 4 4 4 4 4 4 4 ' L.X.f.<+-+*+v+x./._ { C 2 S. +y.y.9+<+w.a+).! < L [ 4 m 4 4 4 4 4 4 4 4 4 4 4 4 ",
"4 4 4 4 4 4 4 4 4 4 4 4 4 4 4 4 4 4 4 4 4 4 [ ^ 4.6+x.!+|+!+3+s.).` & * *+<+n+n+c+B+v+'+x+i.A : ' $.4 4 B 4 4 4 4 4 4 4 4 4 4 4 ",
"4 4 4 4 4 4 4 4 4 4 4 4 4 4 4 4 4 4 4 f m 4 4 L 8 *+g+i+v+l+_+y.3.f.Q   q ..t.R..+*+0+C+x+B.c.#+u t [ s F 4 s 0 4 4 4 4 4 4 4 4 ",
"4 4 4 4 4 4 4 4 4 4 4 4 4 4 f 4 4 4 4 F 4 F 4 [ 5 + o.!+l+p+|+E.p.M.K.A A ) e.f.v.o.J.[+v+@+E.!+#+d.' 4 4 4 4 4 4 4 4 4 4 s 4 4 ",
"4 4 4 4 4 4 4 4 4 4 4 4 4 4 4 4 4 4 4 4 4 4 W 4 4 J i f.E.0+p+`.y.x.!+_._./.e.>+e.s.E.Q.j+/+J.|+(+F.< 4 s 4 4 f 4 4 4 4 4 4 4 4 ",
"4 4 4 4 4 4 4 4 4 4 4 4 4 4 4 4 4 4 4 f 4 0 4 4 s F ' l ).B.m+c+J.D.6+x.o.:.j.'+@+o.u.D.;+t+(+6+v+q., [ 4 4 4 4 4 f 4 4 4 4 4 4 ",
"4 4 4 4 4 4 4 4 4 4 4 4 4 4 4 4 W 4 4 4 f 4 4 4 4 4 4 g 9 ..Q.e+g+'+3+<+D.w.t.=+<+w.A.D.Z.t+p+<+]+A 1 e [ 4 F F 4 4 4 4 4 4 4 4 ",
"4 4 4 4 4 4 4 4 4 4 4 4 4 4 4 4 4 4 4 4 4 W 4 4 4 4 4 s g b c 3.!+p+t+p+3+=+@+'+3+Q.N..+-+r+g+6+v.w 1 4 4 f 4 4 4 4 4 4 0 4 4 4 ",
"4 4 4 4 4 4 4 4 4 4 4 4 4 4 4 4 4 4 4 4 M 4 s 4 s 4 s s 4 m r I ).p.@+{+6+p+E+y+n+~+;+'+<+C+0+.+x.N z z 4 4 4 4 4 4 4 4 4 4 4 4 ",
"4 4 4 4 4 4 4 4 4 4 4 4 4 4 4 4 s 4 4 4 4 4 4 4 f 4 4 4 4 f [ Z '.( Y s.K.!+1+[+n+E+6+<+x+i+g+U.t.8 < 4 s [ f f 4 f 4 4 4 4 4 4 ",
"4 4 4 4 4 4 4 4 4 4 4 4 4 4 4 4 4 4 4 4 4 4 4 4 4 4 4 f m 4 4 s ' ^.G o.o.Z.r+p+i+t+E+E+C+A+<+@+o.c t 4 [ 4 4 4 4 4 4 4 4 4 4 4 ",
"4 4 4 4 4 4 4 4 4 4 4 4 4 4 4 4 4 4 4 s 4 4 4 4 f 4 4 4 4 W F [ [ >.U % (.E.{+t+t+C+E+E+E+E+l+=+E.p.: n 0 e 4 F 4 4 4 4 4 4 F 4 ",
"4 4 4 4 4 4 4 4 4 4 4 4 4 4 f 4 f 4 4 s 4 4 4 F 4 4 f 4 [ 4 F 4 m [ $.: %.t.Z.!+a+E+E+n+n+E+E+c+Y.j.1.5 4 f 4 s s 4 4 4 4 4 4 4 ",
"4 4 4 4 4 f 4 4 4 4 4 f 4 4 4 4 4 s 4 4 4 4 4 4 s B 4 4 M 4 4 [ e [ g < |.t.R.=+|+E+E+A+C+E+E+E+t+'+8.U -.4 4 4 4 4 B 4 4 f 4 0 ",
"4 4 4 4 4 4 4 4 4 4 4 4 4 4 4 4 4 4 4 s 4 4 s 4 4 4 4 f f 4 4 ^ 4 [ ^ R P e.K.-+n+y+x+E+E+A+A+E+n+7+/.1 [ 4 4 4 f 4 F 4 4 4 f 4 ",
"4 4 4 4 4 4 4 4 4 4 4 4 4 s 4 4 4 F 4 B 4 4 s 4 4 f 4 4 4 4 4 4 4 4 R 5 p c.K.;+E+y+p+r+x+x+d+1+0+K.Q r 4 4 4 4 M 4 4 4 4 4 4 4 ",
"4 4 4 4 4 4 4 4 4 4 4 4 4 4 4 4 4 s 4 s 4 f 4 4 F 4 4 4 m 4 4 [ [ L 4 r !.j.R.~+E+E+v+h+j+6+!+&+J.}.P n [ 0 4 4 4 4 m 4 0 4 4 4 ",
"4 4 4 4 4 4 4 4 4 4 4 M 0 4 F M s W 4 4 4 4 [ 4 4 F 4 4 [ m 4 L L z U b V N.#+<+E+y+y+n+a+}+-+U.s.V ,.-.4 4 4 m 0 4 4 4 4 4 4 4 ",
"4 4 4 4 4 4 4 4 4 4 4 4 4 m 4 4 s 4 4 s e M m [ [ M z 4 L z Z L R U |.V q.B.;+0+E+C+p+p+d+l+$+E.;.6.' 4 F 4 f 4 4 4 4 4 4 0 4 4 ",
"4 4 4 4 4 4 F 4 f s 4 4 4 4 s 4 4 4 -.[ F F [ [ [ L ^ z [ z g 5 > N a.y.K.&+!+y+E+x+p+j+l+r+~+A.Y @.[ [ f [ 4 0 4 4 4 4 4 4 4 4 ",
"4 4 4 4 4 f 4 4 s 4 m 4 4 4 F F W z L -.m < J U t O r t G h 6 h.8.g.E.T.;+{+g+E+E+v+p+l+d+n+[+R.!.t g [ f 4 f 4 4 4 4 4 e 4 4 4 ",
"4 4 4 4 4 4 4 M M 4 B 4 4 4 F m J n T ].t 9 *.p P =.7.a.7.g.e.B.J.V.$+(+j+x+E+E+E+v+n+p+9+n+:+J.(.r [ m m 0 s F 4 0 4 4 4 4 4 4 ",
"4 4 f 4 4 4 4 4 F [ f 4 4 W [ #.*.=.A.(.b.(.s.y.B.y.Q.H.V.T..+%+'+]+d+E+B+E+E+E+A+q+l+h+b+l+<+H.9.j ^ F m 4 f 4 0 0 4 4 f 4 4 4 ",
"4 4 4 4 s 4 4 4 f 4 4 4 [ L g ].r.<+=+K.w.P.R.-+;+*+;+=+!+/+[+8+p+C+E+E+E+E+E+E+v+r+g+d+b+t+!+E.=.v 2.4 4 4 4 4 4 4 F 4 4 4 4 4 ",
"4 4 4 4 4 4 4 4 4 4 4 m m g U <.Z.A+~+$+-+!+9+u+E+E+E+E+E+E+E+E+E+E+E+E+E+E+E+E+A+p+i+a+0+v+$+x.C t g [ 4 4 4 4 f 4 4 4 4 4 4 4 ",
"4 4 4 4 4 4 4 f 0 4 4 F [ g 6.l.-+A+v+/+a+C+E+E+E+E+E+E+E+E+E+E+E+E+E+E+E+E+E+E+E+v+g+a+a+0+$+A.=.5 [ 4 4 4 4 4 4 4 4 4 4 4 4 4 ",
"4 4 4 4 4 f 4 4 4 f 4 [ 4 ^ h l.@+p+E+E+E+E+E+E+E+E+E+E+E+E+E+E+E+E+y+E+E+E+E+E+E+A+d+7+l+3+Z.s.=.R z 4 4 f 4 4 f s s 4 4 4 4 4 ",
"4 4 4 4 f 4 4 4 4 4 4 4 m n 5 n.@+!+l+E+E+E+E+E+A+y+C+E+E+E+E+E+E+B+q+v+C+C+E+E+E+r+d+5+s+3+R.g.v t ^ F 4 4 4 4 4 4 4 4 4 4 4 4 ",
"4 4 4 4 4 4 4 4 4 4 4 M [ < 5.!.K.,+x+E+E+E+E+x+r+u+B+E+E+E+E+E+E+E+v+d+v+x+z+E+y+d+d+8+k+[+A.!.k.< [ 4 4 F 4 4 4 4 s 4 4 f 4 4 ",
"4 4 4 4 4 B f 4 F 0 4 M [ [ H C E.~+y+z+E+E+E+r+t+l+s+v+A+E+E+E+E+E+y+0+l+y+E+C+g+d+d+d+v+;+B.:.6 n 4 4 4 4 4 4 4 4 4 4 4 4 4 4 ",
"4 4 4 4 4 4 f 4 4 m [ F g -.j 8.K.{+v+t+E+E+A+n+v+l+d+g+p+x+y+A+A+x+v+d+0+x+C+p+d+m+i+t+6+#+J.u.N Z [ f m 4 4 4 4 f 4 4 4 4 4 4 ",
"m 4 4 4 f 4 f 4 4 f 4 4 m R H 9.E.'+v+l+C+E+x+l+v+n+n+d+d+g+j+l+l+n+d+0+d+p+x+y+v+m+r+t+l+/+Z.j.i T z F 4 4 4 4 4 4 F 4 4 4 4 4 ",
"4 4 4 0 4 F 4 4 4 F 4 4 ^ t d i I.,+x+l+r+v+l+g+y+v+A+y+p+l+a+a+7+5+5+5+l+d+v+B+E+y+v+d+d+o+^+s._.p g F 4 4 F f 4 s 4 4 4 4 4 4 ",
"4 0 4 4 4 4 f 4 4 4 f 4 ^ J . }.J.!+y+i+l+n+g+p+x+j+d+c+v+r+y+t+e+d+j+l+p+u+p+n+y+E+y+r+p+0+7+5+&+* r 4 4 4 4 4 4 4 4 4 4 4 4 4 ",
"4 f 4 4 4 4 4 4 4 [ 4 ^ ' 5 V o.R.[+A+m+n+g+l+x+a+4+5+3+9+!+]+:+|+8+6+5+3+|+6+t+p+p+y+u+6+6+0+7+m+C.1 >.4 F 4 4 4 f 4 4 4 4 4 4 ",
"4 F 4 4 4 4 4 f 4 4 L [ 1 S 3.A.&+x+x+a+g+p+v+n+7+[+1+a+#+#+V.#+R.R.R.V.#+Z..+,+<+c+t+v+C+(+;+3+j+.+; &.m 4 4 4 4 4 4 4 4 4 4 4 ",
"4 0 4 4 4 0 f s 4 [ F n 9 ) E.!+p+v+g+h+t+0+g+0+1+3+:+V.A.t.v.;.x.8.r.r.1.f.A.K.N.&+]+g+y+3+#+6+c+_.5 F &.4 4 4 4 F 4 4 4 4 4 4 ",
"4 4 4 0 4 4 4 4 F 4 4 < / y.y+x+p+n+n+0+!+0+c+5+0+(+D.i.4.!.P O b N h v G P 1...p.Q..+1+v+_+*+g+$+A < 4 s 4 4 4 f 4 4 4 4 4 4 4 ",
"4 4 4 e 4 s 4 4 F [ [ > 2 Z.y+v+0+,+.+#+6+d+6+7+#+A.0.C K 3 J < $.R [ Z U 5 E ! 3.o.R.7+6+*+/+c+e.= [ F F s 0 B 4 4 4 4 f 4 4 4 ",
"4 f [ 4 4 4 F 4 4 F ' 6 ..-+v+3+A.x.x.Q.<+9+1+N.y.c.G j -.F [ [ z L [ g < [ 5 y ..A.*+i+;+;+g+!+y J W 0 4 4 4 4 4 f 4 4 4 4 4 4 ",
"4 4 4 4 4 4 4 [ 4 s n E ).!+p+F.f.0.i.p.I.e+3+A.p.%.n L 4 m 4 4 4 4 f s 4 [ 1 | ).R.e+(+,+8+n+E.~ [ m f B [ 0 4 f 4 f 4 4 4 4 4 ",
"f 4 4 4 s 4 4 4 4 [ [ # ).:+[+3.;.Q @  .f./+0+E.Q 9 5 [ m m m 4 f f 4 [ m z . e.R.d+v+[+C+e+-+! 5 [ 4 4 4 4 4 4 4 4 4 4 4 4 4 4 ",
"[ s 4 4 4 0 4 4 4 f n h Q a+*+7 ( h r p A E.g+@+e.b < [ F 4 [ 4 4 4 [ 4 e R + |+A+r+]+9+[+y.y t m 4 4 4 4 4 4 4 4 4 4 4 4 4 4 4 ",
"4 4 4 4 4 0 f 4 m 4 {.{ o.t+x.7 1 Z z 5 S 3./+:+f.| O 4 [ 4 4 4 4 f 4 4 [ ' $ l+/+x.p.o.0._ r F F 4 4 4 4 4 4 4 4 4 4 4 4 4 4 4 ",
"4 4 4 4 4 s e 4 m z t / R.a+3.& n [ m z r i J.p+y.3.9 [ 4 4 s f s s 4 4 m 4 < l Y V / : b < 4 f 4 4 4 4 4 4 4 4 4 4 4 4 4 4 4 4 ",
"4 4 4 4 4 4 4 4 4 4 3 ..]+[+c.{ [ -.[ -.' 8 0.a+:+3.& 5 ^ [ 4 4 4 4 0 4 [ [ ' M n z z J [ [ 4 [ 4 4 [ 4 4 4 s 4 4 4 4 4 4 4 4 4 ",
"f 4 4 4 f [ 4 m m 4 3 ..i+4+e.p 4 F f s [ K y /+y+{+3.+ t f B 4 4 4 4 4 4 e 4 4 4 W 4 4 W f 4 [ 4 4 s 4 4 4 4 4 4 4 4 4 4 4 4 4 ",
"4 4 4 4 B 4 4 4 4 [ H 2 2+m+7./ ' ~.4 [ 4 n 6 i.-+C+4+A K -.s [ 4 4 4 4 f 4 4 0 [ 4 4 4 4 0 4 m 4 4 4 4 4 4 4 4 4 4 4 4 4 4 4 4 ",
"s 4 4 4 4 4 4 4 4 4 R | *+C+;+! g 4 4 4 f m ' 6 p.4+0+E.< 4 4 4 4 4 4 s 4 4 0 4 f f m 4 4 4 4 M 0 4 4 4 4 4 4 4 4 4 4 4 4 4 4 4 ",
"4 4 4 4 4 4 s s 4 &.m : @+C+a+{ m 0 4 4 f s -.U $ c - d 4 f 4 4 f 4 4 4 4 s e 4 4 4 m 4 [ 4 4 4 4 4 4 4 f 4 4 4 4 4 4 4 4 4 4 4 ",
"4 4 4 f 4 4 4 W s 0 F <   o.E.O 4 4 4 4 4 4 4 m {.< < 4 0 m 4 4 4 4 4 4 4 f s 4 4 f f 4 4 4 4 4 4 4 4 4 4 4 4 4 4 4 4 4 4 4 4 4 ",
"4 4 4 4 4 s 0 s 4 B 4 4 J , R L 4 B [ f 4 4 0 e 4 4 4 f F 4 4 4 4 4 4 4 4 4 4 4 4 4 4 4 4 4 4 4 4 4 4 4 4 4 4 4 4 4 4 4 4 4 4 4 ",
"4 4 4 s f 4 0 4 4 s 4 0 f 4 4 4 4 4 f 4 f 4 4 4 4 4 0 4 4 4 4 4 4 4 4 4 4 4 4 4 4 4 4 4 4 4 4 4 4 4 4 4 4 4 4 4 4 4 4 4 4 4 4 4 ",
"4 4 4 4 4 4 4 B 4 4 4 4 F 4 4 f 4 4 4 4 4 f 4 4 4 4 4 4 [ 4 4 f 4 s 4 4 4 f 4 f 4 4 4 4 4 4 4 4 4 4 f 4 4 4 4 4 4 4 4 4 4 4 4 4 ",
"4 4 4 4 4 4 4 s f 4 4 4 4 4 4 f 4 4 4 4 4 4 4 4 s 4 4 4 4 4 4 4 4 4 4 4 4 f 4 4 4 4 4 4 4 4 4 4 4 4 4 4 4 4 4 4 4 4 4 4 4 4 4 4 "};
