/* XPM */
static char * expelliarmus_icn_xpm[] = {
"64 64 252 2",
"  	c #060000",
". 	c #000200",
"+ 	c #000407",
"@ 	c #180100",
"# 	c #170104",
"$ 	c #1D0100",
"% 	c #060A05",
"& 	c #220303",
"* 	c #2A0201",
"= 	c #2D0103",
"- 	c #2F0300",
"; 	c #390000",
"> 	c #3D0304",
", 	c #450203",
"' 	c #400500",
") 	c #4E0204",
"! 	c #570003",
"~ 	c #181413",
"{ 	c #600004",
"] 	c #510508",
"^ 	c #530602",
"/ 	c #490E12",
"( 	c #660703",
"_ 	c #800007",
": 	c #770308",
"< 	c #1C1E1C",
"[ 	c #700703",
"} 	c #790502",
"| 	c #1D2022",
"1 	c #820309",
"2 	c #8B0107",
"3 	c #23201F",
"4 	c #960107",
"5 	c #850804",
"6 	c #A00006",
"7 	c #7B0B13",
"8 	c #AA000D",
"9 	c #AC0006",
"0 	c #29272B",
"a 	c #A30508",
"b 	c #99080A",
"c 	c #B6000C",
"d 	c #342628",
"e 	c #69171B",
"f 	c #B7000D",
"g 	c #9B0A03",
"h 	c #4E2020",
"i 	c #541F1D",
"j 	c #2A2C29",
"k 	c #C1000B",
"l 	c #B8030E",
"m 	c #AF0708",
"n 	c #A50A0A",
"o 	c #9C0D0C",
"p 	c #841513",
"q 	c #BA0606",
"r 	c #2D2F2C",
"s 	c #691E1D",
"t 	c #CF010B",
"u 	c #B10B09",
"v 	c #8D1517",
"w 	c #C5060E",
"x 	c #30322F",
"y 	c #B10D11",
"z 	c #2F3335",
"A 	c #BB0B10",
"B 	c #BC0C08",
"C 	c #3C3233",
"D 	c #99191E",
"E 	c #C80D06",
"F 	c #522F2E",
"G 	c #363835",
"H 	c #941D1C",
"I 	c #DD0A0C",
"J 	c #363A3C",
"K 	c #3A3C39",
"L 	c #663031",
"M 	c #B01C1F",
"N 	c #453B3B",
"O 	c #3A3E40",
"P 	c #C2181C",
"Q 	c #BA1B17",
"R 	c #643438",
"S 	c #3F413F",
"T 	c #44403F",
"U 	c #533C3B",
"V 	c #503E3C",
"W 	c #6E3738",
"X 	c #414547",
"Y 	c #434542",
"Z 	c #853235",
"` 	c #9A2E2E",
" .	c #A92B2F",
"..	c #963232",
"+.	c #98332E",
"@.	c #484A48",
"#.	c #BB2B2D",
"$.	c #823C38",
"%.	c #4B4D4A",
"&.	c #9C3737",
"*.	c #5D4C4E",
"=.	c #4D5153",
"-.	c #50524F",
";.	c #B43637",
">.	c #5A5050",
",.	c #A73A3D",
"'.	c #914347",
").	c #9D4040",
"!.	c #585453",
"~.	c #525658",
"{.	c #9A4446",
"].	c #565855",
"^.	c #AE4143",
"/.	c #CA3A37",
"(.	c #AF4243",
"_.	c #5B5D5A",
":.	c #B94348",
"<.	c #5C6063",
"[.	c #5F615E",
"}.	c #5F6365",
"|.	c #765D5C",
"1.	c #A75050",
"2.	c #7C5D5E",
"3.	c #626562",
"4.	c #AF504F",
"5.	c #AF5054",
"6.	c #99575A",
"7.	c #AB5354",
"8.	c #64696B",
"9.	c #6A686C",
"0.	c #696B68",
"a.	c #6B6F72",
"b.	c #6D6F6C",
"c.	c #B9595C",
"d.	c #AE5D5F",
"e.	c #956767",
"f.	c #717370",
"g.	c #747276",
"h.	c #777371",
"i.	c #7D7272",
"j.	c #837173",
"k.	c #9C6D6D",
"l.	c #787A77",
"m.	c #827777",
"n.	c #A46E6B",
"o.	c #9A7376",
"p.	c #A67173",
"q.	c #7B7E7B",
"r.	c #867B7B",
"s.	c #927877",
"t.	c #837E7D",
"u.	c #997879",
"v.	c #817F83",
"w.	c #7E8284",
"x.	c #828582",
"y.	c #818588",
"z.	c #9F7E7F",
"A.	c #868885",
"B.	c #89878B",
"C.	c #8C8786",
"D.	c #B27C7E",
"E.	c #85898C",
"F.	c #9A888A",
"G.	c #8B8D8A",
"H.	c #8B8F92",
"I.	c #B48484",
"J.	c #AA8889",
"K.	c #BB8486",
"L.	c #8F918E",
"M.	c #919598",
"N.	c #B08E8F",
"O.	c #D38583",
"P.	c #969895",
"Q.	c #BE8D8D",
"R.	c #9D9896",
"S.	c #969B9D",
"T.	c #B09493",
"U.	c #9D9F9C",
"V.	c #BA9799",
"W.	c #9CA1A3",
"X.	c #B19EA1",
"Y.	c #A8A3A2",
"Z.	c #A3A5A2",
"`.	c #AEA2A3",
" +	c #B5A2A4",
".+	c #A3A8AA",
"++	c #A7A9A6",
"@+	c #B2A6A6",
"#+	c #BAA7A9",
"$+	c #A8ADAF",
"%+	c #ABADAA",
"&+	c #B9ADAE",
"*+	c #AEB1AD",
"=+	c #ADB2B4",
"-+	c #B5B0AF",
";+	c #B1B4B0",
">+	c #C2AFB1",
",+	c #B0B5B7",
"'+	c #BAB5B3",
")+	c #DFACAC",
"!+	c #B6B8B5",
"~+	c #C3B7B7",
"{+	c #BBBDBA",
"]+	c #B9BEC1",
"^+	c #C2BDBC",
"/+	c #C8BCBC",
"(+	c #BEC1BD",
"_+	c #BDC2C4",
":+	c #C7C2C1",
"<+	c #C1C4C1",
"[+	c #C5C7C4",
"}+	c #C9C6CB",
"|+	c #C4C9CB",
"1+	c #CDC7C6",
"2+	c #D2C6C6",
"3+	c #C9CBC8",
"4+	c #D2CDCC",
"5+	c #CBCFD2",
"6+	c #F2C5C2",
"7+	c #CDD0CC",
"8+	c #EEC9CA",
"9+	c #D7D2D1",
"0+	c #D2D4D1",
"a+	c #D1D5D8",
"b+	c #DBD6D4",
"c+	c #D5DADD",
"d+	c #D7DAD6",
"e+	c #DFD9D8",
"f+	c #DADCD9",
"g+	c #DEE1DD",
"h+	c #E1E3E0",
"i+	c #E0E5E8",
"j+	c #E4E6E3",
"k+	c #E3E8EB",
"l+	c #E8EAE7",
"m+	c #EAEDE9",
"n+	c #ECEEEB",
"o+	c #EAEFF2",
"p+	c #F3EEED",
"q+	c #EFF1EE",
"r+	c #F1F4F0",
"s+	c #F1F6F8",
"t+	c #F4F7F3",
"u+	c #FBF6F5",
"v+	c #F7F9F6",
"w+	c #F7FBFE",
"x+	c #F9FBF8",
"y+	c #FAFCF9",
"z+	c #FBFDFA",
"A+	c #FFFCFA",
"B+	c #FFFCFF",
"C+	c #FCFFFB",
"c c c c c c c c c c c c c c c c c c c c c c c c c c c c c c c c c c c c c c c c c c c c c c c c c c c c c c c c c c c c c c c c ",
"c c c c c c c c c c c c c c c c c c c c c c c c c c c c c c c c c c c c c c c c c c c c c c c c c c c c c c c c c c c c c c c c ",
"c c c c c c c c c c c c c c c c c c c c c c c c c c c c c c c c c c c c c c c c c c c c c c c c c c c c c c c c c c c c c c c c ",
"c c c c c c c c c c c c c c c c c c c c c c c c c c c c c c c c c c c c c c c c c c c c c c c c c c c c c c c c c c c c c c c c ",
"c c c c c c c c c c c c c c c c c c c c c c c c c c c c c c c c c c c c c c c c c c c c c c c c c c c c c c c c c c c c c c c c ",
"c c c c c c c c c c c c c c c c c c c c c c c c c c c c c c c c c c c c c c c c c c c c c c c c c c c c c c c c c c c c c c c c ",
"c c c c c c c c c c c c c c c c c c c c c c c c c c c c c c c c c c c c c c c c c c c c c c c c c c c c c c c c c c c c c c c c ",
"c c c c c c c c c c c c c c c c c c c c c c c c c c c c c c c c c c c c c c c c c c c c c c c c c c c c c c c c c c c c c c c c ",
"c c c c c c c c c c c c c c c c c c c c c c c c c c c c c c c c c c c c c c c c c c c c c c c c c c c c c c c c c c c c c c c c ",
"c c c c c c c c c c c c c c c c c c c c c c c c c c c c c c c c c c c c c c c c c c c c c c c c c c c c c c c c c c c c c f c c ",
"c c c c c c c c c c c c c c c c c c c c c c c c c c c c c c c c c c c c c c c c c c c c c c c c c c c c c c c c c c c u '.L c c ",
"c c c c c c c c c c c c c c c c c c c c c c c c c c c c c c c c c c c c c c c c c c c c c c c c c c c c c c c c c f  .|.W 9 c c ",
"c c c c c c c c c c c c c c c c c c c c c c c c c c c c c c c c c c c c c c c c c c c c c c c c c c c c c c c c u 6.!.5 c c c c ",
"c c c c c c c c c c c c c c c c c c c c c c c c c c c c c c c c c c c c c c c c c c c c c c c c c c c c c c c (.i.R a c c c c c ",
"c c c c c c c c c c c c c c c c c c c c c c c c c c c c f t ,.c c c c c c c c c c c c c c c c c c c c c c m k.9._ m c c c c c c ",
"c c c c c c c c c c c c c c c c c c c c c c f m c c c c B /+_+9 c c c c c c c c c c c c c c c c c c c f 5.m.F 6 c c c c c c c c ",
"c c c c c c c c c c c c c c c c c c c c c c 4.-+m c c f >+n+*.f B c c E B c c c c c c c c c c c c c y o.v.: B c c c c c c c c c ",
"c c c c c c c c c c c c c c c c c c c c c M e+Z.q c f F.a+f.o l B k c.^+a c c c c c c c c c c c B ).Y.U b c c c c c c c c c c c ",
"c c c c c c c c c c c c c c c c c c c c B ^+0+e c c 1.q+G.5 f f t K.q+U.6 c c c c c c c c c f 4.F.a.s 9 c c c c c c c c c c c c ",
"c c c c c c c c c c c c c c c c c c c c y m+-.n c c b+q+N w l k >+|+W.7 f c c c c c c c c l e.W.C 2 c c c c c c c c c c c c c c ",
"c c c c c c c c c c c c c c c c c c c c I.r+V t w D.r+f.v k :.9+t+-.g E c c c c c c c B  .j.J ^ 9 c c c c c c c c c c c c c c c ",
"c c c c c c c c c c c c c c c c c c c c :+c+R B I /+x+q.9 y e+5+l.1 B q c c c c c l A N.=+z _ c c c c c c c c c c c c c c c c c ",
"c c c c c c c c c c c c c c c c c c c k ~+B+G.E P o+j+T k >+s+[.} t l B B l c c l ^.C.g./ a c c c c c c c c c c c c c c c c c c ",
"c c c c c c c c c c c c c c c c c c c k  +y+U.$.u.m+P.[ D.w+[+h k 7.Q.2+/+V.d.k z.<.  _ c c c c c c c c c c c c c c c c c c c c ",
"c c c c c c c c c c c c c c c c c c c c J.y+t+y+y+v+r+3+|+!+Y n #+j+i+H.*+S.!.R.a.) 6 c c c c c c c c c c c c c c c c c c c c c ",
"c c c c c c c c c c c c c c c c c c c c s.x+C+q+C+l+r+z+y+3+>.4+q+}.i a H M.B.~ g c c c c c c c c c c c c c c c c c c c c c c c ",
"c c c c c c c c c c c c c c c c c c c u <+t+0+L.Z.q.++[+h+y+j+P.%.( I #.t.8.F c l c c c c c c c c c c c c c c c c c c c c c c c ",
"c c c c c c c c c c c c c c c c c c c +.t+z+h+L.< ].L.[+h+7+Z.-.( E n.w.3.++&+;.c c c c c c c c c c c c c c c c c c c c c c c c ",
"c c c c c c c c c c c c c c c c c c w X.z+C+C+!+G h.{+$+L.S + ' Q r.}.w.x+v+,+&.c c c c c c c c c c c c c c c c c c c c c c c c ",
"c c c c c c c c c c c c c c c c c c m 3+z+C+C+{+S {+n+0+k+;+r u 1.G A.j+n+m.6 c c c c c c c c c c c c c c c c c c c c c c c c c ",
"c c c c c c c c c c c c c c c c c c 4 0+z+x+C+}+Y d+%+g+v+r+7+T.X.n+y+h+0.4 c c c c c c c c c c c c c c c c c c c c c c c c c c ",
"c c c c c c c c c c c c c c c c c l p d+C+u+C+f+[.5+g+p+y+z+z+x+x+l+Z.d _ m c c c c c c c c c c c c c c c c c c c c c c c c c c ",
"c c c c c c c c c c c c c c c c c k Z c+C+C+C+h+U.f+z+z+z+C+y+5+*+X ] m c c c c c c c c c c c c c c c c c c c c c c c c c c c c ",
"c c c c c c c c c c c c c c c c c k 2.l+z+C+z+g+3+t+z+z+z+r+[+<.. { u c c c c c c c c c c c c c c c c c c c c c c c c c c c c c ",
"c c c c c c c c c c c c c c c B 8 @+n+q+n+r+l+P.7+C+z+x+f+G.r & 2 c c c c c c c c c c c c c c c c c c c c c c c c c c c c c c c ",
"c c c c c c c c c c c c c c f A :+C+C+l+L._.Y ].7+r+r+!+@.. = n c c c c c c c c c c c c c c c c c c c c c c c c c c c c c c c c ",
"c c c c c c c c c c c c c c ` 1+y+z+C+[+x.0 . _.A.G.f.x . ^ m c c c c c c c c c c c c c c c c c c c c c c c c c c c c c c c c c ",
"c c c c c c c c c c c B E u.l+z+z+y+g+0+U.j . 3 . .   ! g f c c c c c c c c c c c c c c c c c c c c c c c c c c c c c c c c c c ",
"c c c c c c c c c c c ..'+x+A+z+z+x+0+$+b.. . .   5 k B c c c c c c c c c c c c c c c c c c c c c c c c c c c c c c c c c c c c ",
"c c c c c c c c B D `.q+z+A+A+z+C+d+.+=..   . $ b f l c c c c c c c c c c c c c c c c c c c c c c c c c c c c c c c c c c c c c ",
"c c c c c c m ` `.l+z+z+A+z+x+y+7+G.Y . . . - 6 c c c c c c c c c c c c c c c c c c c c c c c c c c c c c c c c c c c c c c c c ",
"c c c c l {.'+r+y+y+z+z+z+t+n+(+| % . . . > 9 c c c c c c c c c c c c c c c c c c c c c c c c c c c c c c c c c c c c c c c c c ",
"c c c c /.t+z+C+z+z+y+z+f+]+!+. . . . . > 8 c c c c c c c c c c c c c c c c c c c c c c c c c c c c c c c c c c c c c c c c c c ",
"c c c c O.z+z+z+z+C+t+]+w.f.. . . . . , 8 c c c c c c c c c c c c c c c c c c c c c c c c c c c c c c c c c c c c c c c c c c c ",
"c c c c )+y+y+z+q+c+.+-.G . . . . . , m c c c c c c c c c c c c c c c c c c c c c c c c c c c c c c c c c c c c c c c c c c c c ",
"c c c c 6+C+w+5+%+E.K . . . . . . ' 9 c c c c c c c c c c c c c c c c c c c c c c c c c c c c c c c c c c c c c c c c c c c c c ",
"c c c B 8+l+_+U.~.. . . . . . . = 8 c c c c c c c c c c c c c c c c c c c c c c c c c c c c c c c c c c c c c c c c c c c c c c ",
"c c c k K.M.y.O . . . . . . . & a c c c c c c c c c c c c c c c c c c c c c c c c c c c c c c c c c c c c c c c c c c c c c c c ",
"c c c f p.O   . . . . . . . $ g c c c c c c c c c c c c c c c c c c c c c c c c c c c c c c c c c c c c c c c c c c c c c c c c ",
"c c c c _ . . . . . . . . @ 6 c c c c c c c c c c c c c c c c c c c c c c c c c c c c c c c c c c c c c c c c c c c c c c c c c ",
"c c c c 2 . . . . . . . @ 6 c c c c c c c c c c c c c c c c c c c c c c c c c c c c c c c c c c c c c c c c c c c c c c c c c c ",
"c c c c 6   . . . . . # b c c c c c c c c c c c c c c c c c c c c c c c c c c c c c c c c c c c c c c c c c c c c c c c c c c c ",
"c c c c c   . . .   * g c c c c c c c c c c c c c c c c c c c c c c c c c c c c c c c c c c c c c c c c c c c c c c c c c c c c ",
"c c c c f , . .   ; a c c c c c c c c c c c c c c c c c c c c c c c c c c c c c c c c c c c c c c c c c c c c c c c c c c c c c ",
"c c c c l } .   ^ 9 c c c c c c c c c c c c c c c c c c c c c c c c c c c c c c c c c c c c c c c c c c c c c c c c c c c c c c ",
"c c c c c n . [ m c c c c c c c c c c c c c c c c c c c c c c c c c c c c c c c c c c c c c c c c c c c c c c c c c c c c c c c ",
"c c c c c c 4 c c c c c c c c c c c c c c c c c c c c c c c c c c c c c c c c c c c c c c c c c c c c c c c c c c c c c c c c c ",
"c c c c c c c c c c c c c c c c c c c c c c c c c c c c c c c c c c c c c c c c c c c c c c c c c c c c c c c c c c c c c c c c ",
"c c c c c c c c c c c c c c c c c c c c c c c c c c c c c c c c c c c c c c c c c c c c c c c c c c c c c c c c c c c c c c c c ",
"c c c c c c c c c c c c c c c c c c c c c c c c c c c c c c c c c c c c c c c c c c c c c c c c c c c c c c c c c c c c c c c c ",
"c c c c c c c c c c c c c c c c c c c c c c c c c c c c c c c c c c c c c c c c c c c c c c c c c c c c c c c c c c c c c c c c ",
"c c c c c c c c c c c c c c c c c c c c c c c c c c c c c c c c c c c c c c c c c c c c c c c c c c c c c c c c c c c c c c c c ",
"c c c c c c c c c c c c c c c c c c c c c c c c c c c c c c c c c c c c c c c c c c c c c c c c c c c c c c c c c c c c c c c c ",
"c c c c c c c c c c c c c c c c c c c c c c c c c c c c c c c c c c c c c c c c c c c c c c c c c c c c c c c c c c c c c c c c "};
