/* XPM */
static char * glacius_icn_xpm[] = {
"64 64 225 2",
"  	c #720004",
". 	c #6A0004",
"+ 	c #690003",
"@ 	c #580002",
"# 	c #560002",
"$ 	c #3E0002",
"% 	c #3C0001",
"& 	c #700004",
"* 	c #6B0004",
"= 	c #6F0004",
"- 	c #0D0000",
"; 	c #050000",
"> 	c #6E0004",
", 	c #6D0004",
"' 	c #710004",
") 	c #490002",
"! 	c #2E0001",
"~ 	c #470001",
"{ 	c #000000",
"] 	c #3F0001",
"^ 	c #3D0001",
"/ 	c #420001",
"( 	c #410001",
"_ 	c #430001",
": 	c #220000",
"< 	c #010101",
"[ 	c #4E0002",
"} 	c #540002",
"| 	c #650003",
"1 	c #260000",
"2 	c #5E0003",
"3 	c #120000",
"4 	c #600003",
"5 	c #290001",
"6 	c #610003",
"7 	c #530002",
"8 	c #690004",
"9 	c #200000",
"0 	c #6C0004",
"a 	c #560103",
"b 	c #670003",
"c 	c #300001",
"d 	c #550002",
"e 	c #170000",
"f 	c #6B0104",
"g 	c #480002",
"h 	c #510002",
"i 	c #150000",
"j 	c #440001",
"k 	c #640104",
"l 	c #190000",
"m 	c #4C0002",
"n 	c #570003",
"o 	c #2C0001",
"p 	c #250001",
"q 	c #5A0002",
"r 	c #4A0002",
"s 	c #6A0003",
"t 	c #5F0003",
"u 	c #0B0000",
"v 	c #4D0002",
"w 	c #390001",
"x 	c #1F0000",
"y 	c #220001",
"z 	c #5A0103",
"A 	c #460002",
"B 	c #2B0102",
"C 	c #0C0000",
"D 	c #500002",
"E 	c #2B0001",
"F 	c #5A0003",
"G 	c #1A0000",
"H 	c #350001",
"I 	c #0A0000",
"J 	c #2F0001",
"K 	c #270001",
"L 	c #250000",
"M 	c #140000",
"N 	c #320001",
"O 	c #150001",
"P 	c #280001",
"Q 	c #380001",
"R 	c #640003",
"S 	c #630003",
"T 	c #240000",
"U 	c #030000",
"V 	c #1D0001",
"W 	c #210000",
"X 	c #5D0003",
"Y 	c #550003",
"Z 	c #410002",
"` 	c #370001",
" .	c #130000",
"..	c #610104",
"+.	c #100000",
"@.	c #1C0000",
"#.	c #520002",
"$.	c #320102",
"%.	c #180000",
"&.	c #680003",
"*.	c #570002",
"=.	c #070000",
"-.	c #5B0002",
";.	c #4E0102",
">.	c #1F0101",
",.	c #3A0001",
"'.	c #450002",
").	c #6C0105",
"!.	c #510103",
"~.	c #4B0002",
"{.	c #1E0000",
"].	c #580003",
"^.	c #1C0001",
"/.	c #430002",
"(.	c #5E0103",
"_.	c #6F0104",
":.	c #580103",
"<.	c #680104",
"[.	c #5F0103",
"}.	c #3F0102",
"|.	c #660003",
"1.	c #110000",
"2.	c #460001",
"3.	c #360001",
"4.	c #590003",
"5.	c #3E0001",
"6.	c #010000",
"7.	c #3A0101",
"8.	c #5B0003",
"9.	c #1D0000",
"0.	c #4A0102",
"a.	c #160000",
"b.	c #4C0103",
"c.	c #2A0001",
"d.	c #330001",
"e.	c #620003",
"f.	c #340001",
"g.	c #470002",
"h.	c #3C0102",
"i.	c #2D0101",
"j.	c #1A0101",
"k.	c #3B0001",
"l.	c #400001",
"m.	c #230001",
"n.	c #060000",
"o.	c #520102",
"p.	c #240001",
"q.	c #0F0000",
"r.	c #4F0002",
"s.	c #310001",
"t.	c #270000",
"u.	c #650205",
"v.	c #670104",
"w.	c #550103",
"x.	c #420002",
"y.	c #230000",
"z.	c #5C0003",
"A.	c #020000",
"B.	c #120404",
"C.	c #090000",
"D.	c #680105",
"E.	c #050505",
"F.	c #2D0607",
"G.	c #3B0102",
"H.	c #270101",
"I.	c #2D0001",
"J.	c #060606",
"K.	c #2D0202",
"L.	c #6B0003",
"M.	c #260001",
"N.	c #530103",
"O.	c #5B0103",
"P.	c #5E0204",
"Q.	c #590002",
"R.	c #4C0204",
"S.	c #030303",
"T.	c #510305",
"U.	c #0E0000",
"V.	c #6B0206",
"W.	c #360102",
"X.	c #400203",
"Y.	c #1F0001",
"Z.	c #350101",
"`.	c #630104",
" +	c #020202",
".+	c #620103",
"++	c #310101",
"@+	c #170404",
"#+	c #450001",
"$+	c #370202",
"%+	c #400102",
"&+	c #410102",
"*+	c #360101",
"=+	c #080000",
"-+	c #660105",
";+	c #600103",
">+	c #4A0304",
",+	c #600002",
"'+	c #3B0304",
")+	c #540003",
"!+	c #530305",
"~+	c #0C0202",
"{+	c #2E0101",
"]+	c #680004",
"^+	c #480103",
"/+	c #4F0305",
"(+	c #6E0104",
"_+	c #430405",
":+	c #250101",
"<+	c #410203",
"[+	c #0F0101",
"}+	c #080202",
"|+	c #310203",
"1+	c #4D0103",
"2+	c #4B0204",
"3+	c #6B0306",
"4+	c #5C0103",
"5+	c #580204",
"6+	c #110101",
"7+	c #040000",
"8+	c #050202",
"9+	c #1A0303",
"0+	c #520103",
"a+	c #040404",
"b+	c #050606",
"                                                                                                                                ",
"                                                              . +                                                               ",
"                                                              @ #                                                               ",
"                                                              $ %                                                               ",
"                                                      & *   = - ; >   , '                                                       ",
"                                                        ) ! ~ { { ] ^ )                                                         ",
"                                                          / { { { { (                                                           ",
"                                                      ,   ' _ { { ^ '   ,                                                       ",
"                                        &             # _ & ' : < & & [ }             &                                         ",
"                                        }             | { 1 2 3 { 4 5 { 6             7                                         ",
"                              8 ,       9 0   a b     & c { { { { { { 1 ,     + d   & e       > f                               ",
"                              , ! ! g d { h   # i 6     & ) { { { { j &     k l m   n { } g o 1 ,                               ",
"                                0 p { { { o   q { r   h s   t u - @   s v   [ { #   w { { { x 0                                 ",
"                                  * y { { { z t { ^   A B d ' l C ' D E ^   j { F 2 { { { G s                                   ",
"                                  , H { { { { I { J   r g G K { { L M [ j   N { O { { { { P >                                   ",
"                                . Q ] } R S T { { e * m 1 6 { { { U t ! g * V { { W X | Y Z ` s                                 ",
"                                        = Y  .{ { { ; W { ..F { { Y R { W ; { { { +.h =       '                                 ",
"                                      # @.{ { L #.g { { { ]   ^ $.  j { { { _ d 1 { { %.} '                                     ",
"                                      &.D ^ 2 ' ' *.C { { =.X -.} t +.{ {  .} '   t ] ;.+                                       ",
"                                            ' q 5 >.,.) *.D '.+ ).j !.@ ~.,.{.: ].'                                             ",
"                                            , ( ^./.#.(.+ | q 0 _.:.k 8 t } '.@./ *                                             ",
"                                      ' 4 h >   <.( { { { { m [.t [ { { { { }.|.  , # 6                                         ",
"                                    ' '.{ { 1.2.| X u { { 3.  / ,.  ^ { { { 4.|.2.- { { /.&                                     ",
"                                        | 5.{ { { { { { { @ R C 6.6 X { { { { { { { 7.S                                         ",
"                                + ~.@ &.' , E { { u 8.r : b 9.{ { i <.p A -.i { { E , ' |.# 0.b                                 ",
"                                  S G { 1.a.{ { { c   r b.c { { { U c.[ 2.  d.{ { { u l { G e.                                  ",
"                                  = f.{ { { g.@ { h.  g.i.% <.j.{ + ,.5 ^   j { h g.{ { { J 0                                   ",
"                                  k.{ { { G   q { )   ( X   s - - b   t ,.  r { *.  P { { { ` &                                 ",
"                                l.{ m.,.{ ~.  d { a   &   @  .{ { n.#   '   X { o.  #.{ k.p.{ l.                                ",
"                              b X 0     q.|   v q     ' /.{ { { { { { l.=     4.~.  0 { '   * 2 |                               ",
"                                        g.    &       &.{ q.r.i { v u { S       =     '.                                        ",
"                                        >             -.s.b   t.;   + J *.            ,       u.+                               ",
"                                  0 '                 | &   *.{ { D   ' |                 & 2 n '                               ",
"                                  v.;.X '                 *.{ { { { h                 &.# ~.D |.                                ",
"                                  w.@ x.y.2             z.A.E { { J G @       = t j {.{ < B.Q D                                 ",
"                                    &.3.C.6.r.D '     ' X > s { { D.| % # r H U { { { E.F.R                                     ",
"                                      = z.7 G.d._ * 5.q       ` d.  * v H.I.G.c.; { J.K.L.6                                     ",
"                                      * & ,  .{ { M.@ ! A '   # 7 & S =   & 4 z.N.4.e.0 O.4                                     ",
"                                      |.7 + @ =.{ { T f P.Q.  * 8   R E f.g [ I { { s R.F                                       ",
"                                        *.J 8.2 q.{ S.T.e.        L.&.g.d @.{ { { U.V.&                                         ",
"                                          e.&., t W.i J d.X.,   , r &.Y.Q X #.) m b   F                                         ",
"                                            s R o @ d ~ i { Z.`.&.` { {  +g..+A r S   '                                         ",
"                                          R > ' 3.{ ^ ++Q.D 9 r * z.@+{ { s.#+$+x                                               ",
"                                          + 8.  4 [ =.t.{ H -.h %+d &+*+` =+{ { %+  = #.                                        ",
"                                                = s w { { { o 2.b -+;+1 : d H K F ' >+,+                                        ",
"                                                '+7 3.{ { L O.= )+g !+X *._ . 0 ' & .                                           ",
"                                                ^.~+h ^ { &+{+4 ]+^+^ /+ + +z.  (+0                                             ",
"                                                q < { _+7 5.{ :+<+4.,.[+S.{ X e.                                                ",
"                                            + | = 5.}+|+v |.1+A I.{  .9 { @.= =                                                 ",
"                                              q r.& 2+< { 2.z.3+f # k.r K g                                                     ",
"                                                '     4+3.; %+w 7 5+#.F e.e.t =                                                 ",
"                                                      S  .2.5.Q.#.6+I.{ { { _                                                   ",
"                                                      ' r.=+W ) t |.D c 7+z.                                                    ",
"                                                        h Q  +8+ +A.N g.S                                                       ",
"                                                        b 1.{ M 9+{ S.E.#+                                                      ",
"                                                        & ^+K S.J.E.{ { r                                                       ",
"                                                        ' f.0+*.s.c.*+t                                                         ",
"                                                        + : { A 2 l m.'                                                         ",
"                                                          2.a+S.t.F 6                                                           ",
"                                                          4 v b+{ a.e.                                                          ",
"                                                          ].J m W { k.                                                          ",
"                                                          ' _ T h A.|.                                                          ",
"                                                              b 6 |.                                                            ",
"                                                                                                                                "};
