/* XPM */
static char * glacius_icn_xpm[] = {
"64 64 218 2",
"  	c #000000",
". 	c #010000",
"+ 	c #020000",
"@ 	c #030000",
"# 	c #040000",
"$ 	c #010101",
"% 	c #050000",
"& 	c #060000",
"* 	c #070000",
"= 	c #080000",
"- 	c #020202",
"; 	c #090000",
"> 	c #0A0000",
", 	c #0B0000",
"' 	c #050202",
") 	c #0C0000",
"! 	c #0D0000",
"~ 	c #030303",
"{ 	c #0E0000",
"] 	c #080202",
"^ 	c #0F0000",
"/ 	c #100000",
"( 	c #110000",
"_ 	c #040404",
": 	c #120000",
"< 	c #0F0101",
"[ 	c #0C0202",
"} 	c #130000",
"| 	c #140000",
"1 	c #110101",
"2 	c #150000",
"3 	c #150001",
"4 	c #160000",
"5 	c #050505",
"6 	c #170000",
"7 	c #180000",
"8 	c #190000",
"9 	c #050606",
"0 	c #1A0000",
"a 	c #060606",
"b 	c #1C0000",
"c 	c #1C0001",
"d 	c #1D0000",
"e 	c #1D0001",
"f 	c #1A0101",
"g 	c #1E0000",
"h 	c #1F0000",
"i 	c #1F0001",
"j 	c #120404",
"k 	c #200000",
"l 	c #210000",
"m 	c #220000",
"n 	c #220001",
"o 	c #1F0101",
"p 	c #230000",
"q 	c #230001",
"r 	c #240000",
"s 	c #240001",
"t 	c #1A0303",
"u 	c #170404",
"v 	c #250000",
"w 	c #250001",
"x 	c #260000",
"y 	c #260001",
"z 	c #270000",
"A 	c #270001",
"B 	c #280001",
"C 	c #250101",
"D 	c #290001",
"E 	c #2A0001",
"F 	c #270101",
"G 	c #2B0001",
"H 	c #2C0001",
"I 	c #2D0001",
"J 	c #2E0001",
"K 	c #2B0102",
"L 	c #2F0001",
"M 	c #300001",
"N 	c #2D0101",
"O 	c #310001",
"P 	c #2E0101",
"Q 	c #320001",
"R 	c #330001",
"S 	c #2D0202",
"T 	c #340001",
"U 	c #310101",
"V 	c #350001",
"W 	c #320102",
"X 	c #360001",
"Y 	c #370001",
"Z 	c #310203",
"` 	c #380001",
" .	c #350101",
"..	c #390001",
"+.	c #360101",
"@.	c #360102",
"#.	c #3A0001",
"$.	c #3B0001",
"%.	c #3C0001",
"&.	c #3D0001",
"*.	c #3A0101",
"=.	c #370202",
"-.	c #3E0001",
";.	c #3E0002",
">.	c #3B0102",
",.	c #3F0001",
"'.	c #3C0102",
").	c #400001",
"!.	c #410001",
"~.	c #410002",
"{.	c #2D0607",
"].	c #420001",
"^.	c #420002",
"/.	c #3F0102",
"(.	c #430001",
"_.	c #430002",
":.	c #400102",
"<.	c #440001",
"[.	c #410102",
"}.	c #450001",
"|.	c #450002",
"1.	c #3B0304",
"2.	c #460001",
"3.	c #460002",
"4.	c #400203",
"5.	c #470001",
"6.	c #470002",
"7.	c #410203",
"8.	c #480002",
"9.	c #490002",
"0.	c #4A0002",
"a.	c #4B0002",
"b.	c #480103",
"c.	c #4C0002",
"d.	c #4D0002",
"e.	c #4A0102",
"f.	c #4E0002",
"g.	c #4F0002",
"h.	c #4C0103",
"i.	c #500002",
"j.	c #4D0103",
"k.	c #430405",
"l.	c #510002",
"m.	c #4E0102",
"n.	c #4B0204",
"o.	c #520002",
"p.	c #4C0204",
"q.	c #530002",
"r.	c #540002",
"s.	c #4A0304",
"t.	c #540003",
"u.	c #510103",
"v.	c #550002",
"w.	c #520102",
"x.	c #550003",
"y.	c #520103",
"z.	c #560002",
"A.	c #530103",
"B.	c #570002",
"C.	c #570003",
"D.	c #580002",
"E.	c #580003",
"F.	c #550103",
"G.	c #590002",
"H.	c #590003",
"I.	c #4F0305",
"J.	c #560103",
"K.	c #5A0002",
"L.	c #5A0003",
"M.	c #5B0002",
"N.	c #5B0003",
"O.	c #510305",
"P.	c #580103",
"Q.	c #5C0003",
"R.	c #5D0003",
"S.	c #530305",
"T.	c #5A0103",
"U.	c #5E0003",
"V.	c #5B0103",
"W.	c #580204",
"X.	c #5F0003",
"Y.	c #5C0103",
"Z.	c #600002",
"`.	c #600003",
" +	c #610003",
".+	c #5E0103",
"++	c #620003",
"@+	c #5F0103",
"#+	c #630003",
"$+	c #600103",
"%+	c #640003",
"&+	c #610104",
"*+	c #5E0204",
"=+	c #650003",
"-+	c #620103",
";+	c #660003",
">+	c #630104",
",+	c #670003",
"'+	c #640104",
")+	c #680003",
"!+	c #680004",
"~+	c #690003",
"{+	c #690004",
"]+	c #660105",
"^+	c #670104",
"/+	c #680104",
"(+	c #680105",
"_+	c #650205",
":+	c #6E0003",
"<+	c #6E0004",
"[+	c #8E0306",
"}+	c #8E0307",
"|+	c #8E0407",
"1+	c #8E0408",
"2+	c #8E0508",
"3+	c #A60609",
"4+	c #A6060A",
"5+	c #B3070B",
"5+5+5+5+5+5+5+5+5+5+5+5+5+5+5+5+5+5+5+5+5+5+5+5+5+5+5+5+5+5+5+5+5+5+5+5+5+5+5+5+5+5+5+5+5+5+5+5+5+5+5+5+5+5+5+5+5+5+5+5+5+5+5+5+",
"5+5+5+5+5+5+5+5+5+5+5+5+5+5+5+5+5+5+5+5+5+5+5+5+5+5+5+5+5+5+5+<+~+5+5+5+5+5+5+5+5+5+5+5+5+5+5+5+5+5+5+5+5+5+5+5+5+5+5+5+5+5+5+5+",
"5+5+5+5+5+5+5+5+5+5+5+5+5+5+5+5+5+5+5+5+5+5+5+5+5+5+5+5+5+5+5+D.z.5+5+5+5+5+5+5+5+5+5+5+5+5+5+5+5+5+5+5+5+5+5+5+5+5+5+5+5+5+5+5+",
"5+5+5+5+5+5+5+5+5+5+5+5+5+5+5+5+5+5+5+5+5+5+5+5+5+5+5+5+5+5+5+;.%.5+5+5+5+5+5+5+5+5+5+5+5+5+5+5+5+5+5+5+5+5+5+5+5+5+5+5+5+5+5+5+",
"5+5+5+5+5+5+5+5+5+5+5+5+5+5+5+5+5+5+5+5+5+5+5+5+5+5+5+5+}+5+5+! % 5+5+5+5+5+5+5+5+5+5+5+5+5+5+5+5+5+5+5+5+5+5+5+5+5+5+5+5+5+5+5+",
"5+5+5+5+5+5+5+5+5+5+5+5+5+5+5+5+5+5+5+5+5+5+5+5+5+5+5+5+9.J 5.    ,.&.9.5+5+5+5+5+5+5+5+5+5+5+5+5+5+5+5+5+5+5+5+5+5+5+5+5+5+5+5+",
"5+5+5+5+5+5+5+5+5+5+5+5+5+5+5+5+5+5+5+5+5+5+5+5+5+5+5+5+5+].        !.5+5+5+5+5+5+5+5+5+5+5+5+5+5+5+5+5+5+5+5+5+5+5+5+5+5+5+5+5+",
"5+5+5+5+5+5+5+5+5+5+5+5+5+5+5+5+5+5+5+5+5+5+5+5+5+5+5+5+5+5+(.    &.5+5+5+5+5+5+5+5+5+5+5+5+5+5+5+5+5+5+5+5+5+5+5+5+5+5+5+5+5+5+",
"5+5+5+5+5+5+5+5+5+5+5+5+5+5+5+5+5+5+5+5+5+5+5+5+5+5+5+z.(.5+5+m $ 5+5+f.r.5+5+5+5+5+5+5+5+5+5+5+5+5+5+5+5+5+5+5+5+5+5+5+5+5+5+5+",
"5+5+5+5+5+5+5+5+5+5+5+5+5+5+5+5+5+5+5+5+r.5+5+5+5+5+5+=+  x U.:   `.D    +5+5+5+5+5+5+q.5+5+5+5+5+5+5+5+5+5+5+5+5+5+5+5+5+5+5+5+",
"5+5+5+5+5+5+5+5+5+5+5+5+5+5+5+{+5+5+5+5+k 3+5+J.,+5+5+5+M             x 5+5+5+~+v.5+5+6 5+5+5+5+|+5+5+5+5+5+5+5+5+5+5+5+5+5+5+5+",
"5+5+5+5+5+5+5+5+5+5+5+5+5+5+5+5+J J 8.v.  l.5+z.2  +5+5+5+9.        <.5+5+5+'+8 c.5+C.  r.8.H x 5+5+5+5+5+5+5+5+5+5+5+5+5+5+5+5+",
"5+5+5+5+5+5+5+5+5+5+5+5+5+5+5+5+3+w       H 5+K.  0.5+l.:+5+X., ! D.5+:+d.5+f.  z.5+..      h 3+5+5+5+5+5+5+5+5+5+5+5+5+5+5+5+5+",
"5+5+5+5+5+5+5+5+5+5+5+5+5+5+5+5+5+}+n       T.X.  &.5+3.K v.5+8 ) 5+i.G &.5+<.  L.U.      0 :+5+5+5+5+5+5+5+5+5+5+5+5+5+5+5+5+5+",
"5+5+5+5+5+5+5+5+5+5+5+5+5+5+5+5+5+5+V         >   L 5+0.8.0 A     v | f.<.5+Q   3         B 5+5+5+5+5+5+5+5+5+5+5+5+5+5+5+5+5+5+",
"5+5+5+5+5+5+5+5+5+5+5+5+5+5+5+5+<+` ,.r.%+#+r     6 }+c.x  +      @ X.J 8.}+e     l R.=+x.~.Y :+5+5+5+5+5+5+5+5+5+5+5+5+5+5+5+5+",
"5+5+5+5+5+5+5+5+5+5+5+5+5+5+5+5+5+5+5+5+5+x.}       % l   &+L.    x.%+  l %       / l.5+5+5+5+5+5+5+5+5+5+5+5+5+5+5+5+5+5+5+5+5+",
"5+5+5+5+5+5+5+5+5+5+5+5+5+5+5+5+5+5+5+z.b     v o.8.      ,.5+&.W 5+<.      (.v.x     7 r.5+5+5+5+5+5+5+5+5+5+5+5+5+5+5+5+5+5+5+",
"5+5+5+5+5+5+5+5+5+5+5+5+5+5+5+5+5+5+5+)+i.&.U.5+5+B.)     * R.M.r.X./     } r.5+5+X.,.m.~+5+5+5+5+5+5+5+5+5+5+5+5+5+5+5+5+5+5+5+",
"5+5+5+5+5+5+5+5+5+5+5+5+5+5+5+5+5+5+5+5+5+5+5+K.D o #.9.B.i.|.~+4+<.u.D.a.#.g m E.5+5+5+5+5+5+5+5+5+5+5+5+5+5+5+5+5+5+5+5+5+5+5+",
"5+5+5+5+5+5+5+5+5+5+5+5+5+5+5+5+5+5+5+5+5+5+5+!.c _.o..+~+=+K.3+5+P.'+{+X.r.|.b ].}+5+5+5+5+5+5+5+5+5+5+5+5+5+5+5+5+5+5+5+5+5+5+",
"5+5+5+5+5+5+5+5+5+5+5+5+5+5+5+5+5+5+5+5+`.l.5+5+/+!.        c.@+X.f.        /.;+5+5+z. +5+5+5+5+5+5+5+5+5+5+5+5+5+5+5+5+5+5+5+5+",
"5+5+5+5+5+5+5+5+5+5+5+5+5+5+5+5+5+5+5+|.    ( 2.=+R.,     X 5+].#.5+&.      H.;+2.!     _.5+5+5+5+5+5+5+5+5+5+5+5+5+5+5+5+5+5+5+",
"5+5+5+5+5+5+5+5+5+5+5+5+5+5+5+5+5+5+5+5+=+-.              D.%+) .  +R.              *.#+5+5+5+5+5+5+5+5+5+5+5+5+5+5+5+5+5+5+5+5+",
"5+5+5+5+5+5+5+5+5+5+5+5+5+5+5+5+~+a.D.)+5+5+G     , N.0.m ,+d     2 /+w 3.M.2     G 5+5+;+z.e.,+5+5+5+5+5+5+5+5+5+5+5+5+5+5+5+5+",
"5+5+5+5+5+5+5+5+5+5+5+5+5+5+5+5+5+#+0   ( 4       M 5+0.h.M       @ E f.2.5+R       , 8   0 ++5+5+5+5+5+5+5+5+5+5+5+5+5+5+5+5+5+",
"5+5+5+5+5+5+5+5+5+5+5+5+5+5+5+5+5+5+T       6.D.  '.5+6.N %./+f   ~+#.D &.5+<.  l.6.      L 3+5+5+5+5+5+5+5+5+5+5+5+5+5+5+5+5+5+",
"5+5+5+5+5+5+5+5+5+5+5+5+5+5+5+5+5+$.      0 5+K.  9.5+!.R.5+:+! ! ,+5+X.#.5+0.  B.5+B       Y 5+5+5+5+5+5+5+5+5+5+5+5+5+5+5+5+5+",
"5+5+5+5+5+5+5+5+5+5+5+5+5+5+5+5+).  q #.  a.5+v.  J.5+5+5+D.}     & z.5+5+5+R.  w.5+o.  $.s   ).5+5+5+5+5+5+5+5+5+5+5+5+5+5+5+5+",
"5+5+5+5+5+5+5+5+5+5+5+5+5+5+5+,+R.3+5+5+^ =+5+d.K.5+5+5+_.            ).5+5+5+H.a.5+3+  5+5+}+U.=+5+5+5+5+5+5+5+5+5+5+5+5+5+5+5+",
"5+5+5+5+5+5+5+5+5+5+5+5+5+5+5+5+5+5+5+5+6.5+5+5+5+5+5+)+  ^ g.2   d.,   #+5+5+5+5+5+5+|.5+5+5+5+5+5+5+5+5+5+5+5+5+5+5+5+5+5+5+5+",
"5+5+5+5+5+5+5+5+5+5+5+5+5+5+5+5+5+5+5+5+5+5+5+5+5+5+5+M.O ,+5+z % 5+~+L B.5+5+5+5+5+5+5+5+5+5+_+~+5+5+5+5+5+5+5+5+5+5+5+5+5+5+5+",
"5+5+5+5+5+5+5+5+5+5+5+5+5+5+5+5+5+3+5+5+5+5+5+5+5+5+5+=+5+5+B.    i.5+5+=+5+5+5+5+5+5+5+5+5+U.C.5+5+5+5+5+5+5+5+5+5+5+5+5+5+5+5+",
"5+5+5+5+5+5+5+5+5+5+5+5+5+5+5+5+5+^+m.R.5+5+5+5+5+5+5+5+5+B.        l.5+5+5+5+5+5+5+5+)+z.a.i.;+5+5+5+5+5+5+5+5+5+5+5+5+5+5+5+5+",
"5+5+5+5+5+5+5+5+5+5+5+5+5+5+5+5+5+F.D.^.p U.5+5+5+5+5+5+Q.+ G     L 0 D.5+5+5+5+X.<.g   $ j ` i.5+5+5+5+5+5+5+5+5+5+5+5+5+5+5+5+",
"5+5+5+5+5+5+5+5+5+5+5+5+5+5+5+5+5+5+)+X ; . g.i.5+5+5+5+R.5+:+    (+=+%.z.0.V @       5 {.%+5+5+5+5+5+5+5+5+5+5+5+5+5+5+5+5+5+5+",
"5+5+5+5+5+5+5+5+5+5+5+5+5+5+5+5+5+5+5+5+Q.q.>.R (.}+-.K.5+5+5+Y R 5+}+d.F I >.E %   a S [+ +5+5+5+5+5+5+5+5+5+5+5+5+5+5+5+5+5+5+",
"5+5+5+5+5+5+5+5+5+5+5+5+5+5+5+5+5+5+5+}+5+5+}     y D.J 3.5+5+z.q.5+#+5+5+5+`.Q.A.H.++3+V.`.5+5+5+5+5+5+5+5+5+5+5+5+5+5+5+5+5+5+",
"5+5+5+5+5+5+5+5+5+5+5+5+5+5+5+5+5+5+5+;+q.~+D.*     r |+*+G.5+}+{+5+%+G T 8.f.>     :+p.L.5+5+5+5+5+5+5+5+5+5+5+5+5+5+5+5+5+5+5+",
"5+5+5+5+5+5+5+5+5+5+5+5+5+5+5+5+5+5+5+5+B.L N.U.^   ~ O.++5+5+5+5+[+)+6.v.b       { 1+5+5+5+5+5+5+5+5+5+5+5+5+5+5+5+5+5+5+5+5+5+",
"5+5+5+5+5+5+5+5+5+5+5+5+5+5+5+5+5+5+5+5+5+++)+5+X.@.2 L R 4.5+5+5+0.)+i ` R.o.9.c.,+5+L.5+5+5+5+5+5+5+5+5+5+5+5+5+5+5+5+5+5+5+5+",
"5+5+5+5+5+5+5+5+5+5+5+5+5+5+5+5+5+5+5+5+5+5+:+%+H D.v.5.2    .>+)+Y     - 6.-+3.0.#+5+5+5+5+5+5+5+5+5+5+5+5+5+5+5+5+5+5+5+5+5+5+",
"5+5+5+5+5+5+5+5+5+5+5+5+5+5+5+5+5+5+5+5+5+%+5+5+X   &.U G.i.k 0.}+Q.u     O }.=.h 5+5+5+5+5+5+5+5+5+5+5+5+5+5+5+5+5+5+5+5+5+5+5+",
"5+5+5+5+5+5+5+5+5+5+5+5+5+5+5+5+5+5+5+5+5+~+N.5+`.f.* z   V M.l.:.v.[.+.Y =     :.5+5+o.5+5+5+5+5+5+5+5+5+5+5+5+5+5+5+5+5+5+5+5+",
"5+5+5+5+5+5+5+5+5+5+5+5+5+5+5+5+5+5+5+5+5+5+5+5+5+:+..      H 2.,+]+$+x m v.V A L.5+s.Z.5+5+5+5+5+5+5+5+5+5+5+5+5+5+5+5+5+5+5+5+",
"5+5+5+5+5+5+5+5+5+5+5+5+5+5+5+5+5+5+5+5+5+5+5+5+1.q.X     v V.5+t.8.S.R.B.(.<+3+5+5+<+5+5+5+5+5+5+5+5+5+5+5+5+5+5+5+5+5+5+5+5+5+",
"5+5+5+5+5+5+5+5+5+5+5+5+5+5+5+5+5+5+5+5+5+5+5+5+c [ l.&.  [.P `.!+b.&.I.- - Q.5+5+3+5+5+5+5+5+5+5+5+5+5+5+5+5+5+5+5+5+5+5+5+5+5+",
"5+5+5+5+5+5+5+5+5+5+5+5+5+5+5+5+5+5+5+5+5+5+5+5+K.$   k.q.-.  C 7.H.#.< ~   R.++5+5+5+5+5+5+5+5+5+5+5+5+5+5+5+5+5+5+5+5+5+5+5+5+",
"5+5+5+5+5+5+5+5+5+5+5+5+5+5+5+5+5+5+5+5+5+5+~+=+5+-.] Z d.;+j.3.I   } k   b 5+5+5+5+5+5+5+5+5+5+5+5+5+5+5+5+5+5+5+5+5+5+5+5+5+5+",
"5+5+5+5+5+5+5+5+5+5+5+5+5+5+5+5+5+5+5+5+5+5+5+K.g.5+n.$   2.Q.2+|+z.$.0.A 8.5+5+5+5+5+5+5+5+5+5+5+5+5+5+5+5+5+5+5+5+5+5+5+5+5+5+",
"5+5+5+5+5+5+5+5+5+5+5+5+5+5+5+5+5+5+5+5+5+5+5+5+5+5+5+Y.X % :...q.W.o.L.++++X.5+5+5+5+5+5+5+5+5+5+5+5+5+5+5+5+5+5+5+5+5+5+5+5+5+",
"5+5+5+5+5+5+5+5+5+5+5+5+5+5+5+5+5+5+5+5+5+5+5+5+5+5+5+#+} 2.-.G.o.1 I       (.5+5+5+5+5+5+5+5+5+5+5+5+5+5+5+5+5+5+5+5+5+5+5+5+5+",
"5+5+5+5+5+5+5+5+5+5+5+5+5+5+5+5+5+5+5+5+5+5+5+5+5+5+5+5+g.= l 9.X.;+i.M # Q.5+5+5+5+5+5+5+5+5+5+5+5+5+5+5+5+5+5+5+5+5+5+5+5+5+5+",
"5+5+5+5+5+5+5+5+5+5+5+5+5+5+5+5+5+5+5+5+5+5+5+5+5+5+5+5+l.` - ' - + Q 6.#+5+5+5+5+5+5+5+5+5+5+5+5+5+5+5+5+5+5+5+5+5+5+5+5+5+5+5+",
"5+5+5+5+5+5+5+5+5+5+5+5+5+5+5+5+5+5+5+5+5+5+5+5+5+5+5+5+,+(   | t   ~ 5 }.5+5+5+5+5+5+5+5+5+5+5+5+5+5+5+5+5+5+5+5+5+5+5+5+5+5+5+",
"5+5+5+5+5+5+5+5+5+5+5+5+5+5+5+5+5+5+5+5+5+5+5+5+5+5+5+5+5+b.A ~ a 5     0.5+5+5+5+5+5+5+5+5+5+5+5+5+5+5+5+5+5+5+5+5+5+5+5+5+5+5+",
"5+5+5+5+5+5+5+5+5+5+5+5+5+5+5+5+5+5+5+5+5+5+5+5+5+5+5+5+5+T y.B.O E +.X.5+5+5+5+5+5+5+5+5+5+5+5+5+5+5+5+5+5+5+5+5+5+5+5+5+5+5+5+",
"5+5+5+5+5+5+5+5+5+5+5+5+5+5+5+5+5+5+5+5+5+5+5+5+5+5+5+5+~+m   3.U.8 q 5+5+5+5+5+5+5+5+5+5+5+5+5+5+5+5+5+5+5+5+5+5+5+5+5+5+5+5+5+",
"5+5+5+5+5+5+5+5+5+5+5+5+5+5+5+5+5+5+5+5+5+5+5+5+5+5+5+5+5+2._ ~ z L. +5+5+5+5+5+5+5+5+5+5+5+5+5+5+5+5+5+5+5+5+5+5+5+5+5+5+5+5+5+",
"5+5+5+5+5+5+5+5+5+5+5+5+5+5+5+5+5+5+5+5+5+5+5+5+5+5+5+5+5+`.d.9   4 ++5+5+5+5+5+5+5+5+5+5+5+5+5+5+5+5+5+5+5+5+5+5+5+5+5+5+5+5+5+",
"5+5+5+5+5+5+5+5+5+5+5+5+5+5+5+5+5+5+5+5+5+5+5+5+5+5+5+5+5+E.L c.l   $.5+5+5+5+5+5+5+5+5+5+5+5+5+5+5+5+5+5+5+5+5+5+5+5+5+5+5+5+5+",
"5+5+5+5+5+5+5+5+5+5+5+5+5+5+5+5+5+5+5+5+5+5+5+5+5+5+5+5+5+5+(.r l.+ ;+5+5+5+5+5+5+5+5+5+5+5+5+5+5+5+5+5+5+5+5+5+5+5+5+5+5+5+5+5+",
"5+5+5+5+5+5+5+5+5+5+5+5+5+5+5+5+5+5+5+5+5+5+5+5+5+5+5+5+5+5+5+,+ +;+5+5+5+5+5+5+5+5+5+5+5+5+5+5+5+5+5+5+5+5+5+5+5+5+5+5+5+5+5+5+",
"5+5+5+5+5+5+5+5+5+5+5+5+5+5+5+5+5+5+5+5+5+5+5+5+5+5+5+5+5+5+5+5+5+5+5+5+5+5+5+5+5+5+5+5+5+5+5+5+5+5+5+5+5+5+5+5+5+5+5+5+5+5+5+5+"};
