/* XPM */
static char * incendio_icn_xpm[] = {
"64 64 120 2",
"  	c #720004",
". 	c #700004",
"+ 	c #530002",
"@ 	c #460001",
"# 	c #630003",
"$ 	c #580002",
"% 	c #420001",
"& 	c #570002",
"* 	c #1D0000",
"= 	c #640003",
"- 	c #6B0004",
"; 	c #450001",
"> 	c #0B0000",
", 	c #590002",
"' 	c #510002",
") 	c #650003",
"! 	c #6F0004",
"~ 	c #1A0000",
"{ 	c #2C0001",
"] 	c #4F0002",
"^ 	c #6C0004",
"/ 	c #120000",
"( 	c #480002",
"_ 	c #000000",
": 	c #4D0002",
"< 	c #620003",
"[ 	c #2A0001",
"} 	c #520002",
"| 	c #440001",
"1 	c #5C0003",
"2 	c #6A0003",
"3 	c #660003",
"4 	c #330001",
"5 	c #5D0003",
"6 	c #6E0004",
"7 	c #550002",
"8 	c #5F0003",
"9 	c #6D0004",
"0 	c #160000",
"a 	c #3B0001",
"b 	c #360001",
"c 	c #5B0002",
"d 	c #670003",
"e 	c #5E0003",
"f 	c #4A0002",
"g 	c #540002",
"h 	c #0F0000",
"i 	c #2F0001",
"j 	c #710004",
"k 	c #2E0001",
"l 	c #300001",
"m 	c #340001",
"n 	c #100000",
"o 	c #030000",
"p 	c #180000",
"q 	c #040000",
"r 	c #080000",
"s 	c #490002",
"t 	c #3E0001",
"u 	c #680003",
"v 	c #0D0000",
"w 	c #250000",
"x 	c #270001",
"y 	c #190000",
"z 	c #5A0002",
"A 	c #610003",
"B 	c #4B0002",
"C 	c #400001",
"D 	c #350001",
"E 	c #560002",
"F 	c #310001",
"G 	c #260000",
"H 	c #270000",
"I 	c #430001",
"J 	c #090000",
"K 	c #410001",
"L 	c #170000",
"M 	c #140000",
"N 	c #240000",
"O 	c #470002",
"P 	c #220000",
"Q 	c #020000",
"R 	c #600003",
"S 	c #4E0002",
"T 	c #200000",
"U 	c #3F0001",
"V 	c #1F0000",
"W 	c #370001",
"X 	c #2D0001",
"Y 	c #0C0000",
"Z 	c #4C0002",
"` 	c #690003",
" .	c #390001",
"..	c #150000",
"+.	c #470001",
"@.	c #500002",
"#.	c #6B0003",
"$.	c #2B0001",
"%.	c #3A0001",
"&.	c #0A0000",
"*.	c #010000",
"=.	c #280001",
"-.	c #210000",
";.	c #3C0001",
">.	c #3D0001",
",.	c #1C0000",
"'.	c #290001",
").	c #380001",
"!.	c #060000",
"~.	c #1B0000",
"{.	c #050000",
"].	c #1E0000",
"^.	c #320001",
"/.	c #110000",
"(.	c #130000",
"_.	c #0E0000",
":.	c #070000",
"<.	c #230000",
"[.	c #5B0003",
"}.	c #460002",
"                                                                                                                                ",
"                                                          .                                                                     ",
"                                                          . +                                                                   ",
"                                                            @ #                                                                 ",
"                                                            $ %                                                                 ",
"                                                            & *     .                                                           ",
"                                                    = -     ; >     ,                                                           ",
"                                                    ' )   ! ~ {     ] #                                                         ",
"                                                  ^ / ^   ( _ :   = < [ .                                                       ",
"                                                  } |   1 _ _ 2 3 &   4 5 6                                                     ",
"                                              6 . 7 8 9 0 _ a   = b   c c d e                                                   ",
"                                                f ^ 2 ' _ _ g 2 ! h g - 6   i j                                                 ",
"                                                k !   l m n c ' 6 f o #     p d 9                                               ",
"                                        .     6 q d   r s _ } 8 e 3 _ t   u _ 5 e ^                                             ",
"                                        1     f v .   w ( { x !   3 _ y   z _ 5 A B                                             ",
"                                      j C   , _ | d   m D ] _ D E F _ G j + _ z . H 1                                           ",
"                                      } I ! p J ^ K   F _ ) / L L _ _ a 8 g _ K   < M 9                                         ",
"                                    3 J 3 < _ b   = 9 o _ + f M ] N _ O ) P _ Q e 9 _ , . R                                     ",
"                                    S b   8 _ T 9 . U _ V W ) _ X s _ l   4 _ _ _ Y _ Z ` '                                     ",
"                                6    .s   = _ _ / .._ +.{ G 6 _ _ < q _ 7 I _ _ ; Y _ @.! * #.                                  ",
"                              z R   ( $.! B * 4 _ _ 0 e _ b 9 _ _ 8 t _ _ h p _ $.8 v +   K %.. e                               ",
"                            , / j 3 , _ o _ C ; _ _ a ` L 1 R _ _ ; 2 &._ % V _ _ g s %   u *.e s ,                             ",
"                          5 _ ' # , ) _ _ M u =.P _ t     j b -.b J - @ _ ( ;._ _ >.e n -   V f 8 _ 1                           ",
"                        3 / B   i ^ 5 _ _ $ c _ @ ..* 9 & b _ , > _ $ } _ l A _ _ ,.= _ '.| _ %   Z / 3                         ",
"                      . [ ).  2 !.3 D _ _ u M _ $ y _ < .._ ,.3 _ _ $ a _ _ A f _ _ : X _ _ _ Z   6  .[ !                       ",
"                      : ~.^ ` u _ _ M _ _ B _ N d _ _ E Y _ m 2 _ *.& _ l {.4 . T _ _ ].{._ _ &   , ^ ~.Z                       ",
"                    u *., . ] ! _ _ B _ _ M J ) s _ _ ;._ _ ^.  =.y /._ c _ _ ^ s _ 0 _ ; _ _ z   b . z *.d                     ",
"                    % ^.j Z , ! _ ' I _ { _ } #.q H ,._ _ (.n . z _ _ _ 3 H /.! : n I _ 8 p _ $   ; +.  D ;.                    ",
"                  d _ A A H . R P R _ Y s _.! $ _ 4 Z _ _ s _ c   )._ _ , ^ `   C ~.g _ Z e _ @   9 h = A _ d                   ",
"                  ( $.  K %.! F a ] _ I ; l 9 8 _ : E _ _.5 _ ).  3 *._ -.R ! u Q _ = T !.) H > `   k Z   F (                   ",
"                . L 7   4 _ :._ >.% y ` ,.=.} j ` j +._ } B _ >     F _ _ _.. a _ _ ( 8 _ % F _ T I _ B   E L .                 ",
"                R _ ^   W n m _ % n 1 ' _ _ W %.} 2 / _ 6 [ _ n     B _ ~ '.` _ ^.[ r ^ %.p *._ _ _ _ $ . 9 o R                 ",
"                Z F   ` } ^.s _ _ i ! (.m o _ _ U % _ X   U _ @ .   B <. ._.8 _ 7 N _ = z _ _ b _._ _ - 1   ^.B                 ",
"                m Z   ] 2 q R _ _ f d _ ( %./.'.a v *.y j . ) . 1   F 4 ( _ @ _ z : p ^ R _ ~.~ @._ b   C   Z 4                 ",
"              j {.1 9 ;.  ^.Z _ _ B ! ).8 C _ ' _ _ s _ =     ^ O 3 *.* < _ _._ Z . j   [._ B _ = *.@.  b u 5 {.j               ",
"              ` _ ) g '   I > K _ U 2   9 ~._ < _ p $ _ , 5 : N [.)._ _ e C _ _ 0 + t u K _ 5 _ ` $.7   ' Z ) _ `               ",
"              ) _ 9 %.&   a _ 7 _ h R ).V _ X d _ r #.@ 2 R _ _ E _ L Q k 2 &._ _ =.{ ` {._ d < j _.t   ] | 9 _ )               ",
"              ) _ 6 m X ] *.*.R _ _ $ _ _ _ $ e _ _ g     7 _ _ D _ } _ _ 2 % _ y V ).' _ _ 4 . 1 _ _ m n s 6 _ <               ",
"              ) _ . B _ _ (.Q 3 _ _ % _ _ ].. | _ l &.= ) ~ _ _ r _ ` J _ 2 } _ I P X ( _ ; _ 5 F N ~ _ _ # ! _ 1               ",
"              ) _ 6 u o _ | _ R 4 _ Q _ _ B   y _ $ v { e _ _ f ~ _ 6 , 7   ] _ ( % _ k _ c _ ' _ W  ._ C   6 _ )               ",
"              3 _ 2 9 @._ g / T S _ ( _ _ E   _ _ + I _ E _ %., _ _ 1     j X _ ^.3 _ _ N = _ <._ & X ].6 ` ^ _ 3               ",
"              - _ = , 6 '.| } _ /.* & _ _ '   %._ , E _ )._ d >._ _ k     , _ J _ #.a _ z O _ P _ e _ + ` = ) _ -               ",
"                &.z & 3 S q u U _ t ' !.F ^.  6 8   f _ _ F   '._ _ _ 3   P %.m _ e c ,.+ _ _ b m } _ = 1 [.[.:.                ",
"                m B , @.B _ W ! ~ % R _ , _ ,     ! * m _ U   m _ _ _ A d _ ) _ _ A = y r b i m @.w _ ; b A B m                 ",
"                : l ` _ _ ^._ - @ T . , ! _ > 3   1 T ] _ D   ] _ _ M 6 d l 6 /.w ! $ _ y 8 _ ( g ].U _ N . i S                 ",
"                A _ - U _ E %.6 s _ E   9 _ ~.K   ' ( f _ q ^ . Z ;.# j . K   ^ !   b _ +.8 (.u >.V * n ) - _ A                 ",
"                j ~.+ 9 -.s   ^ S _ =.  A _ l E j $ Z g _ _ '         ^ R u       & _ _ +   . = _ X _ &   + ~.j                 ",
"                  s N   8 ..2 ] # _ T   $ _ A (.= . : 9 * _ '   `     + 5       2 > _ _ E   . N N ( Y , j N Z                   ",
"                  u _ 1 2 0 [ m   < 3   , _ + | a   j   2 z . e =   u L ^       , _ _ _ d   u o 1 ^._ z 1 o `                   ",
"                    K $.. H _ _ =     . ` o _ _ _   I K #     O 8   i i i j   2 R _ _ s   7   - e _ { . $.I                     ",
"                    ` v + 8 _ k  .6 ` , ! ( _ _ ~.  f _ Q g   a ( R _ _ _ d 3 ,   A A   9 W   # 0 _ # g v 2                     ",
"                      ] n ` @ ' ;.3 a g 1 . '  .8   O & L *.d s z $ _ _ _ 2 ' %     - ^ & % 9 4 ; Z ` (.}                       ",
"                      j ^.l 6  .` 1 g ~ 4         ! ,.% b _ Z ] 1 = _ _ ;.  b _ C : m ! N 8 3 # U ! l ^.j                       ",
"                        2 * % 9 B   j  ._ , = , 1 4 _ _ _ _ +.}.%   A $ . 9 J h _ {.< t ;.= . B ! % y 2                         ",
"                          # n +.6 ` #.d f / A 7 0 _ '.Q _ _ % * _ ' 2 A 3 Z Q : n 7 )._ <.7 ` j +.r #                           ",
"                            5 :.; .   | 7 c r I e  .W 4 &.[ _ l i _ _ l $ Q B B P h i : D j . ; !.5                             ",
"                              # L W ^ . ;.].w _ Q O -.c q } ^.K U m :.a _ { & Q n _ m a 6 ^ )./.<                               ",
"                                ` { ~ e j 7 p _ ).'._ @ < # $ q q g &.K 0 _ _ k O /.+ j e * '.u                                 ",
"                                  . O *.a d 6 } N , s {.a , D _ $.] _ C _ /.@., @.9 d ;.*.+.!                                   ",
"                                      = D *.t A   ) 9 2 ] 4 _ _ L _ n %.E 6     A t *.D #                                       ",
"                                          A  ._ T s 8 9     j - d ^ j   9 8 f T _ W 8                                           ",
"                                              ` } 4 q _ ,.^.% I I I ^.,._ q 4 ' u                                               ",
"                                                    6 = , Z ( +.+.O B , < 6                                                     ",
"                                                                                                                                "};
