/* XPM */
static char * protego_icn_xpm[] = {
"64 64 256 2",
"  	c #0065C8",
". 	c #0964C1",
"+ 	c #0067C2",
"@ 	c #0068C3",
"# 	c #0D65C2",
"$ 	c #0069C5",
"% 	c #006AC6",
"& 	c #1166C3",
"* 	c #006BC7",
"= 	c #006BC8",
"- 	c #006CC9",
"; 	c #1467C5",
"> 	c #006DCA",
", 	c #006FC4",
"' 	c #026ECB",
") 	c #1768C6",
"! 	c #156AC1",
"~ 	c #0071C7",
"{ 	c #076FCC",
"] 	c #1C6DC4",
"^ 	c #0873C9",
"/ 	c #1E6EC6",
"( 	c #1172CF",
"_ 	c #206FC7",
": 	c #0F74CB",
"< 	c #2270C8",
"[ 	c #2471C9",
"} 	c #1476CC",
"| 	c #2772CB",
"1 	c #2374C5",
"2 	c #1977CE",
"3 	c #1579CA",
"4 	c #1B78CF",
"5 	c #2776C7",
"6 	c #197BCB",
"7 	c #2A77C9",
"8 	c #3574C7",
"9 	c #1F7AD1",
"0 	c #1B7CCC",
"a 	c #2B78CA",
"b 	c #1D7DCD",
"c 	c #2A7BC6",
"d 	c #207ECE",
"e 	c #2E7ACC",
"f 	c #2C7CC7",
"g 	c #227FD0",
"h 	c #387AC6",
"i 	c #2E7DC9",
"j 	c #317CCE",
"k 	c #2F7ECA",
"l 	c #317FCB",
"m 	c #357ED0",
"n 	c #2882D3",
"o 	c #3280CC",
"p 	c #3E7ECB",
"q 	c #3481CD",
"r 	c #3582CE",
"s 	c #2886D0",
"t 	c #3783CF",
"u 	c #3485CA",
"v 	c #3F82C9",
"w 	c #3884D0",
"x 	c #2C88D2",
"y 	c #4981C9",
"z 	c #3687CC",
"A 	c #4184CB",
"B 	c #3A86D2",
"C 	c #3788CD",
"D 	c #4385CC",
"E 	c #3989CE",
"F 	c #3E88D5",
"G 	c #3A8ACF",
"H 	c #4587CE",
"I 	c #3C8BD0",
"J 	c #418AD7",
"K 	c #4789D0",
"L 	c #3D8CD2",
"M 	c #4D88C9",
"N 	c #458BCB",
"O 	c #5786C9",
"P 	c #498AD1",
"Q 	c #5288D0",
"R 	c #478CCD",
"S 	c #408ED4",
"T 	c #4A8BD3",
"U 	c #488DCE",
"V 	c #498ECF",
"W 	c #4290D6",
"X 	c #528CCE",
"Y 	c #4A8FD0",
"Z 	c #4491D7",
"` 	c #4B90D1",
" .	c #558ED1",
"..	c #5090D8",
"+.	c #4D92D2",
"@.	c #5391CC",
"#.	c #4E93D3",
"$.	c #4F94D4",
"%.	c #5593CE",
"&.	c #5095D5",
"*.	c #5794D0",
"=.	c #5F92CF",
"-.	c #5196D7",
";.	c #5895D1",
">.	c #4F98D2",
",.	c #5397D8",
"'.	c #5996D2",
").	c #5A97D3",
"!.	c #519AD4",
"~.	c #5B98D4",
"{.	c #6396D3",
"].	c #6198CE",
"^.	c #6896CD",
"/.	c #539CD6",
"(.	c #599BCF",
"_.	c #5C9AD5",
":.	c #5D9BD6",
"<.	c #5B9DD2",
"[.	c #639BD1",
"}.	c #5F9CD7",
"|.	c #679AD8",
"1.	c #659CD3",
"2.	c #5E9FD4",
"3.	c #619EDA",
"4.	c #669DD4",
"5.	c #679ED5",
"6.	c #6F9CD4",
"7.	c #60A2D7",
"8.	c #68A0D6",
"9.	c #6AA1D7",
"0.	c #729FD7",
"a.	c #67A3D3",
"b.	c #63A4D9",
"c.	c #6FA1D2",
"d.	c #6BA2D8",
"e.	c #70A2D4",
"f.	c #6CA3D9",
"g.	c #6DA4DB",
"h.	c #72A4D5",
"i.	c #6EA5DC",
"j.	c #6BA7D7",
"k.	c #73A5D6",
"l.	c #70A7DE",
"m.	c #75A7D8",
"n.	c #6FAADA",
"o.	c #76A8D9",
"p.	c #77A9DA",
"q.	c #7CA9D5",
"r.	c #78AADB",
"s.	c #80A8DB",
"t.	c #84A8D6",
"u.	c #76ADD7",
"v.	c #7EABD7",
"w.	c #7AACDD",
"x.	c #78AED9",
"y.	c #7BADDF",
"z.	c #83ABDF",
"A.	c #80ADD9",
"B.	c #82AFDB",
"C.	c #8CADD5",
"D.	c #83B0DD",
"E.	c #8BAFDD",
"F.	c #89B2D9",
"G.	c #93AFDF",
"H.	c #86B3E0",
"I.	c #8DB2E0",
"J.	c #8BB4DB",
"K.	c #94B4DD",
"L.	c #8EB7DE",
"M.	c #91B6E4",
"N.	c #99B6D9",
"O.	c #96B7DF",
"P.	c #91BAE1",
"Q.	c #95BADC",
"R.	c #9BB9DC",
"S.	c #99BAE3",
"T.	c #97BDDE",
"U.	c #9EBBDF",
"V.	c #99BFE0",
"W.	c #A1BEE1",
"X.	c #9BC1E2",
"Y.	c #A3C0E3",
"Z.	c #9FC2DD",
"`.	c #A6C0DE",
" +	c #A4C1E5",
".+	c #A8C2DF",
"++	c #A2C4E0",
"@+	c #A9C3E1",
"#+	c #A7C4E8",
"$+	c #AAC4E2",
"%+	c #ACC6E4",
"&+	c #A7C9E5",
"*+	c #B0C7DF",
"=+	c #AEC8E6",
"-+	c #B6C8E8",
";+	c #B3CAE2",
">+	c #B1CBE9",
",+	c #B5CCE4",
"'+	c #B3CDEB",
")+	c #B6CDE5",
"!+	c #B7CEE6",
"~+	c #BECDE7",
"{+	c #B9D0E8",
"]+	c #BBD2EA",
"^+	c #C1D1EB",
"/+	c #BCD3EC",
"(+	c #BFD3E5",
"_+	c #BDD4ED",
":+	c #C0D4E7",
"<+	c #BED6EE",
"[+	c #C2D6E8",
"}+	c #C6D5EF",
"|+	c #C9D5EA",
"1+	c #C3D8EA",
"2+	c #C5DAEC",
"3+	c #CDD9ED",
"4+	c #C7DBEE",
"5+	c #C9DBE7",
"6+	c #CBDDEA",
"7+	c #D0DCF0",
"8+	c #D2DCEA",
"9+	c #CADEF1",
"0+	c #CDDFEB",
"a+	c #D4DDEC",
"b+	c #CFE0ED",
"c+	c #D5DFEE",
"d+	c #D1E3EF",
"e+	c #D8E1F0",
"f+	c #D2E4F0",
"g+	c #D9E3F2",
"h+	c #DBE5F3",
"i+	c #DDE5ED",
"j+	c #D8E7EE",
"k+	c #DFE6EF",
"l+	c #E1E8F1",
"m+	c #E3EAF3",
"n+	c #E5ECF4",
"o+	c #E6EDF6",
"p+	c #E7EEF7",
"q+	c #E9EEF1",
"r+	c #EBF0F3",
"s+	c #EDF2F4",
"t+	c #EFF3F6",
"u+	c #F0F5F7",
"v+	c #F1F6F8",
"w+	c #F2F7FA",
"x+	c #F3F8FB",
"y+	c #F5F8F4",
"z+	c #F4F9FC",
"A+	c #F6F9F6",
"B+	c #F8FAF7",
"C+	c #F6FBFE",
"D+	c #F9FBF8",
"E+	c #F8FCFF",
"F+	c #FAFCF9",
"G+	c #FEFBFF",
"                                                                                                                                ",
"                                                                                                                                ",
"                                                                                                                                ",
"                                                                                                                                ",
"                                                                                                                                ",
"                                                                                                                                ",
"                                                                                                                                ",
"                                                              # / /                                                             ",
"                                                        t ..S.-+^+~+S...{                                                       ",
"                                                    B 0.:+1+U.n.v.n.T.]+!+|.{                                                   ",
"                                                  L $+0+D.j.j.9.7.d.e.j.A.4+Y.B                                                 ",
"                                                J _+]+x.j.~.*.` U ` &.}.k.r.{+>+P                                               ",
"                                              F '+)+x.7.&.I s t t t t C *.5.o.;+#+F                                             ",
"                                            q E.[+x.~.V C E G L V E q | z V }.v.1+s.q                                           ",
"                                            #.b+n.9.L t z U }.7.m.9.I q / q L 9.D.0+W                                           ",
"                                            =+V.f.V q / q R 1.L.V.4.U q     q &.r.>+W.|                                         ",
"                                          P 5+r.4.L |   / U 0+E+E+s+K.t   / q &.r.D.a+H                                         ",
"                                        # K..+k.1.` E s C *.p+v+B+v+i+U C z L ).k.w.]+6.                                        ",
"                                        q >+r.5.}.;.` ` #.<.k+D+D+s+k+!.&.` ` ~.b.j.L.Y.t                                       ",
"                                        P {+b.~.~.~.>.>.*.a.s+D+D+v+(+2.!.!.&.&.}.}.r._+S                                       ",
"                        Q             # ,.1+5.&.).2.4.V Y e.i+D+D+u+Q.<.;.J.` U m.).k._+&.                                      ",
"                    6.U ~.X h         { s.)+1.9.R.<.` R U >.Z.r+s+]+e.;.).P.&.I f.5.r.1+1./                                     ",
"                  O *.g+%+).H p       H .+X.4.;.D./.k.@.).(.A.g+s+j+T.4.5.1.*.R L '.m.[+A.t                                     ",
"                    e.=+Y.O.).=.D X   &.0+q.~.].>.).a.o.D.i+i+s+v+l+r+q+,+a.4.I C U 9.%+U.G                                     ",
"                    X {.` ).N.E.L 9.` ).8+J.~.*.v.1.W.m+v+u+v+u+v+z+v+y+v+V./.*.G G f.H.]+V                                     ",
"                    p   M v X 6.W.q.t.F.k+(+,+)+(+q+v+v+v+y+v+s+D+v+y+v+v+[+k.V / C #.m.0+&.                                    ",
"                      8 h h y q R {+n+r+B+z+v+v+v+y+v+v+r+y+B+s+D+v+u+v+v+m+2.V H   V o.e+;.                                    ",
"                              ^.D  .*+e+s+z+B+v+n+8+.+F.V.v+v+v+D+B+v+q+B+v+D.1.v / G d.a+9.q                                   ",
"                                H X &.8+V.L.T.).u ` v.2.Q.v+D+y+D+B+s+5+o+v+)+R u / E 4./+L.q                                   ",
"                                  / 5.e+F.e.k.u / U e.<.A.v+B+q+v+d+q+s+v+v+|+~.u / q H..+.+D                                   ",
"                                    5.g+D.4.9.D   R '.'.A.v+y+p+E+l+v+y+v+u+O.#.L   s 4.J.[+K                                   ",
"                                  t K.[+D.D.R /   u ` *.F.B+v+v+u+k+n+q+(+o.;.G )./ s *.A.e+S                                   ",
"                                  H ,+Z.P.7.R / / z R U .+B+B+u+F+D+B+v+a.'.G I R E | '.r.e+#.                                  ",
"                                  S b+H.l.R q / t G R R .+v+B+v+D+B+v+v+e.@.z V #.E | V d.8+d.                                  ",
"                                  #.b+A.;.q | D V R C E =+B+B+v+E+D+B+B+F.` q Y D.Y / D 1.]+K./                                 ",
"                                  }.8+e.Y / | ` 9.Y C I |+B+D+v+D+E+v+v+Y.R | Y L.&.| t ~.W.$+t                                 ",
"                                q I.]+9.H   v *.D.Y v R b+y+B+t+F+D+B+z+%+I | Y r.;.q | &.D.[+K                                 ",
"                                F >+X.4.v   z k.7.V u R o+z+B+r+F+D+B+y+;+Y / R k.!.q   ` j.2+`                                 ",
"                                W a+v.~.q   G r.1.R q R r+z+B+p+D+E+y+u+*+U / L k.).t / S d.e+&.                                ",
"                                &.e+m.&./   R ~.~.G / Y t+y+B+n+D+E+z+y+,+Y / G ).~.C   ` f.9+f.                                ",
"                              / d.a+k.` /   U D.).z / *.v+D+D+m+D+D+B+B+(+` / z ~.a.G   |.f.!+U.q                               ",
"                              { O.!+f.&.    R (.*.q / 1.v+B+D+k+F+D+D+v+5+*.| t ~.n.L   C r.V.;+H                               ",
"                              B !+Q.5.5.    V ~.` | / e.v+z+v+b+F+D+z+v+e+'.| q ;.r.V   q &.w.a+S                               ",
"                              P a+r.}.~.    U k.` | u C.B+D+v+5+E+D+y+y+p+~.C | ` ~.V / | &.m.9+W                               ",
"                              ` 0+r.,.`   / ` o.#.E U .+z+B+v+5+G+y+y+u+v+o.` x f.~.` | q Z f.9+,.#                             ",
"                            # 3.4+w.9.E q S }.D.}.).}.)+D+D+v+2+F+B+v+v+B+X.9.'.D.9.;.G s &.o._+z.                              ",
"                            m O.)+w.f.&.&.}.q.V.P..+:+l+B+D+s+2+F+v+y+y+y+d+$+J.P.w.f.&.&.}.w.$+U.t                             ",
"                            t {+Y.H.D.H.]+2+0+e+)+`.Q.k+B+v+o+5+E+D+B+B+B+m+;+(+5+9+7+,+H.r.D.L./+L                             ",
"                            F 7+V.4+e+[+V.v.k.q.e.e.e.N.i+v+e+2+D+B+z+B+E+o+e.5.e.q.q.V.0+h+4+W.7+W                             ",
"                            Z m+h+&+Q.v.9.~.*.` Y ` R R `.f+(+;+l+a+5+[+k+$+U L R ` ).e.F.T.,+l+m+&.                            ",
"                            Y.g+++P.A.5.` D q / / | C.m+v+u+]+.+*+@.;+{+=.        / D Y 9.D.P.T.k+ +                            ",
"                            }+;+L.D.k.*.t           t.R.t.;.5..+.+$+v+i+/           / D ).m.H.P.=+4+#                           ",
"                            G.1+L.D.f.).L q / /         / R 1..+=+4+k+6.          / q V ~.k.F.V.1+%+                            ",
"                            m M.b+!+J.9.~.*.` ` #.U I z I *.9..+>+9.;.G t t C E L ` '.4.k.F.$+l+>+I                             ",
"                              F ~.#+2+2+.+o.v.a.9.5.].'.1.e.q.$+!+v.f.}.'.}.}.1.4.k.F.Z.1+l+[+k.S #                             ",
"                                / I #.4.Y.{+9+4+0+{+V.T.v.A.V.*+]+Q.J.J.Q..+{+:+0+0+e+!+D.;.S t                                 ",
"                                        t L ` &.}.E.U.%+,+[+2+8+8+3+:+,+%+U.E.5.;.&.S H q #                                     ",
"                                                # { q t H L #.&.&.` L D t t     #                                               ",
"                                                                                                                                ",
"                                                                                                                                ",
"                                                                                                                                ",
"                                                                                                                                ",
"                                                                                                                                ",
"                                                                                                                                "};
