/* XPM */
static char * repulso_icn_xpm[] = {
"64 64 248 2",
"  	c #460304",
". 	c #540703",
"+ 	c #630408",
"@ 	c #6C0207",
"# 	c #5D0704",
"$ 	c #760107",
"% 	c #670804",
"& 	c #590D0A",
"* 	c #7A0603",
"= 	c #79060A",
"- 	c #8C0308",
"; 	c #960107",
"> 	c #850804",
", 	c #A00006",
"' 	c #A0000E",
") 	c #85090C",
"! 	c #8F0803",
"~ 	c #AB000D",
"{ 	c #8F090B",
"] 	c #B40002",
"^ 	c #AD0206",
"/ 	c #A30508",
"( 	c #B5000B",
"_ 	c #9A090A",
": 	c #AD040F",
"< 	c #721615",
"[ 	c #541F1D",
"} 	c #611D1E",
"| 	c #821412",
"1 	c #AF0708",
"2 	c #5C2021",
"3 	c #A60C0A",
"4 	c #7E1A1B",
"5 	c #791E1F",
"6 	c #B20E12",
"7 	c #B20F0B",
"8 	c #762325",
"9 	c #B41213",
"0 	c #AB1515",
"a 	c #53302F",
"b 	c #AC1716",
"c 	c #B5141A",
"d 	c #802424",
"e 	c #533532",
"f 	c #7D2929",
"g 	c #3D3F3C",
"h 	c #B32121",
"i 	c #793436",
"j 	c #B62529",
"k 	c #B22A28",
"l 	c #8B363A",
"m 	c #6C4142",
"n 	c #4C4A4E",
"o 	c #B52D2A",
"p 	c #B42D2F",
"q 	c #823C3D",
"r 	c #7B413D",
"s 	c #B73031",
"t 	c #B03234",
"u 	c #5D4B48",
"v 	c #B83138",
"w 	c #784544",
"x 	c #4F514E",
"y 	c #B33531",
"z 	c #AF3936",
"A 	c #B53738",
"B 	c #AF3A3B",
"C 	c #63514E",
"D 	c #B73939",
"E 	c #87474A",
"F 	c #71514E",
"G 	c #B33E3E",
"H 	c #BA3C41",
"I 	c #AD4042",
"J 	c #B64040",
"K 	c #B24446",
"L 	c #B94342",
"M 	c #A74948",
"N 	c #B64849",
"O 	c #B04A4C",
"P 	c #BA4B4C",
"Q 	c #7C5D5E",
"R 	c #B64F4C",
"S 	c #696564",
"T 	c #B0514F",
"U 	c #BD4E4E",
"V 	c #B35351",
"W 	c #B95254",
"X 	c #BB534F",
"Y 	c #8A6260",
"Z 	c #6E6A69",
"` 	c #BC5456",
" .	c #706C6A",
"..	c #866668",
"+.	c #B95957",
"@.	c #B9595C",
"#.	c #B45B5B",
"$.	c #7E6B68",
"%.	c #BB5B58",
"&.	c #BC5C5F",
"*.	c #B85E5E",
"=.	c #747276",
"-.	c #BC6262",
";.	c #7B7675",
">.	c #B36767",
",.	c #BF6564",
"'.	c #B96769",
").	c #BD6966",
"!.	c #7D7B7F",
"~.	c #C26867",
"{.	c #8A787A",
"].	c #BD6A6C",
"^.	c #B86C6C",
"/.	c #837E7D",
"(.	c #C06D6F",
"_.	c #947A79",
":.	c #C26F71",
"<.	c #8B7F80",
"[.	c #BD7170",
"}.	c #B97370",
"|.	c #C07372",
"1.	c #838582",
"2.	c #C37675",
"3.	c #C17A76",
"4.	c #C07A7C",
"5.	c #9A8683",
"6.	c #BC7D7C",
"7.	c #C67A7E",
"8.	c #8A8C89",
"9.	c #C87B79",
"0.	c #898D90",
"a.	c #958A8A",
"b.	c #C47D79",
"c.	c #C37D7F",
"d.	c #918C8B",
"e.	c #998C87",
"f.	c #C57F81",
"g.	c #C18281",
"h.	c #BD8581",
"i.	c #90928F",
"j.	c #95918F",
"k.	c #CA8385",
"l.	c #9D9191",
"m.	c #C68685",
"n.	c #969498",
"o.	c #959794",
"p.	c #C38A86",
"q.	c #CA8A89",
"r.	c #C48C8E",
"s.	c #C78E8A",
"t.	c #C78F91",
"u.	c #C39191",
"v.	c #9B9D9A",
"w.	c #CA908D",
"x.	c #C99193",
"y.	c #C69494",
"z.	c #CC9395",
"A.	c #A5A09F",
"B.	c #9FA29E",
"C.	c #CE9597",
"D.	c #C99897",
"E.	c #CD9B9B",
"F.	c #A5A7A4",
"G.	c #ABA6A4",
"H.	c #D09D9D",
"I.	c #C99FA2",
"J.	c #A8AAA7",
"K.	c #CCA19E",
"L.	c #D3A0A0",
"M.	c #B0ABAA",
"N.	c #CFA3A1",
"O.	c #C8A5A6",
"P.	c #ADAFAC",
"Q.	c #D1A6A3",
"R.	c #D0A6A9",
"S.	c #C6AAA9",
"T.	c #CCA9AA",
"U.	c #B0B2AF",
"V.	c #D4A8A6",
"W.	c #AFB4B6",
"X.	c #D0ACAD",
"Y.	c #B3B5B2",
"Z.	c #CCAFAE",
"`.	c #D7ADB0",
" +	c #D2AFB0",
".+	c #BBB8BD",
"++	c #B8BAB7",
"@+	c #BEB9B8",
"#+	c #D6B2B3",
"$+	c #D0B4B3",
"%+	c #BABCB9",
"&+	c #D9B5B6",
"*+	c #D3B7B6",
"=+	c #BDBFBC",
"-+	c #D2BCB9",
";+	c #DDB9BA",
">+	c #D8BBBA",
",+	c #C5C2C7",
"'+	c #C1C4C1",
")+	c #DBBEBD",
"!+	c #E1BDBE",
"~+	c #C4C7C4",
"{+	c #CBC6C5",
"]+	c #DEC1C0",
"^+	c #D9C3C0",
"/+	c #E1C4C2",
"(+	c #D9C6C8",
"_+	c #CACCC9",
":+	c #DEC8C5",
"<+	c #D8CBCC",
"[+	c #CCCFCB",
"}+	c #E5C8C7",
"|+	c #CDD0CC",
"1+	c #E2CCC9",
"2+	c #D2D4D1",
"3+	c #E3CFD2",
"4+	c #D1D5D8",
"5+	c #D4D6D3",
"6+	c #E0D4D4",
"7+	c #E8D4D6",
"8+	c #E4D7D8",
"9+	c #DADDD9",
"0+	c #E7DADB",
"a+	c #DEE0DD",
"b+	c #EADDDD",
"c+	c #E0E2DF",
"d+	c #EEE1E2",
"e+	c #E4E7E3",
"f+	c #EBE6E5",
"g+	c #E8EAE7",
"h+	c #F3E7E7",
"i+	c #EEE9E8",
"j+	c #EBEDEA",
"k+	c #E9EEF0",
"l+	c #F2ECEB",
"m+	c #EEF1ED",
"n+	c #F6F0EF",
"o+	c #F1F3F0",
"p+	c #F3F6F2",
"q+	c #FBF6F5",
"r+	c #F6F8F5",
"s+	c #F8FBF7",
"t+	c #FAFCF9",
"u+	c #FFFBFA",
"v+	c #F9FDFF",
"w+	c #FBFDFA",
"x+	c #FFFCFF",
"y+	c #FCFFFB",
"( ( ( ( ( ( ( ( ( ( ( ( ( ( ( ( ( ( ( ( ( ( ( ( ( ( ( ( ( ( ( ( ( ( ( ( ( ( ( ( ( ( ( ( ( ( ( ( ( ( ( ( ( ( ( ( ( ( ( ( ( ( ( ( ",
"( ( ( ( ( ( ( ( ( ( ( ( ( ( ( ( ( ( ( ( ( ( ( ( ( ( ( ( ( ( ( ( ( ( ( ( ( ( ( ( ( ( ( ( ( ( ( ( ( ( ( ( ( ( ( ( ( ( ( ( ( ( ( ( ",
"( ( ( ( ( ( ( ( ( ( ( ( ( ( ( ( ( ( ( ( ( ( ( ( ( ( ( ( ( ( ( ( ( ( ( ( ( ( ( ( ( ( ( ( ( ( ( ( ( ( ( ( ( ( ( ( ( ( ( ( ( ( ( ( ",
"( ( ( ( ( ( ( ( ( ( ( ( ( ( ( ( ( ( ( ( ( ( ( ( ( ( ( ( ( ( ( ( ( ( ( ( ( ( ( ( ( ( ( ( ( ( ( ( ( ( ( ( ( ( ( ( ( ( ( ( ( ( ( ( ",
"( ( ( ( ( ( ( ( ( ( ( ( ( ( ( ( ( ( ( ( ( ( ( ( ( ( ( ( / 1 ( ( ( ( ( ( ( ( ( ( ( ( ( ( ( ( ( ( ( ( ( ( ( ( ( ( ( ( ( ( ( ( ( ( ",
"( ( ( ( ( ( ( ( ( ( ( ( ( ( ( ( ( ( ( ( ( ( ( ( ( ( ( ; 0.) ( ( ( ( ( ( ( ( ( ( ( ( ( ( ( ( ( ( ( ( ( ( ( ( ( ( ( ( ( ( ( ( ( ( ",
"( ( ( ( ( ( ( ( ( ( ( ( 7 ( ( ( ( ( ( ( ( ( ( ( ( ( ( Y c+_.( ( ( ( ( ( ( ( ( ( ( ( ( ( ( ( ( ( ( ( ( ( ( ( ( ( ( ( ( ( ( ( ( ( ",
"( ( ( ( ( ( ( ( ( ( ( ( K.A ( ( ( ( &+2.( ( ( ( ( ( ( F Y.1.1 ( ( ( ( ( ( ( ( ( ( ( ( ( ( ( ( ( ( ( ( ( ( ( ( ( ( ( ( ( ( ( ( ( ",
"( ( +.j ( ( ( ( ( ( ( ( &.*+( ( ( ].i+6 ( ( ( ( ( ( ( a.B.++$ ~ ( ( ( ( ( ( ( ( ( ( ( ( ( ( ( ( ( ( ( ( ( ( ( ( ( ( ( ( ( ( ( ( ",
"( ( ( H.U ( ( ( ( ( ( ( ( t.2.( 9 3+t.( ( ( ( ( ( ( ( Y.|+M.o.E ( ( ( ( ( ( ( ( ( ( ( ( ( ( ( ( ( ( ( ( ( ( ( ( ( ( ( ( ( ( ( ( ",
"( ( ( 9 p.(.( ( ( ( ( ( ( ( 6.c ).f+( ( ( ( ( ( ( ( ( Y.p+0.W.a.( ( ( ( ( ( ( ( ( ( ( ( ( ( ( ( ( ( ( ( ( ( ( ( ( ( ( ( ( ( ( ( ",
"( ( ( ( ( g.^.( ( ( ( ( ( ( 7 j ]+K.( ( ( ( ( ( ( ( ( G.w+5+%+;.~ ( ( ( ( ( ( ( ( ( ( ( ( ( ( ( ( ( ( ( ( ( ( ( ( ( ( ( ( ( ( ( ",
"( ( ( ( ( ( c.D.7 ( ( ( ( ( ( p l+k ( ( ( ( ( ( ( ( ( _.y+s+P.!.{ ( ( ( ( ( ( ( ( ( ( ( ( ( ( ( ( ( ( ( ( ( ( ( ( ( ( ( ( ( ( ( ",
"( ( ( ( ( ( ( |.O.j ( ( ( ( ( E.]+( ( ,.]+H.( ( ( ( ( | m+t+J.Y.x l ( ( ( ( ( ( ( ( ( ( ( ( ( ( ( ( ( ( ( ( ( ( ( ( ( ( ( ( ( ( ",
"( ( ( ( ( ( ( ( W *+W ( ( ( ( 7+|.( ( ]+h z.:.( ( ( ( ~ i.p+5+'+x 5.( ( ( ( ( ( ( ( ( ( ( ( ( ( ( ( ( ( ( ( ( ( ( ( ( ( ( ( ( ( ",
"( ( ( ( ( ( ( ( ( p ^+].( ( A d+( ( ,.q.(.G x.( ( ( ( ( e.t+w+J.1./.( ( ( ( ( ( ( ( ( ( ( ( ( ( ( ( ( ( ( ( ( ( ( ( ( ( ( ( ( ( ",
"( ( ( ( ( ( ( ( ( ( c $+r.( E.)+( ( b.9.[.1 L.( ( U j ( q t+y+=+++S ~ ( ( ( ( ( ( ( ( ( ( ( ( ( ( ( ( ( ( ( ( ( ( ( ( ( ( ( ( ( ",
"( ( ( ( ( ( ( ( ( ( ( 7 R.X.7+|.( ( ,.E.x.J m.( ( p Q.( ; a+w+m+Y.=.{ ( ( ( ( ( ( ( ( ( ( ( ( ( ( ( ( ( ( ( ( ( ( ( ( ( ( ( ( ( ",
"( ( ( ( ( ( ( ( ( ( ( ( ( r.q+6 ( ( ( ;+|.E.( ( ( ( #+( 1 A.f+u+U.F.8 ( ( ( ( ( ( ( ( ( ( ( ( ( ( ( ( ( ( ( ( ( ( ( ( ( ( ( ( ( ",
"( ( ( ( ( ( ( ( ( ( ( ( ( |.d+:+A ( ( &++.( ( c ( ( ` f.( i p+u+5+Y.  ( ( ( ( ( ( ( ( ( ( ( ( ( ( ( ( ( ( ( ( ( ( ( ( ( ( ( ( ( ",
"( ( ( ( ( ( ( ( ( ] ] ( ( R.V.W ^+-.( D )+( ( Q.s ( ( q.( > o+w+s+Y.g 1 ( ( ( ( ( ( ( ( ( ( ( ( ( ( ( ( ( ( ( ( ( ( ( ( ( ( ( ( ",
"( ( ( ( ( ( ( p >+l+i+y.6 3+[.( s ^+q.( f.`.( %.#+( ( R h ' |+t+t+=+B.' ( ( ( ( ( ( ( ( ( ( ( ( ( ( ( ( ( ( ( ( ( ( ( ( ( ( ( ( ",
"( ( ( ( ( ( ( >+ +N *.3+8+i+6 ( ( 9 O.E.( E.x.( x.(.( ( 7 ( l.t+t+g+Y.> ( ( ( ( ( ( ( ( ( ( ( ( ( ( ( ( ( ( ( ( ( ( ( ( ( ( ( ( ",
"( ( ( ( ( ( A >+X #+f.j I.l+( ( ( -.H.z. +( H.f.( C.( ( ( 1 f m+w+u+,+{.7 ( ( ( ( ( ( ( ( ( ( ( ( ( ( ( ( ( ( ( ( ( ( ( ( ( ( ( ",
"( ( ( ( ( ( t.f.s.c.>+( [.l+ +( ( m.*.:.].>+v C.(.A *.( { n . _+u+u+j+Y.- ( ( ( ( ( ( ( ( ( ( ( ( ( ( ( ( ( ( ( ( ( ( ( ( ( ( ( ",
"( ( ( ( ( ( x.(.k.( H.o x.&+#+E.( q.x.+.( P !+P w.W 1 ( <.4+n.~+w+u+t+j+d.1 ( ( ( ( ( ( ( ( ( ( ( ( ( ( ( ( ( ( ( ( ( ( ( ( ( ( ",
"( ( ( ( ( ( W #+B T #+c &+H.( >+t.m.).( ( ( c `.,.(.p : v.w+e+G.a+t+w+t+g+d ( ( ( ( ( ( ( ( ( ( ( ( ( ( ( ( ( ( ( ( ( ( ( ( ( ( ",
"( ( ( ( ( ( ( X.>+*+E.L ]+f.( ( #+#+H.m.( ( q.p t.2.~ 1 j.p+9+s+o.p+w+w+w+M.3 ( ( ( ( ( ( ( ( ( ( ( ( ( ( ( ( ( ( ( ( ( ( ( ( ( ",
"( ( ( ( ( ( ( ( P R ( c 3+(.( ( ( t.(+m.E.[.~.&+,.,.f.( ..5+a+w+e+++w+t+t+n+r ( ( ( ( ( ( ( ( ( ( ( ( ( ( ( ( ( ( ( ( ( ( ( ( ( ",
"( ( ( ( ( ( ( ( ( ( ( ( b+0 ( ( ( ( G  +S.y.[.1 c ( N B ; 5+w+s+[+U.r+t+t+t+%+' ( ( ( ( ( ( ( ( ( ( ( ( ( ( ( ( ( ( ( ( ( ( ( ( ",
"( ( ( ( ( ( ( ( ( ( ( ( b+( E.]+&+s.@.7 7 m.K.u.g.M / 1 1 $.r+a+4+k+.+w+t+t+r+Q ( ( ( ( ( ( ( ( ( ( ( ( ( ( ( ( ( ( ( ( ( ( ( ( ",
"( ( ( ( ( ( ( ( ( ( ( ( h+( ( ] b %.%.y ( ( ( ( ( ( 1 1 ( , B.s+v+t+2+=+t+t+t+2+- ( ( ( ( ( ( ( ( ( ( ( ( ( ( ( ( ( ( ( 1 ; = a ",
"( ( ( ( ( ( ( ( ( ( ( ( l+( ( ( ( ( ( ( ( ( ( ] : 1 ( ( ( ( - {+w+w+w+m+9+t+x+u+d.^ ( ( ( ( ( ( ( ( ( ( ( ( ( ( 1 ' > + Z P.9+s+",
"#+#+!+>+T.h.>.A ( ( ( ( f+( ( ( ( N c.r.4.f.].(.( ( / 3 1 ( ( w q+w+w+w+s+w+x+w+j+m 1 ( ( ( ( ( ( : _ - = @ # [  .v.~+l+w+w+w+w+",
"r.c.z j ] ( ( ( ( ( ( *.l+ +^+>+X.y.+.] ( ( ( R p.}.k ( ( ( 7 , [+w+w+w+w+w+w+w+w+a+C * - ) * % e 1.P._+9+g+m+t+y+w+w+w+w+w+w+w+",
"( ( ( ( ( ( ( ( ( ( }.*+n+#.c ( ( ( ( ( ( 4.T.6.7 ~ : 1 ( ~ 1 ( A.w+w+w+w+w+w+w+w+w+s+9+[+|+9+j+t+w+w+w+w+w+w+w+w+w+w+w+w+w+w+w+",
"( ( ( ( ( ( ( ( ( ( ( ( b+7 ( ( ( ( ( W *+y.7 (.4.v ].1 ,.N 1 ( _.y+w+w+w+w+w+y+w+w+w+w+w+y+y+w+w+w+w+w+w+w+w+w+w+w+w+w+y+y+y+w+",
"( ( ( ( ( ( ( ( ( ( ( ( b+B ( ( ( ( E.]+p :.N.,.( w.&.).).(.1 ( ) m+w+w+w+y+y+w+w+w+w+w+w+w+w+w+w+w+w+w+w+w+w+w+w+w+y+y+y+y+y+y+",
"( ( ( ( ( ( ( c I h ( ( 1+|.( ( ( #+K.p &+E.6 ( H.f.,.f.q.J V 1 ~ G.v+w+y+y+w+w+v+w+w+y+y+y+y+v+w+y+y+y+w+w+x+y+y+y+y+y+y+x+y+y+",
"( ( ( ( ( ( -.<+]+-+A J >+g.( ( Z.6.%.}+` ( ( |.C.,.E.~.m.c 7.(.( 4 e+y+w+v+v+v+w+y+y+y+y+y+y+y+y+y+y+y+y+y+y+y+y+y+y+y+y+y+y+y+",
"( ( ( ( ( ( (+G O K R.j #+H.(  +K.( )+A ( ( ( ( P #+6 V.( q.j z.( 1 <.w+w+w+w+w+y+y+y+y+y+y+y+y+y+y+y+y+y+y+y+y+y+y+y+y+y+y+y+y+",
"( ( ( ( ( N  +W O 9 u.6 r.&+4.#+( k.q.z.9 ( ( J ;+c Q.U ( Q.( E.( ( ; =+w+w+w+y+y+y+y+y+y+y+y+y+y+y+y+y+y+y+y+y+y+y+y+y+y+y+y+y+",
"( ( ( ( ( V N.T G ( D.y -.d+-+7 ( E.'.h m.( o *+A ].N.( N H.( 2.( ( ( 5 2+y+y+y+y+y+w+y+y+y+y+y+y+y+y+y+y+y+y+y+y+y+y+y+y+y+y+y+",
"( ( ( ( ( R >+9 I.E.r.o -.q+G ( ( E.~.K q.7 $+` 9 /+9 ( w.A ( ( ( ( ( 1 < v.~+2+p+y+w+y+y+y+y+y+y+y+y+y+y+y+y+y+y+y+y+y+y+y+y+y+",
"( ( ( ( ( ( (+J J 3.( P 8+n+p ( ( (.V.`.J #+*.( Q.k.( ( c ( ( ( ( ( ( ( ( / ! > } d.'+a+p+y+y+y+y+y+y+y+y+y+y+y+y+y+y+y+y+y+y+y+",
"( ( ( ( ( ( g.8+'.+.H.f+g.1+m.( ( ( ,.W  +f.( ( 1+( ( ( ( ( ( ( ( ( ( ( ( ( ( ( ( ~ - $ & S B.{+g+t+y+y+y+y+y+y+y+y+y+y+y+y+y+y+",
"( ( ( ( ( ( ( s.f+f+6+-.o K.&+( ( ( ( N.D.( ( k.E.( ( ( ( ( ( ( ( ( ( ( ( ( ( ( ( ( ( ( ( 7 / - @ u i.@+9+q+y+y+y+y+y+y+y+y+y+t+",
"( ( ( ( ( ( ( ( ( ( ( ( ( (.0+( ( ( t.N.( ( ( ;+p L.&+:.( ( ( ( ( ( ( ( ( ( ( ( ( ( ( ( ( ( ( ( ( ( ~ ; = 2 ;.J.[+j+y+y+u+y+y+c+",
"( ( ( ( ( ( ( ( ( ( ( ( ( ( l+k ( c.#+( ( ( ( >++.f.( H.( ( ( ( ( ( ( ( ( ( ( ( ( ( ( ( ( ( ( ( ( ( ( ( ( ( 1 _ > % C 8.P.~+9+P.",
"( ( ( ( ( ( ( ( ( ( ( ( ( ( /+q.-.*+( ( ( ( ( /+2.N 1 H.( ( ( ( ( ( ( ( ( ( ( ( ( ( ( ( ( ( ( ( ( ( ( ( ( ( ( ( ( ( ( ~ _ - = = ",
"( ( ( ( ( ( ( ( ( ( ( ( ( ( q.7+>+( ( ( ( ( ( )+( H.(.L.( ( ( ( ( ( ( ( ( ( ( ( ( ( ( ( ( ( ( ( ( ( ( ( ( ( ( ( ( ( ( ( ( ( ( ( ",
"( ( ( ( ( ( ( ( ( ( ( ( ( ( ).q+k ( ( ( ( ( ( #+&.9 6 `.( ( ( ( ( ( ( ( ( ( ( ( ( ( ( ( ( ( ( ( ( ( ( ( ( ( ( ( ( ( ( ( ( ( ( ( ",
"( ( ( ( ( ( ( ( ( ( ( ( ( p *+f+t.( ( ( N ( ( J 7+).Q.E.( ( ( ( ( ( ( ( ( ( ( ( ( ( ( ( ( ( ( ( ( ( ( ( ( ( ( ( ( ( ( ( ( ( ( ( ",
"( ( ( ( ( ( ( ( ( ( ( ( 9 ]+` g.8+( ( H t.( ( ( ~.]+H.( ( ( ( ( ( ( ( ( ( ( ( ( ( ( ( ( ( ( ( ( ( ( ( ( ( ( ( ( ( ( ( ( ( ( ( ( ",
"( ( ( ( ( ( ( ( ( ( ( ( >+|.( ( b++.( R.H ( ( ( ( ( ( ( ( ( ( ( ( ( ( ( ( ( ( ( ( ( ( ( ( ( ( ( ( ( ( ( ( ( ( ( ( ( ( ( ( ( ( ( ",
"( ( ( ( ( ( ( ( ( ( ( #+|.( ( ( N.]+( -.( ( ( ( ( ( ( ( ( ( ( ( ( ( ( ( ( ( ( ( ( ( ( ( ( ( ( ( ( ( ( ( ( ( ( ( ( ( ( ( ( ( ( ( ",
"( ( ( ( ( ( ( ( ( ( L.f.( ( ( ( +.l+P ( ( ( ( ( ( ( ( ( ( ( ( ( ( ( ( ( ( ( ( ( ( ( ( ( ( ( ( ( ( ( ( ( ( ( ( ( ( ( ( ( ( ( ( ( ",
"( ( ( ( ( ( ( ( ( q.m.( ( ( ( ( ( &+)+( ( ( ( ( ( ( ( ( ( ( ( ( ( ( ( ( ( ( ( ( ( ( ( ( ( ( ( ( ( ( ( ( ( ( ( ( ( ( ( ( ( ( ( ( ",
"( ( ( ( ( ( ( ( 2.q.( ( ( ( ( ( ( c %.( ( ( ( ( ( ( ( ( ( ( ( ( ( ( ( ( ( ( ( ( ( ( ( ( ( ( ( ( ( ( ( ( ( ( ( ( ( ( ( ( ( ( ( ( ",
"( ( ( ( ( ( ( |.s.( ( ( ( ( ( ( ( ( ( ( ( ( ( ( ( ( ( ( ( ( ( ( ( ( ( ( ( ( ( ( ( ( ( ( ( ( ( ( ( ( ( ( ( ( ( ( ( ( ( ( ( ( ( ( ",
"( ( ( ( ( ( t g.( ( ( ( ( ( ( ( ( ( ( ( ( ( ( ( ( ( ( ( ( ( ( ( ( ( ( ( ( ( ( ( ( ( ( ( ( ( ( ( ( ( ( ( ( ( ( ( ( ( ( ( ( ( ( ( ",
"( ( ( ( ( h I ( ( ( ( ( ( ( ( ( ( ( ( ( ( ( ( ( ( ( ( ( ( ( ( ( ( ( ( ( ( ( ( ( ( ( ( ( ( ( ( ( ( ( ( ( ( ( ( ( ( ( ( ( ( ( ( ( ",
"( ( ( ( ( j ( ( ( ( ( ( ( ( ( ( ( ( ( ( ( ( ( ( ( ( ( ( ( ( ( ( ( ( ( ( ( ( ( ( ( ( ( ( ( ( ( ( ( ( ( ( ( ( ( ( ( ( ( ( ( ( ( ( ",
"( ( ( ( ( ( ( ( ( ( ( ( ( ( ( ( ( ( ( ( ( ( ( ( ( ( ( ( ( ( ( ( ( ( ( ( ( ( ( ( ( ( ( ( ( ( ( ( ( ( ( ( ( ( ( ( ( ( ( ( ( ( ( ( "};
