/* XPM */
static char * sectumsempra_icn_xpm[] = {
"64 64 255 2",
"  	c #080100",
". 	c #010400",
"+ 	c #0A0301",
"@ 	c #0B0403",
"# 	c #040702",
"$ 	c #120304",
"% 	c #240809",
"& 	c #310500",
"* 	c #1D0B06",
"= 	c #300508",
"- 	c #2D0707",
"; 	c #330705",
"> 	c #3F0406",
", 	c #3A070B",
"' 	c #2B0C09",
") 	c #300B0C",
"! 	c #44090D",
"~ 	c #480D0B",
"{ 	c #3D1112",
"] 	c #6F0502",
"^ 	c #770308",
"/ 	c #4E1311",
"( 	c #491515",
"_ 	c #940006",
": 	c #7B0804",
"< 	c #8C0308",
"[ 	c #A00006",
"} 	c #980409",
"| 	c #322325",
"1 	c #AA000C",
"2 	c #501B1A",
"3 	c #AC0106",
"4 	c #2F2626",
"5 	c #571B1D",
"6 	c #990811",
"7 	c #B5000B",
"8 	c #A40709",
"9 	c #AE050F",
"0 	c #342A26",
"a 	c #AF0708",
"b 	c #512222",
"c 	c #352B2C",
"d 	c #A60C0B",
"e 	c #B00A09",
"f 	c #B00A10",
"g 	c #393030",
"h 	c #40302D",
"i 	c #B20F12",
"j 	c #452F2E",
"k 	c #542B28",
"l 	c #B21019",
"m 	c #702422",
"n 	c #AA1415",
"o 	c #4C3032",
"p 	c #AB151B",
"q 	c #3A3635",
"r 	c #473633",
"s 	c #553231",
"t 	c #AE1917",
"u 	c #662F2C",
"v 	c #AE1A1E",
"w 	c #882528",
"x 	c #493836",
"y 	c #A71E20",
"z 	c #7E2A2A",
"A 	c #A02123",
"B 	c #B11E25",
"C 	c #A92128",
"D 	c #9B2627",
"E 	c #8E2A2C",
"F 	c #613738",
"G 	c #733434",
"H 	c #A52626",
"I 	c #912D29",
"J 	c #AD2525",
"K 	c #643A3B",
"L 	c #793436",
"M 	c #52403E",
"N 	c #9F2A2A",
"O 	c #912E2F",
"P 	c #AF272B",
"Q 	c #623E3C",
"R 	c #A72A2E",
"S 	c #883432",
"T 	c #833636",
"U 	c #793A39",
"V 	c #A32E32",
"W 	c #A42F2E",
"X 	c #6B4041",
"Y 	c #4D4948",
"Z 	c #9F3231",
"` 	c #813B3C",
" .	c #AD2F2C",
"..	c #674341",
"+.	c #AD2F32",
"@.	c #534949",
"#.	c #5E4645",
"$.	c #943733",
"%.	c #933738",
"&.	c #823C3D",
"*.	c #783F40",
"=.	c #674447",
"-.	c #9A3636",
";.	c #5A494C",
">.	c #9C3732",
",.	c #A83336",
"'.	c #903B3D",
").	c #524D4C",
"!.	c #B03234",
"~.	c #A43735",
"{.	c #574D4D",
"].	c #A4373B",
"^.	c #764548",
"/.	c #7C4444",
"(.	c #993C3D",
"_.	c #943E3B",
":.	c #A03B3A",
"<.	c #89423E",
"[.	c #6F4A48",
"}.	c #8F4140",
"|.	c #8A4344",
"1.	c #A83B3E",
"2.	c #AF3A3B",
"3.	c #7C4947",
"4.	c #7B494C",
"5.	c #A43E3D",
"6.	c #774B4C",
"7.	c #984244",
"8.	c #6D4F50",
"9.	c #695150",
"0.	c #944544",
"a.	c #9F4242",
"b.	c #844B4B",
"c.	c #854B4C",
"d.	c #A04348",
"e.	c #755054",
"f.	c #A84246",
"g.	c #974846",
"h.	c #924A4B",
"i.	c #AF4244",
"j.	c #785251",
"k.	c #97494C",
"l.	c #8E4C4A",
"m.	c #944B46",
"n.	c #68575A",
"o.	c #83504E",
"p.	c #9E484A",
"q.	c #825053",
"r.	c #AD4644",
"s.	c #AC4749",
"t.	c #6B5A5C",
"u.	c #A84A4E",
"v.	c #715A5E",
"w.	c #AF494C",
"x.	c #8D5353",
"y.	c #985050",
"z.	c #695E5F",
"A.	c #845757",
"B.	c #A0504E",
"C.	c #AC4D4C",
"D.	c #8B575A",
"E.	c #A75051",
"F.	c #985659",
"G.	c #74615F",
"H.	c #8E5A5D",
"I.	c #9F5656",
"J.	c #B15150",
"K.	c #9E565B",
"L.	c #B05155",
"M.	c #6F6465",
"N.	c #7F6061",
"O.	c #756366",
"P.	c #A75653",
"Q.	c #AE5550",
"R.	c #AD5556",
"S.	c #7D6363",
"T.	c #B05758",
"U.	c #95605D",
"V.	c #766B6C",
"W.	c #9D6160",
"X.	c #AF5D5A",
"Y.	c #936565",
"Z.	c #A5615E",
"`.	c #856B6A",
" +	c #906866",
".+	c #B05F61",
"++	c #7B7070",
"@+	c #AD6262",
"#+	c #A36666",
"$+	c #787372",
"%+	c #7F7474",
"&+	c #867370",
"*+	c #9C6D6D",
"=+	c #B26766",
"-+	c #AD696B",
";+	c #99716F",
">+	c #8F7574",
",+	c #B66A6A",
"'+	c #B26D6A",
")+	c #B36E70",
"!+	c #887D7D",
"~+	c #B67173",
"{+	c #85807F",
"]+	c #B27473",
"^+	c #987E7D",
"/+	c #938083",
"(+	c #8D8282",
"_+	c #AA7A7A",
":+	c #B87979",
"<+	c #B37B78",
"[+	c #908585",
"}+	c #B27C7E",
"|+	c #968487",
"1+	c #A9807D",
"2+	c #9F8483",
"3+	c #B67F81",
"4+	c #B28282",
"5+	c #B08684",
"6+	c #9A8E8F",
"7+	c #B78686",
"8+	c #B2898C",
"9+	c #BB8A8A",
"0+	c #A49194",
"a+	c #BE8D8C",
"b+	c #BA8F8D",
"c+	c #A39797",
"d+	c #AB9693",
"e+	c #B89596",
"f+	c #BF9599",
"g+	c #AE9B9E",
"h+	c #A99D9D",
"i+	c #BB9899",
"j+	c #A49F9E",
"k+	c #B3A0A3",
"l+	c #BB9F9E",
"m+	c #C19E9F",
"n+	c #B6A29E",
"o+	c #B0A4A4",
"p+	c #C5A2A3",
"q+	c #C0A4A3",
"r+	c #B5A9A9",
"s+	c #BDA8A5",
"t+	c #C3A7A6",
"u+	c #BCA9AC",
"v+	c #B8ACAC",
"w+	c #BFACAF",
"x+	c #C7ABAA",
"y+	c #C2ADA9",
"z+	c #BBAFB0",
"A+	c #C3B0B3",
"B+	c #C0B3B4",
"C+	c #C7B2AF",
"D+	c #CAB6B9",
"E+	c #C5B8B9",
"F+	c #D2B5B4",
"7 7 7 7 7 7 7 7 7 7 7 7 7 7 7 7 7 7 7 7 7 7 7 7 7 7 7 7 7 7 7 7 7 7 7 7 7 7 7 7 7 7 7 7 7 7 7 7 7 7 7 7 7 7 7 7 7 7 7 7 7 7 7 7 ",
"7 7 7 7 7 7 7 7 7 7 7 7 7 7 7 7 7 7 7 7 7 7 7 7 7 7 7 7 7 7 7 7 7 7 7 7 7 7 7 7 7 7 7 7 7 7 7 7 7 7 7 7 7 7 7 7 7 7 7 7 7 7 7 7 ",
"7 7 7 7 7 7 7 7 7 7 7 7 7 7 7 7 7 7 7 7 7 7 7 7 7 7 7 7 7 7 7 7 7 7 7 7 7 7 7 7 7 7 7 7 7 7 7 7 7 7 7 7 7 7 7 7 7 7 7 7 7 7 7 7 ",
"7 7 7 7 7 7 7 7 7 7 7 7 7 7 7 7 7 7 7 7 7 7 7 7 7 7 7 7 7 7 7 7 7 7 7 7 7 7 7 7 7 7 7 7 7 7 7 7 7 7 7 7 7 7 7 7 7 7 7 7 7 7 7 7 ",
"7 7 7 7 7 7 7 7 7 7 7 7 7 7 7 7 7 7 7 7 7 7 7 7 7 7 7 7 7 7 7 7 7 7 7 7 7 7 7 7 7 7 7 7 7 7 7 [ 7 7 7 7 7 7 7 7 7 7 7 7 7 7 7 7 ",
"7 7 7 7 7 7 7 7 7 7 7 7 7 7 7 7 7 7 7 7 7 7 7 7 7 7 7 7 7 7 7 7 7 7 7 7 7 7 7 7 7 7 7 7 7 7 J E.7 7 7 7 7 7 7 7 7 7 7 7 7 7 7 7 ",
"7 7 7 7 7 7 7 7 7 7 7 7 7 7 7 7 7 7 7 7 7 7 7 7 7 7 7 7 7 7 7 7 7 7 7 7 D 7 7 7 7 7 7 7 7 e t+a 7 7 7 7 7 7 7 7 7 7 7 7 7 7 7 7 ",
"7 7 7 7 7 7 7 7 7 7 7 7 7 7 7 7 7 7 7 7 7 7 e < 7 7 7 7 7 7 7 7 7 7 7 5+e 7 7 3 7 7 7 7 7 t+:+7 7 7 7 7 7 7 7 7 7 7 7 7 7 7 7 7 ",
"7 7 7 7 7 7 7 7 7 7 7 7 7 7 7 7 7 7 7 7 7 7 7 ^ 7 7 7 7 7 7 7 7 7 7 7+)+7 7 7 7 7 7 7 7 '+m+v 7 7 7 7 7 7 7 7 7 7 7 7 7 7 7 7 7 ",
"7 7 7 7 7 7 7 7 7 7 7 7 7 7 7 7 7 7 7 7 7 7 7 8 e 7 7 7 7 7 7 7 7 3+F+e 7 7 7 7 7 7 7 2.u+_+7 7 7 7 7 7 7 7 7 7 7 7 7 7 7 7 7 7 ",
"7 7 7 7 7 7 7 7 7 7 7 7 7 7 7 7 7 7 7 7 7 7 7 7 8 7 7 1 7 7 7 7 .+q+=+7 7 7 7 7 7 7 e C+^++.7 7 7 7 7 7 7 7 7 7 7 7 7 7 7 7 7 7 ",
"7 7 7 7 7 7 7 7 7 7 7 7 7 7 7 7 7 7 7 7 7 7 7 7 3 7 7 7 7 7 7 J.v+1+e 7 7 7 7 7 7 7 f+V._+7 7 7 7 7 7 7 7 7 7 7 7 7 7 7 7 7 7 7 ",
"7 7 7 7 7 7 7 7 7 7 7 7 7 7 7 7 7 7 7 7 7 7 7 7 e 7 7 7 7 7 2.v+G.,+7 7 7 7 7 7 7 w.o+8.s.7 7 7 7 7 7 7 7 7 6 7 7 7 7 7 7 7 7 7 ",
"7 7 7 7 7 7 7 7 7 7 7 7 7 7 7 7 7 7 7 7 7 7 7 7 7 7 7 7 7 7 l+- 1+e 7 7 7 7 7 7 B E++ ;+a 7 7 7 7 7 7 7 7 '+P 7 7 7 7 7 7 7 7 7 ",
"7 7 7 7 7 7 7 7 7 7 7 7 7 7 7 7 7 7 7 7 3 7 7 7 7 7 7 7 7 +.w+8.@+7 7 e 7 7 7 v y+x ^.E.7 7 7 7 _ 7 7 7 R.q+7 7 7 7 7 7 7 7 7 7 ",
"7 7 7 7 7 7 7 7 7 7 7 7 7 7 7 7 7 7 7 7 _ 7 7 7 7 7 7 7 i.E+g 1+l 7 7 7 7 3 l B+@.o 5.7 7 7 7 3 7 7 7 2.F++.7 7 7 7 7 7 7 7 7 7 ",
"7 7 7 7 7 7 7 7 7 7 7 7 7 7 7 7 7 7 7 7 7 3 7 7 7 7 7 r.z+% #.1.7 7 7 7 7 7 a r+. |.3 a 7 7 7 7 7 7 v C+_+7 7 7 7 7 7 7 7 7 7 7 ",
"7 7 7 7 7 7 7 7 7 7 7 7 7 7 7 7 7 7 7 7 7 7 7 7 7 7 7 T.>+. N.v 7 7 7 7 7 7 J k++ a.7 7 7 7 7 7 7 e D+*+2.7 7 7 7 7 7 7 7 7 7 7 ",
"7 7 7 7 7 7 7 7 7 7 7 7 7 7 7 7 7 7 7 7 7 7 7 7 7 7 7 a+@.X W.e 7 7 7 7 7 a C+r h +.7 7 7 7 7 7 7 m+z.4+7 7 7 7 7 7 7 7 7 7 7 7 ",
"7 7 7 7 7 7 7 7 7 7 7 7 7 7 7 7 7 7 7 7 7 7 7 7 7 7 P u++ d.7 7 7 7 7 7 7 e+V.$ B.a 7 7 7 7 7 7 m+++ +2.7 7 7 7 7 7 7 7 7 7 7 7 ",
"7 7 7 7 7 7 7 7 7 7 7 7 7 < 7 7 7 7 7 7 7 7 7 7 7 R.E+q + k.7 7 7 7 7 7 )+c++ ` p 7 7 7 7 7 7 ~+[+! P.7 7 7 7 7 7 7 7 7 7 7 7 7 ",
"7 7 7 7 7 7 7 7 7 7 7 7 7 3 < 7 7 7 7 7 7 7 7 7 7 y++ + A.K.7 7 3 7 7 3+d++ # x.7 7 7 7 7 7 7 m++ S.a 7 7 7 7 7 7 7 7 7 7 7 7 7 ",
"7 7 7 7 7 7 7 7 7 7 7 7 7 7 7 [ 7 7 7 7 7 7 7 7 l z+. T R 7 7 7 7 7 e+(++ + o ,.7 7 7 7 7 7 v v+# |.7 7 7 7 7 7 7 7 7 7 7 7 7 7 ",
"7 7 7 7 7 7 7 7 7 7 7 7 7 7 7 7 a 7 7 7 7 7 7 3 9+z...H 3 e 7 7 7 7 o++ . 4 Y.9 7 7 7 7 7 7 m+;.S p 7 7 7 7 7 7 7 7 7 7 7 7 7 7 ",
"7 7 7 7 7 7 7 7 7 7 7 7 7 7 7 7 7 7 7 7 7 7 7 w.r++ y.7 7 7 7 7 7 e u+. j %.t 7 7 7 7 7 7 x+{+% ,.7 7 7 7 7 e [ : 3 7 7 7 7 7 7 ",
"7 7 7 7 7 7 7 7 7 7 7 7 7 7 7 7 7 7 7 7 7 7 !.A+* h.C 7 7 7 7 7 7 9+M.+ g.e 7 7 7 7 7 7 i++++ c.~.7 7 7 7 a e 7 7 7 7 7 7 7 7 7 ",
"7 7 7 7 7 7 7 7 7 7 7 7 7 7 7 7 7 7 7 7 7 L.E+g = p.7 7 7 7 7 7 s.r++ - ,.7 7 7 7 7 7 e q+$ U ~.7 7 7 7 7 7 7 7 7 7 7 7 7 7 7 7 ",
"7 7 7 7 7 7 7 7 7 7 7 7 7 7 7 7 8 a 7 7 7 u+. # e.y 7 7 7 7 7 =+w+' . K C 7 7 7 7 a v m+c+. E 7 7 7 7 7 7 7 7 7 7 7 7 7 7 7 7 7 ",
"7 7 7 7 7 7 7 7 7 7 7 7 7 7 7 7 7 7 7 7 e o+# + 3.7 7 7 7 7 r.r+# . ) 0.y 7 7 7 7 2.w+z.+ k y 7 7 7 7 7 7 7 7 7 7 7 7 7 7 7 7 7 ",
"7 7 7 7 7 7 7 7 7 7 7 } 3 7 7 7 7 7 7 7 9 n++ + F.7 7 7 7 7 J.|+. ( a.9 7 7 7 7 7 T./++ + q.a 7 7 7 1 [ [ 7 7 7 7 7 7 7 7 7 7 7 ",
"7 7 7 7 7 7 7 7 7 7 7 7 7 7 7 7 7 7 7 7 q+z.c Y.n 7 7 7 7 7 ]++++ E a 7 7 7 7 7 7 m+;.+ z k.7 7 7 7 7 7 7 7 7 7 7 7 7 7 7 7 7 7 ",
"7 7 7 7 7 7 7 7 7 7 7 7 7 7 7 7 7 7 7 )+6++ g.d 7 7 7 7 i i+g++ # }.7 7 7 7 7 7 a+{+. 6.W 7 7 7 7 7 7 7 7 7 7 7 7 7 7 7 7 7 7 7 ",
"7 7 7 7 7 7 7 7 7 7 7 7 7 7 7 7 7 7 7 t++ X n e 7 7 7 7 ~+&+. . 5 H 7 7 7 7 7 b+(+# t.a.7 7 7 7 7 7 7 7 7 7 7 7 7 7 7 7 7 7 7 7 ",
"7 7 7 7 7 7 7 7 7 7 7 7 7 7 7 7 7 7 4+|+s D 7 7 a 7 7 7 t++ . . <.9 7 7 7 7 3 v++ + p.7 7 7 7 7 7 3 7 7 7 7 7 7 7 7 7 7 7 7 7 7 ",
"7 7 7 7 7 7 7 7 7 7 7 7 7 7 7 7 7 <+j+~ -.7 7 7 7 7 7 X.c++ u }.>.7 7 7 7 7 r.h++ X p 7 7 7 7 7 7 7 7 7 7 7 7 7 7 7 7 7 7 7 7 7 ",
"7 7 7 7 7 7 7 7 7 7 7 7 7 7 7 7 r.c++ 4.a 7 7 7 7 7 -+z+. *.y e 7 7 7 7 7 e D+) + U.a 7 7 7 7 7 7 7 7 7 7 7 7 7 7 7 7 7 7 7 7 7 ",
"7 7 7 7 7 7 7 e [ [ 3 7 7 7 7 7 X.$+& u.7 7 7 7 7 '+h+. . c.a 7 7 7 7 7 9 p+z.. 9.I.7 7 7 7 7 e 3 8 8 a 7 7 7 7 7 7 7 7 7 7 7 7 ",
"7 7 7 7 7 7 7 e a 7 7 7 7 7 e 1 p+Y T 9 7 7 7 7 7 i.c+. | H.7 7 7 7 7 C.E+t.+ &.W 7 7 7 7 7 7 7 7 7 7 [ ] a 7 7 7 7 7 7 7 7 7 7 ",
"7 7 7 7 7 7 7 7 7 7 7 7 7 7 7 ~+6+# <.7 7 7 7 7 e y+q 0 y.9 7 7 7 7 7 w++ + x.R 7 7 7 7 7 7 7 7 7 7 7 7 7 7 7 7 7 7 7 7 7 7 7 7 ",
"7 7 7 7 7 7 7 7 7 7 7 7 7 7 9 z++ , ].7 7 7 7 7 =+(+. D.9 7 7 7 7 7 t v+. /.Z 7 7 7 7 7 7 7 } 7 7 7 7 7 7 7 7 7 7 7 7 7 7 7 7 7 ",
"7 7 7 7 7 7 7 7 7 7 7 7 7 7 a r+& m.e 7 7 7 e e q++ > 7.7 7 7 7 7 7 '+`.+ -.7 7 7 7 7 7 7 7 7 7 7 7 7 7 7 7 7 7 7 7 7 7 7 7 7 7 ",
"7 7 7 7 7 7 7 7 7 7 7 7 7 7 Q.0+b.9 7 7 7 7 a +.k+. j.9 7 7 7 7 7 i D++ m v 7 7 7 7 7 7 7 7 7 7 7 7 7 7 7 7 7 7 7 7 7 7 7 7 7 7 ",
"7 7 7 7 7 7 7 7 7 7 7 7 7 l B+{ A 7 7 7 7 7 7 t+).# (.7 7 7 7 7 7 e+z.# E 8 e 7 7 7 7 7 7 7 7 7 7 7 7 7 7 7 7 7 7 7 7 7 7 7 7 7 ",
"7 7 7 7 7 7 7 7 a 3 7 7 7 i+v.I e 7 7 7 7 7 f+%+b  +J 7 7 7 7 7 X.h++ / :.7 7 7 7 7 7 a 3 7 7 7 7 7 7 7 7 7 7 7 7 7 7 7 7 7 7 7 ",
"7 7 7 7 7 7 7 } 8 7 7 7 i.o+w 8 a 7 7 7 7 }+|+2 %.3 7 7 7 7 7 v B++ =.}.a 7 7 7 7 7 7 7 a < 7 7 7 7 7 7 7 7 7 7 7 7 7 7 7 7 7 7 ",
"7 7 7 7 7 7 7 7 7 7 7 7 l+Q H e 7 7 7 7 L.g+- '.a 7 7 7 7 7 e A+M U H 7 7 7 7 7 7 7 7 7 7 e < 7 7 7 7 7 7 7 7 7 7 7 7 7 7 7 7 7 ",
"7 7 7 7 7 7 7 7 7 7 7  .c+$.e 7 7 7 7 e A++ T n 7 a 7 7 7 7 m+O.[.V 7 7 7 7 7 7 7 7 7 7 7 7 7 7 7 7 7 7 7 7 7 7 7 7 7 7 7 7 7 7 ",
"7 7 7 7 7 7 7 7 7 7 7 4+o.y 7 7 7 7 7 :+++#.-.7 7 7 7 7 7 :+!+c p.7 7 7 7 7 7 e 1 7 7 7 7 7 7 7 7 7 7 7 7 7 7 7 7 7 7 7 7 7 7 7 ",
"7 7 7 7 7 7 7 7 7 7 e 2+l.7 7 7 7 7 l u+& _.7 7 3 7 7 7 l y+# /.n 7 7 7 7 7 7 7 7 7 7 7 7 7 7 7 7 7 7 7 7 7 7 7 7 7 7 7 7 7 7 7 ",
"7 7 7 7 7 7 7 7 7 7 i.;+p 7 7 7 7 7 9+n.L 9 7 7 7 7 7 7 q+{.Q O e 7 7 7 7 7 7 7 7 7 7 7 7 7 7 7 7 7 7 7 7 7 7 7 7 7 7 7 7 7 7 7 ",
"7 7 7 7 7 7 7 7 7 7 Z.:.7 7 7 7 7 P r+; N 7 7 7 7 7 7 <+(+S A 7 7 7 7 7 e e 7 7 7 7 7 7 7 7 7 7 7 7 7 7 7 7 7 7 7 7 7 7 7 7 7 7 ",
"7 7 7 7 7 7 7 7 7 7 @+a 7 7 7 7 7 i+g l.e 7 7 7 7 7 J s+G W 7 7 7 7 7 7 7 } 7 7 7 7 7 7 7 7 7 7 7 7 7 7 7 7 7 7 7 7 7 7 7 7 7 7 ",
"7 7 7 7 7 7 7 7 7 v .+7 7 7 7 7 .+/+S a 7 7 7 3 7 7 i+F Z 7 7 7 7 7 7 7 7 [ e 7 7 7 7 7 7 7 7 7 7 7 7 7 7 7 7 7 7 7 7 7 7 7 7 7 ",
"7 7 7 7 7 7 7 7 7 ].e 7 7 7 7 e g+'.9 7 7 7 7 a 7 )+|+I.l 7 7 7 e 7 7 7 7 7 7 7 7 7 7 7 7 7 7 7 7 7 7 7 7 7 7 7 7 7 7 7 7 7 7 7 ",
"7 7 7 7 7 7 7 7 7 [ 7 7 7 7 7 ]+F.p 7 7 7 7 7 7 P 8+#+7 7 7 7 7 3 7 7 7 7 7 7 7 7 7 7 7 7 7 7 7 7 7 7 7 7 7 7 7 7 7 7 7 7 7 7 7 ",
"7 7 7 7 7 7 7 7 7 e 7 7 7 7 9 9+,.7 7 7 7 7 7 7 p+C.7 7 7 7 7 7 8 7 7 7 7 7 7 7 7 7 7 7 7 7 7 7 7 7 7 7 7 7 7 7 7 7 7 7 7 7 7 7 ",
"7 7 7 7 7 7 7 7 7 7 7 7 7 7 <+f.7 7 7 7 7 7 7 R.@+7 7 7 7 7 7 7 8 a 7 7 7 7 7 7 7 7 7 7 7 7 7 7 7 7 7 7 7 7 7 7 7 7 7 7 7 7 7 7 ",
"7 7 7 7 7 7 7 7 7 7 7 7 7 t -+7 7 7 7 7 7 7 n f.7 7 7 7 7 7 7 7 1 8 7 7 7 7 7 7 7 7 7 7 7 7 7 7 7 7 7 7 7 7 7 7 7 7 7 7 7 7 7 7 ",
"7 7 7 7 7 7 7 7 7 7 7 7 7 (.7 7 7 7 7 7 7 e 8 7 7 7 7 7 7 7 7 7 e [ 7 7 7 7 7 7 7 7 7 7 7 7 7 7 7 7 7 7 7 7 7 7 7 7 7 7 7 7 7 7 ",
"7 7 7 7 7 7 7 7 7 7 7 7 3 e 7 7 7 7 7 7 7 7 7 7 7 7 7 7 7 7 7 7 7 7 7 7 7 7 7 7 7 7 7 7 7 7 7 7 7 7 7 7 7 7 7 7 7 7 7 7 7 7 7 7 ",
"7 7 7 7 7 7 7 7 7 7 7 7 7 7 7 7 7 7 7 7 7 7 7 7 7 7 7 7 7 7 7 7 7 7 7 7 7 7 7 7 7 7 7 7 7 7 7 7 7 7 7 7 7 7 7 7 7 7 7 7 7 7 7 7 ",
"7 7 7 7 7 7 7 7 7 7 7 7 7 7 7 7 7 7 7 7 7 7 7 7 7 7 7 7 7 7 7 7 7 7 7 7 7 7 7 7 7 7 7 7 7 7 7 7 7 7 7 7 7 7 7 7 7 7 7 7 7 7 7 7 ",
"7 7 7 7 7 7 7 7 7 7 7 7 7 7 7 7 7 7 7 7 7 7 7 7 7 7 7 7 7 7 7 7 7 7 7 7 7 7 7 7 7 7 7 7 7 7 7 7 7 7 7 7 7 7 7 7 7 7 7 7 7 7 7 7 ",
"7 7 7 7 7 7 7 7 7 7 7 7 7 7 7 7 7 7 7 7 7 7 7 7 7 7 7 7 7 7 7 7 7 7 7 7 7 7 7 7 7 7 7 7 7 7 7 7 7 7 7 7 7 7 7 7 7 7 7 7 7 7 7 7 "};
