/* XPM */
static char * septum_sempra_icn_xpm[] = {
"64 64 562 2",
"  	c #B3070B",
". 	c #9F070A",
"+ 	c #B2070B",
"@ 	c #AF2626",
"# 	c #A75354",
"$ 	c #992424",
"% 	c #B1080C",
"& 	c #C4A8A9",
"* 	c #AF080B",
"= 	c #B1070B",
"- 	c #8D0608",
"; 	c #AF8684",
"> 	c #B0080C",
", 	c #AD070B",
"' 	c #C5A6A6",
") 	c #B77B7C",
"! 	c #770506",
"~ 	c #B78686",
"{ 	c #B46E6F",
"] 	c #B16E6D",
"^ 	c #C19D9E",
"/ 	c #AD191B",
"( 	c #A3070A",
"_ 	c #B0070B",
": 	c #B47F7F",
"< 	c #D0B4B4",
"[ 	c #AD3D3E",
"} 	c #BDAAAA",
"| 	c #AA7978",
"1 	c #A40709",
"2 	c #A8070A",
"3 	c #AE605F",
"4 	c #BCA3A3",
"5 	c #B26768",
"6 	c #C7B2B2",
"7 	c #9A7D7D",
"8 	c #AB3333",
"9 	c #AB070A",
"0 	c #AF5150",
"a 	c #B8ABAB",
"b 	c #AA8080",
"c 	c #B0080B",
"d 	c #BB9494",
"e 	c #756A6A",
"f 	c #AA7878",
"g 	c #AE3B3B",
"h 	c #BAABAB",
"i 	c #766161",
"j 	c #B46B6A",
"k 	c #AE4B4A",
"l 	c #B0A5A5",
"m 	c #705050",
"n 	c #AC4949",
"o 	c #980E10",
"p 	c #BC9FA0",
"q 	c #2E0A0A",
"r 	c #AC8080",
"s 	c #AF2123",
"t 	c #C6B9B9",
"u 	c #0C0303",
"v 	c #9B7172",
"w 	c #AF080C",
"x 	c #AE6D6B",
"y 	c #AD2B2C",
"z 	c #AA070A",
"A 	c #AE3031",
"B 	c #BFAEAE",
"C 	c #6A4D4D",
"D 	c #AE6363",
"E 	c #B01D1E",
"F 	c #C3ADAD",
"G 	c #4A3838",
"H 	c #754546",
"I 	c #A54E4E",
"J 	c #930608",
"K 	c #AD5756",
"L 	c #BFA6A6",
"M 	c #920608",
"N 	c #AE4344",
"O 	c #C5B8B8",
"P 	c #373031",
"Q 	c #A87E7E",
"R 	c #B11517",
"S 	c #C4B4B4",
"T 	c #544747",
"U 	c #4A3030",
"V 	c #A43E3E",
"W 	c #AC070A",
"X 	c #AE3D3D",
"Y 	c #D4B7B8",
"Z 	c #AC3031",
"` 	c #AD4545",
" .	c #BCAFAF",
"..	c #250B0B",
"+.	c #5E4646",
"@.	c #A93E40",
"#.	c #AE090C",
"$.	c #B7A7A7",
"%.	c #030302",
"&.	c #894242",
"*.	c #AD080C",
"=.	c #AF070B",
"-.	c #AF1D1D",
";.	c #C3B1B0",
">.	c #AE7D7E",
",.	c #B15A5A",
"'.	c #8D7676",
").	c #7D6162",
"!.	c #AD1A1C",
"~.	c #AC2324",
"{.	c #B6A2A3",
"].	c #030202",
"^.	c #A24445",
"/.	c #B10C0F",
"(.	c #C9B8B8",
"_.	c #9A6E6E",
":.	c #AD3B3B",
"<.	c #BD8D8D",
"[.	c #564949",
"}.	c #6D4040",
"|.	c #9D6162",
"1.	c #AE070B",
"2.	c #463636",
"3.	c #412F2F",
"4.	c #A92F2F",
"5.	c #C0A09F",
"6.	c #675E5E",
"7.	c #AE8180",
"8.	c #AE2C2C",
"9.	c #B9A7A7",
"0.	c #020101",
"a.	c #9E4546",
"b.	c #B79797",
"c.	c #796B6B",
"d.	c #160504",
"e.	c #9E5251",
"f.	c #BF9D9D",
"g.	c #7F7171",
"h.	c #916767",
"i.	c #8B0608",
"j.	c #AE5454",
"k.	c #C4B9B9",
"l.	c #3A3434",
"m.	c #994B4D",
"n.	c #B27071",
"o.	c #A39999",
"p.	c #7E3C3D",
"q.	c #A91C1D",
"r.	c #B47070",
"s.	c #938484",
"t.	c #420B0B",
"u.	c #A85555",
"v.	c #C2ABAB",
"w.	c #0D0403",
"x.	c #825859",
"y.	c #9D5759",
"z.	c #B67F7F",
"A.	c #AA9696",
"B.	c #040303",
"C.	c #040403",
"D.	c #8B5454",
"E.	c #BE9D9D",
"F.	c #7A6464",
"G.	c #9F0709",
"H.	c #B01517",
"I.	c #BEB0B0",
"J.	c #853837",
"K.	c #A62D2E",
"L.	c #B39494",
"M.	c #8D8383",
"N.	c #4C3232",
"O.	c #A73535",
"P.	c #AE1D1E",
"Q.	c #BAAEAE",
"R.	c #050403",
"S.	c #894647",
"T.	c #B98A8A",
"U.	c #6C6061",
"V.	c #664343",
"W.	c #A62727",
"X.	c #AC070B",
"Y.	c #AFA3A4",
"Z.	c #302524",
"`.	c #946465",
" +	c #AC080C",
".+	c #C19F9F",
"++	c #5B4C4D",
"@+	c #8A3333",
"#+	c #AC1A1C",
"$+	c #AE4C4D",
"%+	c #B4AAAA",
"&+	c #050202",
"*+	c #984F50",
"=+	c #BBABAC",
"-+	c #472E2D",
";+	c #913939",
">+	c #AE191B",
",+	c #C5ACAC",
"'+	c #848080",
")+	c #230708",
"!+	c #A73334",
"~+	c #9D0609",
"{+	c #7C0607",
"]+	c #AE3637",
"^+	c #C1B0B0",
"/+	c #1E0A0A",
"(+	c #924A4A",
"_+	c #AB2728",
":+	c #BB8B8B",
"<+	c #706464",
"[+	c #964949",
"}+	c #BC9797",
"|+	c #7B6E6E",
"1+	c #864B4B",
"2+	c #A43536",
"3+	c #AD5253",
"4+	c #C3B7B7",
"5+	c #382F30",
"6+	c #300606",
"7+	c #A04B4A",
"8+	c #AD4547",
"9+	c #B3A9A9",
"0+	c #2C0707",
"a+	c #A93738",
"b+	c #C2A3A3",
"c+	c #0E0202",
"d+	c #7B3A39",
"e+	c #A53737",
"f+	c #A5070A",
"g+	c #C0ABAC",
"h+	c #040302",
"i+	c #765152",
"j+	c #A92325",
"k+	c #B16565",
"l+	c #BEADAE",
"m+	c #2C0B0A",
"n+	c #030303",
"o+	c #663939",
"p+	c #A72526",
"q+	c #AB1D1E",
"r+	c #BE9E9E",
"s+	c #A09697",
"t+	c #020202",
"u+	c #8F2C2C",
"v+	c #B1A4A4",
"w+	c #7D4849",
"x+	c #AE4747",
"y+	c #B6A6A6",
"z+	c #2F0B0C",
"A+	c #954444",
"B+	c #A52323",
"C+	c #AE3738",
"D+	c #BFAEAF",
"E+	c #695C5D",
"F+	c #532B2A",
"G+	c #A61D1E",
"H+	c #980609",
"I+	c #AE0A0E",
"J+	c #B6A1A1",
"K+	c #975455",
"L+	c #B25253",
"M+	c #968585",
"N+	c #491414",
"O+	c #9B4243",
"P+	c #AC0E11",
"Q+	c #B05858",
"R+	c #928181",
"S+	c #815151",
"T+	c #AE080C",
"U+	c #A7070A",
"V+	c #A1070A",
"W+	c #9E0709",
"X+	c #C0A1A1",
"Y+	c #695D5D",
"Z+	c #342A2A",
"`+	c #966564",
" @	c #AB1315",
".@	c #B37575",
"+@	c #7B7071",
"@@	c #030203",
"#@	c #8B2C2C",
"$@	c #C19FA0",
"%@	c #574848",
"&@	c #7D2B2B",
"*@	c #944849",
"=@	c #B26D6D",
"-@	c #9C8F8E",
";@	c #070403",
">@	c #944848",
",@	c #A90C0F",
"'@	c #B21416",
")@	c #AC999A",
"!@	c #040203",
"~@	c #8D4141",
"{@	c #BC8C8C",
"]@	c #877F7F",
"^@	c #764C4B",
"/@	c #A43131",
"(@	c #C3A9A9",
"_@	c #694141",
":@	c #A81517",
"<@	c #B67373",
"[@	c #887272",
"}@	c #551D1D",
"|@	c #A5292A",
"1@	c #BB8F8F",
"2@	c #8E8383",
"3@	c #030402",
"4@	c #6A5B5C",
"5@	c #9F4344",
"6@	c #B48282",
"7@	c #958585",
"8@	c #553130",
"9@	c #9C2929",
"0@	c #C1A7A8",
"a@	c #060303",
"b@	c #8A4241",
"c@	c #AB090C",
"d@	c #AD080B",
"e@	c #BBACAC",
"f@	c #060404",
"g@	c #9B494A",
"h@	c #B47C7C",
"i@	c #A59E9E",
"j@	c #480E0E",
"k@	c #9B3738",
"l@	c #AE5C5C",
"m@	c #A59899",
"n@	c #652F2E",
"o@	c #8D403F",
"p@	c #9D3635",
"q@	c #AD4747",
"r@	c #AA9E9F",
"s@	c #6A3E3E",
"t@	c #AA1B1D",
"u@	c #A94545",
"v@	c #A89999",
"w@	c #050303",
"x@	c #7A4A4B",
"y@	c #AF6A6B",
"z@	c #BDAFAF",
"A@	c #783F40",
"B@	c #A32122",
"C@	c #C6B5B5",
"D@	c #2F0B0B",
"E@	c #956060",
"F@	c #A10709",
"G@	c #B05D5D",
"H@	c #787474",
"I@	c #2F0302",
"J@	c #A64C4D",
"K@	c #B26C6C",
"L@	c #AA9B9C",
"M@	c #834C4D",
"N@	c #B00D11",
"O@	c #C2A1A1",
"P@	c #6B5E5E",
"Q@	c #6B5050",
"R@	c #A25757",
"S@	c #C3A2A2",
"T@	c #4E4849",
"U@	c #813335",
"V@	c #AA0D10",
"W@	c #AF4343",
"X@	c #A29797",
"Y@	c #312424",
"Z@	c #8E5A5C",
"`@	c #AD4F50",
" #	c #C8B9B9",
".#	c #6A5A5B",
"+#	c #823B3B",
"@#	c #A52E30",
"##	c #A00709",
"$#	c #6F0505",
"%#	c #B37272",
"&#	c #9C8D8D",
"*#	c #8A4140",
"=#	c #C3ACAC",
"-#	c #3A3838",
";#	c #352928",
">#	c #995152",
",#	c #AE1013",
"'#	c #BFADAD",
")#	c #0C0202",
"!#	c #8C5353",
"~#	c #A62B2C",
"{#	c #AC0A0D",
"]#	c #390808",
"^#	c #A43B3D",
"/#	c #B46768",
"(#	c #8C7F80",
"_#	c #8B5859",
":#	c #AD0F12",
"<#	c #B7ACAC",
"[#	c #7F4445",
"}#	c #9F3233",
"|#	c #990609",
"1#	c #B9A9A9",
"2#	c #320504",
"3#	c #954A49",
"4#	c #3D0606",
"5#	c #994243",
"6#	c #B46E6E",
"7#	c #836C6C",
"8#	c #070404",
"9#	c #993637",
"0#	c #AE5453",
"a#	c #A39191",
"b#	c #824C4D",
"c#	c #AD0C0F",
"d#	c #AD3031",
"e#	c #B09F9F",
"f#	c #7A5252",
"g#	c #AC0B0E",
"h#	c #B10E11",
"i#	c #712323",
"j#	c #C4B4B3",
"k#	c #3F1011",
"l#	c #9C2222",
"m#	c #514D4D",
"n#	c #060504",
"o#	c #983A3B",
"p#	c #B99797",
"q#	c #696060",
"r#	c #8E2B2B",
"s#	c #A30709",
"t#	c #BB9796",
"u#	c #705B5C",
"v#	c #912C2C",
"w#	c #C09899",
"x#	c #807676",
"y#	c #522222",
"z#	c #8E6868",
"A#	c #AE2324",
"B#	c #B05C5C",
"C#	c #AB9E9F",
"D#	c #4D1313",
"E#	c #9E3B3C",
"F#	c #970709",
"G#	c #A6070A",
"H#	c #AD4342",
"I#	c #B1A2A2",
"J#	c #872728",
"K#	c #B37C7C",
"L#	c #958484",
"M#	c #511A1A",
"N#	c #933637",
"O#	c #AF1B1D",
"P#	c #C0B0B0",
"Q#	c #060403",
"R#	c #664546",
"S#	c #914242",
"T#	c #900709",
"U#	c #B8A0A0",
"V#	c #623C3D",
"W#	c #A32525",
"X#	c #B05555",
"Y#	c #AB9B9B",
"Z#	c #2C0505",
"`#	c #8F3D3F",
" $	c #B2080C",
".$	c #C5B0B1",
"+$	c #534040",
"@$	c #773B3A",
"#$	c #A22728",
"$$	c #890607",
"%$	c #AD2F2F",
"&$	c #A39595",
"*$	c #933736",
"=$	c #C3B1B1",
"-$	c #843939",
";$	c #A91718",
">$	c #BF9E9E",
",$	c #756464",
"'$	c #704949",
")$	c #A22F31",
"!$	c #B28280",
"~$	c #825050",
"{$	c #B77A7B",
"]$	c #7E706F",
"^$	c #5D4647",
"/$	c #9B3637",
"($	c #B77878",
"_$	c #897C7C",
":$	c #362D2C",
"<$	c #9D4748",
"[$	c #A9070A",
"}$	c #A08484",
"|$	c #8D4E4D",
"1$	c #BEACAC",
"2$	c #320404",
"3$	c #933E3E",
"4$	c #B01719",
"5$	c #BFADAC",
"6$	c #7B4242",
"7$	c #AA1214",
"8$	c #AE4546",
"9$	c #996F6E",
"0$	c #A8191A",
"a$	c #B88B8B",
"b$	c #685758",
"c$	c #7A3435",
"d$	c #AC0E10",
"e$	c #C2A5A4",
"f$	c #584C4C",
"g$	c #633E3E",
"h$	c #943031",
"i$	c #A56060",
"j$	c #A03C3C",
"k$	c #AE2B2C",
"l$	c #B8A9A9",
"m$	c #330807",
"n$	c #9E2A2C",
"o$	c #B57B7B",
"p$	c #8C8281",
"q$	c #853232",
"r$	c #A12526",
"s$	c #AF090D",
"t$	c #BA9B9B",
"u$	c #393132",
"v$	c #8E4B4B",
"w$	c #B00B0E",
"x$	c #AE2525",
"y$	c #BBA8A7",
"z$	c #743433",
"A$	c #A42E30",
"B$	c #AC5E5E",
"C$	c #B06161",
"D$	c #938081",
"E$	c #8A3636",
"F$	c #B99999",
"G$	c #5F3839",
"H$	c #A03334",
"I$	c #A23A3A",
"J$	c #B19E9E",
"K$	c #8E3B3B",
"L$	c #AC1013",
"M$	c #B16D6E",
"N$	c #958485",
"O$	c #9D5354",
"P$	c #B01618",
"Q$	c #9D0709",
"R$	c #B07374",
"S$	c #9A595A",
"T$	c #A71719",
"U$	c #AE292A",
"V$	c #B3898A",
"W$	c #A46669",
"X$	c #B98B8B",
"Y$	c #A63637",
"Z$	c #C5A5A6",
"`$	c #AB4C4D",
" %	c #B37979",
".%	c #A44344",
"+%	c #AC5859",
"@%	c #AA5F61",
"#%	c #AF1A1C",
"$%	c #AC6869",
"%%	c #AA1618",
"&%	c #A84547",
"*%	c #983E3E",
"=%	c #A2070A",
"                                                                                                                                ",
"                                                                                                                                ",
"                                                                                                                                ",
"                                                                                                                                ",
"                                                                                              .                                 ",
"                                                                        +                   @ #                                 ",
"                                                                      + $                 % & *                                 ",
"                                            = -                     + ; >     ,           ' )                                   ",
"                                              !                     ~ {                 ] ^ /                                   ",
"                                              ( _     +           : < _               [ } |                                     ",
"                                                1     2         3 4 5               % 6 7 8                                     ",
"                                                9             0 a b c               d e f                   +                   ",
"                                                =           g h i j               k l m n                   o                   ",
"                                                            p q r >     +       s t u v w                 x y                   ",
"                                        z                 A B C D     = +     E F G H I         J       K L                     ",
"                                        M               N O P Q R         z R S T U V +       W +     X Y Z                     ",
"                                          W           `  ...+.@.          + #.$.%.&.*.=.            -.;.>.                      ",
"                                          +           ,.'.%.).!.        + + ~.{.].^.+ +           /.(._.:.                      ",
"                                                    + <.[.}.|.=         + 1.6 2.3.4.            + 5.6.7.                        ",
"                                                    8.9.0.a.              b.c.d.e.=.          + f.g.h.[                         ",
"                          i.                      j.k.l.].m.            n.o.].p.q.            r.s.t.u.                          ",
"                          W i.                  + v.].w.x.y.    ,   + z.A.B.C.D.              E.0.F.#.                          ",
"                            + G.            + + H.I.%.J.K.+         L.M.B.B.N.O.            P.Q.R.S.                            ",
"                                1.            , T.U.V.W.X.=         Y.].%.Z.`. +          + .+++@+#+                            ",
"                                          +   $+%+&+*+            % =+%.-+;+>+          + ,+'+)+!+          _ ~+{+z             ",
"                                            ]+^+/+(+_+            :+<+B.[+>         +   }+|+].1+2+        =._ +                 ",
"                                          3+4+5+6+7+            8+9+B.0+a+        +   _ b+c+d+e+                                ",
"                                f+1.      g+h+C.i+j+          k+l+m+n+o+p+        =.q+r+s+t+u+                                  ",
"                                        = v+C.B.w++         x+y+C.n+z+A+B+        C+D+E+B.F+G+                                  ",
"                      H+9               I+J+B.B.K+          L+M+n+N+O+P+          Q+R+B.B.S+T+    + U+V+W+                      ",
"                                        X+Y+Z+`+ @          .@+@@@#@*           + $@%@B.&@*@+                                   ",
"                                      =@-@;@>@,@        '@}+)@!@C.~@            {@]@%.^@/@                                      ",
"                                      (@]._@:@=         <@[@%.n+}@|@        + 1@2@3@4@5@                                        ",
"                                    6@7@8@9@+   1.      0@a@%.%.b@c@        d@e@B.f@g@            z                             ",
"                              +   h@i@j@k@+           l@m@0.n@o@p@+         q@r@B.s@t@                                          ",
"                              + u@v@w@x@1.          y@z@n+A@B@_           /.C@D@B.E@1.                                          ",
"              _ F@~+9 +       + G@H@I@J@          K@L@%.%.M@=.+         N@O@P@%.Q@R@          = W 1 f+=.                        ",
"              _ =.          = U+S@T@U@V@          W@X@%.Y@Z@+ +       `@ #.#].+#@#                  + ##$#=.                    ",
"                              %#&#C.*#          c =#-#;#>#,#          '#)#B.!#~#                                                ",
"                            {#I.B.]#^#          /#(#%._#:#    +     >+<#%.[#}#            + |#                                  ",
"                            1.1#2#3#_       = = L a@4#5#            6#7#8#9#                                                    ",
"                            0#a#b#c#      + =.d#e#%.f#g#          h#(.a@i#q++                                                   ",
"                          H.j#k#l#        + + ' m#n#o#            p#q#C.r#s#_       + +                                         ",
"                =.W       t#u#v#%           w#x#y#z#A#          B#C#].D#E#  +         =.W                                       ",
"              F#G#      H#I#J#f+1.        K#L#M#N#W           O#P#Q#R#S#=.              =.T#                                    ",
"              +         U#V#W#= +       X#Y#Z#`#1.+          $.$+$@$#$                    _ $$                                  ",
"                      %$&$*$= +       = =$8#-$;$+ =.      + >$,$'$)$                                                            ",
"                      !$~$G+          {$]$^$/$            ($_$:$<$            = [$                                              ",
"                    = }$|$          H.1$2$3$    W       4$5$C.6$7$              +                                               ",
"                    8$9$0$          a$b$c$d$          + e$f$g$h$=       +                                                       ",
"                    i$j$          k$l$m$n$            o$p$q$r$          = =                                                     ",
"                  + D s$          t$u$v$w$          x$y$z$A$              F#                                                    ",
"                  q+B$          C$D$E$w       z   + F$G$H$                ##_                                                   ",
"                  I$_         = J$K$L$        =.  M$N$O$P$      =                                                               ",
"                  Q$          R$S$T$            U$V$W$+         X.                                                              ",
"                  =         N@X$Y$            + Z$`$+           G#                                                              ",
"                             %.%              +%@%              f+=.                                                            ",
"                          #%$%              %%&%                [$f+                                                            ",
"                          *%+             = =%                  _ Q$                                                            ",
"                        W _                                                                                                     ",
"                                                                                                                                ",
"                                                                                                                                ",
"                                                                                                                                ",
"                                                                                                                                "};
