/* XPM */
static char * serpensortia_icn_xpm[] = {
"64 64 255 2",
"  	c #B50003",
". 	c #B5000B",
"+ 	c #B6000C",
"@ 	c #B20F0B",
"# 	c #B20F12",
"$ 	c #B41213",
"% 	c #B51414",
"& 	c #B5151B",
"* 	c #B61615",
"= 	c #B21F1A",
"- 	c #B4211B",
"; 	c #B5221C",
"> 	c #B52222",
", 	c #B6241D",
"' 	c #B62423",
") 	c #B72524",
"! 	c #B72529",
"~ 	c #B32A1C",
"{ 	c #B22A22",
"] 	c #B42C23",
"^ 	c #B52D24",
"/ 	c #B42D2A",
"( 	c #B62E25",
"_ 	c #B62E2B",
": 	c #B72F2B",
"< 	c #B62F31",
"[ 	c #B33425",
"} 	c #B3342B",
"| 	c #B5362C",
"1 	c #B43631",
"2 	c #B6372D",
"3 	c #B53732",
"4 	c #B73833",
"5 	c #B33C2D",
"6 	c #B33C33",
"7 	c #B93A3A",
"8 	c #B43D34",
"9 	c #B53F34",
"0 	c #B63F3B",
"a 	c #B74035",
"b 	c #B3432F",
"c 	c #B7413C",
"d 	c #B8423D",
"e 	c #B44436",
"f 	c #B3443B",
"g 	c #B54637",
"h 	c #B5463C",
"i 	c #B74738",
"j 	c #B6473D",
"k 	c #B7483E",
"l 	c #B84945",
"m 	c #B54C3E",
"n 	c #B64D40",
"o 	c #B64E46",
"p 	c #B84F41",
"q 	c #B84F47",
"r 	c #B45241",
"s 	c #B95148",
"t 	c #B9524E",
"u 	c #B65442",
"v 	c #B55447",
"w 	c #B75543",
"x 	c #B65548",
"y 	c #B75649",
"z 	c #B9574A",
"A 	c #B8574F",
"B 	c #B4594A",
"C 	c #BB594C",
"D 	c #B75B45",
"E 	c #B65B4B",
"F 	c #BB5952",
"G 	c #B75C4C",
"H 	c #B65C51",
"I 	c #B85D4D",
"J 	c #B85D52",
"K 	c #B95E53",
"L 	c #BA5F4F",
"M 	c #BA5F54",
"N 	c #B6614E",
"O 	c #B66154",
"P 	c #B76255",
"Q 	c #BC6156",
"R 	c #B8634F",
"S 	c #B86356",
"T 	c #B96457",
"U 	c #BB6658",
"V 	c #B66857",
"W 	c #BB675E",
"X 	c #BD6759",
"Y 	c #B86958",
"Z 	c #BE685A",
"` 	c #B96A59",
" .	c #B86A5F",
"..	c #BD6960",
"+.	c #BA6B5A",
"@.	c #BA6C61",
"#.	c #B76E5B",
"$.	c #BF6B62",
"%.	c #BC6D5C",
"&.	c #BB6D62",
"*.	c #BC6E63",
"=.	c #B8705C",
"-.	c #B87062",
";.	c #B9715D",
">.	c #BE6F64",
",.	c #BB725E",
"'.	c #BA7263",
").	c #BB7364",
"!.	c #C0726C",
"~.	c #BC7465",
"{.	c #B8765F",
"].	c #C27367",
"^.	c #BD7567",
"/.	c #B87766",
"(.	c #BD766D",
"_.	c #BB7862",
":.	c #BA7867",
"<.	c #BF7768",
"[.	c #BB7968",
"}.	c #C0786F",
"|.	c #BC7A69",
"1.	c #C1796A",
"2.	c #BD7B6A",
"3.	c #B97D69",
"4.	c #BD7C70",
"5.	c #BA7E6B",
"6.	c #BF7D6B",
"7.	c #BB7F6C",
"8.	c #BA7F71",
"9.	c #C17E6D",
"0.	c #C07F73",
"a.	c #BD816D",
"b.	c #BC8173",
"c.	c #C2806E",
"d.	c #C1807A",
"e.	c #C38175",
"f.	c #BF836F",
"g.	c #BE8375",
"h.	c #BA856E",
"i.	c #C08476",
"j.	c #BC8670",
"k.	c #BB8675",
"l.	c #C28571",
"m.	c #C28678",
"n.	c #BE8872",
"o.	c #BD8877",
"p.	c #C38879",
"q.	c #C2887F",
"r.	c #BF8A79",
"s.	c #C4897A",
"t.	c #BB8D7A",
"u.	c #BD8D75",
"v.	c #C68A7B",
"w.	c #C18C7B",
"x.	c #C08C81",
"y.	c #C28D7C",
"z.	c #BE8F7C",
"A.	c #C28E83",
"B.	c #C48F7E",
"C.	c #C6907F",
"D.	c #C0927E",
"E.	c #C29279",
"F.	c #C29380",
"G.	c #BD9580",
"H.	c #C69287",
"I.	c #C29587",
"J.	c #C49581",
"K.	c #BF9782",
"L.	c #C59683",
"M.	c #C69784",
"N.	c #C59789",
"O.	c #C19983",
"P.	c #C19A8A",
"Q.	c #C7998B",
"R.	c #C39B85",
"S.	c #C39B8B",
"T.	c #C89A8D",
"U.	c #CA9A87",
"V.	c #C59C87",
"W.	c #C09E86",
"X.	c #BF9E8C",
"Y.	c #C99B8E",
"Z.	c #C49D8D",
"`.	c #C69D88",
" +	c #C19F87",
".+	c #CB9C8F",
"++	c #C69E8E",
"@+	c #C89F89",
"#+	c #C79F8F",
"$+	c #C3A189",
"%+	c #C2A18F",
"&+	c #C8A090",
"*+	c #C3A290",
"=+	c #C4A391",
"-+	c #C6A38C",
";+	c #CBA28C",
">+	c #CAA292",
",+	c #C5A592",
"'+	c #C7A58D",
")+	c #C2A78D",
"!+	c #CCA494",
"~+	c #C6A693",
"{+	c #C2A894",
"]+	c #C8A794",
"^+	c #CCA69B",
"/+	c #C9A895",
"(+	c #C4AA95",
"_+	c #CFA797",
":+	c #CBA991",
"<+	c #CAA996",
"[+	c #C5AB97",
"}+	c #C7AB91",
"|+	c #CBAA98",
"1+	c #CCAB99",
"2+	c #C7AD99",
"3+	c #C2AF98",
"4+	c #CDAC9A",
"5+	c #C5B094",
"6+	c #CCADA0",
"7+	c #CFAD9B",
"8+	c #C9AF9A",
"9+	c #C4B19A",
"0+	c #CEAEA2",
"a+	c #C6B29C",
"b+	c #CBB19C",
"c+	c #C7B49D",
"d+	c #CFB4A0",
"e+	c #C9B69F",
"f+	c #CEB5A6",
"g+	c #CBB7A1",
"h+	c #CCB8A2",
"i+	c #C6BAA1",
"j+	c #D1B7A2",
"k+	c #CDB9A3",
"l+	c #CCBAAA",
"m+	c #C8BCA3",
"n+	c #D0BCA6",
"o+	c #CABEA5",
"p+	c #CCBFA7",
"q+	c #D5BCAD",
"r+	c #D0BEAD",
"s+	c #CDC1A8",
"t+	c #CDC2AF",
"u+	c #D0C3AB",
"v+	c #CBC5AA",
"w+	c #D6C2AB",
"x+	c #D0C5B2",
"y+	c #D6C4B3",
"z+	c #D3C6AD",
"A+	c #CDC9B4",
"B+	c #D3C8B5",
"C+	c #CFCAAF",
"D+	c #D6CBB8",
"E+	c #D1CDB8",
"F+	c #D3CFBA",
"+ + + + + + + + + + + + + + + + + + + + + + + + + + + + + + + + + + + + + + + + + + @ 5 + + + + + + + + + + + + + + + + @ # + + ",
"+ + + + + + + + + + + + + + { + + + + # + + + + + + # + + + + + + + + + + + + + + + + @ + + + + + + + + + + + + + + + + + @ + + ",
"+ + + + + + + + + + + + + + = + + + + + + + = + + / M.&+!+.+#+&+++C.>./   = + + + + + + @ + + + + + + + + + + + + + + + + + + + ",
"+ + + + + + + + + + + + + @ + + + + + + + + l A.1+N.|.x %.P Y ` N +.).N.#+!+!+#+`.V.m.9 :.+ + + + + 3 + + + + + + 3 + + + + + + ",
"+ + + + + + + + + + + + + + + + + + + + + 0.=+6.V #.V E y V :.J V E z.:.k.F.*+O.o.|+I.N.[+z + + + + * @ + + + + + @ + + + + + + ",
"+ + + + + + + + + + + + + + + + + + + { ]+v.N +.P G O k I O #.v 2 B #./.3.z.5.2.=+~+k.O.F.j+m.+ + + + + + + + + + + 4 + { + + @ ",
"+ + + + + + + = + + + + + + + + + + l 8+P P #.P U I n m / j e | / #.j.P B { = 9 v Y o.F.*+A.J.>+) + + + + + + / = + c + ' + + @ ",
"+ + + + + + + + + + + _.+ + + + + c f+P P p j O f } } } ; % @ = } o.t.W.t.z.P # o a.O o.5.j.-+1+f+@.+ } + + + ' # 8 + + + + + + ",
"+ + + + + + + + + + + 9 + + + + % 4+P g.P y 9 [ @ + # + = ' + # 8 3.#.[+g+m+G.} X j+f+} 5 i k.|+y.y.z 8 + + + + + + + + + + + + ",
"+ + + + + + + + + + + + + + + + L.U y -.-.x { @ @ / n O P n K v ^ j P :.k.*+{+P m A 1 ^ ( / m R a.k L.7 + + + + + + + + + + % @ ",
"+ + + + + + + + + + + + + + P o ~+O n v O / # f P B B O [.G.~.e 2 r G [.+ + x h.8.N m E E m u 8 9 n N.W + + + + ; % + + + + + + ",
"+ + + + + + + + + + = + + + ;.6+H.k 9 m = % 8 O 5.I.r.t.b.S.a.M } P :.X.H M @ 3 # 9 j n I +.).w.y 1+M + + + + + % % + + + + G + ",
"+ # + + + + + + + + + + + + ) /+Y O f ; @ p v 5.=+a+w.[.[.o P 4.0.` 5.5.5.% = { + + + ^.z+`.n+J.a.J.+ + + + + + + + + + + + + + ",
"+ # + + + + + + + + + + + + b.^.j @.B @ / G +.z.I.[+a+P.+. +N.}.d.f+y R j.P 6 + ' # / >+f.`.4+F.a.'.+ + + + + + + + + + + + + + ",
"+ + + + + + + + + + + + + + ++c x P 9 @ 8 8.{+a+z.a.A.H.F.+ ! + + J 1+I V -+h + + c h L.:+:+k M.0.+ + + + + + + + + + + + + + + ",
"/ + + + + + + + + + + + + + !+{ 8 | % 8 G :.&+V.V.~+m.#++ + / + + + / ]+|.a.3.@ % % 8 `.L # + + + + + + + + + + + + w k + + + + ",
"+ + + + + + + + + + + + + + /+h j / @ 6 b. +=+2+|+S.P.{ + + + + + + + # /+).z.| 8 } = N.;+# + + + + + + % + + + + + = % + + + + ",
"+ + + + + + + + + + + + + + >+/ = { @ o 4.W.2+p+F+I.>++ + / + + + + + + & /+P 2.| 4 / 4 ` '+J.M % 3 ' + + + * } + + + + + + + + ",
"+ + + + + + + + + + + + + + O.= j 3 @ x N a.~+>+J.0.6++ # } + + + + + + + c '+N g i 8 # >.P @.|+E.8 + + + + + + + + + + + + + + ",
"+ + + + + + + + + + + + + + O.= ' / { y -.g+x+m+)+|.6++ J + + + + + + + + + i.9.|.& k # w.w+&+@.M |+M + + + + + + + + + + + + + ",
"+ + + + + + + + + + + % o + @+; } ^ + 4 8.[+8+++z.b.0++ + + + + + + + + + + + 8+%.+.Y 8 ~.z.@ r.L.s a+| + + + + + + + + + + + + ",
"+ + + + + + + + + + + + + + _+j ; & @ E a.%+%+s+h+[+J.1 + + + + + + + + + + + : '+z.r.G.$+2 + + Q.>.n u.+ + + + + + + + + + + + ",
"+ + + + + + + + + + % ' + + <.v.% % @ k P G.a+i+E+|+@.w.+ + + + + + + + + + + + = %.g.X # + + + [.$+o '++ + + + + = + + + + + + ",
"+ + + + + + + + + + + + + 8 } `.@ | % + H [.#+/+S./+(+#+!.+ + + + + + + / + + + + + + + + + + + 9 i.F.]+o + + + + + + + + + + + ",
"+ + + + + + + + + + + + + + + y.o # # + f n. +a+g+i+t+x.|+J + O 8 + + + + + + + + + + + + + + + + |+m.y+% / / + + V + + + + + + ",
"+ + + + + + + + + + + + + + + 4 |+@ = + ' [.n.W.c+b+&+g+8+++^.} % + + + + + + + + + + + + + 4 | + B.+ M = + + + + + + + + + + + ",
"+ + + + + + + + + + + + + + + + &+U + + # / U o.z.b+t+m+s+g+]+0+3 + + + + + + + + + + + + + + + + + + + + + + + + k + + + + + + ",
"+ + + + + + + + + + + + + + + + f =+/ + # + 6 :.z.)+2+n+++=+P.S.|+y./ + + + + + + + + + + #.+ + + + + + + + + + + / 9 + + + + + ",
"+ + + + + + + + + + + + + + + + + l b+% @ + @ O 5.n.O.J.h+o+s+3+[+>.~+++I + + + + + + + + + # c + + + + + + + + + 9 j + + + + + ",
"+ + + + + + + + + + + + + + + + + + W ~++ + + # 6 K ).u.a+3+h+|+V.2+8+z.S.=+I.l + + + + + + + + + = = + + + + + + + + + + + + + ",
"+ + + + + + + + + + + + + + + + + ' ' W #+= @ # = # H 3.n.O.z.2+m+a+p+*+N.b.x.%+]+L.# + + + + + + = = + + + + + + + + + + + + + ",
"+ + + + + + + + @ + + 6 + + + + + + + + A b+z @ + + # K ^.O 5.o.O.8+N.g+s+g+s+g+W ~.~+y.@ + + + + + + R + + + + + + + + + + + + ",
"+ + + + + + + + + + + 9 + + + ,.+ + + + + < ~+i.% @ + # % 6 [.5.:.[.a+g+g+|+S.(+m+o+2+++b+U + + + + + + + + + + + / + + + + { + ",
"+ + + @ + + + + + + + + + + + B + + + + + + ' U %+U % @ # + # k y 3.3.=+O.a+x+c+i+m+|+6+W r.F.= + + + + + + + + + + + + + + + + ",
"+ + + + + + + + + + ; + + + + + + + + + + 8 + + & F.0+y + + # = @ 8 z v j.G.W.~+++[+F+x+3+5+F.f+c + + + + + + + + + 8 + + + + = ",
"+ + + + + + + + + + + + 2 ^ + + + + + + + + + + + + / z.$+M = @ + # # { G ;.5.z.m+g+a+m+m+n+r+A.|+' + + + + k { + + @ + + + + + ",
"+ + + + + + + + + + + + + + + + + + + { + + + + + + + + ' N.8+U + @ + # @ # B j.u.=+z.N.|+r+s+$+[.%++ + + + + + + + + + + + + + ",
"+ 9 + + + + + + + + + + + + + + + + + + + A + + + + + + y $+l.g+d+].@ + @ @ 2 R ).a.2+i+p+p+u+a+m+++N.+ + + + + + + I + + + + + ",
"+ # + # + + + + + + + + + + + + + + + + + / 0.V.&+!+#+!+_+++N.%.g 4+|+{ + + + @ y n. +2+5+g+{+=+=+x./+n + + + ; n + + + + + + @ ",
"1 + + + + + + + + + + + + + + + + + & B.7+*+).n v #.:.+.w G ;.#+7+8+&+d+9 # + + ' [.n.z.F.z.}+A+F+C+F.z.+ + + + + + + + + + + + ",
"= + + + + + + + + / ^ + + + + + + ^.]+2.` :.P E P Y ;.#.H n ` [.#.z i.:+D+| @ @ + / z o.a+i+c+i+s+p+*+V.+ + + + + + + + + + + + ",
"+ # + + + + + + + -+M.|+n + + # ++B.u E N ~.:.J y x x P +.x J x B P m r k F @ @ + @ B #.$+i+o+i+c+=+|+++c + ) } + + + + + + + + ",
"{ + % @ + + + + + M V.k /+7 | V.` :.a.E V P Y Y z 8 2 5 9 m j v ^ / 9 ; { + # @ @ # 9 8.r.O.&+&+z.)+v+1+2++ + + + + + + + + + + ",
"+ + + + + + + + + + K +.%.Q.Q.~.p  .o.-.n g 8 8 ' # % + = @ = # # { = ; # + # = + @ j N _.)+x+E+A+g+5+#+N.+ + + + + + + + + + + ",
"+ + + + + + + + + ' | w.u /+|+r x G ` y n { # @ + @ + # # @ @ + + + @ + + + % ^ + + | -.3.}+m+v+v+u+ +~.y.+ + + + + + + + + + + ",
"+ + + + + + + + + + m.~.N z+1 z `  .y G } + @ + = 6 8 y 8 } 2 v 1 @ + + + + ^ 2 @ + # P F.N.S.P.]+++a+V.g.+ + + + + + + + + + + ",
"+ + + + + + + + + + &+z :.h+; v #.j.x 8 | @ + # { E y >.n o 2 P @.O % @ + ^ P 9 @ + | ,.=+h+o+p+u+s+g+L.@.x + + + + + + % / + + ",
"+ + + + + + + + + U 2.z 4+Q.= 9 j p +.y / + + 9 m  .4.i.P ).'. .N ` g ; @ / I 2 @ + 1 a.W.}+s+u+C+ +r.++1 c + + + + + + + + + + ",
"+ + + + + + + + + @+9 w u+e.= ; r V [.Y 9 % % W b+++V.!+|+!+7+&+W B ( } h j m | + + #.a.o.S.~+|+++$+:.@++ + + + + + + + + + + + ",
"+ + + + + + + + + @+g B s+>.@ # 2 Y F.V m 9 % q+g.% @ # % = ^ F.B+t / P ).I ^ + @ + P n.a+o+s+a+}+G.v #+M + + + + + + + + + # + ",
"+ + + + + + + + ' E.E +. +a.# % r P p R m z y k #+=+++S.++6+^+0.9 P r R P z ; + + 9 :.F.p+B+g+W.5.y # 2 `.+ + + + + + + + @ ; + ",
"+ + + + + + + + 4 M.2 y l.`.+ @ * } m j P ` V u x y ` O O o G :.z P o k j 2 + + & O 2+(+++L.O.5.E ' + { ,.^.+ + + + + + ; + + + ",
"+ + + + + + + + @ '+= e z m.# + # + 5 8 ` n I x :.V 3.P y ` n ,.-.#.P h ; = @ + 9 *+g+x+a+W.n.` o + + # 9 V.+ + + + + + + + D b ",
"+ + + + + + + + + `.' ; E _.^ ' + # = 9 r 9 e E #.2. .H P h m N %.v e { @ @ + O h.F.&+a+ +|.m o + + * # o F.+ + + + + + + + + + ",
"+ + + + = + + + + |.f.@ ( u [ % & + + # = } e y m y n B H P x 9 5 8 # = + # m z.{+ +V.:.P v 3 + + + # 9 5.z.+ + + + + + + + + + ",
"+ + 9 + ' = + + + + 8+s @ = ; @ H 3 + # + % ' 6 2 = ' = 8 1 e * @ @ + @ { w 3.o.|+*+V y N s + + + + 9 z.^.+++ + + + + + + + + + ",
"+ + 4 + + + + + + + j b+h ; + + # P / + + + @ + @ = + + = @ % + + + 6 K }.k.k.z.k.'.z j % + + + % / x 5.++s + + + + + + + + + + ",
"+ + + + + + + + + + P c `.+.j { # + ' m / @ + + + + + @ + + + = k m P {.++y.#.P R y y # = # | p E z P y.m./ k + + + + + + + = + ",
"+ + + + + + + + + + + + + ^.|+L.x 3 ^ } m P m ; 6 ^ = 1 % 2 K ;.#.i.o.3.h.a.@.s 3 { | ~ j | x P >.g.O.%.+ + + + + + + + + + + + ",
"+ + + + + + + + + + + + + + + F F.V.E.E.&+4+|.x P ;.;.O R 9 O r.a.h.k.M 9 w.e.d # A E y ~.E @.V.>+N./ + + + + + 5 + + + + + + + ",
"+ @ + + + + + + + + # @ + + + + + + + + + + P /+w+V.J.`.B.a.|.y.Q.!+&+!+&+(.>.H.V.F..+U.Q.!+C.s + + + + + + + + + + + + + + + + ",
"+ + + + + + + + + + + + + + + + + + + + + + + @ s + 9 F >.F.f.+.W 7 + + + + + + + + W + + + + + + + + + + + + + + + + + + + + + ",
"+ + + + + + + + + + # % + + + + + + + + + + + + @ + + + + + + + + o + + + + + + + + @ + + + + + + + + + + + + + + + + + + + + + ",
"+ + + + + + + + + + # % + + + + + + + + + + + + V p + + + + + + + + + + + + + + + + + + + + + + + + + + + + + + + + + + + + + + "};
