/* XPM */
static char * stupefix_icn_xpm[] = {
"64 64 183 2",
"  	c #000100",
". 	c #050000",
"+ 	c #000200",
"@ 	c #070000",
"# 	c #080100",
"$ 	c #0F0000",
"% 	c #100101",
"& 	c #110203",
"* 	c #170104",
"= 	c #1D0100",
"- 	c #210101",
"; 	c #210202",
"> 	c #290000",
", 	c #260100",
"' 	c #250104",
") 	c #290100",
"! 	c #260200",
"~ 	c #2A0201",
"{ 	c #2D0102",
"] 	c #310005",
"^ 	c #260407",
"/ 	c #2E0204",
"( 	c #330101",
"_ 	c #320107",
": 	c #370002",
"< 	c #3A0000",
"[ 	c #340202",
"} 	c #2F0407",
"| 	c #3B0100",
"1 	c #350304",
"2 	c #430000",
"3 	c #360405",
"4 	c #370406",
"5 	c #3D0303",
"6 	c #440102",
"7 	c #380500",
"8 	c #3E0305",
"9 	c #3F0400",
"0 	c #450203",
"a 	c #4C0001",
"b 	c #3F0406",
"c 	c #390609",
"d 	c #470300",
"e 	c #460304",
"f 	c #4D0103",
"g 	c #400508",
"h 	c #4D010A",
"i 	c #410601",
"j 	c #470406",
"k 	c #4E0204",
"l 	c #500200",
"m 	c #560002",
"n 	c #410609",
"o 	c #570003",
"p 	c #420703",
"q 	c #490501",
"r 	c #480507",
"s 	c #4F0305",
"t 	c #580105",
"u 	c #4A0602",
"v 	c #510400",
"w 	c #5E0001",
"x 	c #490609",
"y 	c #500407",
"z 	c #600004",
"A 	c #520500",
"B 	c #4B0704",
"C 	c #510508",
"D 	c #590306",
"E 	c #610105",
"F 	c #530602",
"G 	c #5A0400",
"H 	c #520609",
"I 	c #5A0407",
"J 	c #620207",
"K 	c #6A0005",
"L 	c #540703",
"M 	c #5B0501",
"N 	c #53070B",
"O 	c #5B0509",
"P 	c #62030E",
"Q 	c #6B0106",
"R 	c #5C0602",
"S 	c #640400",
"T 	c #5C060A",
"U 	c #630408",
"V 	c #6C0207",
"W 	c #5D0704",
"X 	c #740005",
"Y 	c #650501",
"Z 	c #640509",
"` 	c #750006",
" .	c #6D0300",
"..	c #6D0308",
"+.	c #660603",
"@.	c #760107",
"#.	c #5E0905",
"$.	c #7E0005",
"%.	c #66070B",
"&.	c #6F0502",
"*.	c #7F0006",
"=.	c #6E050A",
"-.	c #770301",
";.	c #670804",
">.	c #770308",
",.	c #67080C",
"'.	c #700603",
").	c #800107",
"!.	c #680905",
"~.	c #6F070B",
"{.	c #790502",
"].	c #890006",
"^.	c #78050A",
"/.	c #680A0D",
"(.	c #710804",
"_.	c #8A0007",
":.	c #810308",
"<.	c #70080C",
"[.	c #8A000E",
"}.	c #7A0603",
"|.	c #830401",
"1.	c #820409",
"2.	c #79070B",
"3.	c #720A05",
"4.	c #8C0208",
"5.	c #940005",
"6.	c #7B0804",
"7.	c #950006",
"8.	c #7B080C",
"9.	c #840603",
"0.	c #95000E",
"a.	c #84060A",
"b.	c #960107",
"c.	c #730C06",
"d.	c #8D0409",
"e.	c #96010E",
"f.	c #7C0A05",
"g.	c #7C0A0D",
"h.	c #850804",
"i.	c #9F0005",
"j.	c #9E000C",
"k.	c #A00006",
"l.	c #8E0602",
"m.	c #85080C",
"n.	c #9F000D",
"o.	c #970308",
"p.	c #A0000E",
"q.	c #8E060A",
"r.	c #97030F",
"s.	c #860A05",
"t.	c #8F0803",
"u.	c #A20207",
"v.	c #8F080B",
"w.	c #A2020F",
"x.	c #860B0C",
"y.	c #AA000C",
"z.	c #980609",
"A.	c #AB000D",
"B.	c #AC0106",
"C.	c #900A04",
"D.	c #AC010E",
"E.	c #A30508",
"F.	c #99080A",
"G.	c #900B0C",
"H.	c #990811",
"I.	c #B5000B",
"J.	c #B6000C",
"K.	c #AE0407",
"L.	c #A40709",
"M.	c #920D05",
"N.	c #AD040F",
"O.	c #910D0D",
"P.	c #9B0B0B",
"Q.	c #A40810",
"R.	c #AF0708",
"S.	c #A50A0A",
"T.	c #9C0D0C",
"U.	c #AF0710",
"V.	c #B00A09",
"W.	c #A70D0B",
"X.	c #B00A10",
"Y.	c #A80F0C",
"Z.	c #B10D0A",
"J.J.J.J.J.J.J.J.J.J.J.J.J.J.J.J.J.J.J.J.J.J.V.J.J.J.J.J.J.J.S.J.W.J.J.J.J.J.J.J.J.J.N.J.J.J.J.J.J.J.J.J.J.J.J.J.J.J.J.J.J.J.J.J.",
"J.J.J.J.J.J.J.J.J.J.J.J.J.J.J.J.J.J.J.J.J.J.B.R.J.J.J.J.J.J.F.J.P.J.J.J.J.J.J.J.J.A.J.J.J.J.J.J.J.J.J.J.J.J.J.J.J.J.J.J.J.J.J.J.",
"J.J.J.J.J.J.J.J.J.J.J.J.J.J.J.J.J.J.J.J.J.J.J.E.J.J.J.J.J.J.z.A.b.J.J.J.J.J.J.J.J.u.J.J.J.J.J.J.J.J.J.J.J.J.J.J.J.J.J.J.J.J.J.J.",
"J.J.J.J.J.J.J.J.J.J.J.J.J.J.J.J.J.J.J.J.J.J.J.T.J.J.J.J.J.J.z.u.b.J.J.J.J.J.J.J.J.F.J.J.J.J.J.J.J.J.J.J.J.J.J.J.J.J.J.J.J.J.J.J.",
"J.J.J.J.J.J.J.J.J.J.J.J.J.J.Z.V.J.V.J.J.J.J.J.p.B.J.F.J.J.J.F.t.b.J.J.J.J.J.J.J.E.A.J.J.J.J.J.J.J.R.V.J.J.J.J.J.J.J.J.J.J.J.J.J.",
"J.J.J.J.J.J.J.J.J.J.J.J.J.J.J.S.J.R.W.J.J.J.J.J.z.J.d.J.J.J.P.1.b.J.J.J.J.J.J.J.0.J.J.J.J.J.J.J.J.E.J.Z.J.J.J.J.J.J.J.J.J.J.J.J.",
"J.J.J.J.J.J.J.J.J.J.J.J.J.A.J.R.E.J.b.J.J.J.J.J.b.J.J.J.J.J.n.X b.J.J.J.J.J.J.J.o.J.J.J.J.J.J.J.T.V.R.B.J.J.J.J.J.J.J.J.J.J.J.J.",
"J.J.J.J.J.J.J.J.J.J.J.J.J.J.p.J.n.B.A.d.J.J.J.J.P.R.W.D.J.J.p.G b.J.J.J.J.V.Z.D.i.J.J.J.J.J.J.B.F.J.p.J.J.J.J.J.J.J.J.J.J.J.J.J.",
"J.J.J.J.J.J.J.J.J.J.J.J.J.J.B.n.J.G.J.@.B.J.J.J.V.z.u.W.J.J.E.b b.J.J.J.J.F.J.z.J.J.J.J.J.J.J.q.J.b.J.J.J.J.J.J.J.J.J.J.J.J.J.J.",
"J.J.J.J.J.J.J.J.J.J.J.J.J.J.J.k.L.A.n.k.'.J.J.J.J.b.J.J.A.J.E.@ b.J.J.J.J.s.J.b.J.S.A.J.J.J.n.A.p.L.J.J.J.J.J.J.R.Z.J.J.J.J.J.J.",
"J.J.J.J.J.J.J.V.V.J.J.J.J.J.J.J.G.R.o.R.m k.J.J.J.F.V.J.J.J.n.* 1.J.J.P.V.'.V.F.J.J.P.J.J.V.7.B.o.J.J.J.J.J.J.A.D.J.J.J.J.J.J.J.",
"J.J.J.J.J.J.J.J.Y.B.J.J.J.J.J.J.J.v.J.G.t.A J.J.J.R.F.J.D.J.k.s >.J.J.J.o.{.P.P.J.D.J.J.A.b.V.q.J.J.J.J.J.J.u.S.J.J.J.J.J.J.J.J.",
"J.J.J.J.J.J.J.J.J.L.u.J.J.P.J.J.J.B.z.S.n.: q.4.J.J.o.J.B.W.E.V E J.J.J.'._.o.J.J.J.J.z.F.u.o.R.J.J.J.J.J.F.E.J.J.V.J.J.J.J.J.J.",
"J.J.J.J.J.N.V.J.J.J.E.z.J.B.J.J.J.J.u.L.b.}.0 L.J.J.z.N.J.F.E.).g J.J.S.y b.7.J.J.B.A.>.0.S.u.J.J.J.J.J.o.S.J.J.n.A.J.J.J.J.J.J.",
"J.J.J.J.J.J.W.E.J.B.F.A.v.J.J.J.J.J.J.b.B.1.%.'.J.J.B.).J.7.)._.4 J.J.P.!.d.L.J.J.V.m 1.B.7.J.J.J.J.J.7.A.J.B.).A.J.J.J.J.J.J.J.",
"J.J.J.J.J.J.J.R.M.A.V.).v.q.R.J.J.J.J.R.v.p.L 6.u.R.V.x.J.b.| q.R J.J.>.h.u J.F.N.{.u p.m.E.J.J.p.J.v.B.J.7.K R.J.J.J.J.J.J.J.J.",
"J.J.J.J.J.J.J.J.J.F.z.J.1.J ).A.J.J.J.R._.o.1.q.Q J.B.W B.F.F l.{.R.J.(.v.;.A.V.o.H V P.0.W.J.J.J.d.G.B.K Q V.J.J.J.J.J.J.J.J.J.",
"J.J.J.J.J.J.J.J.J.J.N.v.A.o./ k u.J.Z.R.o.W k.@.i.4.V.K n.E.].b.d.z.d.b.J.@.V.d.&.Z n.o.q.J.J.V.q.V.4./ {.J.J.u.J.J.J.J.J.J.J.J.",
"J.J.J.J.J.J.J.J.J.J.J.J.P.o.E.k I C.J.R.A.` 0 ).B.$.S.1.f.S.d.J.i.z.:.V.A.].R...E.:.).r A.J.V.q.L...p 1.B.R.S.R.L.J.J.J.J.J.V.Z.",
"J.J.J.J.J.J.J.J.J.J.J.J.J.B.G.i.%.h.@.S.J.R.;.Q _.R.@.b.o.8.d.J.B.+.).J.P.P.).L.1.).C h.J.R.v.m.@.&.q.J.J.J.J.A.A.J.J.J.L.L.R.J.",
"J.Z.J.J.J.J.J.J.J.J.J.J.J.J.B._.v.(.E.h.:.R.s.v.n.J.P.!.z.).].P.J.8 n.J.d.1.o.J.C _.Z B.W./.J i.6.b.J.J.J.J.D.V.J.R.0.z.R.J.J.J.",
"J.V.W.u.B.J.J.J.J.J.J.J.J.J.A.A.R.G.J u.B.).h.Z J.J.J.^._.A.[.J.J.p.J.J.6.s.J.V.u.7.7.A.A _.V.>.i.J.J.J.J.J.J.S.G.z.J.J.J.J.J.J.",
"J.J.J.J.S.o.7.A.J.J.J.V.L.J.J.W.J.J.}.> i.J.L.Q i.Z.R.d.v.J.R.J.J.J.J.J.u.1.J.q.V.L e 6.B.V.@.L.J.Z.A.J.J.F.7.E.J.J.J.J.J.J.J.J.",
"J.J.J.J.J.J.J.n.b.b.B.J.A.}.d.R.J.V.A.^.f.V.J.J.J.J.T.A.J.J.J.V.o.L.J.J.J.P.B.J.B.A.E.J.R.t ^.J.J.J.D.7.b.B.J.J.J.J.J.R.P.b.Q.Z.",
"J.J.J.J.J.J.J.J.J.J.n.o.z.D.9.[ {.L.Z.J.:.u.J.J.R.J.B.n.J.R.J.'.@ % A.J.J.i.J._.J.A.J.J.F.f.J.L.E.d.(.L.J.J.J.L.v.>.J 6.E.J.J.J.",
"J.J.J.J.J.J.J.J.J.J.J.J.G.F.b.).H $.@.v.D.1.u.p.1.L.D.R.R.J.J.o @ @ n.J.R.V.E.J.J.J.v.n.h.B.7.T C i o.F.1.@.3 = V F.Z.J.J.J.J.J.",
"J.J.J.J.J.J.J.J.J.J.J.J.B.R.A.D.z.'.i.E.1.).U u.J.B.J.J.J.J.J.M @ @ n.J.E.D.J.R.J.J.F.L :._.u.k.s @.1.G.f.~.q.R.J.J.J.J.J.J.J.J.",
"D.S.p.P.F.L.V.J.J.W.J.J.J.J.Z.J.J.S.1.q.B.J.P.:.n.:.q.J.J.J.J.d.+ d V.J.J.J.E.>.F.B.V.J.J.J.J.J.J.u.2.).S.J.J.J.J.J.Z.L.o.F.P.L.",
"J.J.J.J.V.L.F.o.b.F.b.b.n.F.p.V.J.D.P._.6.J.J.J.7.r ..R.V.1. .# @ + a -.E.B.F.r @.B.J.b.J.J.J.V.` / d.V.A.q.z.7.o.z.o.E.V.J.J.J.",
"J.J.J.J.J.J.J.J.J.J.J.J.V.L.0.P G @.}.{.E >.J.B.V.| # >.&.@ @ @ @ @ @ @ [ G.0 @ 7.J.J.B.J.D.q.@.J ).z.o.E.V.J.J.J.J.J.J.J.R.A.A.",
"p.7.4.6.` M v v s g _ g R '.}.s.4.S.J.J.J.J.F.J.J.^.^ o @ + @ @ @ @ @ @ + [ o - V.A.A.h.I W _.7.z.T.b.7.q.0.o.7.b.p.7.t.z.i.E.A.",
"J.J.J.J.J.V.S.D.E.u.7.l.].6.` O >...f.6.].t.P.Z.J.Q b @ # f @ @ + @ @ % 6 @ ! ~ S.J.V.L.P.l.m.(.o ^.D.J.N.J.J.J.J.J.J.J.J.J.J.J.",
"J.J.P.u.B.J.J.J.J.J.J.J.J.B.V.B.J.B.B.P.I %.R.J.J.` ~ e u.k.@ + + + @ V R.{.~ @ R.J.R.V.J.J.J.A.7.;.- g >.F.V.J.B.J.J.J.J.J.J.J.",
"J.J.J.B.V.J.J.J.A.J.J.J.J.E.7.].^.2.9.P.R.J.J.J.J.o.C A.J.J.f @ + @ @ F.J.J.1.#.J.J.V.V.J.B.9.f.:.b.R.J.J.J.J.R.n.J.J.J.J.J.J.J.",
"J.J.J.J.J.J.V.E.b.h.` =.=.).b.A.J.J.J.J.J.J.J.J.J.J.V.J.J.J.G @ @ @ @ E.J.J.J.V.v.B.J.J.A.n.1.O Z o.J.J.A.J.J.J.J.L.J.J.J.J.J.J.",
"J.J.J.J.Y.H.1.).$.}.-.>.` >.g.2.J V =.^.z.J.A.n.D.V.J.R.J.Z.3 @ + @ @ v.J.J.W.V.D.J.J.J.B.Z ).6.=.d.A.o.B.J.J.J.J.J.J.J.J.J.J.J.",
"J.J.J.J.J.J.J.J.J.J.J.J.B.z.o.b.L.V.G.d.J.J.J.J.J.R.D.A.J.k.@ @ @ @ @ ..J.J.A.R.A.L.J.J.J.J.:.7.J.A.F.q.b.S.J.J.J.J.J.J.J.J.J.J.",
"J.J.J.J.J.J.J.J.Z.P.z.z.P.S.V.J.A.(.L.J.J.R.4.d.E.S.J.J.J.h.@ @ @ @ @ 0 J.R.J.v.J.B.V.V.J.J.J.o.:.V.J.W.J.W.z.b.o.S.J.J.J.J.J.J.",
"J.J.J.J.J.E.7.b.z.N.J.J.J.J.J.C.5 t s.P.1.).H _.N.m.J.J.J.k @ @ @ @ @ @ o.J.J.B.J.D.m.~.1.E.V.p.A F L.J.J.J.J.J.J.S.b.7.b.A.J.J.",
"J.V.u.F.b.S.J.J.J.B.:.J.J.D.q.4.3.f.>.4.D.@.A.J.P.d.J.J.E.@ @ @  .8 @ @ U J.J.n.J.J.k.x C ..@.C.A.2.1.J.R.B.A.J.J.J.J.J.J.S.p.L.",
"N.A.J.J.J.J.J.J.J.J.J.R.R.V.S.y D 7.D.p.>.L.L.2.F V.J.J.:.@ @ k J.v.@ @ # B.J.J.J.J.J.S.@.R.J.i.>.6.m.X E.J.J.J.J.J.J.J.J.J.J.J.",
"J.J.J.J.J.J.J.J.J.J.J.W.J.7.+.F.J.J.J.$.F.:._.d.z.J.J.J.E @ @ F.J.V.a @ @ z.J.J.J.V i.J.A.(.n.J.J.B.].V n }.R.B.R.J.J.J.J.J.J.J.",
"J.J.J.J.J.J.J.J.J.J.J.J.p.E.J.V.J.J.6.,.}.S.B.>.J.J.J.J.8 @ k J.J.J.q.@ @ l.J.J.Z.v.6.1.R.L.=.p.J.J.z.J.z.Y | 1.n.J.J.J.J.J.J.J.",
"J.J.J.J.J.J.J.J.J.n.R.R.J.J.S.R.J.).k v.J.J.&.A.1.A.J.A.@ @ C.J.V.J.V.e @ ).J.J.E.).6.A.:.F.Z.>.F.J.J.J.J.J.A.$.Y u.J.J.J.J.J.J.",
"J.J.J.J.J.J.J.J.R.R.S.J.J.J.J.J.).].d.A.B.1.9.1.5 :.J.S + Q J.J.8.J.J.b.@ t J.J.J.J y L.B.z.3.$.@.4.J.J.J.J.J.J.V.C.v.B.J.J.J.J.",
"J.J.J.J.J.J.J.J.<.B.J.J.J.J.R.4.A.J.J.J.z.F m.7.P.P.E.@ + o.J.A.O R.J.u.@ @ R.J.F.b.7.:.J.R.R.@.k D }.J.J.J.J.J.J.J.J.W.R.J.J.J.",
"J.J.J.J.J.J.J.J.J.J.J.J.J.A.7.J.J.J.J.E.%.~.4.V.R.J.d.@ % B.J.q.d.F.J.S.@ @ k.J.@.b.%.P.z.J.E.J.E.7.' U R.J.J.J.J.J.J.J.J.J.J.J.",
"J.J.J.J.J.J.J.J.J.J.J.J.u.F.J.J.J.J.A.m.c 4.J.J.B.J.{.@ h.J.J.1.b.m.D.J.I @ C.J.}.2.2.E.u.u.A.J.J.J.i.u s A.J.J.J.J.J.J.J.J.J.J.",
"J.J.J.J.J.J.J.J.J.J.J.F.u.J.J.n.J.R.q.f 6.A.J.V.o.J.U 2 Z.J.J.m.b.:.q.B.L.@ h.J.W.S.V (.J.o.B.J.J.J.R.A.).z u.J.J.J.J.J.J.J.J.J.",
"J.J.J.J.J.J.J.J.J.J.G.A.J.J.J.J.J.q.1.'.R.B.J.b.V.J.5 9.J.V.x.1.b.(.1.4.J.G @.J.B.L.S.~ A.J.G.V.J.A.A.J.A.d.1.z.J.J.J.J.J.J.J.J.",
"J.J.J.J.J.J.J.J.V.d.R.J.J.J.J.J.v.k.+.S.R.J.Z.b.J.o.@ z.J.o.[ J.b.p.%.c.J.>.[ A.J.7.J.t.@.J.V.G.J.D.T.J.J.R.q.u.z.J.J.J.J.J.J.J.",
"J.J.J.J.J.J.J.B.z.J.J.J.J.J.J.o.A.@.R.S.V.J.o.R.A.| # F.J.6.d.J.b.Z./ 4.J.(.+ 2 u.k.A.J.'.B.J.A.F.J.J.J.J.J.V.v.B.S.J.J.J.J.J.J.",
"J.J.J.J.J.J.R.S.J.J.J.J.J.J.k.u.b.B.J.J.J.J.0.J.v.s v.J.p.).p.A.v.J.G L.J.J.o.V :.J.7.J.R.4.J.J.u.E.L.q.J.J.J.J.p.R.J.J.J.J.J.J.",
"J.J.J.J.J.J.Z.J.J.J.J.J.J.A.F.B.D.J.J.J.J.z.R.J.J.J.J.A.U z.J.J.b.R.@.E.J.D.J.J.J.J.F.R.J.E.R.J.J.o.A.J.J.J.J.J.J.A.V.J.J.J.J.J.",
"J.J.J.J.J.J.J.J.J.J.J.J.V.b.J.J.J.J.J.J.J.7.J.J.J.J.J.u.7 V.N.J.b.D.z.E.J.b.J.J.J.J.J.b.J.J.V.J.J.J.G.V.J.J.J.J.J.J.Z.J.J.J.J.J.",
"J.J.J.J.J.J.J.J.J.J.J.J.F.J.J.J.J.J.J.J.z.R.J.A.J.u.B.7.&.J.A.J.b.J.B.E.J.b.R.R.J.J.J.z.V.J.J.J.J.J.V.b.J.J.J.J.J.J.J.J.J.J.J.J.",
"J.J.J.J.J.J.J.J.J.J.J.L.V.J.J.J.J.J.J.J.O.J.R.p.B.o.J.4.o.J.R.J.b.J.J.R.B.S.E.J.J.J.J.V.o.J.J.J.J.J.J.B.E.J.J.J.J.J.J.J.J.J.J.J.",
"J.J.J.J.J.J.J.J.J.J.V.V.J.J.J.J.J.J.J.z.B.J.R.V.J.o.J.{.B.J.J.J.b.J.J.J.J.u.o.J.J.J.J.J.o.J.J.J.J.J.J.J.D.B.J.J.J.J.J.J.J.J.J.J.",
"J.J.J.J.J.J.J.J.J.J.J.J.J.J.J.J.J.J.J.7.J.J.J.J.A.i.J.f.J.J.J.J.b.J.J.J.J.J.b.J.J.J.J.J.R.z.J.J.J.J.J.J.J.N.J.J.J.J.J.J.J.J.J.J.",
"J.J.J.J.J.J.J.J.J.J.J.J.J.J.J.J.J.J.p.B.J.J.J.J.b.J.J.m.J.J.J.J.b.J.J.J.J.J.o.J.J.J.J.J.J.o.J.J.J.J.J.J.J.J.J.J.J.J.J.J.J.J.J.J.",
"J.J.J.J.J.J.J.J.J.J.J.J.J.J.J.J.J.J.p.J.J.J.J.J.b.J.J.o.J.J.J.J.b.J.J.J.J.J.i.N.J.J.J.J.J.B.E.J.J.J.J.J.J.J.J.J.J.J.J.J.J.J.J.J.",
"J.J.J.J.J.J.J.J.J.J.J.J.J.J.J.J.J.D.R.J.J.J.J.J.F.J.J.b.J.J.J.J.b.J.J.J.J.J.V.F.J.J.J.J.J.J.L.J.J.J.J.J.J.J.J.J.J.J.J.J.J.J.J.J.",
"J.J.J.J.J.J.J.J.J.J.J.J.J.J.J.J.J.N.J.J.J.J.J.E.R.J.A.E.J.J.J.J.b.J.J.J.J.J.J.P.J.J.J.J.J.J.R.R.J.J.J.J.J.J.J.J.J.J.J.J.J.J.J.J.",
"J.J.J.J.J.J.J.J.J.J.J.J.J.J.J.J.J.J.J.J.J.J.J.S.J.J.E.Z.J.J.J.J.P.J.J.J.J.J.J.u.J.J.J.J.J.J.J.Z.J.J.J.J.J.J.J.J.J.J.J.J.J.J.J.J."};
