/* XPM */
static char * ventus_icn_xpm[] = {
"64 64 255 2",
"  	c #040703",
". 	c #570003",
"+ 	c #510508",
"@ 	c #6B0106",
"# 	c #7F0006",
"$ 	c #770301",
"% 	c #890006",
"& 	c #940005",
"* 	c #212320",
"= 	c #96010E",
"- 	c #720C13",
"; 	c #960207",
"> 	c #9C000B",
", 	c #A00006",
"' 	c #7B0B13",
") 	c #A00014",
"! 	c #A9000B",
"~ 	c #860B0C",
"{ 	c #AC0006",
"] 	c #AC000D",
"^ 	c #272826",
"/ 	c #B20009",
"( 	c #A30510",
"_ 	c #B6000C",
": 	c #8C151D",
"< 	c #771C1E",
"[ 	c #7F1B1C",
"} 	c #9A1A1F",
"| 	c #34383A",
"1 	c #8B1F23",
"2 	c #852221",
"3 	c #383937",
"4 	c #962023",
"5 	c #7C2829",
"6 	c #56393A",
"7 	c #753033",
"8 	c #423F43",
"9 	c #9C2728",
"0 	c #8E2B2D",
"a 	c #AB242F",
"b 	c #643A3B",
"c 	c #992C2D",
"d 	c #873337",
"e 	c #A72A2E",
"f 	c #8E3234",
"g 	c #6D4243",
"h 	c #A73235",
"i 	c #9A3636",
"j 	c #893C3B",
"k 	c #A13539",
"l 	c #554B4C",
"m 	c #654749",
"n 	c #4D4F4C",
"o 	c #963A3B",
"p 	c #A43735",
"q 	c #514F52",
"r 	c #67494B",
"s 	c #933E41",
"t 	c #9A3D3D",
"u 	c #79474A",
"v 	c #7F4647",
"w 	c #754A4A",
"x 	c #874644",
"y 	c #535553",
"z 	c #974244",
"A 	c #8D4546",
"B 	c #53575A",
"C 	c #665351",
"D 	c #7F4C4A",
"E 	c #71514E",
"F 	c #874D4E",
"G 	c #775256",
"H 	c #5A5C5A",
"I 	c #A54746",
"J 	c #9B4B49",
"K 	c #755657",
"L 	c #A14A4B",
"M 	c #855255",
"N 	c #A7494D",
"O 	c #5D5F5C",
"P 	c #685D5E",
"Q 	c #8D5358",
"R 	c #5E6264",
"S 	c #666160",
"T 	c #815A58",
"U 	c #86595A",
"V 	c #915656",
"W 	c #73605E",
"X 	c #676468",
"Y 	c #955959",
"Z 	c #7F6061",
"` 	c #865F5D",
" .	c #A15858",
"..	c #676966",
"+.	c #666A6C",
"@.	c #736869",
"#.	c #935F62",
"$.	c #8F6162",
"%.	c #7B696C",
"&.	c #716D6B",
"*.	c #A15F61",
"=.	c #6D6F6C",
"-.	c #89696A",
";.	c #9A6567",
">.	c #75716F",
",.	c #9C6664",
"'.	c #876D6C",
").	c #7C7172",
"!.	c #767377",
"~.	c #737572",
"{.	c #727679",
"].	c #966E6C",
"^.	c #857375",
"/.	c #767976",
"(.	c #927172",
"_.	c #9D6E6E",
":.	c #7D7877",
"<.	c #7E7B7F",
"[.	c #8A787A",
"}.	c #9B7477",
"|.	c #A77174",
"1.	c #7C7E7B",
"2.	c #927877",
"3.	c #987778",
"4.	c #A37474",
"5.	c #7C8183",
"6.	c #897E7E",
"7.	c #85807F",
"8.	c #818380",
"9.	c #848286",
"0.	c #A37A78",
"a.	c #917F81",
"b.	c #997F7E",
"c.	c #A47C7F",
"d.	c #9F7E7F",
"e.	c #AB7B7B",
"f.	c #83878A",
"g.	c #8F8484",
"h.	c #88868A",
"i.	c #8B8685",
"j.	c #858885",
"k.	c #978380",
"l.	c #968486",
"m.	c #888A87",
"n.	c #9E8483",
"o.	c #A98184",
"p.	c #918C8B",
"q.	c #8A8E91",
"r.	c #8C8E8B",
"s.	c #9C898C",
"t.	c #968B8B",
"u.	c #A08B88",
"v.	c #918F93",
"w.	c #A78C8B",
"x.	c #969290",
"y.	c #929491",
"z.	c #A29092",
"A.	c #919598",
"B.	c #AF8D8E",
"C.	c #A7928F",
"D.	c #A09495",
"E.	c #94999B",
"F.	c #969996",
"G.	c #9D9896",
"H.	c #9A9C99",
"I.	c #999DA0",
"J.	c #B29796",
"K.	c #A19C9B",
"L.	c #9F9DA1",
"M.	c #9D9F9C",
"N.	c #AE9B9E",
"O.	c #9CA1A3",
"P.	c #AA9E9F",
"Q.	c #A0A29F",
"R.	c #A6A2A0",
"S.	c #A5A2A7",
"T.	c #A2A6A9",
"U.	c #A4A6A3",
"V.	c #B4A1A4",
"W.	c #ABA6A4",
"X.	c #A6A9A5",
"Y.	c #ABA8AC",
"Z.	c #AEA9A8",
"`.	c #A7ABAE",
" +	c #A9ABA8",
".+	c #AAAFB1",
"++	c #ADAFAC",
"@+	c #BDAAAD",
"#+	c #B3B0B4",
"$+	c #B6B1B0",
"%+	c #B1B3B0",
"&+	c #B6B3B8",
"*+	c #B4B6B3",
"=+	c #BAB5B4",
"-+	c #B4B9BB",
";+	c #BDB8B7",
">+	c #B8BAB7",
",+	c #BBBDBA",
"'+	c #C0BDC2",
")+	c #C2BDBB",
"!+	c #BBBFC2",
"~+	c #BDBFBC",
"{+	c #BFC1BE",
"]+	c #C6C1C0",
"^+	c #C1C4C0",
"/+	c #C6C3C8",
"(+	c #C0C5C7",
"_+	c #C4C6C3",
":+	c #C5C7C4",
"<+	c #C5C9CC",
"[+	c #C7CAC6",
"}+	c #CEC9C8",
"|+	c #C9CBC8",
"1+	c #CDCACE",
"2+	c #CACCC9",
"3+	c #D1CCCA",
"4+	c #CCCFCC",
"5+	c #D1CED3",
"6+	c #CCD0D3",
"7+	c #CFD1CE",
"8+	c #CFD3D6",
"9+	c #D5D2D7",
"0+	c #D2D4D1",
"a+	c #D8D3D2",
"b+	c #D4D6D3",
"c+	c #D6D8D5",
"d+	c #D4D9DB",
"e+	c #DCD7D6",
"f+	c #DBD8DD",
"g+	c #D8DBD7",
"h+	c #DADDD9",
"i+	c #DDDFDC",
"j+	c #E3DEDD",
"k+	c #DFE1DE",
"l+	c #E3E0E4",
"m+	c #DDE2E4",
"n+	c #DEE3E5",
"o+	c #E6E1E0",
"p+	c #E5E2E7",
"q+	c #E1E4E0",
"r+	c #E4E6E3",
"s+	c #E5E9EC",
"t+	c #E7E9E6",
"u+	c #EEE8E7",
"v+	c #E9EBE8",
"w+	c #F1ECEA",
"x+	c #ECEFEB",
"y+	c #F1F3F0",
"z+	c #F8F3F1",
"A+	c #F7F4F9",
"B+	c #F6F8F5",
"C+	c #F8FBF7",
"D+	c #FBFDFA",
"E+	c #FFFCFA",
"F+	c #FFFCFF",
"_ _ _ _ _ _ _ _ _ _ _ _ _ _ _ _ _ _ _ _ _ _ _ _ _ _ _ _ _ _ _ _ _ _ _ _ _ _ _ _ _ _ _ _ _ _ _ _ _ _ _ _ _ _ _ _ _ _ _ _ _ _ _ _ ",
"_ _ _ _ _ _ _ _ _ _ _ _ _ _ _ _ _ _ _ _ _ _ _ _ _ _ _ _ _ _ _ _ _ _ _ _ _ _ _ _ _ _ _ _ _ _ _ _ _ _ _ _ _ _ _ _ _ _ _ _ _ _ _ _ ",
"_ _ _ _ _ _ _ _ _ _ _ _ _ _ _ _ _ _ _ _ _ _ _ _ _ _ _ _ _ _ _ _ _ _ _ _ _ _ _ _ _ _ _ _ _ _ _ _ _ _ _ _ _ _ _ _ _ _ _ _ _ _ _ _ ",
"_ _ _ _ _ _ _ _ _ _ _ _ _ _ _ _ _ _ _ _ _ _ _ _ _ _ _ _ _ _ _ _ _ _ _ _ _ _ _ _ _ _ _ _ _ _ _ _ _ _ _ _ _ _ _ _ _ _ _ _ _ _ _ _ ",
"_ _ _ _ _ _ _ _ _ _ _ _ _ _ _ _ _ _ _ _ _ _ _ _ _ _ _ _ _ _ _ { o z , ! ! _ _ _ _ _ _ _ _ _ _ _ _ _ _ _ _ _ _ _ _ _ _ _ _ _ _ _ ",
"_ _ _ _ _ _ _ _ _ _ _ _ _ _ _ _ _ _ _ _ _ _ _ _ _ _ _ _ _ = o.>+V.e.0.V 2 % , _ _ / ; { _ _ _ _ _ _ _ _ _ _ _ _ _ _ _ _ _ _ _ _ ",
"_ _ _ _ _ _ _ _ _ _ _ _ _ _ _ _ _ _ _ _ _ _ / _ , d g + 2.7+G.7 0.;.; *.d.2.V ; _ _ _ [ s _ _ _ _ _ _ _ _ _ _ _ _ _ _ _ _ _ _ _ ",
"_ _ _ _ _ _ _ _ _ _ _ _ _ _ _ _ _ _ _ _ , % { U  +>+:+0+}+_+m+2+x+E+v+0+:+]+v+q+R.; _ _ ;.s.k _ _ _ _ _ _ _ _ _ _ _ _ _ _ _ _ _ ",
"_ _ _ _ _ _ _ _ _ _ _ _ _ _ _ _ _ _ _ d A { t.k+7+|+:+o+t+r+1+j+C+C+q+2+3+h+7+|+0+>+D.d _ ) ;+N _ _ _ _ _ _ _ _ _ _ _ _ _ _ _ _ ",
"_ _ _ _ _ _ _ _ _ _ _ _ _ _ _ _ _ { P.h { z.C+t+:+g+x+D+h+{+:+b+k+v+C+D+B+h+:+0+r+7+t+y+8.m %.w._ _ _ _ _ _ _ _ _ _ _ _ _ _ _ _ ",
"_ _ _ _ _ _ _ _ _ _ _ _ _ _ _ _ ! n.|.A U.h+*+:+++Q. +%+h+E+C+t+r+7+c+7+7+~+>+h+x+D+7+%+y+y.>+1.! _ _ _ _ _ _ _ _ _ _ _ _ _ _ _ ",
"_ _ _ _ _ _ _ _ _ _ _ _ _ _ _ ( D.( z r+a+|+t+}+z+q+,+~.* m.*+2+j+l+7+i+y+F+o+:+r.e+D+w+{+u+o+e+f % _ _ _ _ _ _ _ _ _ _ _ _ _ _ ",
"_ _ _ _ _ _ _ _ _ _ _ _ _ _ _ B.l.a.Y.0+r+B+y+j+g+Q.8.:+y+r+k+f+|+7+0+(+/+2+c+_+^+y.x.t+>+t+a+t+C.z L _ _ _ _ _ _ _ _ _ _ _ _ _ ",
"_ _ _ _ _ _ _ _ _ _ _ _ _ _ _ V.!+[+2+t+2+:+7+i+5.{+t+v+,+7+i+r+C+x+i+b+b+h+7+[+y+3+=.U.A+0+x+^+u.! 3._ _ _ _ _ _ _ _ _ _ _ _ _ ",
"_ _ _ _ _ _ _ _ _ _ _ _ _ _ & :+k+:+t+*+*+k+>+8.,+:+%+_+x+C+x+b+[+,+>+7+h+>+:+o+ +%+:+~.r.0+B+7+Z.J e._ _ _ _ _ _ _ _ _ _ _ _ _ ",
"_ _ _ _ _ _ _ _ _ _ _ _ _ I , l e+C+e+Q.9+Y.1.++>+ +7+0+0+q+t+B+q+k+b+q+:+i+t+Q.4+[+M.T.R R r+b+|+:+k _ _ _ _ _ _ _ _ _ _ _ _ _ ",
"_ _ _ _ _ _ _ _ _ _ _ _ _ |.# 0+j+t+*+)+#+n *+S. +X.{+&+`.F.F.,+p+y+g+7+*+3+B+t+F.-+e+R O W.q+=+B+< _ _ _ _ _ _ _ _ _ _ _ _ _ _ ",
"_ _ _ _ _ _ _ _ _ _ _ _ _ 0.k.q+,+c+y.*+y.Q.+.&+E.F.A.U.Q.(+g+n+b+b+t+4+b+,+U.0+,+`.U.>+  b+2+{+f., _ _ _ _ _ _ _ _ _ _ _ _ _ _ ",
"_ _ _ _ _ _ _ _ _ _ _ _ _ , K.x+>+U.U.>+8.r.m.=.!.++:+0+q+0+[+|+,+7+b+y+[+0+>+1.M.++++++H.*+7+b+% _ _ _ _ _ _ _ _ _ _ _ _ _ _ _ ",
"_ _ _ _ _ _ _ _ _ _ _ _ _ _ ! i.:+++8.%+U.>.y ^ 1.U.7+g+q+8+:+,+g+~+Y.M._+O.Q.m.H U.U.y.g+m.t+n._ _ _ _ _ _ _ _ _ _ _ _ _ _ _ _ ",
"_ _ _ _ _ _ _ _ _ _ _ _ _ _ ! 0 D. +H.M.:+8.8 B .+0+{+0+0+>+_+2+1+7+0+*++.&.<.O X h.K.^+m.i.U.! _ _ _ _ _ _ _ _ _ _ _ _ _ _ _ _ ",
"_ _ _ _ _ _ _ _ _ _ _ _ _ _ _ e N.N.W S.9.++y f.U.-+%+^+_+b+h+b+:+y+q+,+Q.  | p. +g+f+3., ].V._ _ _ _ _ _ _ _ _ _ _ _ _ _ _ _ _ ",
"_ _ _ _ _ _ _ _ _ _ _ _ _ _ _ _ _ _ _ > % 6.E.j.Q.U.<+y+B+h+i+s+:+%+:+O.*+3 A.#+h.1.x h l.}.{ _ _ _ _ _ _ _ _ _ _ _ _ _ _ _ _ _ ",
"_ _ _ _ _ _ _ _ _ _ _ _ _ _ _ _ _ _ _ _ (.Y @ H.T.8+h+[+{+<+.+_+2+A.1./.6.u.n.= ] > 1 ,.{ _ _ _ _ _ _ _ _ _ _ _ _ _ _ _ _ _ _ _ ",
"_ _ _ _ _ _ _ _ _ _ _ _ _ _ _ _ _ _ _ x e / 2.r./.{. +t+v+2+q+*+>+j.6 ~ { _ _ _ _ _ _ _ _ _ _ _ _ _ _ _ _ _ _ _ _ _ _ _ _ _ _ _ ",
"_ _ _ _ _ _ _ _ _ _ _ _ _ _ _ _ _ _ ! , ! '.b * !.,+q+7+i+w+>+7+ +)./ _ _ _ _ _ _ _ _ _ _ _ _ _ _ _ _ _ _ _ _ _ _ _ _ _ _ _ _ _ ",
"_ _ _ _ _ _ _ _ _ _ _ _ _ _ _ _ _ _ _ _ u { K r.>+|+[+0+7+,+^+E./.k._ _ _ _ _ _ _ _ _ _ _ _ _ _ _ _ _ _ _ _ _ _ _ _ _ _ _ _ _ _ ",
"_ _ _ _ _ _ _ _ _ _ _ _ _ _ _ _ _ _ _ _ % _ S Q.0+b+6+k+:+2+2+f.m > { _ _ _ _ _ _ _ _ _ _ _ _ _ _ _ _ _ _ _ _ _ _ _ _ _ _ _ _ _ ",
"_ _ _ _ _ _ _ _ _ _ _ _ _ _ _ _ _ _ _ _ { _ :.U.++4+i+:+r+0+y.8.,.L Q _ _ _ _ _ _ _ _ _ _ _ _ _ _ _ _ _ _ _ _ _ _ _ _ _ _ _ _ _ ",
"_ _ _ _ _ _ _ _ _ _ _ _ _ _ _ _ _ _ _ _ _ _ %.(+ +%+4+y+'+{+%+n $ > / _ _ _ _ _ _ _ _ _ _ _ _ _ _ _ _ _ _ _ _ _ _ _ _ _ _ _ _ _ ",
"_ _ _ _ _ _ _ _ _ _ _ _ _ _ _ _ _ _ _ _ _ _ . v.>+:+U.>+b+|+>+y.r _ _ _ _ _ _ _ _ _ _ _ _ _ _ _ _ _ _ _ _ _ _ _ _ _ _ _ _ _ _ _ ",
"_ _ _ _ _ _ _ _ _ _ _ _ _ _ _ _ _ _ _ _ _ _ ..M.!.Y.r+b+2+:+{+O.Z _ _ _ _ _ _ _ _ _ _ _ _ _ _ _ _ _ _ _ _ _ _ _ _ _ _ _ _ _ _ _ ",
"_ _ _ _ _ _ _ _ _ _ _ _ _ _ _ _ _ _ _ _ _ { -.y.0+,+5.++_+^+#+F.~., ; t _ _ _ _ _ _ _ _ _ _ _ _ _ _ _ _ _ _ _ _ _ _ _ _ _ _ _ _ ",
"_ _ _ _ _ _ _ _ _ _ _ _ _ _ _ _ _ _ _ _ _ f , q.X.b+t+:+>+s+i+%+Q.a.! C.! _ _ _ _ _ _ _ _ _ _ _ _ _ _ _ _ _ _ _ _ _ _ _ _ _ _ _ ",
"_ _ _ _ _ _ _ _ _ _ _ _ _ _ _ _ _ _ _ _ _ _., x.++U.2+d+0+W.H.O.8.~.).h _ _ _ _ _ _ _ _ _ _ _ _ _ _ _ _ _ _ _ _ _ _ _ _ _ _ _ _ ",
"_ _ _ _ _ _ _ _ _ _ _ _ _ _ _ _ _ _ _ _ _ ! d.; 1.,+7+|+k+y+r+,+ +M.~._ , ] _ _ _ _ _ _ _ _ _ _ _ _ _ _ _ _ _ _ _ _ _ _ _ _ _ _ ",
"_ _ _ _ _ _ _ _ _ _ _ _ _ _ _ _ _ _ _ _ _ _ V.@+P  +%+:+:+0+|+/+U.++y.g./ 0.{ _ _ _ _ _ _ _ _ _ _ _ _ _ _ _ _ _ _ _ _ _ _ _ _ _ ",
"_ _ _ _ _ _ _ _ _ _ _ _ _ _ _ _ _ _ _ _ _ _ J.s.b.P R.h+r+4+:+*+*+*+,+H 7.C.! _ _ _ _ _ _ _ _ _ _ _ _ _ _ _ _ _ _ _ _ _ _ _ _ _ ",
"_ _ _ _ _ _ _ _ _ _ _ _ _ _ _ _ _ _ _ _ _ _ 4.k p @.m.F.:+i+q+q+_+Q.L.q+U.2._ _ _ _ _ _ _ _ _ _ _ _ _ _ _ _ _ _ _ _ _ _ _ _ _ _ ",
"_ _ _ _ _ _ _ _ _ _ _ _ _ _ _ _ _ _ _ _ _ _ _ #.a _ ` G. +*+7+[+(+0+:+ +X.U _ _ _ _ _ _ _ _ _ _ _ _ _ _ _ _ _ _ _ _ _ _ _ _ _ _ ",
"_ _ _ _ _ _ _ _ _ _ _ _ _ _ _ _ _ _ _ _ _ _ _ _ : ; _ > y ..m.'+r+_+0+<+ +D , _ _ _ _ _ _ _ _ _ _ _ _ _ _ _ _ _ _ _ _ _ _ _ _ _ ",
"_ _ _ _ _ _ _ _ _ _ _ _ _ _ _ _ _ _ _ _ _ _ _ _ _ _ _ _ 4 W._+,+2+{+:+:+*+S F { _ _ _ _ _ _ _ _ _ _ _ _ _ _ _ _ _ _ _ _ _ _ _ _ ",
"_ _ _ _ _ _ _ _ _ _ _ _ _ _ _ _ _ _ _ _ _ _ _ _ _ _ _ _ } _ @.Q.<+[+g+ +*+~.T _ _ _ _ _ _ _ _ _ _ _ _ _ _ _ _ _ _ _ _ _ _ _ _ _ ",
"_ _ _ _ _ _ _ _ _ _ _ _ _ _ _ _ _ _ _ _ _ _ _ _ _ _ _ _ i }.$.<.m.E.~+x+5+L.& ! _ _ _ _ _ _ _ _ _ _ _ _ _ _ _ _ _ _ _ _ _ _ _ _ ",
"_ _ _ _ _ _ _ _ _ _ _ _ _ _ _ _ _ _ _ _ _ _ _ _ _ _ _ _ _ { *.J.S.H.:+i+>+$+; ; ( _ _ _ _ _ _ _ _ _ _ _ _ _ _ _ _ _ _ _ _ _ _ _ ",
"_ _ _ _ _ _ _ _ _ _ _ _ _ _ _ _ _ _ _ _ _ _ _ _ _ _ _ _ _ _ _ , C H.U.!+0+*+, d.) _ _ _ _ _ _ _ _ _ _ _ _ _ _ _ _ _ _ _ _ _ _ _ ",
"_ _ _ _ _ _ _ _ _ _ _ _ _ _ _ _ _ _ _ _ _ _ _ _ _ _ _ _ _ _ _ 5 ; p.{+0+{+$+z c._ _ _ _ _ _ _ _ _ _ _ _ _ _ _ _ _ _ _ _ _ _ _ _ ",
"_ _ _ _ _ _ _ _ _ _ _ _ _ _ _ _ _ _ _ _ _ _ _ _ _ _ _ _ _ _ _ 9 G {.y.:+-+p.3./ _ _ _ _ _ _ _ _ _ _ _ _ _ _ _ _ _ _ _ _ _ _ _ _ ",
"_ _ _ _ _ _ _ _ _ _ _ _ _ _ _ _ _ _ _ _ _ _ _ _ _ _ _ _ _ _ _ ! { q -+f+,+M _ _ _ _ _ _ _ _ _ _ _ _ _ _ _ _ _ _ _ _ _ _ _ _ _ _ ",
"_ _ _ _ _ _ _ _ _ _ _ _ _ _ _ _ _ _ _ _ _ _ _ _ _ _ _ _ _ _ _ } c A.>+c+!+} ; _ _ _ _ _ _ _ _ _ _ _ _ _ _ _ _ _ _ _ _ _ _ _ _ _ ",
"_ _ _ _ _ _ _ _ _ _ _ _ _ _ _ _ _ _ _ _ _ _ _ _ _ _ _ _ _ _ _ _ v X.*+!+>.v { _ _ _ _ _ _ _ _ _ _ _ _ _ _ _ _ _ _ _ _ _ _ _ _ _ ",
"_ _ _ _ _ _ _ _ _ _ _ _ _ _ _ _ _ _ _ _ _ _ _ _ _ _ _ _ _ _ _ { - 4+0+T.$./ _ _ _ _ _ _ _ _ _ _ _ _ _ _ _ _ _ _ _ _ _ _ _ _ _ _ ",
"_ _ _ _ _ _ _ _ _ _ _ _ _ _ _ _ _ _ _ _ _ _ _ _ _ _ _ _ _ _ _ ' z.a+,+^.{ _ _ _ _ _ _ _ _ _ _ _ _ _ _ _ _ _ _ _ _ _ _ _ _ _ _ _ ",
"_ _ _ _ _ _ _ _ _ _ _ _ _ _ _ _ _ _ _ _ _ _ _ _ _ _ _ _ _ _ _ a.(+ +E , _ _ _ _ _ _ _ _ _ _ _ _ _ _ _ _ _ _ _ _ _ _ _ _ _ _ _ _ ",
"_ _ _ _ _ _ _ _ _ _ _ _ _ _ _ _ _ _ _ _ _ _ _ _ _ _ _ _ _ _  .'+|+[.j _ _ _ _ _ _ _ _ _ _ _ _ _ _ _ _ _ _ _ _ _ _ _ _ _ _ _ _ _ ",
"_ _ _ _ _ _ _ _ _ _ _ _ _ _ _ _ _ _ _ _ _ _ _ _ _ _ _ _ _ _ =+0+U _ _ _ _ _ _ _ _ _ _ _ _ _ _ _ _ _ _ _ _ _ _ _ _ _ _ _ _ _ _ _ ",
"_ _ _ _ _ _ _ _ _ _ _ _ _ _ _ _ _ _ _ _ _ _ _ _ _ _ _ _ _ { I.4._ _ _ _ _ _ _ _ _ _ _ _ _ _ _ _ _ _ _ _ _ _ _ _ _ _ _ _ _ _ _ _ ",
"_ _ _ _ _ _ _ _ _ _ _ _ _ _ _ _ _ _ _ _ _ _ _ _ _ _ _ _ _ { w _ _ _ _ _ _ _ _ _ _ _ _ _ _ _ _ _ _ _ _ _ _ _ _ _ _ _ _ _ _ _ _ _ ",
"_ _ _ _ _ _ _ _ _ _ _ _ _ _ _ _ _ _ _ _ _ _ _ _ _ _ _ _ _ ! ; _ _ _ _ _ _ _ _ _ _ _ _ _ _ _ _ _ _ _ _ _ _ _ _ _ _ _ _ _ _ _ _ _ ",
"_ _ _ _ _ _ _ _ _ _ _ _ _ _ _ _ _ _ _ _ _ _ _ _ _ _ _ _ _ _ { _ _ _ _ _ _ _ _ _ _ _ _ _ _ _ _ _ _ _ _ _ _ _ _ _ _ _ _ _ _ _ _ _ ",
"_ _ _ _ _ _ _ _ _ _ _ _ _ _ _ _ _ _ _ _ _ _ _ _ _ _ _ _ _ _ _ _ _ _ _ _ _ _ _ _ _ _ _ _ _ _ _ _ _ _ _ _ _ _ _ _ _ _ _ _ _ _ _ _ ",
"_ _ _ _ _ _ _ _ _ _ _ _ _ _ _ _ _ _ _ _ _ _ _ _ _ _ _ _ _ _ _ _ _ _ _ _ _ _ _ _ _ _ _ _ _ _ _ _ _ _ _ _ _ _ _ _ _ _ _ _ _ _ _ _ ",
"_ _ _ _ _ _ _ _ _ _ _ _ _ _ _ _ _ _ _ _ _ _ _ _ _ _ _ _ _ _ _ _ _ _ _ _ _ _ _ _ _ _ _ _ _ _ _ _ _ _ _ _ _ _ _ _ _ _ _ _ _ _ _ _ ",
"_ _ _ _ _ _ _ _ _ _ _ _ _ _ _ _ _ _ _ _ _ _ _ _ _ _ _ _ _ _ _ _ _ _ _ _ _ _ _ _ _ _ _ _ _ _ _ _ _ _ _ _ _ _ _ _ _ _ _ _ _ _ _ _ "};
