/* XPM */
static char * flame_xpm[] = {
"64 64 255 2",
"  	c #E92325",
". 	c #E9242B",
"+ 	c #EB2526",
"@ 	c #EB262C",
"# 	c #EC2727",
"$ 	c #EC272D",
"% 	c #EE2A2E",
"& 	c #E72E2B",
"* 	c #E8302C",
"= 	c #EA312D",
"- 	c #E93133",
"; 	c #EA3227",
"> 	c #EB332E",
", 	c #EB3334",
"' 	c #EC342F",
") 	c #EC3435",
"! 	c #ED3630",
"~ 	c #ED3636",
"{ 	c #EF3731",
"] 	c #EE3737",
"^ 	c #F03832",
"/ 	c #E83B35",
"( 	c #F03938",
"_ 	c #EA3D3C",
": 	c #EB3E36",
"< 	c #EC3F37",
"[ 	c #EC3F3D",
"} 	c #EB3F43",
"| 	c #ED4038",
"1 	c #ED403E",
"2 	c #EF4139",
"3 	c #EE423F",
"4 	c #F0433A",
"5 	c #EF4340",
"6 	c #F1443B",
"7 	c #F14441",
"8 	c #EC4839",
"9 	c #EC483F",
"0 	c #ED4940",
"a 	c #EC4A4C",
"b 	c #EE4B41",
"c 	c #F04C42",
"d 	c #EF4C48",
"e 	c #F14D43",
"f 	c #F04D49",
"g 	c #F24E44",
"h 	c #F24E4A",
"i 	c #ED5142",
"j 	c #F34F45",
"k 	c #EB514D",
"l 	c #ED5248",
"m 	c #EC5254",
"n 	c #EE5343",
"o 	c #EE5349",
"p 	c #ED534F",
"q 	c #F05444",
"r 	c #EF544A",
"s 	c #F0554B",
"t 	c #F2564C",
"u 	c #F15652",
"v 	c #F3574D",
"w 	c #ED5A4B",
"x 	c #F4584E",
"y 	c #EC5A57",
"z 	c #EF5B4D",
"A 	c #EE5B52",
"B 	c #EE5C58",
"C 	c #F05D4D",
"D 	c #F05D53",
"E 	c #EF5D59",
"F 	c #F25E4E",
"G 	c #F15E54",
"H 	c #F35F4F",
"I 	c #F35F55",
"J 	c #F25F5B",
"K 	c #EC615F",
"L 	c #F46050",
"M 	c #EF6355",
"N 	c #EE635A",
"O 	c #F06456",
"P 	c #EF6461",
"Q 	c #F26551",
"R 	c #F16557",
"S 	c #F0655C",
"T 	c #F26658",
"U 	c #F06663",
"V 	c #F2665D",
"W 	c #F06669",
"X 	c #F36759",
"Y 	c #F3675E",
"Z 	c #F5685A",
"` 	c #F4685F",
" .	c #F06B59",
"..	c #F56960",
"+.	c #EE6C6A",
"@.	c #F26D5A",
"#.	c #F16D60",
"$.	c #F36E5B",
"%.	c #F36E61",
"&.	c #F46F62",
"*.	c #F36F68",
"=.	c #F57063",
"-.	c #F4706E",
";.	c #ED7272",
">.	c #F17362",
",.	c #F67169",
"'.	c #F07368",
").	c #F0746E",
"!.	c #F27469",
"~.	c #F07575",
"{.	c #F3766A",
"].	c #ED7875",
"^.	c #F5776C",
"/.	c #F07A6B",
"(.	c #F57872",
"_.	c #EF7A76",
":.	c #F27C6D",
"<.	c #F17C72",
"[.	c #F17C79",
"}.	c #F47D6E",
"|.	c #F37D74",
"1.	c #F47E75",
"2.	c #F37E7A",
"3.	c #F67F70",
"4.	c #F57F76",
"5.	c #EF817A",
"6.	c #F18275",
"7.	c #F78077",
"8.	c #F28376",
"9.	c #F08381",
"0.	c #F48477",
"a.	c #F58578",
"b.	c #F4857E",
"c.	c #F38584",
"d.	c #F68679",
"e.	c #F7877A",
"f.	c #F68780",
"g.	c #EF8984",
"h.	c #F38A7A",
"i.	c #F88881",
"j.	c #F18A86",
"k.	c #F08A8B",
"l.	c #F48B7B",
"m.	c #F38B81",
"n.	c #F58C82",
"o.	c #F68D7C",
"p.	c #F48D88",
"q.	c #F68D83",
"r.	c #EE8F8D",
"s.	c #F78E84",
"t.	c #F88F85",
"u.	c #F1918F",
"v.	c #F49285",
"w.	c #F99186",
"x.	c #F59386",
"y.	c #F39391",
"z.	c #F69487",
"A.	c #F5948C",
"B.	c #F79588",
"C.	c #F09792",
"D.	c #F99689",
"E.	c #F8968F",
"F.	c #F09899",
"G.	c #F79794",
"H.	c #FA978A",
"I.	c #F29994",
"J.	c #F99890",
"K.	c #F59A89",
"L.	c #FB988B",
"M.	c #F49A8F",
"N.	c #F69B90",
"O.	c #F39B9C",
"P.	c #FB9A92",
"Q.	c #F89C8C",
"R.	c #F79C91",
"S.	c #F69C97",
"T.	c #F89D92",
"U.	c #F79E99",
"V.	c #F99E93",
"W.	c #F79F9F",
"X.	c #FA9F94",
"Y.	c #F2A19F",
"Z.	c #F9A09A",
"`.	c #F4A2A0",
" +	c #EFA4A0",
".+	c #F5A3A1",
"++	c #F8A396",
"@+	c #F7A49C",
"#+	c #F6A4A2",
"$+	c #F1A7A2",
"%+	c #F9A69E",
"&+	c #F8A6A4",
"*+	c #F4A9A5",
"=+	c #F4AAAB",
"-+	c #F7ABA0",
";+	c #F0ADAC",
">+	c #F7ACA7",
",+	c #F6ACAD",
"'+	c #F8ADA8",
")+	c #FAADA2",
"!+	c #F9AEA9",
"~+	c #FBAEA3",
"{+	c #F5B0A9",
"]+	c #F7B2AB",
"^+	c #F6B2B1",
"/+	c #F8B4AC",
"(+	c #F9B5B4",
"_+	c #F4B8B4",
":+	c #F6B8AE",
"<+	c #FAB7B5",
"[+	c #F6B9B5",
"}+	c #F5BABC",
"|+	c #F7BAB6",
"1+	c #F2BCB6",
"2+	c #F8BBB7",
"3+	c #F9BCB8",
"4+	c #FABDB9",
"5+	c #F4BFB8",
"6+	c #FBBFBB",
"7+	c #F5C1C0",
"8+	c #F7C1BA",
"9+	c #F6C2C1",
"0+	c #F9C3BD",
"a+	c #F8C4C4",
"b+	c #FBC5BF",
"c+	c #FAC5C5",
"d+	c #FBC6C6",
"e+	c #FCC7C7",
"f+	c #F7C9C7",
"g+	c #FDC8C8",
"h+	c #F8CBC8",
"i+	c #F9CCC9",
"j+	c #FACDCA",
"k+	c #F6CFCA",
"l+	c #FBCECB",
"m+	c #FACED1",
"n+	c #FBCFD2",
"o+	c #FDCFCC",
"p+	c #F7D1CC",
"q+	c #FED0CD",
"r+	c #F9D2CD",
"s+	c #F8D3D4",
"t+	c #FAD3CE",
"u+	c #FBD5D0",
"v+	c #FAD6D6",
"w+	c #F5D8D6",
"x+	c #FBD7D8",
"y+	c #FED8D3",
"z+	c #FDD8D9",
"A+	c #F7DAD9",
"B+	c #F8DBDA",
"C+	c #FADCDB",
"D+	c #FBDDDC",
"E+	c #FCDEDD",
"F+	c #FFFFFF",
"F+F+F+F+F+F+F+F+F+F+F+F+F+F+F+F+F+F+F+F+F+F+F+F+F+F+F+F+F+F+F+F+F+F+F+F+F+F+F+F+F+F+F+F+F+F+F+F+F+F+F+F+F+F+F+F+F+F+F+F+F+F+F+F+",
"F+F+F+F+F+F+F+F+F+F+F+F+F+F+F+F+F+F+F+F+F+F+F+F+F+F+F+F+F+F+F+F+F+F+F+F+F+F+F+F+F+F+F+F+F+F+F+F+F+F+F+F+F+F+F+F+F+F+F+F+F+F+F+F+",
"F+F+F+F+F+F+F+F+F+F+F+F+F+F+F+F+F+F+F+F+F+F+F+F+F+F+F+F+F+F+F+F+F+F+F+F+F+F+F+F+F+F+F+F+F+F+F+F+F+F+F+F+F+F+F+F+F+F+F+F+F+F+F+F+",
"F+F+F+F+F+F+F+F+F+F+F+F+F+F+F+F+F+F+F+F+F+F+F+F+F+F+F+F+F+F+F+F+F+F+F+F+F+F+F+F+F+F+F+F+F+F+F+F+F+F+F+F+F+F+F+F+F+F+F+F+F+F+F+F+",
"F+F+F+F+F+F+F+F+F+F+F+F+F+F+F+F+F+F+F+F+F+F+F+F+F+F+F+F+F+F+F+F+F+F+F+w+ +;+F+F+F+F+F+F+F+F+F+F+F+F+F+F+F+F+F+F+F+F+F+F+F+F+F+F+",
"F+F+F+F+F+F+F+F+F+F+F+F+F+F+F+F+F+F+F+F+F+F+F+F+F+F+F+F+F+F+F+F+F+1+K * - F+F+F+F+F+F+F+F+F+F+F+F+F+F+F+F+F+F+F+F+F+F+F+F+F+F+F+",
"F+F+F+F+F+F+F+F+F+F+F+F+F+F+F+F+F+F+F+F+F+F+F+F+F+F+F+F+F+F+F+9+m . * * k.F+F+F+F+F+F+F+F+F+F+F+F+F+F+F+F+F+F+F+F+F+F+F+F+F+F+F+",
"F+F+F+F+F+F+F+F+F+F+F+F+F+F+F+F+F+F+F+F+F+F+F+F+F+F+F+F+F+F+]..     * * r+F+F+F+F+F+F+F+F+F+F+F+F+F+F+F+F+F+F+F+F+F+F+F+F+F+F+F+",
"F+F+F+F+F+F+F+F+F+F+F+F+F+F+F+F+F+F+F+F+F+F+F+F+F+F+F+F+7+_           a F+F+F+F+F+F+F+F+F+F+F+F+F+F+F+F+F+F+F+F+F+F+F+F+F+F+F+F+",
"F+F+F+F+F+F+F+F+F+F+F+F+F+F+F+F+F+F+F+F+F+F+F+F+F+F+F+$+*         . . u.F+F+F+F+F+F+F+F+F+F+F+F+F+F+F+F+F+F+F+F+F+F+F+F+F+F+F+F+",
"F+F+F+F+F+F+F+F+F+F+F+F+F+F+F+F+F+F+F+F+F+F+F+F+F+F+F.          .   . }+F+F+F+F+F+F+F+F+F+F+F+F+F+F+F+F+F+F+F+F+F+F+F+F+F+F+F+F+",
"F+F+F+F+F+F+F+F+F+F+F+F+F+F+F+F+F+F+F+F+F+F+F+F+F+Y.                . s+F+F+F+F+F+F+F+F+F+F+F+F+F+F+F+F+F+F+F+F+F+F+F+F+F+F+F+F+",
"F+F+F+F+F+F+F+F+F+F+F+F+F+F+F+F+F+F+F+F+F+F+F+F+[+.   $ . . $ . . . . C+F+F+F+F+F+F+F+F+F+F+F+F+F+F+F+F+F+F+F+F+F+F+F+F+F+F+F+F+",
"F+F+F+F+F+F+F+F+F+F+F+F+F+F+F+F+F+F+F+F+F+F+F+C+/     # # #         . C+F+F+F+F+F+F+F+F+F+F+F+F+F+F+F+F+F+F+F+F+F+F+F+F+F+F+F+F+",
"F+F+F+F+F+F+F+F+F+F+F+F+F+F+F+F+F+F+F+F+F+F+F++.# $ $ $ $ $ $ $ $ .   f+F+F+F+F+F+F+F+F+F+F+F+F+F+F+F+F+F+F+F+F+F+F+F+F+F+F+F+F+",
"F+F+F+F+F+F+F+F+F+F+F+F+F+F+F+F+F+F+F+F+F+F+5+# # ; ; * * ; * $ $     =+F+F+F+F+F+F+F+F+F+F+F+F+F+F+F+F+F+F+F+F+F+F+F+F+F+F+F+F+",
"F+F+F+F+F+F+F+F+F+F+F+F+F+F+F+F+F+F+F+F+F+F+K # $ * * > > * > * * * $ _.F+F+F+F+F+F+F+F+F+F+F+F+F+F+F+F+F+F+F+F+F+F+F+F+F+F+F+F+",
"F+F+F+F+F+F+F+F+F+F+F+F+F+F+F+F+F+F+F+F+F+h+$ * * > > > > > > > > > * ~ z+F+F+F+k+F+F+F+F+F+F+F+F+F+F+F+F+F+F+F+F+F+F+F+F+F+F+F+",
"F+F+F+F+F+F+F+F+F+F+F+F+F+F+F+F+F+F+F+F+F+u.$ > > > ! ~ ] ] ! ! ! > > > 9.F+F+F+r.j+F+F+F+F+F+F+F+F+F+F+F+F+F+F+F+F+F+F+F+F+F+F+",
"F+F+F+F+F+F+F+F+F+F+F+F+F+F+F+F+F+F+F+F+F+p > > ~ ] < < < | r | < ] ] ~ > _._+C.- 7+F+F+F+F+F+F+F+F+F+F+F+F+F+F+F+F+F+F+F+F+F+F+",
"F+F+F+F+F+F+F+F+F+F+F+F+F+F+F+F+F+F+F+F+t+! ! < < | | | 3 ` /.| | < < ] ! > * * * _+F+F+F+F+F+F+F+F+F+F+F+F+F+F+F+F+F+F+F+F+F+F+",
"F+F+F+F+F+F+F+F+F+F+F+F+F+F+F+F+F+F+F+F+8+! < | | 3 9 b N a.}.b 5 4 | < ] ! > > * ^+F+F+F+F+F+F+F+F+F+F+F+F+F+F+F+F+F+F+F+F+F+F+",
"F+F+F+F+F+F+F+F+F+F+F+F+F+F+F+F+F+F+F+F+>+< | | 9 b b r 0.h.a.o b b 5 | < ] ~ > * ^+F+F+F+F+F+F+F+F+F+F+F+F+F+F+F+F+F+F+F+F+F+F+",
"F+F+F+F+F+F+F+F+F+F+F+F+F+F+F+F+F+F+F+F+I.| | 9 b e n ,.h.l.l.Y e c b b | | < ~ > (+F+F+F+C+F+F+F+F+F+F+F+F+F+F+F+F+F+F+F+F+F+F+",
"F+F+F+F+F+F+F+F+F+F+F+F+F+F+F+F+F+F+F+F+p.| 8 b e n w e.l.o.o.0.s g e b b 5 | < / 3+F+F+F+C.t+F+F+F+F+F+F+F+F+F+F+F+F+F+F+F+F+F+",
"F+F+F+F+F+F+F+F+F+F+F+F+F+F+F+F+F+F+F+F+g.4 b c n s #.s.s.s.s.s.'.s n f c b 5 | < 4+F+F+F+r.;.F+F+F+F+F+F+F+F+F+F+F+F+F+F+F+F+F+",
"F+F+F+F+F+F+F+F+F+F+F+F+F+F+F+F+F+F+F+F+g.9 b g s v |.x.x.x.x.v.v.Y s r f c b 3 3 4+F+F+E++.* =+F+F+F+F+F+F+F+F+F+F+F+F+F+F+F+F+",
"F+F+F+F+F+F+F+F+F+F+F+F+F+F+z+|+F+F+F+F+p.b e n s C l.z.z.z.z.z.z.m.G s s g e b 9 4+F+F+i+_ . k C+F+F+F+F+F+F+F+F+F+F+F+F+F+F+F+",
"F+F+F+F+F+F+F+F+F+F+F+F+F+C+c.g.F+F+F+F+y.c j s C G t.B.B.B.B.B.B.B.4.D v s g c b 3+F+v+*+* $   ,+F+F+F+F+F+F+F+F+F+F+F+F+F+F+F+",
"F+F+F+F+F+F+F+F+F+F+F+F+F+(+> B t+F+F+F+U.g s v C R B.D.H.D.D.D.D.D.z...C s s g b [+s+i+E > * # W F+F+F+F+F+F+F+F+F+F+F+F+F+F+F+",
"F+F+F+F+F+F+F+F+F+F+F+F+z+U > > 3+o+F+F+&+r s x L X D.H.J.J.J.J.J.J.H.e.G C s r e b.^+-.| ~ > $ ~ f+F+F+F+F+F+F+F+F+F+F+F+F+F+F+",
"F+F+F+F+F+F+F+F+F+F+F+E+_+> > ! 2.c+F+F+^+s x C L @.H.R.R.R.R.R.R.L.H.B.` G C s r e b b | ] > > > O.F+F+F+F+F+F+F+F+F+F+F+F+F+F+",
"F+F+F+F+F+F+F+F+F+F+F+C+2.! ! ! | W.c+d+|+C C L R @.L.T.T.T.R.R.R.P.R.L.}.R C C s r c b 3 < ~ ! $ U D+F+F+F+F+F+F+F+F+F+F+F+F+F+",
"F+F+F+F+F+F+F+F+F+F+F+r+5 ! ^ < | e G.3+>+C C Q T $.J.T.T.T.T.R.R.R.R.Q.l.T G C s r g b 5 | ] > > ~ o+F+F+F+F+F+F+F+F+F+F+F+F+F+",
"F+F+F+F+F+F+F+F+F+F+E+3+> ! < | 6 c n G C C L R X %.D.V.V.T.T.T.T.T.T.R.z.X R C C s o c b | < ~ > * |+E+F+F+F+F+F+F+F+F+F+F+F+F+",
"F+F+F+F+F+F+F+F+F+F+D+`.> ! < | b c o w C C O T @.&.z.V.V.V.T.V.V.V.V.R.K.@.R L C s r e b 5 | ] > ; Y.C+F+F+F+F+F+F+F+F+F+F+F+F+",
"F+F+F+F+F+F+F+F+F+F+C+g.! ! | | b n r w C C R X $.=.l.V.V.V.V.V.V.V.T.T.K.%.T O G C s g b 5 | ] ~ * 9.F+F+F+F+F+F+F+F+F+F+F+F+F+",
"F+F+F+F+F+F+F+F+F+F+C+).! ] | 4 b n s C C X  . .%.=.0.V.T.V.V.V.X.V.T.R.K.%.X R M {.s o c b | < ~ > +.D+F+F+F+F+F+F+F+F+F+F+F+F+",
"F+F+F+F+F+F+F+F+F+F+C+J ! ] | 9 b o s C M l.>.@.%.=.}.V.V.V.V.X.X.V.T.R.z.%.X T T m.` r c b | < ~ > E D+F+F+F+F+F+F+F+F+F+F+F+F+",
"F+F+F+F+F+F+F+F+F+F+z+u ! < | 9 b o s C :.z.4. .%.=.}.T.V.X.X.++4+~+R.N.s.@.X T >.s.0.r c b | < ~ > y D+F+F+F+F+F+F+F+F+F+F+F+F+",
"F+F+F+F+F+F+F+F+F+F+y+u ! ] | 9 b n s O s.z.t.%.#.&.3.T.T.X.++b+q+)+J.J.l.X X X 8.s.m.G c b | < ~ > E E+F+F+F+F+F+F+F+F+F+F+F+F+",
"F+F+F+F+F+F+F+F+F+F+C+U ! ^ < 5 b n s {.x.x.x.f.=.=.s.R.T.V.4+q+o+)+J.B.m.T T &.s.s.m.*.c 9 | < > * U D+F+F+F+F+F+F+F+F+F+F+F+F+",
"F+F+F+F+F+F+F+F+F+F+C+_.> ! < 3 b n s a.s.t.t.x.t.t.B.J.R.-+o+o+j+]+B.z.t.}.'.l.q.m.m.:.c 5 | ~ > * 9.D+F+F+F+F+F+F+F+F+F+F+F+F+",
"F+F+F+F+F+F+F+F+F+F+C+u.> ! < | b e G m.q.q.s.t.t.w.B.D.J.4+j+i+i+2+B.w.t.s.q.m.f.l.h.6.d 5 | ~ > . .+D+F+F+F+F+F+F+F+F+F+F+F+F+",
"F+F+F+F+F+F+F+F+F+F+C+!+; ! ! | b e Y m.m.m.q.q.t.t.x.B.X.e+h+e+e+4+z.w.q.m.m.f.d.d.a.6.d 5 | ~ > * 9+F+F+F+F+F+F+F+F+F+F+F+F+F+",
"F+F+F+F+F+F+F+F+F+F+E+i+[ > ! | 5 c #.f.m.m.m.m.s.t.x.z.'+e+d+d+d+0+A.t.q.q.f.d.a.0.0.4.d 3 ] ~ > E z+F+F+F+F+F+F+F+F+F+F+F+F+F+",
"F+F+F+F+F+F+F+F+F+F+F+z+5.> ! | 4 b #.a.d.e.h.m.R.t.t.z.<+d+d+c+c+c+Z.q.m.@+x.a.4.4.4.|.b | ] ~ ~ .+D+F+F+F+F+F+F+F+F+F+F+F+F+F+",
"F+F+F+F+F+F+F+F+F+F+F+C+3+] ! ] | 6 Y 4.a.d.h.q.4+J.t.z.9+c+c+c+c+c+3+M.M.0+%+0.4.4.1.^.3 ] ~ ~ k t+F+F+F+F+F+F+F+F+F+F+F+F+F+F+",
"F+F+F+F+F+F+F+F+F+F+F+F+z+g.] ^ | | D 4.8.0.d.M.d+4+-+<+c+c+c+c+c+c+c+d+d+c+:+4.1.1.|.*.] ~ ~ ~ &+F+F+F+F+F+F+F+F+F+F+F+F+F+F+F+",
"F+F+F+F+F+F+F+F+F+F+F+F+C+j+u ! ^ | c |.4.0.a.@+d+d+d+c+c+c+c+c+c+c+c+c+c+c+3+0.1.<.<.G > > * ~.C+F+F+F+F+F+F+F+F+F+F+F+F+F+F+F+",
"F+F+F+F+F+F+F+F+F+F+F+F+F+C+2+3 ! ! | '.6.6.0.-+e+e+d+d+c+d+d+c+c+c+d+d+e+f+8+a.4.<.^.b > * k i+F+F+F+F+F+F+F+F+F+F+F+F+F+F+F+F+",
"F+F+F+F+F+F+F+F+F+F+F+F+F+F+z+>+~ ! ! D |.6.0.>+h+f+f+f+e+e+e+e+e+e+f+f+h+i+8+8.4.1.%.> * } 3+D+F+F+F+F+F+F+F+F+F+F+F+F+F+F+F+F+",
"F+F+F+F+F+F+F+F+F+F+F+F+F+F+F+u+`.< ! | {.8.0.N.i+i+i+h+h+h+h+h+h+i+i+i+i+k+]+8.4.4.f # _ (+C+F+F+F+F+F+F+F+F+F+F+F+F+F+F+F+F+F+",
"F+F+F+F+F+F+F+F+F+F+F+F+F+F+F+C+u+{+d ! A 8.8.b.c+o+j+j+j+j+j+j+j+j+j+j+j+j+A.6.1.#.> m 4+C+F+F+F+F+F+F+F+F+F+F+F+F+F+F+F+F+F+F+",
"F+F+F+F+F+F+F+F+F+F+F+F+F+F+F+F+D+z+c+).| S 8.4.U.o+m+o+m+n+n+n+o+o+r+o+r+]+1.1.'.[ _.o+C+F+F+F+F+F+F+F+F+F+F+F+F+F+F+F+F+F+F+F+",
"F+F+F+F+F+F+F+F+F+F+F+F+F+F+F+F+F+F+C+z+#+A G <.1.(+s+t+t+t+s+t+s+s+r+r+c+a.<.V y '+D+F+F+F+F+F+F+F+F+F+F+F+F+F+F+F+F+F+F+F+F+F+",
"F+F+F+F+F+F+F+F+F+F+F+F+F+F+F+F+F+F+F+F+D+o+S.U '.4.2+v+v+v+v+v+z+z+z+h+m.(.-.U.t+F+F+F+F+F+F+F+F+F+F+F+F+F+F+F+F+F+F+F+F+F+F+F+",
"F+F+F+F+F+F+F+F+F+F+F+F+F+F+F+F+F+F+F+F+F+E+C+r+(+#+A.|+C+C+C+C+C+C+i+U.>+4+t+D+F+F+F+F+F+F+F+F+F+F+F+F+F+F+F+F+F+F+F+F+F+F+F+F+",
"F+F+F+F+F+F+F+F+F+F+F+F+F+F+F+F+F+F+F+F+F+F+F+E+D+D+D+C+F+F+E+E+E+E+C+E+F+E+F+F+F+F+F+F+F+F+F+F+F+F+F+F+F+F+F+F+F+F+F+F+F+F+F+F+",
"F+F+F+F+F+F+F+F+F+F+F+F+F+F+F+F+F+F+F+F+F+F+F+F+F+F+F+F+F+F+F+F+F+F+F+F+F+F+F+F+F+F+F+F+F+F+F+F+F+F+F+F+F+F+F+F+F+F+F+F+F+F+F+F+",
"F+F+F+F+F+F+F+F+F+F+F+F+F+F+F+F+F+F+F+F+F+F+F+F+F+F+F+F+F+F+F+F+F+F+F+F+F+F+F+F+F+F+F+F+F+F+F+F+F+F+F+F+F+F+F+F+F+F+F+F+F+F+F+F+",
"F+F+F+F+F+F+F+F+F+F+F+F+F+F+F+F+F+F+F+F+F+F+F+F+F+F+F+F+F+F+F+F+F+F+F+F+F+F+F+F+F+F+F+F+F+F+F+F+F+F+F+F+F+F+F+F+F+F+F+F+F+F+F+F+",
"F+F+F+F+F+F+F+F+F+F+F+F+F+F+F+F+F+F+F+F+F+F+F+F+F+F+F+F+F+F+F+F+F+F+F+F+F+F+F+F+F+F+F+F+F+F+F+F+F+F+F+F+F+F+F+F+F+F+F+F+F+F+F+F+",
"F+F+F+F+F+F+F+F+F+F+F+F+F+F+F+F+F+F+F+F+F+F+F+F+F+F+F+F+F+F+F+F+F+F+F+F+F+F+F+F+F+F+F+F+F+F+F+F+F+F+F+F+F+F+F+F+F+F+F+F+F+F+F+F+"};
