/* XPM */
static char * shield_6_xpm[] = {
"64 64 520 2",
"  	c #FFFFFF",
". 	c #C9C9C9",
"+ 	c #B7B7B8",
"@ 	c #ADAEAF",
"# 	c #A9AAAC",
"$ 	c #AEAEAF",
"% 	c #B7B7B7",
"& 	c #CACACB",
"* 	c #B4B5B6",
"= 	c #8C929A",
"- 	c #778494",
"; 	c #8393A7",
"> 	c #90A1B7",
", 	c #9AACC3",
"' 	c #98ACC3",
") 	c #69778B",
"! 	c #63799C",
"~ 	c #5F779C",
"{ 	c #52698D",
"] 	c #475C7D",
"^ 	c #495871",
"/ 	c #81858E",
"( 	c #B8B9B9",
"_ 	c #C9C9CA",
": 	c #8D929A",
"< 	c #6B7583",
"[ 	c #A2B1C4",
"} 	c #A1B1C6",
"| 	c #9EAEC5",
"1 	c #9CADC4",
"2 	c #9AACC4",
"3 	c #97ABC4",
"4 	c #96A9C2",
"5 	c #718196",
"6 	c #6E84A5",
"7 	c #5D769D",
"8 	c #587199",
"9 	c #557098",
"0 	c #567098",
"a 	c #58749C",
"b 	c #567199",
"c 	c #3D4E69",
"d 	c #868A93",
"e 	c #FDFDFD",
"f 	c #878D95",
"g 	c #8E9EB2",
"h 	c #97A9C0",
"i 	c #5F697A",
"j 	c #929FB1",
"k 	c #94A3B6",
"l 	c #7B899B",
"m 	c #657285",
"n 	c #4D5B74",
"o 	c #394867",
"p 	c #63728A",
"q 	c #8DA4C2",
"r 	c #6A7D98",
"s 	c #2B3B5B",
"t 	c #304364",
"u 	c #364867",
"v 	c #405574",
"w 	c #4F6990",
"x 	c #4D6890",
"y 	c #394D6E",
"z 	c #4D6790",
"A 	c #475E83",
"B 	c #787C86",
"C 	c #ACAEB0",
"D 	c #8492A5",
"E 	c #9EAFC5",
"F 	c #9EAFC6",
"G 	c #93A6BE",
"H 	c #6E7D91",
"I 	c #4B5974",
"J 	c #314770",
"K 	c #3A5484",
"L 	c #3D578A",
"M 	c #3C5688",
"N 	c #354C79",
"O 	c #5D6D86",
"P 	c #314468",
"Q 	c #3C5686",
"R 	c #3C5687",
"S 	c #3C5789",
"T 	c #395384",
"U 	c #314872",
"V 	c #304468",
"W 	c #374B6C",
"X 	c #4F688F",
"Y 	c #506B94",
"Z 	c #4F6994",
"` 	c #435879",
" .	c #A5A6A9",
"..	c #888D94",
"+.	c #8C9EB5",
"@.	c #9FB0C6",
"#.	c #9CADC3",
"$.	c #748396",
"%.	c #374766",
"&.	c #37507F",
"*.	c #3B5587",
"=.	c #3B5687",
"-.	c #3B5788",
";.	c #364E7C",
">.	c #3B5586",
",.	c #3B5686",
"'.	c #3C5788",
").	c #3A5281",
"!.	c #2D4165",
"~.	c #394D6D",
"{.	c #4E6892",
"].	c #526E99",
"^.	c #4D688F",
"/.	c #787D85",
"(.	c #838B94",
"_.	c #7E8EA1",
":.	c #647082",
"<.	c #909FB6",
"[.	c #4B586F",
"}.	c #344D7B",
"|.	c #3C5587",
"1.	c #3B5688",
"2.	c #3C5787",
"3.	c #37507D",
"4.	c #2C3E5E",
"5.	c #4A658E",
"6.	c #374C6D",
"7.	c #405879",
"8.	c #636C7C",
"9.	c #808790",
"0.	c #A0B2C5",
"a.	c #9DAFC3",
"b.	c #717E91",
"c.	c #374A6B",
"d.	c #3B5787",
"e.	c #2F446A",
"f.	c #374C6C",
"g.	c #506B93",
"h.	c #547097",
"i.	c #616A7A",
"j.	c #898D94",
"k.	c #98ABC0",
"l.	c #9DAFC5",
"m.	c #79889B",
"n.	c #324870",
"o.	c #344C76",
"p.	c #3B4F6E",
"q.	c #526E95",
"r.	c #506A90",
"s.	c #6C727E",
"t.	c #BBBCBC",
"u.	c #91A3B8",
"v.	c #78879B",
"w.	c #314873",
"x.	c #354D79",
"y.	c #526C94",
"z.	c #526B92",
"A.	c #A8A8AA",
"B.	c #B6B7B7",
"C.	c #9AACC2",
"D.	c #96A8BE",
"E.	c #2E4061",
"F.	c #3D588A",
"G.	c #2D4268",
"H.	c #4D668E",
"I.	c #56709A",
"J.	c #9EA0A3",
"K.	c #B6B7B8",
"L.	c #9CAEC2",
"M.	c #96A7BC",
"N.	c #2E4267",
"O.	c #3B5485",
"P.	c #3B5486",
"Q.	c #3D5688",
"R.	c #3D5789",
"S.	c #324872",
"T.	c #4B648C",
"U.	c #546F9A",
"V.	c #9D9FA2",
"W.	c #99AABD",
"X.	c #2F4267",
"Y.	c #546E99",
"Z.	c #9D9EA1",
"`.	c #B5B6B7",
" +	c #9DB0C4",
".+	c #99ABBF",
"++	c #2F4268",
"@+	c #3A5385",
"#+	c #324772",
"$+	c #4A638A",
"%+	c #536D97",
"&+	c #9D9FA1",
"*+	c #B4B5B7",
"=+	c #93A4B9",
"-+	c #8EA0B6",
";+	c #3B5385",
">+	c #3C5588",
",+	c #3D5788",
"'+	c #455D83",
")+	c #49618A",
"!+	c #9DA0A2",
"~+	c #B2B3B5",
"{+	c #717F94",
"]+	c #6B798F",
"^+	c #2F4369",
"/+	c #3D5687",
"(+	c #334768",
"_+	c #374B6B",
":+	c #9E9FA2",
"<+	c #B0B2B3",
"[+	c #93A8C2",
"}+	c #8FA2BC",
"|+	c #30436A",
"1+	c #3A5486",
"2+	c #314771",
"3+	c #49638D",
"4+	c #9EA0A2",
"5+	c #B1B3B4",
"6+	c #97ABC5",
"7+	c #92A5BD",
"8+	c #3A5586",
"9+	c #324771",
"0+	c #49638B",
"a+	c #536F9A",
"b+	c #98ACC4",
"c+	c #90A4BB",
"d+	c #2E4269",
"e+	c #3A5485",
"f+	c #496289",
"g+	c #526E98",
"h+	c #AFB0B2",
"i+	c #90A3BA",
"j+	c #2E4268",
"k+	c #324770",
"l+	c #49628A",
"m+	c #536E98",
"n+	c #AEB0B1",
"o+	c #99ADC4",
"p+	c #91A4BA",
"q+	c #2E4168",
"r+	c #49638A",
"s+	c #ADAEB0",
"t+	c #9AAEC4",
"u+	c #92A5BA",
"v+	c #324871",
"w+	c #9C9EA0",
"x+	c #9BB0C5",
"y+	c #92A6BB",
"z+	c #4A638B",
"A+	c #9C9D9F",
"B+	c #ADAFB0",
"C+	c #8598AD",
"D+	c #7E91A9",
"E+	c #435C81",
"F+	c #435A80",
"G+	c #9B9C9F",
"H+	c #ABAEAF",
"I+	c #788A9F",
"J+	c #6D7E94",
"K+	c #3A5384",
"L+	c #314772",
"M+	c #394E70",
"N+	c #364B6B",
"O+	c #98999E",
"P+	c #AAADAE",
"Q+	c #A0B4CB",
"R+	c #98AAC0",
"S+	c #2F4269",
"T+	c #4A638C",
"U+	c #516B97",
"V+	c #97989C",
"W+	c #ACAEAF",
"X+	c #9EB2C8",
"Y+	c #97A8BE",
"Z+	c #31466F",
"`+	c #4B638C",
" @	c #536D99",
".@	c #999B9E",
"+@	c #B1B2B3",
"@@	c #9CAFC5",
"#@	c #2E4166",
"$@	c #30446D",
"%@	c #4B648F",
"&@	c #526D99",
"*@	c #9E9FA1",
"=@	c #B9B9BA",
"-@	c #98ABC1",
";@	c #99AAC2",
">@	c #304163",
",@	c #3B5384",
"'@	c #4E6792",
")@	c #536E9A",
"!@	c #C3C4C4",
"~@	c #91A4B9",
"{@	c #9CAEC5",
"]@	c #374564",
"^@	c #3C5586",
"/@	c #2D3F64",
"(@	c #4F6A95",
"_@	c #526C96",
":@	c #B3B4B4",
"<@	c #FEFEFE",
"[@	c #8798AD",
"}@	c #4D5971",
"|@	c #3D5587",
"1@	c #2D3F62",
"2@	c #516C97",
"3@	c #4E668E",
"4@	c #C3C3C3",
"5@	c #7B8A9C",
"6@	c #9CACC4",
"7@	c #5F6B7E",
"8@	c #304162",
"9@	c #475E82",
"0@	c #7B8695",
"a@	c #717D90",
"b@	c #3A5282",
"c@	c #374867",
"d@	c #405474",
"e@	c #90969D",
"f@	c #8593A8",
"g@	c #354A76",
"h@	c #3C5486",
"i@	c #405577",
"j@	c #526E97",
"k@	c #5B6577",
"l@	c #AEAFB1",
"m@	c #99ABC2",
"n@	c #96A7BD",
"o@	c #304266",
"p@	c #3D5787",
"q@	c #4B658D",
"r@	c #536F99",
"s@	c #909397",
"t@	c #8598AC",
"u@	c #9BAEC5",
"v@	c #546077",
"w@	c #3D5889",
"x@	c #2D3F61",
"y@	c #526F9A",
"z@	c #4E6991",
"A@	c #BCBDBD",
"B@	c #7A8695",
"C@	c #9EB0C6",
"D@	c #778495",
"E@	c #395080",
"F@	c #354969",
"G@	c #516D96",
"H@	c #415879",
"I@	c #9C9FA4",
"J@	c #9CADC2",
"K@	c #8697AE",
"L@	c #2F436B",
"M@	c #3B5585",
"N@	c #3D5686",
"O@	c #334A75",
"P@	c #3D5479",
"Q@	c #4D6993",
"R@	c #737986",
"S@	c #C5C6C6",
"T@	c #6D7886",
"U@	c #647185",
"V@	c #505C78",
"W@	c #3C5485",
"X@	c #3D5786",
"Y@	c #3C5786",
"Z@	c #2F4265",
"`@	c #374D6E",
" #	c #344869",
".#	c #B4B4B6",
"+#	c #788494",
"@#	c #91A5BD",
"##	c #768499",
"$#	c #374E7C",
"%#	c #3B5484",
"&#	c #3F5473",
"*#	c #557197",
"=#	c #445977",
"-#	c #A1A3A7",
";#	c #96A9C0",
">#	c #92A3BC",
",#	c #354467",
"'#	c #526D94",
")#	c #577399",
"!#	c #8B8E95",
"~#	c #7D8C9E",
"{#	c #99ABC3",
"]#	c #687388",
"^#	c #3A5283",
"/#	c #3C5585",
"(#	c #37496A",
"_#	c #59769F",
":#	c #4D6688",
"<#	c #909399",
"[#	c #94A3B8",
"}#	c #32446B",
"|#	c #2E426B",
"1#	c #4C668C",
"2#	c #59759D",
"3#	c #767B87",
"4#	c #8997A9",
"5#	c #667387",
"6#	c #3E5687",
"7#	c #334664",
"8#	c #54719A",
"9#	c #4B6387",
"0#	c #90939A",
"a#	c #93A4BC",
"b#	c #39486B",
"c#	c #3E5787",
"d#	c #3E5788",
"e#	c #2D4167",
"f#	c #4B658B",
"g#	c #526D96",
"h#	c #808EA2",
"i#	c #727E94",
"j#	c #546179",
"k#	c #364E7B",
"l#	c #2F4362",
"m#	c #3B4E6E",
"n#	c #40587A",
"o#	c #A3A5A8",
"p#	c #728399",
"q#	c #879BB6",
"r#	c #4C5973",
"s#	c #3D5586",
"t#	c #2F4261",
"u#	c #526F98",
"v#	c #435979",
"w#	c #989A9E",
"x#	c #788290",
"y#	c #94A9C2",
"z#	c #889AB2",
"A#	c #34476C",
"B#	c #2C4066",
"C#	c #4B658A",
"D#	c #57749B",
"E#	c #5F6B7D",
"F#	c #CCCDCE",
"G#	c #7F8FA3",
"H#	c #9AADC5",
"I#	c #79879B",
"J#	c #354C7A",
"K#	c #334975",
"L#	c #3E5475",
"M#	c #536E93",
"N#	c #445C7A",
"O#	c #FCFCFC",
"P#	c #A6A8AB",
"Q#	c #93A5BB",
"R#	c #637185",
"S#	c #354D7B",
"T#	c #354E7D",
"U#	c #384D6E",
"V#	c #536F96",
"W#	c #4A6487",
"X#	c #A7A8AA",
"Y#	c #8A8E96",
"Z#	c #95A9C1",
"`#	c #93A7C2",
" $	c #57657D",
".$	c #364E7D",
"+$	c #364B6C",
"@$	c #537098",
"#$	c #526D93",
"$$	c #83868C",
"%$	c #7B838F",
"&$	c #92A7C1",
"*$	c #7A8DA8",
"=$	c #47556E",
"-$	c #354D7C",
";$	c #364D7B",
">$	c #2C3F5F",
",$	c #435C83",
"'$	c #537197",
")$	c #6D747F",
"!$	c #7B8594",
"~$	c #677083",
"{$	c #7A8CA5",
"]$	c #5F6F84",
"^$	c #344A78",
"/$	c #344666",
"($	c #42587A",
"_$	c #344662",
":$	c #7C8593",
"<$	c #99ADC5",
"[$	c #6D7B8E",
"}$	c #334A77",
"|$	c #324A79",
"1$	c #516C93",
"2$	c #526E94",
"3$	c #596478",
"4$	c #7B848F",
"5$	c #9BAEC2",
"6$	c #9EB1C7",
"7$	c #7D8DA2",
"8$	c #334466",
"9$	c #3A5284",
"0$	c #465C7F",
"a$	c #56729B",
"b$	c #5E6776",
"c$	c #858A91",
"d$	c #93A6BC",
"e$	c #97ADC6",
"f$	c #8A9FB9",
"g$	c #53647F",
"h$	c #546D94",
"i$	c #5B759D",
"j$	c #566F95",
"k$	c #747983",
"l$	c #9C9DA1",
"m$	c #8398AD",
"n$	c #95AAC3",
"o$	c #5E697B",
"p$	c #51698D",
"q$	c #919397",
"r$	c #C3C3C4",
"s$	c #7F8B9B",
"t$	c #58677E",
"u$	c #A8A8A8",
"                                                                                                                                ",
"                                                                                                                                ",
"                                                        . + @ # $ % &                                                           ",
"                                                * = - ; > , ' ) ! ~ { ] ^ / (                                                   ",
"                                          _ : < [ } | 1 2 3 4 5 6 7 8 9 0 a b c d e                                             ",
"                                        f g h i j k l m n o p q r s t u v w x y z A B                                           ",
"                                    C D E F G H I J K L M M N O P Q R S T U V W X Y Z `  .                                      ",
"                                  ..+.@.#.$.%.&.R *.=.=.=.R -.;.>.,.=.M '.'.S ).!.~.{.].^./.                                    ",
"                                (._.:.<.[.}.*.|.*.=.=.=.=.1.'.2.R R -.M M R R R R 3.4.5.6.7.8.                                  ",
"                              9.0.a.b.c.*.*.|.*.=.=.=.=.=.d.d.d.R d.M '.'.M =.R R =.=.e.f.g.h.i.                                ",
"                            j.k.l.m.n.M *.*.R =.R =.=.M d.d.1.-.R '.'.M M 1.M R R R R '.o.p.q.r.s.                              ",
"                          t.u.l.v.w.*.*.*.=.=.=.R R =.=.=.d.=.d.R 1.M 1.M M R R R R R R '.x.p.y.z.A.                            ",
"                          B.C.D.E.>.>.>.*.*.=.R R R R d.2.2.d.1.R =.M R R M R 2.2.2.2.2.'.F.G.H.I.J.                            ",
"                          K.L.M.N.O.P.>.*.|.R R R R R R R R R =.=.R R R R 2.R R 2.M M M Q.R.S.T.U.V.                            ",
"                          K.a.W.X.O.P.>.*.*.R R R =.R R M M =.=.=.R R R R R R 2.R M M M '.R.S.T.Y.Z.                            ",
"                          `. +.+++@+P.>.*.*.R R R R R R R M R R R R R R R R R R R R M M Q.R.#+$+%+&+                            ",
"                          *+=+-+++;+P.>.>.*.=.=.R R =.R R |.>+=.R >+R R R R R R R R M M Q.,+S.'+)+!+                            ",
"                          ~+{+]+^+;+P.>.>.>.=.=.=.=.R R R R 1.R R R R =.R R R R R R R /+R Q.#+(+_+:+                            ",
"                          <+[+}+|+O.P.1+>.>.*.*.*.=.=.R M M M M R R R R R R R R R R R /+R /+2+3+].4+                            ",
"                          5+6+7+^+@+1+1+8+>.*.=.*.*.*.=.1.M >+R M M M R M R R R R M R R R M 9+0+a+4+                            ",
"                          <+b+c+d+@+e+1+8+>.>.*.>.*.*.=.R =.=.=.R =.M M R M M R R R R R R R 9+f+g+&+                            ",
"                          h+b+i+j+e+e+1+8+>.>.*.>.*.*.=.=.R 1.M R M M M M M M M R R R R R 2.k+l+m+&+                            ",
"                          n+o+p+q+e+e+8+8+>.>.*.*.*.=.=.=.=.M d.-.M -.M M M M M R R '.2.R 2.k+r+m+Z.                            ",
"                          s+t+u+j+e+e+8+8+>.>.>.*.*.=.=.=.=.d.=.M '.M M M M M M M R d.R -.'.v+$+m+w+                            ",
"                          s+x+y+j+K e+e+1+>.8+>.>.*.=.=.=.=.=.'.'.M M M M M M R R 2.2.2.2.'.S.z+%+A+                            ",
"                          B+C+D+j+K @+e+1+P.>.>.>.=.=.=.=.=.=.M M M M M M M M M R M M R M '.U E+F+G+                            ",
"                          H+I+J+j+K+e+e+1+1+>.>.>.>.=.=.=.M =.M M M M M M M M R M 2.2.M 2.'.L+M+N+O+                            ",
"                          P+Q+R+S+K+;+O.P.P.>.>.>.=.=.=.=.R R R M M M M M M R R R R M R M M 9+T+U+V+                            ",
"                          W+X+Y+j+@+;+O.P.P.>.>.,.,.,.=.R R R R M M M M M M R R R R R R M M Z+`+ @.@                            ",
"                          +@@@D.#@;+;+O.P.>.>.>.>.>.*.,.R R M >+M M M M R M R R R R R |.R M $@%@&@*@                            ",
"                          =@-@;@>@,@;+P.>.>.>.>.>.>.*.|.R |.R R R M M M M R R R R R R R R M j+'@)@A.                            ",
"                          !@~@{@]@K+O.P.>.>.>.>.^@^@|.|.R /+/+R R M M R R R R R R R R |.|.Q./@(@_@:@                            ",
"                          <@[@1 }@;+O.>.>.>.>.^@>.>.|.R R /+/+R R R R R R M R R R R R |@R Q.1@2@3@4@                            ",
"                            5@6@7@P.O.P.>.>.^@^@^@|.|.|.R R R R R R R M Q.R R R R R |.R M M 8@_@9@<@                            ",
"                            0@2 a@b@P.>.>.>.>.^@^@|.R R R R R R R R 2.2.R R R R R R R R /+Q.c@y.d@                              ",
"                            e@{@f@g@h@>.>.,.>.^@^@^@^@Q R R R /+R 2.R R R R R R R R R R /+).i@j@k@                              ",
"                            l@m@n@o@O.P.>.^@^@^@^@R R Q R R p@2.p@p@2.R /+R R R R R R R ,+J q@r@s@                              ",
"                            e t@u@v@e+O.>.>.>.^@^@Q Q Q 2.2.2.p@2.p@/+R R R R R R R 2.,+w@x@y@z@A@                              ",
"                              B@C@D@E@O.P.>.>.^@^@Q R /+p@2.2.p@p@p@/+R R R R R R R 2.p@2.F@G@H@                                ",
"                              I@J@K@L@O.M@^@^@Q ^@Q Q N@2.p@/+p@/+/+R /+/+R R R 2.R R 2.O@P@Q@R@                                ",
"                              S@T@U@V@O.W@P.^@^@Q Q N@X@p@p@p@p@p@/+/+R R R R R /+Y@p@,+Z@`@ #.#                                ",
"                                +#@###$#W@P.^@^@Q Q N@N@p@/+p@/+/+/+/+/+R R Q R R R R %#&#*#=#                                  ",
"                                -#;#>#,#O.W@^@Q Q N@X@N@p@p@/+p@/+/+/+R Q Q R R R R M L@'#)#!#                                  ",
"                                  ~#{#]#^#W@/#^@Q /+N@N@/+/+p@/+/+/+/+R N@Q Q Q R R ^@(#_#:#<@                                  ",
"                                  <#E [#}#h@/#^@Q /+N@/+/+/+/+/+/+/+/+/+Q Q Q Q R |.|#1#2#3#                                    ",
"                                  <@4#F 5#b@/#^@^@Q /+/+/+6#/+6#/+N@/+N@R Q Q ^@Q @+7#8#9#&                                     ",
"                                    0#{@a#b#^@^@Q Q /+/+c#d#c#c#/+N@N@Q Q Q Q Q |.e#f#g#B                                       ",
"                                      h#i#j#N ^@^@Q N@/+/+/+/+N@N@N@N@N@Q Q Q ^@k#l#m#n#<@                                      ",
"                                      o#p#q#r#K+/#s#/+/+/+p@p@/+X@Q Q Q Q Q Q >.t#u#v#w#                                        ",
"                                        x#y#z#A#>+^@^@R /+p@X@N@X@N@N@Q Q ^@>.B#C#D#E#                                          ",
"                                        F#G#H#I#J#>.^@^@/+N@X@X@N@X@N@N@R Q K#L#M#N#O#                                          ",
"                                          P#Q#u@R#S#>.^@Q Q 2.p@Q N@p@Q R T#U#V#W#X#                                            ",
"                                            Y#Z#`# $.$>.>.Q Q R R R R Q &.+$@$#$$$                                              ",
"                                              %$&$*$=$-$>.>.|.R R ^@O.;$>$,$'$)$                                                ",
"                                                !$~${$]$;$1.R R 1.*.^$/$($_$i                                                   ",
"                                                  :$<$<$[$}$*.*.1.|$~.1$2$3$                                                    ",
"                                                    4$5$6$7$8$9$|#0$a$1$b$                                                      ",
"                                                      c$d$e$f$g$h$i$j$k$                                                        ",
"                                                        l$m$n$o$p$p$q$                                                          ",
"                                                          r$s$I#t$=@                                                            ",
"                                                              u$                                                                ",
"                                                                                                                                ",
"                                                                                                                                ",
"                                                                                                                                "};
