/* XPM */
static char * shield_4_xpm[] = {
"64 64 255 2",
"  	c #141929",
". 	c #171C2B",
"+ 	c #142840",
"@ 	c #232A40",
"# 	c #212C45",
"$ 	c #1D2D4B",
"% 	c #21304E",
"& 	c #233251",
"* 	c #263454",
"= 	c #23365A",
"- 	c #283756",
"; 	c #25385C",
"> 	c #243A59",
", 	c #273A5E",
"' 	c #2B3A59",
") 	c #283B5F",
"! 	c #333A51",
"~ 	c #293C60",
"{ 	c #253D66",
"] 	c #313B56",
"^ 	c #2E3C5C",
"/ 	c #2A3D61",
"( 	c #2C3E57",
"_ 	c #2F3D5D",
": 	c #293F5D",
"< 	c #2B3E62",
"[ 	c #283F69",
"} 	c #2D3F64",
"| 	c #2E4065",
"1 	c #2A416B",
"2 	c #2C4260",
"3 	c #284366",
"4 	c #2B426C",
"5 	c #30425C",
"6 	c #334161",
"7 	c #2D4362",
"8 	c #304267",
"9 	c #2C436D",
"0 	c #374252",
"a 	c #2E4463",
"b 	c #2D446E",
"c 	c #324469",
"d 	c #2E456F",
"e 	c #33455F",
"f 	c #364464",
"g 	c #304665",
"h 	c #3F4355",
"i 	c #2F4670",
"j 	c #3B4561",
"k 	c #314772",
"l 	c #384667",
"m 	c #3E4652",
"n 	c #324867",
"o 	c #35476D",
"p 	c #364862",
"q 	c #3C4758",
"r 	c #344969",
"s 	c #374963",
"t 	c #334974",
"u 	c #2F4A7A",
"v 	c #344A75",
"w 	c #364B6B",
"x 	c #354B76",
"y 	c #45495C",
"z 	c #394B71",
"A 	c #324D7D",
"B 	c #374D78",
"C 	c #334E7E",
"D 	c #394E6E",
"E 	c #3B4D73",
"F 	c #494B59",
"G 	c #3C4E68",
"H 	c #384E79",
"I 	c #344F7F",
"J 	c #394F7A",
"K 	c #355080",
"L 	c #3B5070",
"M 	c #3E506B",
"N 	c #385176",
"O 	c #414F70",
"P 	c #474E66",
"Q 	c #365181",
"R 	c #3C5171",
"S 	c #3B517C",
"T 	c #375282",
"U 	c #435072",
"V 	c #3D5272",
"W 	c #40526D",
"X 	c #385383",
"Y 	c #34548A",
"Z 	c #445268",
"` 	c #395484",
" .	c #3F5474",
"..	c #3E547F",
"+.	c #3A5585",
"@.	c #435470",
"#.	c #36568C",
"$.	c #3C5686",
"%.	c #37578D",
"&.	c #3D5787",
"*.	c #425777",
"=.	c #3E587D",
"-.	c #4B5667",
";.	c #455772",
">.	c #3E5889",
",.	c #405A7F",
"'.	c #475974",
").	c #4B596F",
"!.	c #455A7A",
"~.	c #425B81",
"{.	c #465B7C",
"].	c #4E5A6B",
"^.	c #4F5976",
"/.	c #4A5B76",
"(.	c #4D5B71",
"_.	c #475C7D",
":.	c #445D83",
"<.	c #485D7E",
"[.	c #4E5D73",
"}.	c #575B6E",
"|.	c #555C74",
"1.	c #4D5F7A",
"2.	c #476086",
"3.	c #505F75",
"4.	c #4B6081",
"5.	c #456282",
"6.	c #416387",
"7.	c #595F66",
"8.	c #556071",
"9.	c #4F617C",
"0.	c #496288",
"a.	c #536178",
"b.	c #4D6283",
"c.	c #4B648A",
"d.	c #52647F",
"e.	c #56647B",
"f.	c #4D668C",
"g.	c #516687",
"h.	c #4E678D",
"i.	c #4B6894",
"j.	c #4C6989",
"k.	c #5B6678",
"l.	c #5F666D",
"m.	c #50698F",
"n.	c #62667A",
"o.	c #54698A",
"p.	c #5D687A",
"q.	c #5F6874",
"r.	c #4F6C8C",
"s.	c #606975",
"t.	c #526B92",
"u.	c #5E6A7B",
"v.	c #576B8D",
"w.	c #506D99",
"x.	c #65697D",
"y.	c #546D93",
"z.	c #4A709B",
"A.	c #5E6C83",
"B.	c #606C7E",
"C.	c #556E94",
"D.	c #4F7095",
"E.	c #676B7F",
"F.	c #596E8F",
"G.	c #566F95",
"H.	c #587097",
"I.	c #54719D",
"J.	c #6B6D7B",
"K.	c #646F81",
"L.	c #666F7B",
"M.	c #527398",
"N.	c #597198",
"O.	c #4F749F",
"P.	c #5273A4",
"Q.	c #5A7299",
"R.	c #56739F",
"S.	c #5D7293",
"T.	c #5B739A",
"U.	c #6E707E",
"V.	c #69727E",
"W.	c #5C749C",
"X.	c #5D759D",
"Y.	c #57789E",
"Z.	c #5E769E",
"`.	c #5F779F",
" +	c #6F757D",
".+	c #5B78A4",
"++	c #6D7683",
"@+	c #727679",
"#+	c #6079A0",
"$+	c #74787B",
"%+	c #79777B",
"&+	c #717986",
"*+	c #737A82",
"=+	c #787A89",
"-+	c #787E86",
";+	c #767F8D",
">+	c #797F87",
",+	c #807E82",
"'+	c #7D8184",
")+	c #7C838B",
"!+	c #7C8593",
"~+	c #7F858D",
"{+	c #818588",
"]+	c #81878F",
"^+	c #828991",
"/+	c #898992",
"(+	c #868D95",
"_+	c #898F97",
":+	c #8E8E97",
"<+	c #8B9092",
"[+	c #8B9299",
"}+	c #8E9295",
"|+	c #919597",
"1+	c #959A9C",
"2+	c #9DA2A4",
"3+	c #A5A2A7",
"4+	c #9FA4A6",
"5+	c #A2A6A9",
"6+	c #A4A8AB",
"7+	c #AAA8AC",
"8+	c #A6AAAD",
"9+	c #A8ACAF",
"0+	c #A9ADB0",
"a+	c #B1AEB3",
"b+	c #AFB3B6",
"c+	c #B4B9BB",
"d+	c #B6BBBD",
"e+	c #B9BEC0",
"f+	c #BDC0BD",
"g+	c #BEC2C5",
"h+	c #C1C3C0",
"i+	c #C3C5C2",
"j+	c #C1C6C9",
"k+	c #C4C6C3",
"l+	c #C3C7CA",
"m+	c #C6C8C5",
"n+	c #C5C9CC",
"o+	c #C6CACD",
"p+	c #C8CAC7",
"q+	c #C9CED0",
"r+	c #CDD0CC",
"s+	c #D4D1D6",
"t+	c #CFD3D6",
"u+	c #D5D7D4",
"v+	c #D3D8DA",
"w+	c #D8DAD7",
"x+	c #DBDFE2",
"y+	c #E0E2DF",
"z+	c #E6EAED",
"A+	c #E8EAE7",
"B+	c #ECEFEB",
"C+	c #EFF1EE",
"D+	c #F1F6F8",
"E+	c #FAFCF9",
"F+	c #FFFFFF",
"F+F+F+F+F+F+F+F+F+F+F+F+F+F+F+F+F+F+F+F+F+F+F+F+F+F+F+F+F+F+F+F+F+F+F+F+F+F+F+F+F+F+F+F+F+F+F+F+F+F+F+F+F+F+F+F+F+F+F+F+F+F+F+F+",
"F+F+F+F+F+F+F+F+F+F+F+F+F+F+F+F+F+F+F+F+d+F+F+F+F+F+F+F+F+F+F+F+F+F+F+F+F+F+F+F+F+F+F+F+F+F+F+F+F+F+F+F+F+F+F+F+F+F+F+F+F+F+F+F+",
"F+F+F+F+F+F+F+F+F+F+F+F+F+F+F+F+F+F+F+F+F+d+F+F+F+F+F+u+b+1+)+V.u.K.&+_+5+h+F+F+F+F+F+F+F+F+F+F+F+F+F+F+F+F+F+F+F+F+F+F+F+F+F+F+",
"F+F+F+F+F+F+F+F+F+F+F+F+F+F+F+F+F+F+F+F+F+F+k+F+c+-+/.g.H.W.X.`.{.!.X.W.H.o.!.8.|+t+F+F+F+F+F+F+F+F+F+F+F+F+F+F+F+F+F+F+F+F+F+F+",
"F+F+F+F+F+F+F+F+F+F+F+F+F+F+F+F+F+F+F+F+F+F+9+'+G T.W.Z.X.X.S.X.v.v.N.G.G.H.H.N.m.w K.c+F+F+F+F+F+F+F+F+F+F+F+F+F+F+F+F+F+F+F+F+",
"F+F+F+F+F+F+F+F+F+F+F+F+F+F+F+F+F+F+F+F+1+1.a.b+p h.4.G a < 9 _ T.y.' < < 2 L f.<.L P.d.F+e+F+F+F+F+F+F+F+F+F+F+F+F+F+F+F+F+F+F+",
"F+F+F+F+F+F+F+F+F+F+F+F+F+F+F+F+F+F+t+p.Q.X.S.2+q.) k Q +.+.&.+.r : X +.$.$.X v | D i.3+~+6.)+F+F+F+F+F+F+F+F+F+F+F+F+F+F+F+F+F+",
"F+F+F+F+F+F+F+F+F+F+F+F+F+F+F+F+F+a+;.X.Z.v.p j 2+B T X +.+.$.$.T T +.+.+.+.$.&.&.+.^ 0+:.y.0.].F+F+F+F+F+F+F+F+F+F+F+F+F+F+F+F+",
"F+F+F+F+F+F+F+F+F+F+F+F+F+F+F+F+1+m.G !.*.| +..._+^.+.+.X +.+.+.+.+.+.+.$.$.$.$.&.&.>+J.' ~.r D ;.p+F+F+F+F+F+F+F+F+F+F+F+F+F+F+",
"F+F+F+F+F+F+F+F+F+F+F+F+F+F+F+1+G.X.c.( v +.X +.E _+Q +.+.+.+.+.+.$.+.+.$.+.+.+.$.A |+v ..8 2 h.w.{.r+F+F+F+F+F+F+F+F+F+F+F+F+F+",
"F+F+F+F+F+F+F+F+F+F+F+F+F+F+6+G.#+H.: C X +.X +.+.*+U +.+.+.+.+.+.+.+.$.+.+.+.$.$.n.E.+.+.+.x r z.O.9.F+F+F+F+F+F+F+F+F+F+F+F+F+",
"F+F+F+F+F+F+F+F+F+F+F+F+F+F+b.`.Q.2 T X +.+.+.+.+.z l.+.+.+.+.+.+.+.+.+.+.+.+.$.Q  +B +.+.+.+.J w O.R.V.F+F+F+F+F+F+F+F+F+F+F+F+",
"F+F+F+F+F+F+F+F+F+F+F+F+F+o+F.`.s X +.+.+.+.+.+.X +.y k X +.+.+.+.+.+.+.+.+.+.$.O |.+.+.+.+.$.&.v 2.R.a.F+F+F+F+F+F+F+F+F+F+F+F+",
"F+F+F+F+F+F+F+F+F+F+F+F+F+m+F.`.g X X X +.+.+.+.+.+.x @ X +.+.+.+.+.+.+.+.+.+.+.m C +.+.$.$.$.$.I <.T.[.F+F+F+F+F+F+F+F+F+F+F+F+",
"F+F+F+F+F+F+F+F+F+F+F+F+F+m+F.#+r T X X X +.+.+.+.+.+.% k +.+.+.+.+.+.+.+.+.+.d - +.+.$.$.$.$.$.C _.I.(.F+F+F+F+F+F+F+F+F+F+F+F+",
"F+F+F+F+F+F+F+F+F+F+F+F+F+n+F.Z.g +.X X X X +.+.+.+.X B $ +.+.+.+.+.+.+.+.+.+.+ H +.+.$.$.$.$.$.H !.I.[.F+F+F+F+F+F+F+F+F+F+F+F+",
"F+F+F+F+F+F+F+F+F+F+F+F+F+n+v.N.r X X X X X +.+.+.+.+.+.; x +.+.+.+.+.+.+.+.u * +.+.+.+.$.$.$.&.C ,.i.[.F+F+F+F+F+F+F+F+F+F+F+F+",
"F+F+F+F+F+F+F+F+F+F+F+u+o+l+s O z +.X X X X +.+.+.+.+.+.Q * X X +.X +.+.+.+.% I +.+.+.+.$.$.$.&.H a 2 P F+F+F+F+F+F+F+F+F+F+F+F+",
"F+F+F+F+F+F+F+F+F+F+F+F+c+q+{.0.r X X X X X +.+.+.+.+.+.+.< C +.X T X X +.A ) +.+.+.+.$.$.$.$.&.H ,.~.).F+F+F+F+F+F+F+F+F+F+F+F+",
"F+F+F+F+F+F+F+F+F+F+F+F+F+6+0+!+f X X X X +.+.+.+.+.+.+.+.X } C I Q T X X ) Q +.+.+.+.+.$.$.$.$.J :.I.).F+F+F+F+F+F+F+F+F+F+F+F+",
"F+F+F+F+F+F+F+F+F+F+F+F+F+l+{.;+1+x.I X X X +.+.+.+.+.X +.+.) 9 1 [ / < [ - +.+.+.+.+.+.+.$.$.$.J :.R.(.F+F+F+F+F+F+F+F+F+F+F+F+",
"F+F+F+F+F+F+F+F+F+F+F+F+F+l+v.`.( U.%+U T +.+.+.+.+.+.X +.+.| +.X +.$.+.Q d +.+.+.+.$.+.$.+.$.$.J <.Q.3.F+F+F+F+F+F+F+F+F+F+F+F+",
"F+F+F+F+F+F+F+F+F+F+F+F+F+l+y.`.g X t }.F v +.+.+.+.+.X +.+./ +.+.+.$.$.8 T +.+.+.+.+.+.$.+.$.$.B <.I.a.F+F+F+F+F+F+F+F+F+F+F+F+",
"F+F+F+F+F+F+F+F+F+F+F+F+F+k+y.`.f X X +.v ] # x +.+.X X +.+.8 K +.+.$.&.< +.+.+.+.+.$.+.+.$.$.$.x {.H.a.F+F+F+F+F+F+F+F+F+F+F+F+",
"F+F+F+F+F+F+F+F+F+F+F+F+F+i+F.X.2 X X X +.$.v # = I X X X +.t t +.+.$.C t +.+.+.+.$.+.+.$.$.$.$.x p [+F+F+F+F+F+F+F+F+F+F+F+F+F+",
"F+F+F+F+F+F+F+F+F+F+F+F+F+g+b.0.r +.+.+.+.+.+.X k $ [ T +.+.T 8 +.+.$.| &.+.+.+.+.+.+.$.$.&.X @.8+F+h+}+F+F+F+F+F+F+F+F+F+F+F+F+",
"F+F+F+F+F+F+F+F+F+F+F+F+F+g+M  .l +.+.+.+.+.+.+.+.X k = u Y } Q +.X B & I $.$.+.+.+.$.$.J u.8+c+/+5 q s F+F+F+F+F+F+F+F+F+F+F+F+",
"F+F+F+F+F+F+F+F+F+F+F+F+F+h+G.#+r +.+.+.+.+.+.+.+.+.+.+.d . < x Q J ~ Q < K $.+.+.+.t ] 7.++o X S :.C.@.F+F+F+F+F+F+F+F+F+F+F+F+",
"F+F+F+F+F+F+F+F+F+F+F+F+F+i+y.#+r +.+.+.+.+.+.+.+.+.+.+.+.1 X t < ~ k T T / T X b # * d X $.+.$.J 2.I.@.F+F+F+F+F+F+F+F+F+F+F+F+",
"F+F+F+F+F+F+F+F+F+F+F+F+F+p+t.Z.r +.+.+.+.+.+.+.+.+.+.+.+.1 +.T Q Q T X T Q * = k +.+.+.+.+.+.$.H 2.T.[.F+F+F+F+F+F+F+F+F+F+F+F+",
"F+F+F+F+F+F+F+F+F+F+F+F+F+F+g.X.r +.+.+.+.+.+.+.+.+.+.+.$.A k T T X X X T Q ) K +.+.+.+.+.+.$.+.t c.Q.L.F+F+F+F+F+F+F+F+F+F+F+F+",
"F+F+F+F+F+F+F+F+F+F+F+F+F+F+b.X.G +.+.+.+.+.+.+.+.+.+.$.$.+./ Q X +.+.X X Q ) X X +.+.+.+.+.$.$.b h.T.~+F+F+F+F+F+F+F+F+F+F+F+F+",
"F+F+F+F+F+F+F+F+F+F+F+F+F+F+/.X.@.X +.+.+.+.+.+.+.+.$.+.+.+.< X +.+.X X T K ; Q X +.+.+.+.+.+.$.< w.R.1+F+F+F+F+F+F+F+F+F+F+F+F+",
"F+F+F+F+F+F+F+F+F+F+F+F+F+F+k.W.<.B +.+.+.+.+.+.+.+.+.+.$.$.[ Q b | Q T Q ) [ ) A Y +.+.+.+.+.$.^ w.y.a+F+F+F+F+F+F+F+F+F+F+F+F+",
"F+F+F+F+F+F+F+F+F+F+F+F+F+F+(+X.t.d +.+.+.+.+.+.+.$.+.+.+.$.1 9 A x ) A 9 1 +.+.b ; k X +.+.+.$.f y.:.p+F+F+F+F+F+F+F+F+F+F+F+F+",
"F+F+F+F+F+F+F+F+F+F+F+F+F+F+0+T.W.< +.+.+.+.+.+.+.+.+.+.+.+.+.+.+.+.+.9 % Y +.+.+.X b & d Y $.X L y.V F+F+F+F+F+F+F+F+F+F+F+F+F+",
"F+F+F+F+F+F+F+F+F+F+F+F+F+F+s+g.W.w +.+.+.+.$.+.+.+.+.+.+.+.+.+.+.$.+.I d +.+.+.+.+.+.+.9 $ 9 b 2.m.s.F+F+F+F+F+F+F+F+F+F+F+F+F+",
"F+F+F+F+F+F+F+F+F+F+F+F+F+F+F+'.X.{.Q +.+.+.+.+.+.+.+.+.+.+.+.+.$.+.+.b X +.+.+.+.+.+.+.+.+.1   R f.2+F+F+F+F+F+F+F+F+F+F+F+F+F+",
"F+F+F+F+F+F+F+F+F+F+F+F+F+F+F+]+`.G.9 +.+.+.+.+.+.+.+.+.+.+.+.$.&.+.k ; &.+.+.+.+.+.+.+.+.$.$.w ;.0 n+F+F+F+F+F+F+F+F+F+F+F+F+F+",
"F+F+F+F+F+F+F+F+F+F+F+F+F+F+F+d+W.`.f +.+.+.+.+.+.+.+.+.+.+.+.t [ 1 A 1 K +.+.+.+.+.+.+.+.$.k h.Y.A.l+F+F+F+F+F+F+F+F+F+F+F+F+F+",
"F+F+F+F+F+F+F+F+F+F+F+F+F+F+F+F+;.G 5 C +.+.+.+.X ) ) X +.+.J | +.+.+.+.) +.+.+.+.+.+.+.$.&._ V <.9+F+F+F+F+F+F+F+F+F+F+F+F+F+F+",
"F+F+F+F+F+F+F+F+F+F+F+F+F+F+F+F+]+5.v.< +.+.+.K / I 8 [ +.X < T X +.+.+.d t +.+.+.+.+.$.+.T  ._.G F+F+F+F+F+F+F+F+F+F+F+F+F+F+F+",
"F+F+F+F+F+F+F+F+F+F+F+F+F+F+F+F+i+r.W.w T X u ) #.&.k d 1 C d +.+.+.+.+.%.& +.+.+.$.+.+.$.} t.H.++F+F+F+F+F+F+F+F+F+F+F+F+F+F+F+",
"F+F+F+F+F+F+F+F+F+F+F+F+F+F+F+F+F+k.W.h.d k { %.$.+.T ~ b = +.+.+.+.+.$.#.k | Y +.$.$.$.+.r M.j.h+F+F+F+F+F+F+F+F+F+F+F+F+F+F+F+",
"F+F+F+F+F+F+F+F+F+F+F+F+F+F+F+F+F+b+G.X.> 1 %.Y +.X X Q ; Q +.X +.+.+.+.+.Y h K +.$.$.$.| c.G.k.F+F+F+F+F+F+F+F+F+F+F+F+F+F+F+F+",
"F+F+F+F+F+F+F+F+F+F+F+F+F+F+F+F+F+F+e. .U k &.+.+.+.X X K / X X +.+.+.T x [ ! u.&.$.$.+.r C.c.d+F+F+F+F+F+F+F+F+F+F+F+F+F+F+F+F+",
"F+F+F+F+F+F+F+F+F+F+F+F+F+F+F+F+F+F+,+4..+D X +.+.+.+.+.+.t ; 9 1 < ) ) 1 J d *+z +.$.| w.I.p.F+F+F+F+F+F+F+F+F+F+F+F+F+F+F+F+F+",
"F+F+F+F+F+F+F+F+F+F+F+F+F+F+F+F+F+a+F+K.Z.0./ +.+.+.+.+.+.8 / C I X Y Y +.+.+.^+<+C A o i.h.l+F+F+F+F+F+F+F+F+F+F+F+F+F+F+F+F+F+",
"F+F+F+F+F+F+F+F+F+F+F+F+F+F+F+F+f+F+F+o+@.s R u +.+.+.+.+.-.k +.+.+.+.+.+.+.+.v t+J.3 N w )+F+F+F+F+F+F+F+F+F+F+F+F+F+F+F+F+F+F+",
"F+F+F+F+F+F+F+F+F+F+F+F+F+F+F+F+F+F+F+F+~+o.F.2 X +.$.$.Q @+A +.X +.+.+.+.+.+.$.&+v+,.I.@.F+F+F+F+F+F+F+F+F+F+F+F+F+F+F+F+F+F+F+",
"F+F+F+F+F+F+F+F+F+F+F+F+F+F+F+F+F+F+F+F+F+(.Q.v.< +.$.$.o <+T +.+.+.+.+.+.+.+.$.1 f+6+c.c+F+F+F+F+F+F+F+F+F+F+F+F+F+F+F+F+F+F+F+",
"F+F+F+F+F+F+F+F+F+F+F+F+F+F+F+F+F+F+F+F+F+e+g.`.g.d +.$.=+:+X +.+.+.+.+.+.+.+.C D u.F+7+F+F+F+F+F+F+F+F+F+F+F+F+F+F+F+F+F+F+F+F+",
"F+F+F+F+F+F+F+F+F+F+F+F+F+F+F+F+F+F+F+F+F+F+1+Q.`.<.k I c+x.+.+.+.+.+.+.+.+.K e D.j.c+F+F+F+F+F+F+F+F+F+F+F+F+F+F+F+F+F+F+F+F+F+",
"F+F+F+F+F+F+F+F+F+F+F+F+F+F+F+F+F+F+F+F+F+F+F+>+W.T.=.' F+c +.+.+.+.+.+.$.T g M.M.a.F+F+F+F+F+F+F+F+F+F+F+F+F+F+F+F+F+F+F+F+F+F+",
"F+F+F+F+F+F+F+F+F+F+F+F+F+F+F+F+F+F+F+F+F+F+F+F+V.C.N {+F+t +.X +.+.+.+.K 2 D C.1.F+F+F+F+F+F+F+F+F+F+F+F+F+F+F+F+F+F+F+F+F+F+F+",
"F+F+F+F+F+F+F+F+F+F+F+F+F+F+F+F+F+F+F+F+F+F+F+F+F+V. .e+k+^ +.+.+.+.+.x a w.W Z F+F+F+F+F+F+F+F+F+F+F+F+F+F+F+F+F+F+F+F+F+F+F+F+",
"F+F+F+F+F+F+F+F+F+F+F+F+F+F+F+F+F+F+F+F+F+F+F+F+F+F+$+F+4+f.' K +.+.k r C.G.1.t+F+F+F+F+F+F+F+F+F+F+F+F+F+F+F+F+F+F+F+F+F+F+F+F+",
"F+F+F+F+F+F+F+F+F+F+F+F+F+F+F+F+F+F+F+F+F+F+F+F+F+F+F+F+)+G.t.e x 1 *.C.y.).u+F+F+F+F+F+F+F+F+F+F+F+F+F+F+F+F+F+F+F+F+F+F+F+F+F+",
"F+F+F+F+F+F+F+F+F+F+F+F+F+F+F+F+F+F+F+F+F+F+F+F+F+F+F+F+6+<.Q.W.*.c.Q.y.8.F+F+F+F+F+F+F+F+F+F+F+F+F+F+F+F+F+F+F+F+F+F+F+F+F+F+F+",
"F+F+F+F+F+F+F+F+F+F+F+F+F+F+F+F+F+F+F+F+F+F+F+F+F+F+F+F+F+p+a.Z.~.,.y.*+F+F+F+F+F+F+F+F+F+F+F+F+F+F+F+F+F+F+F+F+F+F+F+F+F+F+F+F+",
"F+F+F+F+F+F+F+F+F+F+F+F+F+F+F+F+F+F+F+F+F+F+F+F+F+F+F+F+F+F+F+<+!.@.7+F+F+F+F+F+F+F+F+F+F+F+F+F+F+F+F+F+F+F+F+F+F+F+F+F+F+F+F+F+",
"F+F+F+F+F+F+F+F+F+F+F+F+F+F+F+F+F+F+F+F+F+F+F+F+F+F+F+F+F+F+F+F+t+F+F+F+F+F+F+F+F+F+F+F+F+F+F+F+F+F+F+F+F+F+F+F+F+F+F+F+F+F+F+F+",
"F+F+F+F+F+F+F+F+F+F+F+F+F+F+F+F+F+F+F+F+F+F+F+F+F+F+F+F+F+F+F+F+F+F+F+F+F+F+F+F+F+F+F+F+F+F+F+F+F+F+F+F+F+F+F+F+F+F+F+F+F+F+F+F+",
"F+F+F+F+F+F+F+F+F+F+F+F+F+F+F+F+F+F+F+F+F+F+F+F+F+F+F+F+F+F+F+F+F+F+F+F+F+F+F+F+F+F+F+F+F+F+F+F+F+F+F+F+F+F+F+F+F+F+F+F+F+F+F+F+"};
