/* XPM */
static char * shield_1_xpm[] = {
"64 64 519 2",
"  	c #FFFFFF",
". 	c #F4F4F4",
"+ 	c #FEFEFE",
"@ 	c #D9D8D9",
"# 	c #DCDCDC",
"$ 	c #C2C2C2",
"% 	c #E0E0E0",
"& 	c #838486",
"* 	c #F6F6F6",
"= 	c #C3C3C3",
"- 	c #CACBCB",
"; 	c #EAEAEA",
"> 	c #E7E7E7",
", 	c #FBFBFB",
"' 	c #C7C6C7",
") 	c #848484",
"! 	c #E3E3E3",
"~ 	c #C5C4C5",
"{ 	c #ACADAE",
"] 	c #C0C0C1",
"^ 	c #D0CFD0",
"/ 	c #F9F9F9",
"( 	c #465577",
"_ 	c #687081",
": 	c #ADADAF",
"< 	c #B9B9BA",
"[ 	c #D8D9D8",
"} 	c #4D5C7A",
"| 	c #435C8A",
"1 	c #435B88",
"2 	c #8F9299",
"3 	c #B7B7B8",
"4 	c #EAEBEB",
"5 	c #D0D0CF",
"6 	c #BEBEBF",
"7 	c #B5B6B8",
"8 	c #3D527B",
"9 	c #46608E",
"0 	c #4E5C79",
"a 	c #B5B6B9",
"b 	c #46577A",
"c 	c #7C7D83",
"d 	c #B1B2B5",
"e 	c #55617B",
"f 	c #55607A",
"g 	c #CACBCA",
"h 	c #6D7383",
"i 	c #EEEEEE",
"j 	c #9B9CA1",
"k 	c #455B86",
"l 	c #485D8C",
"m 	c #36476D",
"n 	c #394E76",
"o 	c #3C5076",
"p 	c #D4D4D4",
"q 	c #B3B3B5",
"r 	c #676C79",
"s 	c #4F5B7A",
"t 	c #465D8C",
"u 	c #293757",
"v 	c #898D95",
"w 	c #CFCFCF",
"x 	c #E0E0E1",
"y 	c #AFB1B4",
"z 	c #BABBBC",
"A 	c #C4C4C5",
"B 	c #A0A1A1",
"C 	c #C0C1C1",
"D 	c #43506C",
"E 	c #D8D8D9",
"F 	c #A4A5AA",
"G 	c #E7E8E8",
"H 	c #42557F",
"I 	c #676E82",
"J 	c #CACACB",
"K 	c #8D8F99",
"L 	c #556381",
"M 	c #989AA1",
"N 	c #C3C4C4",
"O 	c #9C9FA5",
"P 	c #405883",
"Q 	c #3C537B",
"R 	c #7A7E88",
"S 	c #C0C0C0",
"T 	c #55627F",
"U 	c #465D88",
"V 	c #7C7F89",
"W 	c #BBBCBC",
"X 	c #C6C6C7",
"Y 	c #B0B1B3",
"Z 	c #40537A",
"` 	c #465E8C",
" .	c #626979",
"..	c #8F939E",
"+.	c #435D8A",
"@.	c #B4B6B8",
"#.	c #C3C3C4",
"$.	c #96989F",
"%.	c #465E8D",
"&.	c #475E8B",
"*.	c #A7A8AC",
"=.	c #E3E4E5",
"-.	c #3B4F78",
";.	c #6D7485",
">.	c #9C9C9E",
",.	c #C1C1C1",
"'.	c #B6B7BA",
").	c #5F6472",
"!.	c #C1C1C2",
"~.	c #CFCFD0",
"{.	c #3D5076",
"].	c #445B89",
"^.	c #5D667D",
"/.	c #BDBDBD",
"(.	c #F0F0F1",
"_.	c #C4C3C5",
":.	c #D0CFCF",
"<.	c #BBBABB",
"[.	c #7E838E",
"}.	c #606777",
"|.	c #BFBFC0",
"1.	c #B9B9BB",
"2.	c #3A4C74",
"3.	c #3F5682",
"4.	c #BABBBD",
"5.	c #E7E7E8",
"6.	c #E8E8E7",
"7.	c #C1C1C0",
"8.	c #425170",
"9.	c #445A80",
"0.	c #5E6473",
"a.	c #5D6477",
"b.	c #828489",
"c.	c #BABABA",
"d.	c #C4C4C4",
"e.	c #A9A9AA",
"f.	c #E3E4E4",
"g.	c #828386",
"h.	c #C0C1C3",
"i.	c #C2C1C1",
"j.	c #CBCACA",
"k.	c #ACADAF",
"l.	c #435980",
"m.	c #55627B",
"n.	c #A8A8AB",
"o.	c #49587A",
"p.	c #3D5585",
"q.	c #3B4F76",
"r.	c #858994",
"s.	c #3B547E",
"t.	c #636872",
"u.	c #CACBCC",
"v.	c #D9D8D8",
"w.	c #C4C3C3",
"x.	c #EBEBEA",
"y.	c #B8B9BB",
"z.	c #D1D1D2",
"A.	c #314062",
"B.	c #3C5585",
"C.	c #3E5688",
"D.	c #3D5788",
"E.	c #6F7485",
"F.	c #525353",
"G.	c #F0F0F0",
"H.	c #C0C1C0",
"I.	c #A8AAAD",
"J.	c #C1C2C3",
"K.	c #6E727B",
"L.	c #3E5886",
"M.	c #425D89",
"N.	c #3A5179",
"O.	c #AEB0B4",
"P.	c #DCDDDD",
"Q.	c #F0F1F1",
"R.	c #CACACA",
"S.	c #CBCBCA",
"T.	c #BDBDBE",
"U.	c #B4B6BA",
"V.	c #384F7C",
"W.	c #3E5789",
"X.	c #3F598B",
"Y.	c #3B5482",
"Z.	c #CFD0D1",
"`.	c #3F5172",
" +	c #3F567E",
".+	c #646B7C",
"++	c #C3C4C5",
"@+	c #C6C7C8",
"#+	c #3D5782",
"$+	c #445E8B",
"%+	c #435D89",
"&+	c #3E4B65",
"*+	c #D4D4D5",
"=+	c #D9D9D8",
"-+	c #D8D8D8",
";+	c #EBEAEA",
">+	c #7E8490",
",+	c #3E598B",
"'+	c #3E5A8C",
")+	c #3F5A8B",
"!+	c #797E8B",
"~+	c #405882",
"{+	c #455E8B",
"]+	c #405274",
"^+	c #53617D",
"/+	c #445F8C",
"(+	c #47628D",
"_+	c #41577B",
":+	c #BDBEBE",
"<+	c #374E7A",
"[+	c #364E79",
"}+	c #535D74",
"|+	c #9C9EA0",
"1+	c #989CA2",
"2+	c #435B86",
"3+	c #47608F",
"4+	c #898E99",
"5+	c #92959C",
"6+	c #435E83",
"7+	c #A5A7A8",
"8+	c #88898B",
"9+	c #C3C4C3",
"0+	c #BBBDBF",
"a+	c #9FA2A8",
"b+	c #7D8393",
"c+	c #BEBFC1",
"d+	c #7B7F89",
"e+	c #8A8E97",
"f+	c #F1F1F0",
"g+	c #999A9A",
"h+	c #BFC0C1",
"i+	c #C2C3C4",
"j+	c #3D5070",
"k+	c #45608A",
"l+	c #989BA2",
"m+	c #C2C1C2",
"n+	c #A2A2A4",
"o+	c #3E557C",
"p+	c #435F89",
"q+	c #727A89",
"r+	c #4C586C",
"s+	c #EAEAEB",
"t+	c #ABACAE",
"u+	c #8C9199",
"v+	c #6E7583",
"w+	c #C4C5C5",
"x+	c #C6C6C6",
"y+	c #3C5578",
"z+	c #395173",
"A+	c #B0AFB1",
"B+	c #415B81",
"C+	c #838893",
"D+	c #A7A9AD",
"E+	c #81868E",
"F+	c #979AA0",
"G+	c #CCCDCD",
"H+	c #B6B7B9",
"I+	c #9599A2",
"J+	c #646D81",
"K+	c #A1A2A6",
"L+	c #B0B0B1",
"M+	c #CFD0D0",
"N+	c #A7A8A9",
"O+	c #455A82",
"P+	c #465C85",
"Q+	c #A0A1A2",
"R+	c #E4E3E4",
"S+	c #435C88",
"T+	c #445C88",
"U+	c #455D89",
"V+	c #999BA4",
"W+	c #415781",
"X+	c #415681",
"Y+	c #C0C1C2",
"Z+	c #C2C3C3",
"`+	c #9A9B9E",
" @	c #2D4164",
".@	c #2C3E62",
"+@	c #2E4267",
"@@	c #797C83",
"#@	c #D8D9D9",
"$@	c #405680",
"%@	c #415785",
"&@	c #FBFBFC",
"*@	c #36496C",
"=@	c #3C4F73",
"-@	c #364564",
";@	c #B9BABD",
">@	c #344A74",
",@	c #364B75",
"'@	c #3A537F",
")@	c #AEAFB2",
"!@	c #394F77",
"~@	c #435B89",
"{@	c #3E547D",
"]@	c #3C527B",
"^@	c #C0BFC0",
"/@	c #8C8F97",
"(@	c #505C75",
"_@	c #475573",
":@	c #445D8B",
"<@	c #7B818F",
"[@	c #3F5174",
"}@	c #425986",
"|@	c #3F5581",
"1@	c #9C9C9F",
"2@	c #CBCACB",
"3@	c #556179",
"4@	c #3F5B88",
"5@	c #8B8D94",
"6@	c #8C909A",
"7@	c #3C547B",
"8@	c #656B79",
"9@	c #616778",
"0@	c #405681",
"a@	c #415783",
"b@	c #515B71",
"c@	c #BEBEBE",
"d@	c #C3C2C3",
"e@	c #A6A8AB",
"f@	c #A0A2A7",
"g@	c #B2B3B6",
"h@	c #374B73",
"i@	c #747988",
"j@	c #7C8290",
"k@	c #476089",
"l@	c #54627D",
"m@	c #B6B7BB",
"n@	c #A7A7A9",
"o@	c #E8E7E7",
"p@	c #3B5076",
"q@	c #455D87",
"r@	c #B5B5B7",
"s@	c #3E4C68",
"t@	c #9699A0",
"u@	c #C1C2C1",
"v@	c #BEBFBF",
"w@	c #BFBFBF",
"x@	c #B6B5B6",
"y@	c #435982",
"z@	c #455573",
"A@	c #BFBEBF",
"B@	c #BCBEBE",
"C@	c #415B87",
"D@	c #425D8A",
"E@	c #A6A9AC",
"F@	c #BBBCBF",
"G@	c #949599",
"H@	c #304266",
"I@	c #576078",
"J@	c #B1B3B8",
"K@	c #B4B5B8",
"L@	c #B1B2B2",
"M@	c #999BA0",
"N@	c #A5A6AA",
"O@	c #BCBCBB",
"P@	c #E7E8E7",
"Q@	c #656D80",
"R@	c #425B89",
"S@	c #445D8A",
"T@	c #405781",
"U@	c #485677",
"V@	c #445783",
"W@	c #2F3D5E",
"X@	c #6F7587",
"Y@	c #33466E",
"Z@	c #405885",
"`@	c #405884",
" #	c #394D73",
".#	c #A2A3A6",
"+#	c #656D81",
"@#	c #848893",
"##	c #AEAFB1",
"$#	c #3C547F",
"%#	c #707787",
"&#	c #434C62",
"*#	c #344870",
"=#	c #435B8B",
"-#	c #707788",
";#	c #BFC0C0",
">#	c #2E4268",
",#	c #3E537E",
"'#	c #425A86",
")#	c #415A88",
"!#	c #425B87",
"~#	c #677186",
"{#	c #616B83",
"]#	c #485C85",
"^#	c #455881",
"/#	c #7F828C",
"(#	c #848588",
"_#	c #696F7B",
":#	c #3D5581",
"<#	c #415884",
"[#	c #3D557F",
"}#	c #B8B8B9",
"|#	c #AEAEB1",
"1#	c #3A4E7A",
"2#	c #3F5684",
"3#	c #3C507B",
"4#	c #717277",
"5#	c #71737B",
"6#	c #3C4E71",
"7#	c #445C8A",
"8#	c #7D8493",
"9#	c #425374",
"0#	c #465982",
"a#	c #43567E",
"b#	c #81848D",
"c#	c #8D909C",
"d#	c #3E5682",
"e#	c #7B7F88",
"f#	c #9B9CA2",
"g#	c #3C517C",
"h#	c #7E828D",
"i#	c #9C9FA4",
"j#	c #32466E",
"k#	c #32415F",
"l#	c #9FA1A4",
"m#	c #545E75",
"n#	c #3C5178",
"o#	c #888D98",
"p#	c #A3A4A8",
"q#	c #3E5073",
"r#	c #838794",
"s#	c #445D8C",
"t#	c #3E5581",
"u#	c #84878F",
"v#	c #C3C5C7",
"w#	c #BABABB",
"x#	c #7D7F85",
"y#	c #C6C7C7",
"z#	c #BEC0C0",
"A#	c #E9E9E9",
"B#	c #606980",
"C#	c #3F5888",
"D#	c #3F5683",
"E#	c #979BA2",
"F#	c #DDDCDD",
"G#	c #BAB9BA",
"H#	c #E3E3E4",
"I#	c #787E8F",
"J#	c #43506F",
"K#	c #3C4A69",
"L#	c #44567C",
"M#	c #415987",
"N#	c #9FA2A9",
"O#	c #455A86",
"P#	c #435783",
"Q#	c #40557F",
"R#	c #B9BABB",
"S#	c #C1C3C5",
"T#	c #B0B1B5",
"U#	c #E8E7E8",
"V#	c #C2C4C5",
"W#	c #3E507C",
"X#	c #394A71",
"Y#	c #4E5870",
"Z#	c #B8BABC",
"`#	c #A0A0A0",
" $	c #C4C4C6",
".$	c #A9A9AB",
"+$	c #78797C",
"@$	c #ABABAD",
"#$	c #797F8D",
"$$	c #94979F",
"%$	c #535E75",
"&$	c #3B527A",
"*$	c #3B4A69",
"=$	c #8D919B",
"-$	c #57627C",
";$	c #384C70",
">$	c #A1A1A4",
",$	c #A7A9AB",
"'$	c #75777B",
")$	c #3D547C",
"!$	c #3C5174",
"~$	c #656F84",
"{$	c #465A7A",
"]$	c #AAACB0",
"^$	c #3C547E",
"/$	c #3F5783",
"($	c #405985",
"_$	c #435C89",
":$	c #3B5178",
"<$	c #405377",
"[$	c #455B85",
"}$	c #344363",
"|$	c #41567A",
"1$	c #A2A4A9",
"2$	c #ADAFB2",
"3$	c #475470",
"4$	c #3E5681",
"5$	c #425C89",
"6$	c #3D4F72",
"7$	c #9A9EA7",
"8$	c #7F828B",
"9$	c #838792",
"0$	c #415880",
"a$	c #3E547C",
"b$	c #4B5058",
"c$	c #3F557A",
"d$	c #425D87",
"e$	c #BEBFC0",
"f$	c #7C808A",
"g$	c #5A6479",
"h$	c #465065",
"i$	c #B2B4B7",
"j$	c #445A86",
"k$	c #35476A",
"l$	c #394A68",
"m$	c #95979C",
"n$	c #535E74",
"o$	c #DDDDDC",
"p$	c #6A7282",
"q$	c #405A83",
"r$	c #BCBCBD",
"s$	c #616979",
"t$	c #9D9FA4",
"                                        .                                         .                                             ",
"                                                                                                      +                         ",
"                                                                                                                                ",
"                    @                                                                               #                   +       ",
"                      $                         % &                                                                   *         ",
"                        =               %         -                 +                             $                 ;           ",
"                          >                                         .                           ,                 %             ",
"                          +               '   ) !                   ;                           ~               #               ",
"                          + {               . ]                     !           ,             ^               #                 ",
"                        / ( _ :             <                       [                         %             %                   ",
"                        } | 1 2 3           4 [         *           5         ,             6             ;                     ",
"                      7 8 9 0     6       a b c d e f               -         g             ,           *                       ",
"                          h i       ~   j k l m n | o     i         g         p           q   r       ,                         ",
"                                      +   s t t u v       p         w   x y z           A B C D p     .                         ",
"                        E F           %   G H I J #       K L M     N   O P Q R         S           ;                           ",
"                        T U V           W   i     X   Y Z t `  .    C   ..| +.@.      #.          E                             ",
"                      $.%.&.*.            3         @ =.-.;.>.      ,.    '.).        %         !.      ~.                      ",
"                      {.].^.                /.  (.  _.  .   :.      ,.              <.  [.}.+ !.      |.                        ",
"                    1.2.3.4.        /         X   5.  p     6.      7.    #             8.9.0.    a.b.      c.              d.  ",
"                        e.            *       f.g.h.  -             i.    j.      /.    k.l.m.n.o.p.q.,               + |.      ",
"                                          5.  r.s.t.u.  v.    i     w.    *     x.      p y.z.A.B.C.D.E.    F.    G.H.          ",
"                            I.J.            K.L.M.N.O.P.Q.          R.  ,       S.    d.    T.U.V.W.X.Y.Z.    R.H.              ",
"                            `. +.+++      @+#++.$+%+&+*+  =+        -+  ;+    5     $     !     >+,+'+)+!+i.d.                  ",
"      >                   J.~+1 {+]+      > ^+/+(+_+i :+~.*         %         /   $   !           <+[+}+|+                      ",
"        + i !             1+2+` 3+4+          5+6+7+#   6   .       i       S.  X   d.            8+6.                          ",
"            /   =+9+9+      0+a+b+c+d+e+i       f+        +                   %   %         / 6                                 ",
"            g+          - h+i+      j+k+l+                                              ; m+                                    ",
"          . -+                  $ n+o+p+h+                                          w j.      q+r+        # s+        t+        ",
"                                    u+v+{ w+x++                                             + y+z+A+#               i B+#       ",
"                        C+D+                      4                                   , 5..   E+F+G+H+I+J+K+  L+6               ",
"        / . i > % E M+N+O+P+Q+R+i G.G.Q.,                                                         A S+T+U+V+    P.X             ",
"                      E W+X+Y+                                                    . i f.p w+Z+#.J `+ @.@+@@@!.|.|.S = w -+#@% f.",
"                      * $@%@6       &@*@=@-@                                                      ;@>@,@'@)@                    ",
"                        !@~@I.        {@1 ]@i                                       . p %             (.^@                      ",
"              /@(@X     _@:@<@        [@}@|@1@p 2@f+                                        - = *                               ",
"              3@4@5@    6@7@8@        9@0@a@b@                                      i >       (.  R.c@d@                        ",
"              e@f@              ~.N i g@h@i@i       ,.  i                               % ; j@k@l@m@      n@H+J                 ",
"                          w p           .       i o@  A             /         >     p       < p@q@r@      s@J+t@k.u@N +         ",
"                                              v@    w@    4 @+      f.          S     R.    x@y@z@A@    B@C@S+D@E@      G X #   ",
"                                      F@G@' 6.    =       H@I@J@K@  E   i       L@G     %     M@N@  O@P@Q@R@S@T@                ",
"                                  * U@V@W@%     ]       X@Y@Z@`@ # .E             .#+#@#    i         ##$#}@+.%#                ",
"                                    &#*#=#-#  ;#      r@>#,#'#)#!#~#u.    p       {#]#^#/#    (#      _#:#<#[#%                 ",
"                                  }#|#1#2#3#4#          5#6#`@R@7#8#Z+    x+      9#0#a#b#  c#d#e#G     f#g#h#6 +               ",
"                              i x+    i#j#k#f.        ]     l#m#n#o#v@            p#q#p#3   r#s#t#u#v#    #       d.            ",
"                            w#        G.x#y#          *     ;       z#      @+      .     c@A#B#C#D#E#                /         ",
"                        % F#        / /             G#      w       !.  H#I#J#K#            Y++ L#M#N#                          ",
"                      !.          >                         M+      #.  i+O#P#Q#R#            f.S#T#                            ",
"                  U#+           X                 |.  Z.V#          y#  s+W#X#Y#Z#    `#       $.$              v@              ",
"                p             +$@$      #$$$    p     %$&$*$=$a     M+    @   6       >     , -$;$>$            ,$*             ",
"                            '$)$!$++    ~${$    @+  ]$^$/$($_$:$    ~.                        <$[$}$i                           ",
"                          ] J.|$%+o+1$    #@  y#    2$3$4$5$| 6$    p           G + 7$8$      9$0$a$b$                          ",
"                        c@    A c$d$3@        i         e$f$g$h$    -+          P.i$j$k$      #.l$m$  R.                        ",
"                      v@        Q.n$X       m+                      o$          /   M+                                          ",
"                    u@                                              !                                   /                       ",
"                  R.                      d.                        ;                                     p                     ",
"                %                                                   G.                                      d.                  ",
"              *                         !                           /                     s+                  -+                ",
"                                                                                        p$q$r$                                  ",
"                                      +                                                 s$t$                                    ",
"                                                                                                                                ",
"                                                                                                                                ",
"                                                                                                                                ",
"                                                                                                                                ",
"                                                                                                                                "};
