/* XPM */
static char * shield_5_xpm[] = {
"64 64 653 2",
"  	c #FFFFFF",
". 	c #C9C9CA",
"+ 	c #B2B2B3",
"@ 	c #9DA0A3",
"# 	c #94979D",
"$ 	c #8C9198",
"% 	c #8E9299",
"& 	c #989A9F",
"* 	c #A9AAAB",
"= 	c #BEBFBF",
"- 	c #FBFBFB",
"; 	c #9EA0A4",
"> 	c #616B7D",
", 	c #4A5F7C",
"' 	c #556C8F",
") 	c #5E779C",
"! 	c #607BA0",
"~ 	c #5F7B9F",
"{ 	c #485E7C",
"] 	c #465C7B",
"^ 	c #59759C",
"/ 	c #577299",
"( 	c #516B8F",
"_ 	c #455C7D",
": 	c #4A5971",
"< 	c #7F848C",
"[ 	c #B9BABA",
"} 	c #BCBCBD",
"| 	c #6D7586",
"1 	c #3D4C67",
"2 	c #5B7194",
"3 	c #60789E",
"4 	c #5E779D",
"5 	c #5E779E",
"6 	c #5D779E",
"7 	c #5B759A",
"8 	c #5B769B",
"9 	c #4D6689",
"0 	c #4E688B",
"a 	c #577399",
"b 	c #567199",
"c 	c #556F97",
"d 	c #536E95",
"e 	c #567198",
"f 	c #496287",
"g 	c #3F4F6B",
"h 	c #92959B",
"i 	c #929395",
"j 	c #6B7384",
"k 	c #5F7599",
"l 	c #617AA1",
"m 	c #3F516E",
"n 	c #506384",
"o 	c #566D8F",
"p 	c #445673",
"q 	c #384865",
"r 	c #2D3E5E",
"s 	c #2C4064",
"t 	c #2F415F",
"u 	c #57739C",
"v 	c #546F98",
"w 	c #2C3C5A",
"x 	c #2D4063",
"y 	c #2F405F",
"z 	c #374967",
"A 	c #445A7B",
"B 	c #526D95",
"C 	c #3F577C",
"D 	c #3E5276",
"E 	c #5975A0",
"F 	c #4D6385",
"G 	c #8E9096",
"H 	c #ABACAD",
"I 	c #8A8E96",
"J 	c #475E81",
"K 	c #465674",
"L 	c #647BA2",
"M 	c #5E759C",
"N 	c #46597A",
"O 	c #314366",
"P 	c #314873",
"Q 	c #385281",
"R 	c #3A5484",
"S 	c #3A5383",
"T 	c #3A5586",
"U 	c #395383",
"V 	c #344968",
"W 	c #314464",
"X 	c #3B5586",
"Y 	c #3C5586",
"Z 	c #3C5588",
"` 	c #374F7E",
" .	c #2F446C",
"..	c #34496E",
"+.	c #455E86",
"@.	c #55719E",
"#.	c #55709D",
"$.	c #425778",
"%.	c #41546F",
"&.	c #B1B2B3",
"*.	c #FEFEFE",
"=.	c #596172",
"-.	c #4F678D",
";.	c #567098",
">.	c #435879",
",.	c #3C4E6C",
"'.	c #2D4064",
").	c #385080",
"!.	c #3B5386",
"~.	c #3A5487",
"{.	c #3A5486",
"].	c #3A5485",
"^.	c #375281",
"/.	c #3B5587",
"(.	c #3C5587",
"_.	c #3C5687",
":.	c #3C5688",
"<.	c #364D78",
"[.	c #2E4062",
"}.	c #445A81",
"|.	c #334562",
"1.	c #516D94",
"2.	c #435B7D",
"3.	c #85878E",
"4.	c #ECECEC",
"5.	c #51637F",
"6.	c #43597A",
"7.	c #394C6C",
"8.	c #4C6288",
"9.	c #2C3B5A",
"0.	c #223253",
"a.	c #395181",
"b.	c #3B5384",
"c.	c #3A5384",
"d.	c #3C5787",
"e.	c #2B3F64",
"f.	c #293752",
"g.	c #465D81",
"h.	c #324361",
"i.	c #465F83",
"j.	c #727783",
"k.	c #F8F8F9",
"l.	c #50627F",
"m.	c #607AA1",
"n.	c #59739C",
"o.	c #354A6A",
"p.	c #2C3F67",
"q.	c #3B5283",
"r.	c #2A3D62",
"s.	c #3B5486",
"t.	c #3B5687",
"u.	c #3C5686",
"v.	c #283B5F",
"w.	c #2A3D5F",
"x.	c #3B5172",
"y.	c #536F97",
"z.	c #536E96",
"A.	c #747985",
"B.	c #56657D",
"C.	c #5F79A1",
"D.	c #3B4F6D",
"E.	c #324976",
"F.	c #3A5386",
"G.	c #3B5385",
"H.	c #2E436B",
"I.	c #324B78",
"J.	c #395384",
"K.	c #395484",
"L.	c #3B5686",
"M.	c #38507D",
"N.	c #2D426A",
"O.	c #2D4268",
"P.	c #455D81",
"Q.	c #54729B",
"R.	c #526E95",
"S.	c #84888F",
"T.	c #7C818A",
"U.	c #5B769D",
"V.	c #5E789F",
"W.	c #3E516F",
"X.	c #344B7B",
"Y.	c #3A5284",
"Z.	c #3A5385",
"`.	c #395485",
" +	c #273A5E",
".+	c #354F7F",
"++	c #395283",
"@+	c #2E446A",
"#+	c #476186",
"$+	c #55729B",
"%+	c #4F6A8F",
"&+	c #BFC0BF",
"*+	c #6D7685",
"=+	c #4F6587",
"-+	c #2E436F",
";+	c #375181",
">+	c #2D436B",
",+	c #273C62",
"'+	c #354E7C",
")+	c #2A3D63",
"!+	c #3C5788",
"~+	c #2B3E5F",
"{+	c #56739C",
"]+	c #B5B6B6",
"^+	c #ABADAF",
"/+	c #646F80",
"(+	c #4C6284",
"_+	c #334874",
":+	c #3A5283",
"<+	c #2E456E",
"[+	c #344D7B",
"}+	c #3B5485",
"|+	c #3B5585",
"1+	c #3B5786",
"2+	c #2F456D",
"3+	c #37507F",
"4+	c #3D5789",
"5+	c #2B3E62",
"6+	c #B4B5B5",
"7+	c #505358",
"8+	c #465B79",
"9+	c #4C6387",
"0+	c #344A74",
"a+	c #2A3E64",
"b+	c #395385",
"c+	c #3A5585",
"d+	c #3B5685",
"e+	c #2E4269",
"f+	c #2A3D5E",
"g+	c #536F96",
"h+	c #B4B5B4",
"i+	c #687080",
"j+	c #455876",
"k+	c #28354A",
"l+	c #324871",
"m+	c #385384",
"n+	c #293E64",
"o+	c #334973",
"p+	c #354D79",
"q+	c #526F98",
"r+	c #526F97",
"s+	c #B4B4B4",
"t+	c #636C7D",
"u+	c #536A8E",
"v+	c #445A7C",
"w+	c #202F4D",
"x+	c #365182",
"y+	c #2D446E",
"z+	c #304772",
"A+	c #395486",
"B+	c #2E446D",
"C+	c #314872",
"D+	c #3C5786",
"E+	c #3C5888",
"F+	c #4B6890",
"G+	c #4B6891",
"H+	c #B4B4B5",
"I+	c #5F6775",
"J+	c #394C66",
"K+	c #364864",
"L+	c #293D63",
"M+	c #293E65",
"N+	c #243558",
"O+	c #375282",
"P+	c #304873",
"Q+	c #2C426A",
"R+	c #364F7E",
"S+	c #2B3E60",
"T+	c #375073",
"U+	c #384F70",
"V+	c #626D7E",
"W+	c #567094",
"X+	c #485F7F",
"Y+	c #334A78",
"Z+	c #344C79",
"`+	c #334A75",
" @	c #2C4061",
".@	c #50709B",
"+@	c #B5B4B5",
"@@	c #626C7D",
"#@	c #607BA2",
"$@	c #495F7F",
"%@	c #364F7D",
"&@	c #385282",
"*@	c #2E446E",
"=@	c #364E7A",
"-@	c #2D3F62",
";@	c #5574A0",
">@	c #B5B5B5",
",@	c #616C7E",
"'@	c #5F7AA1",
")@	c #485D7D",
"!@	c #37507E",
"~@	c #395386",
"{@	c #2A4069",
"]@	c #2B416B",
"^@	c #375080",
"/@	c #3C5585",
"(@	c #2D4062",
"_@	c #56739F",
":@	c #55719B",
"<@	c #5E79A1",
"[@	c #2E4064",
"}@	c #57739E",
"|@	c #567099",
"1@	c #5F6A7C",
"2@	c #5C779F",
"3@	c #495D7D",
"4@	c #3D5687",
"5@	c #2E4063",
"6@	c #57729D",
"7@	c #557099",
"8@	c #5E697B",
"9@	c #5D789F",
"0@	c #374F7F",
"a@	c #2D3F63",
"b@	c #56719D",
"c@	c #B3B3B3",
"d@	c #5D687C",
"e@	c #5D78A0",
"f@	c #495E7E",
"g@	c #384F7F",
"h@	c #3C5486",
"i@	c #3D5787",
"j@	c #3D5788",
"k@	c #2D3E62",
"l@	c #55729D",
"m@	c #54709A",
"n@	c #B0B1B1",
"o@	c #5C677A",
"p@	c #4C6283",
"q@	c #43587B",
"r@	c #374F7D",
"s@	c #4D6790",
"t@	c #49648D",
"u@	c #AEAFAF",
"v@	c #576172",
"w@	c #3B4C66",
"x@	c #364663",
"y@	c #374F7C",
"z@	c #3E5578",
"A@	c #3A5071",
"B@	c #ACADAD",
"C@	c #5D697D",
"D@	c #5B769E",
"E@	c #495E80",
"F@	c #384F7D",
"G@	c #3B5484",
"H@	c #3C5685",
"I@	c #3D5686",
"J@	c #2C3F60",
"K@	c #537199",
"L@	c #547097",
"M@	c #ADAEAE",
"N@	c #5F697D",
"O@	c #5D78A1",
"P@	c #495E7F",
"Q@	c #2B3D5E",
"R@	c #55739B",
"S@	c #56729A",
"T@	c #666F80",
"U@	c #5E78A1",
"V@	c #4A5E7F",
"W@	c #374E7A",
"X@	c #3A5584",
"Y@	c #2C4269",
"Z@	c #304770",
"`@	c #2A3C5D",
" #	c #56739A",
".#	c #567399",
"+#	c #767C88",
"@#	c #5D779F",
"##	c #4C6182",
"$#	c #364C78",
"%#	c #2C4168",
"&#	c #3A5687",
"*#	c #2B3D5D",
"=#	c #546F94",
"-#	c #BBBCBC",
";#	c #51678A",
">#	c #344A73",
",#	c #2F4261",
"'#	c #557199",
")#	c #4E688C",
"!#	c #C8C9C8",
"~#	c #9C9EA2",
"{#	c #59749B",
"]#	c #576F94",
"^#	c #30446B",
"/#	c #3B5584",
"(#	c #354D7A",
"_#	c #314871",
":#	c #324873",
"<#	c #2D4169",
"[#	c #2D4168",
"}#	c #2B4067",
"|#	c #344867",
"1#	c #537098",
"2#	c #475F82",
"3#	c #FCFCFC",
"4#	c #577298",
"5#	c #5C779E",
"6#	c #38517F",
"7#	c #2A3F66",
"8#	c #324A77",
"9#	c #344C7A",
"0#	c #385283",
"a#	c #385381",
"b#	c #394E6E",
"c#	c #53709A",
"d#	c #405676",
"e#	c #CACBCB",
"f#	c #526B90",
"g#	c #324565",
"h#	c #30456D",
"i#	c #364E7B",
"j#	c #314770",
"k#	c #364F7C",
"l#	c #425A7D",
"m#	c #54729C",
"n#	c #4D5C74",
"o#	c #495F80",
"p#	c #5A759D",
"q#	c #3B4E6B",
"r#	c #293C61",
"s#	c #2B4065",
"t#	c #2F4164",
"u#	c #364E7C",
"v#	c #30446D",
"w#	c #4C678E",
"x#	c #7A7F8B",
"y#	c #5B677B",
"z#	c #5A769C",
"A#	c #485D7C",
"B#	c #384E7C",
"C#	c #283A5F",
"D#	c #385383",
"E#	c #525C72",
"F#	c #4D515F",
"G#	c #4E6A93",
"H#	c #A6A6A8",
"I#	c #95979D",
"J#	c #5B779D",
"K#	c #546C90",
"L#	c #2E4068",
"M#	c #2A3B60",
"N#	c #354C7A",
"O#	c #3A5483",
"P#	c #515B74",
"Q#	c #C9CACC",
"R#	c #AAABAF",
"S#	c #465875",
"T#	c #CBCBCC",
"U#	c #C2C2C2",
"V#	c #587398",
"W#	c #556F95",
"X#	c #1B263D",
"Y#	c #395080",
"Z#	c #405270",
"`#	c #B5B6BA",
" $	c #F5F5F5",
".$	c #445570",
"+$	c #3F5172",
"@$	c #3E5174",
"#$	c #3A5381",
"$$	c #536E94",
"%$	c #50698D",
"&$	c #BABABC",
"*$	c #B6B6B7",
"=$	c #656A76",
"-$	c #485E82",
";$	c #3E5177",
">$	c #2F436B",
",$	c #2F405D",
"'$	c #3D506E",
")$	c #475D7D",
"!$	c #C1C1C1",
"~$	c #C5C5C6",
"{$	c #BBBDBE",
"]$	c #435777",
"^$	c #485D7F",
"/$	c #334564",
"($	c #324770",
"_$	c #496082",
":$	c #3E526F",
"<$	c #676D79",
"[$	c #B8B7B8",
"}$	c #4F607A",
"|$	c #5B759B",
"1$	c #485C7C",
"2$	c #395381",
"3$	c #3D5688",
"4$	c #536D90",
"5$	c #B1B3B3",
"6$	c #999BA0",
"7$	c #5A759C",
"8$	c #5D779C",
"9$	c #2E4265",
"0$	c #2E446B",
"a$	c #38507C",
"b$	c #465E7F",
"c$	c #58759A",
"d$	c #495C75",
"e$	c #4E6584",
"f$	c #617BA0",
"g$	c #455977",
"h$	c #2F456E",
"i$	c #344D7A",
"j$	c #304264",
"k$	c #58749C",
"l$	c #58749A",
"m$	c #9D9FA2",
"n$	c #8D9197",
"o$	c #617CA0",
"p$	c #5B7599",
"q$	c #2C3F62",
"r$	c #38527F",
"s$	c #425777",
"t$	c #59759B",
"u$	c #4A5F7B",
"v$	c #506584",
"w$	c #5D769D",
"x$	c #435877",
"y$	c #364D7B",
"z$	c #2A3E62",
"A$	c #2D3F5E",
"B$	c #526D93",
"C$	c #546F95",
"D$	c #9A9C9F",
"E$	c #8F9297",
"F$	c #5A749A",
"G$	c #50678D",
"H$	c #2C3E60",
"I$	c #293E63",
"J$	c #375180",
"K$	c #3B5171",
"L$	c #526E93",
"M$	c #495B75",
"N$	c #475974",
"O$	c #34445C",
"P$	c #3C4E6D",
"Q$	c #304670",
"R$	c #2A3F64",
"S$	c #2F4772",
"T$	c #34496A",
"U$	c #324661",
"V$	c #384D6A",
"W$	c #ABACAE",
"X$	c #AAACAF",
"Y$	c #4A6387",
"Z$	c #3D4F6C",
"`$	c #395282",
" %	c #324973",
".%	c #314874",
"+%	c #2D4163",
"@%	c #526D92",
"#%	c #516E91",
"$%	c #656C78",
"%%	c #6B717E",
"&%	c #5D769A",
"*%	c #304162",
"=%	c #243656",
"-%	c #324972",
";%	c #465F82",
">%	c #58759B",
",%	c #485E7B",
"'%	c #52637F",
")%	c #627BA0",
"!%	c #566D8E",
"~%	c #2F4268",
"{%	c #38517E",
"]%	c #223251",
"^%	c #3A4F6F",
"/%	c #58769E",
"(%	c #A6A7A9",
"_%	c #BCBBBD",
":%	c #617A9E",
"<%	c #4E6381",
"[%	c #30466E",
"}%	c #384868",
"|%	c #2F4369",
"1%	c #314461",
"2%	c #557197",
"3%	c #777D86",
"4%	c #576F8F",
"5%	c #5E7699",
"6%	c #4B5F7B",
"7%	c #585B61",
"8%	c #38507F",
"9%	c #526C91",
"0%	c #567196",
"a%	c #5C6778",
"b%	c #888A90",
"c%	c #597191",
"d%	c #56657C",
"e%	c #696D78",
"f%	c #2C3F63",
"g%	c #3C5487",
"h%	c #2C3F5F",
"i%	c #374C6A",
"j%	c #4E678B",
"k%	c #4E5E76",
"l%	c #868990",
"m%	c #84868C",
"n%	c #4D607D",
"o%	c #496083",
"p%	c #2C3E62",
"q%	c #395182",
"r%	c #314565",
"s%	c #4F6C95",
"t%	c #3C5473",
"u%	c #3F4C60",
"v%	c #E5E6E6",
"w%	c #898B8D",
"x%	c #506686",
"y%	c #5A749B",
"z%	c #536B8F",
"A%	c #2E3F60",
"B%	c #395284",
"C%	c #384C6D",
"D%	c #537099",
"E%	c #4D5F79",
"F%	c #DBDDDC",
"G%	c #9E9FA1",
"H%	c #51698B",
"I%	c #5F7AA0",
"J%	c #384967",
"K%	c #344977",
"L%	c #2E4168",
"M%	c #3D5273",
"N%	c #54719A",
"O%	c #526177",
"P%	c #CBCCCB",
"Q%	c #B9B9BA",
"R%	c #506583",
"S%	c #5C799F",
"T%	c #5A7499",
"U%	c #3F5575",
"V%	c #435B81",
"W%	c #526C93",
"X%	c #616B7B",
"Y%	c #CCCCCC",
"Z%	c #F8F9F9",
"`%	c #5B687B",
" &	c #3E5271",
".&	c #3E5371",
"+&	c #4A6589",
"@&	c #7B7F86",
"#&	c #91949A",
"$&	c #465B7A",
"%&	c #455872",
"&&	c #A8A9AA",
"*&	c #F8F9F8",
"                                                                                                                                ",
"                                                                                                                                ",
"                                                        . + @ # $ % & * =                                                       ",
"                                                - ; > , ' ) ! ~ { ] ^ / ( _ : < [                                               ",
"                                            } | 1 2 3 4 5 6 7 8 9 0 a b c d e / f g h                                           ",
"                                        i j k l m n o p q r s t u v w x y z A B C D E F G H                                     ",
"                                      I J K L M N O P Q R S T U V W X X Y Z `  ...+.@.#.$.%.&.                                  ",
"                                  *.=.-.;.>.,.'.).!.~.{.].].].T ^.U /././.(._.:._.<.[.}.|.1.2.3.                                ",
"                                4.5.6.7.8.9.0.a.b.c.].X T T X X /./.Y (.(._._._.(._.d.e.f.g.h.i.j.                              ",
"                              k.l.m.n.o.p.q.` r.c.c.c.T {.T X X X X s.X (.t._.(.u.Y Y v.a.w.x.y.z.A.                            ",
"                              B.m.C.D.E.F.G.s.H.I.J.K.{.T T X X X L.(.(.t.t.t.L.(.X M.N.Y /.O.P.Q.R.S.                          ",
"                            T.U.V.W.X.Y.Z.Z.].`. +.+`.].].T X X X X X L.L.L.L.L.t.t.e.++Y Y /.@+#+$+%+&+                        ",
"                            *+6 =+-+G.c.Z.Z.].].;+>+,+'+T T X X L.L.L.L.u.L.L.L.t.].)+X Y Y _.!+~+{+y.]+                        ",
"                          ^+/+6 (+_+:+J.J.`.].].c.K.<+[+{.}+|+X L.L.L.u.1+L.L.L.L.2+3+Y u.u._.4+5+v B 6+                        ",
"                            7+8+9+0+S U J.`.`.`.`.].a+b+].c+c+X L.L.L.L.L.L.d+X L.e+U u._._._._.f+y.g+h+                        ",
"                            i+j+k+l+S U m+`.`.K.`.].n+].].{.c+T L.L.L.L.L.L.L.X X o+p+_._.u._.d.f+q+r+s+                        ",
"                            t+u+v+w+p+U m+x+`.K.J.`.y+z+A+T c+L.L.d+L.L.L.L.X X ].B+C+_.u.D+d.E+f+F+G+H+                        ",
"                            I+J+K+.+a+L+M+N+O+b+`.J.b+P+[+c+|+L.d+L.L.L.X d+|+B+Q+R+X u.u.u.d.d.S+T+U+6+                        ",
"                            V+W+X+3+s.K.{.Y+Z+b+b+b+`.`.].c+|+d+L.L.L.L.L.L.`+'+}+|+L.u.D+D+d.d. @.@y.+@                        ",
"                            @@#@$@%@c.c.`.&@*@b+A+].].].c+c+|+L.L.L.L.L.L.Y =@].|+Y u.u.D+u.D+d.-@;@{+>@                        ",
"                            ,@'@)@!@c.J.`.~@{@]@^@].].c+|+d+d+L.L.u.u.L.X Y X Y /@u.u.D+D+D+D+:.(@_@:@6+                        ",
"                            > <@)@3+].Z.].Z.].{.{.c+|+|+|+X L.L.u.L.u.u.u.Y u.u.u.u.u.u.D+d._.!+[@}@|@H+                        ",
"                            1@2@3@).s.{.Z.].}+}+}+}+|+|+X L.L.L.u.Y Y u.Y Y u.u.u.u.u.D+4@_._.:.5@6@7@s+                        ",
"                            8@9@3@0@s.}+s.}+}+}+|+|+X d+X X L.L.u.u.u.u.u.u.u.u.u.u.u.D+d.u._.!+a@b@7@c@                        ",
"                            d@e@f@g@h@s.X }+X X X |+|+X d+L.Y L.u.u.u.u.u.u.u.u.u.u.D+_.d.d.i@j@k@l@m@n@                        ",
"                            o@p@q@r@}+}+}+|+|+X d+|+|+d+X L.Y Y Y u.Y u.u.u.u.u.u.u.u.D+_._.d.j@a@s@t@u@                        ",
"                            v@w@x@y@}+}+|+|+X X |+|+|+|+d+L.u.u.u.u.u.u.u.u.u.u.u.u.u._._.u.i@j@x z@A@B@                        ",
"                            C@D@E@F@G@}+|+|+|+|+|+d+d+L.L.L.X H@u.u.L.L.u.u.u.L.u.u.u.u._.D+I@i@J@K@L@M@                        ",
"                            N@O@P@y@G@R |+c+|+|+|+|+|+/@/@u.H@Y /@L.L.d+|+|+L.L.L.u.u.u.u.u.D+_.Q@R@S@n@                        ",
"                            T@U@V@W@G@X@X@|+|+d+|+|+|+|+|+|+L.d+L.d+L.u.y@Y@Z@L.|+|+L.u.u.u.u.d.`@ #.#h+                        ",
"                            +#@###$#G@R c+c+|+|+|+|+|+|+d+L.H@u.d+u.L.|+|+c+%#&#c+|+X L.u.u.D+d.*#S@=#-#                        ",
"                            I D@;#>#G@X@c+c+|+|+|+].|+|+L.L.u.H@D+L.d+d+|+t.O.J.].].X L.u.L.1+d.,#'#)#!#                        ",
"                            ~#{#]#^#/#R c+|+|+|+X (#_#X |+d+H@u.u.1+L.L.L.(.:#<#[#}#N.t.L.L.t.d.|#1#2#3#                        ",
"                            + 4#5#x G@R ].].R 6#7#8#J.c+|+d+u.H@d+u.L.d+Y }+K.9#0#{.[#a#|+X L.|+b#c#d#                          ",
"                            e#f#2@g#G@R R ].S h#%@{.].c+c+d+d+u.u.u.u.L.Y }+}+].].X i#j#c+c+c+k#l#m#n#                          ",
"                              o#p#q#c.c.R {.{.e.J.c+c+|+|+|+d+d+d+u.u.Y X Y }+|+}+X L.r#s#t#u#v#w#{+x#                          ",
"                              y#z#A#B#S H.%#y+C#T |+|+c+X d+|+|+L.Y Y X Y /@|+}+|+X X D#;+E#; F#G#R@H#                          ",
"                              I#J#K#L#M#N#c.].J.X X X X |+X |+|+/@Y H@/@H@/@/@|+|+|+|+G@R O#P#Q#R#S#T#                          ",
"                              U#V#W#X#Y#/@}+}+X X X X X |+|+|+|+X /@/@Y /@/@Y H@/@/@/@|+|+G@j#Z#`#   $                          ",
"                                .$+$@$#$Y /@X X L.X X d+|+|+|+|+|+|+/@/@/@H@H@u.u.u.Y |+X |+[.$$%$&$  *$                        ",
"                              4.=$-$;$>$L.X X d+L.L.d+X |+/@|+|+|+/@|+/@H@H@H@u.u.u.u.Y u.G@,$'$)$    !$                        ",
"                            ~$  {$]$^$/$u.d+d+L.L.L.L.L.|+/@|+|+|+|+|+d+H@H@H@u.u.u.u.u.I@($_$:$<$    [$                        ",
"                                  }$|$1$y@u./@L.d+L.X |+X |+|+|+2$|+|+d+H@H@H@u.u.u.u.4@3$h.V#4$5$                              ",
"                                  6$7$8$9$d+H@H@u.L.L.X Y Y |+0$R+d+d+d+d+H@u.u.u.I@u.4@a$b$c$d$                                ",
"                                    e$f$g$6#|+/@d+u.X |+/@L.h$i$c+|+d+d+d+H@H@u.u.u.4@j@j$k$l$m$                                ",
"                                    n$o$p$q$|+|+|+X |+|+|+r$%#R |+|+d+d+d+d+u.u.u.u.u.y@s$t$u$                                  ",
"                                      v$w$x$y$|+|+|+X |+|+|+z$K.|+c+|+|+d+d+H@d+u.u._.A$B$C$D$                                  ",
"                                      E$F$G$H$}+|+|+|+|+|+|+I$J$c+d+d+d+|+d+H@/@L.u.C+K$L$M$                                    ",
"                                        N$O$P$Q$Y |+|+|+R R$S$].|+|+|+|+|+/@/@H@u.O#T$U$V$W$                                    ",
"                                        X$Y$7 Z$`$}+|+|+ %.%R |+|+|+|+|+|+/@/@u.u.+%@%#%$%                                      ",
"                                          %%8$&%*%].|+|+=%S |+|+|+|+|+|+/@|+|+X -%;%>%,% $                                      ",
"                                            '%)%!%~%|+{%]%}+X X X X X Y |+/@X r@^%/%=#(%                                        ",
"                                            _%!%:%<%[%}%|%}+|+X X X X |+|+|+6#1%2%>%3%                                          ",
"                                              m$4%5%6%7%8%}+X Y X Y X X |+J$,$9%0%a%                                            ",
"                                                b%c%d%e%f%s.s.X g%Y (.(.!@h%i%j%k%                                              ",
"                                                  l%m%n%o%p%F.s.X X :.q%r%s%t%u%v%                                              ",
"                                                    w%x%y%z%A%B%s.X 9#C%D%g+E%F%                                                ",
"                                                  n@  G%H%I%|$J%K%L%M%N%S@O%3#                                                  ",
"                                                  P%    Q%R%S%T%U%V%W%W%X%                                                      ",
"                                                  Y%      Z%`% # &.&+&@&                                                        ",
"                                                              #&$&%&&&                                                          ",
"                                                                *&                                                              ",
"                                                                                                                                ",
"                                                                                                                                "};
