/* XPM */
static char * 0_xpm[] = {
"54 80 8 1",
" 	c #FF0000",
".	c #FFFFFF",
"+	c #F40D0D",
"@	c #FEFEFE",
"#	c #EF1111",
"$	c #FAF5F5",
"%	c #FCFCFC",
"&	c #FDFDFD",
"                                                      ",
"                                                      ",
"                                                      ",
"                                                      ",
"                                                      ",
"                                                      ",
"                                                      ",
"                                                      ",
"                         ......+                      ",
"                   ................                   ",
"                ......................                ",
"              @.........................              ",
"             ............................             ",
"            ..............................#           ",
"           ................................           ",
"          ..................................          ",
"         ....................................         ",
"         ...............      #...............        ",
"        .............#          +.............        ",
"        ............              .............       ",
"       ............                ............       ",
"       ...........                  ............      ",
"      $..........%                   ...........      ",
"      ...........                     ...........     ",
"      ..........                      ...........     ",
"      ..........                       ..........     ",
"      ..........                       ..........&    ",
"     ..........                        @..........    ",
"     ..........                         ..........    ",
"     ..........                         ..........    ",
"     ..........                         ..........    ",
"     ..........                         ..........    ",
"     .........                           ..........   ",
"     .........                           ..........   ",
"    &.........                           ..........   ",
"    &.........                           ..........   ",
"    &.........                           ..........   ",
"    &.........                           ..........   ",
"    &.........                           ..........   ",
"    &.........                           ..........   ",
"    &.........                           ..........   ",
"    &.........                           ..........   ",
"    &.........                           ..........   ",
"     .........                           ..........   ",
"     .........                           ..........   ",
"     .........                           ..........   ",
"     .........@                          .........    ",
"     ..........                          .........    ",
"     ..........                         ..........    ",
"      .........                         ..........    ",
"      .........                         ..........    ",
"      ..........                        .........     ",
"      ..........                       ..........     ",
"       .........                       ..........     ",
"       ..........                      .........@     ",
"        .........                     ..........      ",
"        ..........                    ..........      ",
"         ..........                  ..........       ",
"         ...........                ...........       ",
"          ...........              ...........        ",
"          ............@          @...........%        ",
"           ..............      ..............         ",
"            ................................          ",
"            ...............................           ",
"             .............................            ",
"              ...........................             ",
"               .........................              ",
"                 .....................                ",
"                  ..................                  ",
"                    .............@                    ",
"                                                      ",
"                                                      ",
"                                                      ",
"                                                      ",
"                                                      ",
"                                                      ",
"                                                      ",
"                                                      ",
"                                                      ",
"                                                      "};
