/* XPM */
static char * 3_xpm[] = {
"53 80 4 1",
" 	c #FF0000",
".	c #FFFFFF",
"+	c #F40D0D",
"@	c #F80808",
"                                                     ",
"                                                     ",
"                                                     ",
"                                                     ",
"                                                     ",
"                                                     ",
"                                                     ",
"                                                     ",
"                                                     ",
"                  ...................                ",
"               ........................              ",
"             ...........................             ",
"            ..............................           ",
"           ................................          ",
"          ..................................         ",
"         ....................................        ",
"        .....................................        ",
"       ..............            .............       ",
"       ............                ...........       ",
"      ............                  ..........       ",
"      ...........                    ..........      ",
"     ...........                     ..........      ",
"     ..........+                      .........      ",
"     ..........                       .........      ",
"     ..........                       .........      ",
"                                      .........      ",
"                                      .........      ",
"                                      .........      ",
"                                      ........       ",
"                                     .........       ",
"                                    +........        ",
"                                   .........@        ",
"                                  .........          ",
"                               ...........           ",
"                          ...............            ",
"                   ....................              ",
"                   ..................                ",
"                   ................                  ",
"                   ..................                ",
"                   .....................             ",
"                   .......................           ",
"                    ........................         ",
"                     ........................        ",
"                                ..............       ",
"                                   ............      ",
"                                    ...........      ",
"                                     ...........     ",
"                                      ..........     ",
"                                       ..........    ",
"                                       ..........    ",
"                                       ..........    ",
"                                       ..........    ",
"                                       ..........    ",
"     ........                          ..........    ",
"   ..........                          ..........    ",
"    ..........                         ..........    ",
"    ..........                        ...........    ",
"    ...........                      ............    ",
"    ............                    ............     ",
"     ............                  .............     ",
"     ..............              ...............     ",
"      ...............          ................      ",
"       .......................................       ",
"        .....................................        ",
"         ....................................        ",
"          .................................          ",
"           ...............................           ",
"             ............................            ",
"               ........................              ",
"                 ...................                 ",
"                     ...........                     ",
"                                                     ",
"                                                     ",
"                                                     ",
"                                                     ",
"                                                     ",
"                                                     ",
"                                                     ",
"                                                     ",
"                                                     "};
