/* XPM */
static char * 4_xpm[] = {
"56 80 9 1",
" 	c #FF0000",
".	c #FFFFFF",
"+	c #FEFEFE",
"@	c #FDFDFD",
"#	c #F9E5E5",
"$	c #F80808",
"%	c #F40D0D",
"&	c #FC0303",
"*	c #FBF5F5",
"                                                        ",
"                                                        ",
"                                                        ",
"                                                        ",
"                                                        ",
"                                                        ",
"                                                        ",
"                                                        ",
"                                                        ",
"                            ...............+            ",
"                           .................            ",
"                          ..................            ",
"                         @..................            ",
"                         ...................            ",
"                        ....................            ",
"                       .....................            ",
"                       .......... ..........            ",
"                      ..........  ..........            ",
"                     ...........  ..........            ",
"                     ..........   ..........            ",
"                    ..........    ..........            ",
"                   ...........    ..........            ",
"                   ..........     ..........            ",
"                  ..........      ..........            ",
"                 ...........      ..........            ",
"                 ..........       ..........            ",
"                ..........        ..........            ",
"               +..........        ..........            ",
"               ..........         ..........            ",
"              ..........         ...........            ",
"              ..........         ...........            ",
"             ..........          ...........            ",
"            ..........           ...........            ",
"            ..........           ...........            ",
"           ..........            ...........            ",
"          +.........             ...........            ",
"          ..........             ...........            ",
"         ..........              ...........            ",
"         .........               ...........            ",
"        .........#               ..........$            ",
"       +.........                ..........%            ",
"       .........                 ..........&            ",
"      .........*                 ..........$            ",
"     +.........                  ..........             ",
"     .........                   ..........             ",
"    .........                    ..........             ",
"    ........+                    ..........             ",
"   .........      .........................             ",
"   ........................................             ",
"   .........................................            ",
"   ...............................................      ",
"   .................................................    ",
"   .................................................    ",
"   .................................................    ",
"   .................................................    ",
"   .................................................    ",
"   .................................................    ",
"   ..........................................  .....    ",
"    ++++++++++++++++++++++        ..........            ",
"                                  ..........            ",
"                                  ..........            ",
"                                  ..........            ",
"                                  ..........            ",
"                                  ..........            ",
"                                  ..........            ",
"                                  ..........            ",
"                                  ..........            ",
"                                  ..........            ",
"                                  ..........            ",
"                                  ..........            ",
"                                                        ",
"                                                        ",
"                                                        ",
"                                                        ",
"                                                        ",
"                                                        ",
"                                                        ",
"                                                        ",
"                                                        ",
"                                                        "};
