/* XPM */
static char * spell_lock_xpm[] = {
"64 64 249 2",
"  	c #040300",
". 	c #161008",
"+ 	c #1B0F09",
"@ 	c #1F170A",
"# 	c #27170E",
"$ 	c #291D10",
"% 	c #2E210F",
"& 	c #2F2316",
"* 	c #342212",
"= 	c #2D251D",
"- 	c #34231D",
"; 	c #352715",
"> 	c #38281C",
", 	c #3A2C1B",
"' 	c #3F2B16",
") 	c #3C2E17",
"! 	c #402D1C",
"~ 	c #452C19",
"{ 	c #3E2E22",
"] 	c #383029",
"^ 	c #42331C",
"/ 	c #483319",
"( 	c #4F3023",
"_ 	c #433724",
": 	c #4E381D",
"< 	c #4D3822",
"[ 	c #4A3831",
"} 	c #4F3918",
"| 	c #493A26",
"1 	c #4D3C1F",
"2 	c #5A3828",
"3 	c #593A1E",
"4 	c #4E3C30",
"5 	c #563D33",
"6 	c #573F1F",
"7 	c #563F24",
"8 	c #524129",
"9 	c #4E4419",
"0 	c #53412F",
"a 	c #534224",
"b 	c #4E423A",
"c 	c #5A432D",
"d 	c #654125",
"e 	c #5B4629",
"f 	c #544830",
"g 	c #5E4625",
"h 	c #614531",
"i 	c #634923",
"j 	c #6A4634",
"k 	c #644C2B",
"l 	c #5C4D44",
"m 	c #614E31",
"n 	c #604E37",
"o 	c #5F5127",
"p 	c #634E41",
"q 	c #6C5040",
"r 	c #6C5230",
"s 	c #6E532C",
"t 	c #675632",
"u 	c #695537",
"v 	c #695447",
"w 	c #6A562D",
"x 	c #64564D",
"y 	c #75523F",
"z 	c #69554D",
"A 	c #71564B",
"B 	c #6B5940",
"C 	c #6F5846",
"D 	c #755748",
"E 	c #6F5C3D",
"F 	c #705B4E",
"G 	c #696033",
"H 	c #6B5D53",
"I 	c #6D5E49",
"J 	c #7A5D4D",
"K 	c #795E52",
"L 	c #79622D",
"M 	c #746245",
"N 	c #875C4B",
"O 	c #77624F",
"P 	c #7C6240",
"Q 	c #77643F",
"R 	c #786255",
"S 	c #706926",
"T 	c #72645A",
"U 	c #806438",
"V 	c #836348",
"W 	c #7B675F",
"X 	c #836655",
"Y 	c #7C6A4D",
"Z 	c #806856",
"` 	c #786A62",
" .	c #7E695B",
"..	c #7D6C46",
"+.	c #826D49",
"@.	c #836C5F",
"#.	c #8A6E40",
"$.	c #8A6C5B",
"%.	c #856F50",
"&.	c #866E5B",
"*.	c #857056",
"=.	c #807167",
"-.	c #837440",
";.	c #877163",
">.	c #877448",
",.	c #92725C",
"'.	c #8F7450",
").	c #91744B",
"!.	c #8B7757",
"~.	c #8A775D",
"{.	c #86786D",
"].	c #947564",
"^.	c #8E7769",
"/.	c #89796A",
"(.	c #8F7864",
"_.	c #8B803F",
":.	c #947C69",
"<.	c #90804A",
"[.	c #9B7B65",
"}.	c #947D70",
"|.	c #907F70",
"1.	c #9D7E4D",
"2.	c #8F7F75",
"3.	c #958243",
"4.	c #96805A",
"5.	c #9A8055",
"6.	c #9D7E6C",
"7.	c #91863D",
"8.	c #978566",
"9.	c #938C39",
"0.	c #96867C",
"a.	c #9C8577",
"b.	c #A18472",
"c.	c #A28668",
"d.	c #A38B7D",
"e.	c #A39049",
"f.	c #999539",
"g.	c #A38F6E",
"h.	c #AA8D74",
"i.	c #A0953D",
"j.	c #A29175",
"k.	c #A88F7B",
"l.	c #A8916B",
"m.	c #A89265",
"n.	c #A39556",
"o.	c #A49831",
"p.	c #A29283",
"q.	c #A89850",
"r.	c #A29D32",
"s.	c #A99674",
"t.	c #A49881",
"u.	c #AC9B4C",
"v.	c #AE9688",
"w.	c #AB9F40",
"x.	c #B59B66",
"y.	c #B39A8A",
"z.	c #B09F5F",
"A.	c #B3A24F",
"B.	c #B4A63C",
"C.	c #B0A64F",
"D.	c #AEA83F",
"E.	c #B2A184",
"F.	c #BDA162",
"G.	c #BA9F85",
"H.	c #AFA938",
"I.	c #BAA174",
"J.	c #B3A490",
"K.	c #BAA75F",
"L.	c #BAA581",
"M.	c #B4B05C",
"N.	c #C2AA81",
"O.	c #BCB348",
"P.	c #BDB53D",
"Q.	c #BCB836",
"R.	c #C8B169",
"S.	c #BFB655",
"T.	c #BFB193",
"U.	c #C8AFA0",
"V.	c #CDB177",
"W.	c #CBB38A",
"X.	c #C7B592",
"Y.	c #C8BB4C",
"Z.	c #C8B68C",
"`.	c #C6B981",
" +	c #C6C047",
".+	c #C8C141",
"++	c #C9BB9D",
"@+	c #CBC525",
"#+	c #CCC435",
"$+	c #D0BC86",
"%+	c #CEBC92",
"&+	c #D1BD7C",
"*+	c #CFBF6D",
"=+	c #CCBFA7",
"-+	c #D3C177",
";+	c #D5BF8F",
">+	c #D1C467",
",+	c #D0C09C",
"'+	c #D0C28A",
")+	c #D0CA47",
"!+	c #D4C481",
"~+	c #D4CA52",
"{+	c #D4CF3A",
"]+	c #D7C990",
"^+	c #D9D42C",
"/+	c #DFC8B5",
"(+	c #DCCC9E",
"_+	c #DBCCA7",
":+	c #DBD453",
"<+	c #DCDA11",
"[+	c #DBDA25",
"}+	c #DFDC00",
"|+	c #E0D368",
"1+	c #E1DB41",
"2+	c #E3D3AE",
"3+	c #E2D5B6",
"4+	c #E5D891",
"5+	c #E5D6C4",
"6+	c #E5DD72",
"7+	c #E6DC7C",
"8+	c #E7E425",
"9+	c #EADF67",
"0+	c #E8DCAA",
"a+	c #EADE90",
"b+	c #ECE81A",
"c+	c #EADE9D",
"d+	c #EAE837",
"e+	c #EDE653",
"f+	c #E9E0B9",
"g+	c #F1ED23",
"h+	c #EFE95F",
"i+	c #F0E685",
"j+	c #EFE967",
"k+	c #F4F013",
"l+	c #F2EE33",
"m+	c #EDE891",
"n+	c #F1EE3F",
"o+	c #F4EA79",
"p+	c #F2F419",
"q+	c #F6EF57",
"r+	c #F5F34E",
"s+	c #F8F904",
"t+	c #FBF631",
"u+	c #F9F648",
"v+	c #FBF73F",
"w+	c #FCFD14",
"x+	c #FBFC27",
"y+	c #FFFF00",
"z+	c #FAFC36",
"y+y+y+y+y+y+y+y+y+y+y+y+y+y+y+y+y+y+y+y+y+y+y+y+y+y+y+y+y+y+y+y+y+y+y+y+y+y+y+y+y+y+y+y+y+y+y+y+y+y+y+y+y+y+y+y+y+y+y+y+y+y+y+y+",
"y+y+y+y+y+y+y+y+y+y+y+y+y+y+y+y+y+y+y+y+y+y+y+y+y+y+y+y+y+y+y+y+y+y+y+y+y+y+y+y+y+y+y+y+y+y+y+y+y+y+y+y+y+y+y+y+y+y+y+y+y+y+y+y+",
"y+y+y+y+y+y+y+y+y+y+y+y+y+y+y+y+y+y+y+y+y+y+y+y+y+y+y+y+y+y+y+y+y+y+y+y+y+y+y+y+y+y+y+y+y+y+y+y+y+y+y+y+y+y+y+y+y+y+y+y+y+y+y+y+",
"y+y+y+y+y+y+y+y+y+y+y+y+y+y+y+y+y+y+y+y+y+y+y+y+y+y+y+y+y+y+y+y+y+y+y+y+y+y+y+y+y+y+y+y+y+y+y+y+y+y+y+y+y+y+y+y+y+y+y+y+y+y+y+y+",
"y+y+y+y+y+y+y+y+y+y+y+y+y+y+y+y+y+y+y+y+y+y+y+y+y+y+y+y+y+y+y+y+y+y+y+y+y+y+y+y+y+y+y+y+y+y+y+y+y+y+y+y+y+y+y+y+y+y+y+y+y+y+y+y+",
"y+y+y+y+y+y+y+y+y+y+y+y+y+y+y+y+y+y+y+y+y+y+y+y+y+y+y+y+y+y+y+y+y+y+y+y+y+y+y+y+y+y+y+y+y+y+y+y+y+y+y+y+y+y+y+y+y+y+y+y+y+y+y+y+",
"y+y+y+y+y+y+y+y+y+y+y+y+y+y+y+y+y+y+y+y+y+y+y+y+y+y+y+y+y+y+y+y+y+y+y+y+y+y+y+y+y+y+y+y+y+y+y+y+y+y+y+y+y+y+y+y+y+y+y+y+y+y+y+y+",
"y+y+y+y+y+y+y+y+y+y+y+y+y+y+y+y+y+y+y+y+y+y+y+y+y+y+y+y+y+y+y+y+y+y+y+y+y+y+y+y+y+y+y+y+y+y+y+y+y+y+y+y+y+y+y+y+y+y+y+y+y+y+0+Z.",
"s.3+y+y+y+y+y+y+y+y+y+y+y+y+y+y+y+y+y+y+y+y+y+y+y+y+y+y+y+y+y+y+y+y+y+y+y+y+y+y+y+y+y+y+y+y+y+y+y+y+y+y+y+y+y+y+y+y+y+y+y+f+T.' ",
"% E 3+y+y+y+y+y+y+y+y+y+y+y+y+y+y+y+y+y+y+y+y+y+y+y+y+y+y+y+y+y+y+y+y+y+y+y+y+y+y+y+y+y+y+y+y+y+y+y+y+y+y+y+y+y+y+y+y+y+2+E.^ $ ",
"y+y+1 T.y+y+y+y+y+y+y+y+y+y+y+y+y+y+y+y+y+y+y+y+y+y+y+y+y+y+y+y+y+y+y+y+y+y+y+y+y+y+y+y+y+y+y+y+y+y+y+y+y+y+y+y+y+y+y+f+j.8 y+| ",
"y+y+y+^ ++y+y+y+y+y+y+y+y+y+y+y+y+y+y+y+y+y+y+y+y+y+y+y+y+y+y+y+y+y+y+y+y+y+y+y+y+y+y+y+y+y+y+y+y+y+y+y+y+y+y+y+y+y+2+j.9 y+y+y+",
"y+y+y+y+) =+y+y+y+y+y+y+y+y+y+y+y+y+y+y+y+y+y+y+y+y+y+y+y+y+y+y+y+y+y+y+y+y+y+y+y+y+y+y+y+y+y+y+y+y+y+y+y+y+y+y+y+x.4.9 y+y+y+y+",
"y+y+y+y+y+a V.y+y+y+y+y+y+y+y+y+y+y+y+y+y+y+y+y+y+y+y+y+y+y+y+y+y+y+y+y+y+y+y+y+y+y+y+y+y+y+y+y+y+y+y+y+y+y+y+y+*+i ) y+y+y+y+u ",
"z.y+y+y+y+> #.y+y+y+y+y+y+y+y+y+y+y+y+y+y+y+y+y+y+y+y+y+y+y+y+y+y+y+y+y+y+y+y+y+y+y+y+y+y+y+y+y+y+y+y+y+y+y+y+y+~./ M m.y+y++.^ ",
"I L.y+y+'.! < y+y+y+y+y+y+y+y+y+y+y+y+y+y+y+y+y+y+y+y+y+y+y+y+y+y+y+y+y+y+y+y+y+y+y+y+y+y+y+y+y+y+y+y+y+y+y+y+y+Y u _+5.M g.^ y+",
", I (.m.Z.! ; y+y+y+y+y+y+y+y+y+y+y+y+y+y+y+y+y+y+y+y+y+y+y+y+y+y+y+y+y+y+y+y+y+y+y+y+y+y+y+y+y+y+y+y+y+y+y+y+y+l.3+8.8 ~.< y+y+",
"y+o _ e X.T.^ ~.y+y+y+y+y+y+y+y+y+y+y+y+y+y+y+y+y+y+y+y+y+y+y+y+y+y+y+y+y+y+y+y+y+y+y+y+y+y+y+y+y+y+y+y+y+y+y+y+%+%.8 _ , y+y+y+",
"y+y+y+M / X.++f E.y+y+y+y+y+y+y+y+y+y+y+y+y+y+y+y+y+y+y+y+y+y+y+y+y+y+y+y+y+y+y+y+y+y+y+y+y+y+y+y+y+y+y+y+y+!+W.r n !.y+y+y+y+y+",
"y+y+y+y+y+1 l.%+Y j.$+y+y+y+y+y+y+y+y+y+y+y+y+y+y+y+y+y+y+y+y+y+y+y+y+y+y+y+y+y+y+y+y+y+y+y+y+y+y+y+y+y+y+&+N.6 E y+y+y+y+y+y+y+",
"y+y+y+y+y+y+< Y _+8.~.;+y+y+y+y+y+y+y+y+y+y+y+y+y+y+y+y+y+y+y+y+y+y+y+y+y+y+y+y+y+y+y+y+y+y+y+y+y+y+y+y+y+U 6 B y+y+y+y+y+y+y+y+",
"y+y+y+y+y+y+y+t s X.N.W.s.%.t._+y+y+y+y+y+y+y+y+y+y+y+y+y+y+y+y+y+y+y+y+y+y+y+y+y+y+y+y+y+y+y+y+(+L.g.g.: ^ B y+y+y+y+y+y+y+y+y+",
"y+y+y+y+y+y+y+y+-./ #.1.P ) $ g X.y+y+y+y+y+y+y+y+y+y+y+y+y+y+y+y+y+y+y+y+y+y+y+y+y+y+y+y+y+y+2+%., P 6 t M y+y+y+y+y+y+y+y+y+y+",
"y+y+y+y+y+y+y+y+y+A.#.6 g s y+y+^ l.y+y+y+y+y+y+y+y+y+y+y+y+y+y+y+y+y+y+y+y+y+y+y+y+y+y+y+y+Z.u S y+: U a @ y+y+y+y+y+y+y+y+y+y+",
"y+y+y+y+y+y+y+y+y+y+< w 1 *.y+y+y+! ~.2+y+y+y+y+y+y+y+y+y+y+y+y+y+y+y+y+y+y+y+y+y+y+y+y+y+N.< y+y+y+B & @ $ y+y+y+y+y+y+y+y+y+y+",
"y+y+y+y+y+y+y+y+y+y+^ . G y+y+y+y+y+f !.;+y+y+y+y+y+y+y+y+y+y+y+y+y+y+y+y+y+y+y+y+y+y+y+N.e y+y+y+y+y+m.).8 y+y+y+y+y+y+y+y+y+y+",
"y+y+y+y+y+y+y+y+y+y+y+% g.'+y+y+y+y+y+B g.$+y+y+y+y+y+y+y+y+y+y+y+y+y+y+y+y+y+y+y+y+y+W.u y+y+y+y+y+'+N.g y+y+y+y+y+y+y+y+y+y+y+",
"y+y+y+y+y+y+y+y+y+y+y+y+1 l.N.y+y+y+3.1.;+,+y+y+y+y+y+y+y+y+y+y+y+y+y+y+y+y+y+y+y+y+I._+W.).y+y+y+I.L.e y+y+y+y+y+y+y+y+y+y+y+y+",
"y+y+y+y+y+y+y+y+y+y+y+y+y+1 n ++y+y+< 7 k L.0+y+y+y+y+y+y+y+y+y+y+y+y+y+y+y+y+y+y+y+_+T.s r y+y+(+s.: y+y+y+y+y+y+y+y+y+y+y+y+y+",
"y+y+y+y+y+y+y+y+y+y+y+y+y+y+m m T.++| ; e e Q ,+y+y+y+y+y+y+y+y+y+y+y+y+y+y+y+y+y+(+l.7 8 | T.Z.%.n y+y+y+y+y+y+y+y+y+y+y+y+y+y+",
"y+y+y+y+y+y+y+y+y+y+y+y+y+y+y+y+g %.%.$ ' _.>.} 4.R.y+y+y+5+/+(+=+_+5+y+y+y+y+y+W.+.m u * m Q 6 y+y+y+y+y+y+y+y+y+y+y+y+y+y+y+y+",
"y+y+y+y+y+y+y+y+y+y+y+y+y+y+y+y+y+y+U P < ..y+e.^ s y+y+U.X j j y j D v./+y+y+x.s B M ! r '.y+y+y+y+y+y+y+y+y+y+y+y+y+y+y+y+y+y+",
"y+y+y+y+y+y+y+y+y+y+y+y+y+y+y+y+y+y+y+y+k ' N.y+y+m i 1.V 2 y+y+y+y+N 2 b.G.#.g B c.0 ) y+y+y+y+y+y+y+y+y+y+y+y+y+y+y+y+y+y+y+y+",
"y+y+y+y+y+y+y+y+y+y+y+y+y+y+y+y+y+y+y+y+y+L 8 E.y+Q e 6 s y+y+y+y+y+y+n.r i : M 8.8.) y+y+y+y+y+y+y+y+y+y+y+y+y+y+y+y+y+y+y+y+y+",
"y+y+y+y+y+y+y+y+y+y+y+y+y+y+y+y+y+y+y+y+y+y+S ) C # & g : y+y+y+y+y+y+y+: } 7 Z *._ y+y+y+y+y+y+y+y+y+y+y+y+y+y+y+y+y+y+y+y+y+y+",
"y+y+y+y+y+y+y+y+y+y+y+y+y+y+y+y+y+y+y+y+y+y+y+y+4 > + * d O y+y+y+y+y+Q 3 3 + > p y+y+y+y+y+y+y+y+y+y+y+y+y+y+y+y+y+y+y+y+y+y+y+",
"y+y+y+y+y+y+y+y+y+y+y+y+y+y+y+y+y+y+y+y+y+y+y+y+q A + # ( y+y+y+y+y+y+3 2 + - 5 y+y+y+y+y+y+y+y+y+y+y+y+y+y+y+y+y+y+y+y+y+y+y+y+",
"y+y+y+y+y+y+y+y+y+y+y+y+y+y+y+y+y+y+y+y+y+y+y+y+D X 4 c y+y+y+y+y+y+y+h ~ = 5 X y+y+y+y+y+y+y+y+y+y+y+y+y+y+y+y+y+y+y+y+y+y+y+y+",
"y+y+y+y+y+y+y+y+y+y+y+y+y+y+y+y+y+y+y+y+y+y+y+y+v.y.y+y+y+y+y+y+y+y+y+y+y+y+A ].y+y+y+y+y+y+y+y+y+y+y+y+y+y+y+y+y+y+y+y+y+y+y+y+",
"y+y+y+y+y+y+y+y+y+y+y+y+y+y+y+y+y+y+y+y+y+y+y+k. .(.X.y+y+y+y+y+y+y+y+y+y+]+J.y.%+y+y+y+y+y+y+y+y+y+y+y+y+y+y+y+y+y+y+y+y+y+y+y+",
"y+y+y+y+y+y+y+y+y+y+y+y+y+y+y+y+y+y+y+y+y+y+h.x |.=.R y+y+y+y+y+y+y+y+y+&+&.|.}.@.y+y+y+y+y+y+y+y+y+y+y+y+y+y+y+y+y+y+y+y+y+y+y+",
"y+y+y+y+y+y+y+y+y+y+y+y+y+y+y+y+y+y+y+y+y+y+[.H R ^.;.h.y+y+y+y+y+y+y+y+b.W ;.:.W y+y+y+y+y+y+y+y+y+y+y+y+y+y+y+y+y+y+y+y+y+y+y+",
"y+y+y+y+y+y+y+y+y+y+y+y+y+y+y+y+y+y+y+y+y+y+[.` R  .a.(.z.`.'+'+]+]+(+Z.;.T O &.l y+y+y+y+y+y+y+y+y+y+y+y+y+y+y+y+y+y+y+y+y+y+y+",
"y+y+y+y+y+y+y+y+y+y+y+y+y+y+y+y+y+y+y+y+y+y+,.a./.d.a.k.a.=.=.{./.` W |.p.d.H v =.y+y+y+y+y+y+y+y+y+y+y+y+y+y+y+y+y+y+y+y+y+y+y+",
"y+y+y+y+y+y+y+y+y+y+y+y+y+y+y+y+y+y+y+y+y+y+,.^.;.;.Z Z $.}.p.y.y.d.:. .(.;.}.;.(.y+y+y+y+y+y+y+y+y+y+y+y+y+y+y+y+y+y+y+y+y+y+y+",
"y+y+y+y+y+y+y+y+y+y+y+y+y+y+y+y+y+y+y+y+y+y+J T ;.^.b.:.Z d.a./.2.v. .&.&.^.}.^.p y+y+y+y+y+y+y+y+y+y+y+y+y+y+y+y+y+y+y+y+y+y+y+",
"y+y+y+y+y+y+y+y+y+y+y+y+y+y+y+y+y+y+y+y+y+y+J R =.R J F {.@.x x x x }.@.}.&.v =.R y+y+y+y+y+y+y+y+y+y+y+y+y+y+y+y+y+y+y+y+y+y+y+",
"y+y+y+y+y+y+y+y+y+y+y+y+y+y+y+y+y+y+y+y+y+y+,.F ^.^.].a.;.x =.p.2.H F 6.6.].}.F O y+y+y+y+y+y+y+y+y+y+y+y+y+y+y+y+y+y+y+y+y+y+y+",
"y+y+y+y+y+y+y+y+y+y+y+y+y+y+y+y+y+y+y+y+y+y+D p ;.R R 0.R T ;.4 v }.l $.6.^.{.z J y+y+y+y+y+y+y+y+y+y+y+y+y+y+y+y+y+y+y+y+y+y+y+",
"y+y+y+y+y+y+y+y+y+y+y+y+y+y+y+y+y+y+y+y+y+y+D H d.2.{.` R =.- = . v ` $.].R ^./.v y+y+y+y+y+y+y+y+y+y+y+y+y+y+y+y+y+y+y+y+y+y+y+",
"y+y+y+y+y+y+y+y+y+y+y+y+y+y+y+y+y+y+y+y+y+y+y+C F 0.2.{.A T 4 ] b F ;.R ].R R F O y+y+y+y+y+y+y+y+y+y+y+y+y+y+y+y+y+y+y+y+y+y+y+",
"y+y+y+y+y+y+y+y+y+y+y+y+y+y+y+y+y+y+y+y+y+y+y+C C @.d.^.[ W R   F T v ` a.^.p v X y+y+y+y+y+y+y+y+y+y+y+y+y+y+y+y+y+y+y+y+y+y+y+",
"y+y+y+y+y+y+y+y+y+y+y+y+y+y+y+y+y+y+y+y+y+y+y+D p A F v { R T   z ;.[ p $.F D F y+y+y+y+y+y+y+y+y+y+y+y+y+y+y+y+y+y+y+y+y+y+y+y+",
"y+y+y+y+y+y+y+y+y+y+y+y+y+y+y+y+y+y+y+y+y+y+y+y+X ;.;. .x { R /.W p l p F Z R J y+y+y+y+y+y+y+y+y+y+y+y+y+y+y+y+y+y+y+y+y+y+y+y+",
"y+y+y+y+y+y+y+y+y+y+y+y+y+y+y+y+y+y+y+y+y+y+y+y+y+C b p ^.b b 2.H ] @.@.F F $.y+y+y+y+y+y+y+y+y+y+y+y+y+y+y+y+y+y+y+y+y+y+y+y+y+",
"y+y+y+y+y+y+y+y+y+y+y+y+y+y+y+y+y+y+y+y+y+y+y+y+y+y+}.T b v =  .] z A x =.(.y+y+y+y+y+y+y+y+y+y+y+y+y+y+y+y+y+y+y+y+y+y+y+y+y+y+",
"y+y+y+y+y+y+y+y+y+y+y+y+y+y+y+y+y+y+y+y+y+y+y+y+y+y+y+@.^.{. .K v ` 2.}.*.y+y+y+y+y+y+y+y+y+y+y+y+y+y+y+y+y+y+y+y+y+y+y+y+y+y+y+",
"y+y+y+y+y+y+y+y+y+y+y+y+y+y+y+y+y+y+y+y+y+y+y+y+y+y+y+y+y+3.q { v X ).y+y+y+y+y+y+y+y+y+y+y+y+y+y+y+y+y+y+y+y+y+y+y+y+y+y+y+y+y+",
"y+y+y+y+y+y+y+y+y+y+y+y+y+y+y+y+y+y+y+y+y+y+y+y+y+y+y+y+y+y+y+y+y+y+y+y+y+y+y+y+y+y+y+y+y+y+y+y+y+y+y+y+y+y+y+y+y+y+y+y+y+y+y+y+",
"y+y+y+y+y+y+y+y+y+y+y+y+y+y+y+y+y+y+y+y+y+y+y+y+y+y+y+y+y+y+y+y+y+y+y+y+y+y+y+y+y+y+y+y+y+y+y+y+y+y+y+y+y+y+y+y+y+y+y+y+y+y+y+y+",
"y+y+y+y+y+y+y+y+y+y+y+y+y+y+y+y+y+y+y+y+y+y+y+y+y+y+y+y+y+y+y+y+y+y+y+y+y+y+y+y+y+y+y+y+y+y+y+y+y+y+y+y+y+y+y+y+y+y+y+y+y+y+y+y+",
"y+y+y+y+y+y+y+y+y+y+y+y+y+y+y+y+y+y+y+y+y+y+y+y+y+y+y+y+y+y+y+y+y+y+y+y+y+y+y+y+y+y+y+y+y+y+y+y+y+y+y+y+y+y+y+y+y+y+y+y+y+y+y+y+",
"y+y+y+y+y+y+y+y+y+y+y+y+y+y+y+y+y+y+y+y+y+y+y+y+y+y+y+y+y+y+y+y+y+y+y+y+y+y+y+y+y+y+y+y+y+y+y+y+y+y+y+y+y+y+y+y+y+y+y+y+y+y+y+y+",
"y+y+y+y+y+y+y+y+y+y+y+y+y+y+y+y+y+y+y+y+y+y+y+y+y+y+y+y+y+y+y+y+y+y+y+y+y+y+y+y+y+y+y+y+y+y+y+y+y+y+y+y+y+y+y+y+y+y+y+y+y+y+y+y+"};
